<?xml version="1.0" encoding="UTF-8" standalone="no"?>
<!DOCTYPE svg PUBLIC "-//W3C//DTD SVG 1.1//EN"
 "http://www.w3.org/Graphics/SVG/1.1/DTD/svg11.dtd">
<!-- Generated by graphviz version 14.1.4 (20260321.0153)
 -->
<!-- Title: src/alerts.c Pages: 1 -->
<svg width="186pt" height="140pt"
 viewBox="0.00 0.00 186.00 140.00" xmlns="http://www.w3.org/2000/svg" xmlns:xlink="http://www.w3.org/1999/xlink">
<g id="graph0" class="graph" transform="scale(1 1) rotate(0) translate(4 136)">
<title>src/alerts.c</title>
<!-- Node1 -->
<g id="Node000001" class="node">
<title>Node1</title>
<g id="a_Node000001"><a xlink:title="Implementation of alert record generation from vital sign readings.">
<polygon fill="#999999" stroke="#666666" points="121.5,-132 56.75,-132 56.75,-112 121.5,-112 121.5,-132"/>
<text xml:space="preserve" text-anchor="middle" x="89.12" y="-118.5" font-family="Helvetica,sans-Serif" font-size="10.00">src/alerts.c</text>
</a>
</g>
</g>
<!-- Node2 -->
<g id="Node000002" class="node">
<title>Node2</title>
<g id="a_Node000002"><a xlink:href="alerts_8h.html" target="_top" xlink:title="Alert record generation from a set of vital sign measurements.">
<polygon fill="white" stroke="#666666" points="48.25,-76 0,-76 0,-56 48.25,-56 48.25,-76"/>
<text xml:space="preserve" text-anchor="middle" x="24.12" y="-62.5" font-family="Helvetica,sans-Serif" font-size="10.00">alerts.h</text>
</a>
</g>
</g>
<!-- Node1&#45;&gt;Node2 -->
<g id="edge1_Node000001_Node000002" class="edge">
<title>Node1&#45;&gt;Node2</title>
<g id="a_edge1_Node000001_Node000002"><a xlink:title=" ">
<path fill="none" stroke="#63b8ff" d="M77.8,-111.59C68.48,-103.85 55.05,-92.69 43.95,-83.47"/>
<polygon fill="#63b8ff" stroke="#63b8ff" points="46.41,-80.96 36.48,-77.27 41.94,-86.35 46.41,-80.96"/>
</a>
</g>
</g>
<!-- Node4 -->
<g id="Node000004" class="node">
<title>Node4</title>
<g id="a_Node000004"><a xlink:title=" ">
<polygon fill="#e0e0e0" stroke="#999999" points="111.75,-76 66.5,-76 66.5,-56 111.75,-56 111.75,-76"/>
<text xml:space="preserve" text-anchor="middle" x="89.12" y="-62.5" font-family="Helvetica,sans-Serif" font-size="10.00">stdio.h</text>
</a>
</g>
</g>
<!-- Node1&#45;&gt;Node4 -->
<g id="edge3_Node000001_Node000004" class="edge">
<title>Node1&#45;&gt;Node4</title>
<g id="a_edge3_Node000001_Node000004"><a xlink:title=" ">
<path fill="none" stroke="#63b8ff" d="M89.12,-111.59C89.12,-105.01 89.12,-95.96 89.12,-87.73"/>
<polygon fill="#63b8ff" stroke="#63b8ff" points="92.63,-87.81 89.13,-77.81 85.63,-87.81 92.63,-87.81"/>
</a>
</g>
</g>
<!-- Node5 -->
<g id="Node000005" class="node">
<title>Node5</title>
<g id="a_Node000005"><a xlink:title=" ">
<polygon fill="#e0e0e0" stroke="#999999" points="178.25,-76 130,-76 130,-56 178.25,-56 178.25,-76"/>
<text xml:space="preserve" text-anchor="middle" x="154.12" y="-62.5" font-family="Helvetica,sans-Serif" font-size="10.00">string.h</text>
</a>
</g>
</g>
<!-- Node1&#45;&gt;Node5 -->
<g id="edge4_Node000001_Node000005" class="edge">
<title>Node1&#45;&gt;Node5</title>
<g id="a_edge4_Node000001_Node000005"><a xlink:title=" ">
<path fill="none" stroke="#63b8ff" d="M100.45,-111.59C109.77,-103.85 123.2,-92.69 134.3,-83.47"/>
<polygon fill="#63b8ff" stroke="#63b8ff" points="136.31,-86.35 141.77,-77.27 131.84,-80.96 136.31,-86.35"/>
</a>
</g>
</g>
<!-- Node3 -->
<g id="Node000003" class="node">
<title>Node3</title>
<g id="a_Node000003"><a xlink:href="vitals_8h.html" target="_top" xlink:title="Vital signs data types, thresholds, and validation functions.">
<polygon fill="white" stroke="#666666" points="47.88,-20 0.38,-20 0.38,0 47.88,0 47.88,-20"/>
<text xml:space="preserve" text-anchor="middle" x="24.12" y="-6.5" font-family="Helvetica,sans-Serif" font-size="10.00">vitals.h</text>
</a>
</g>
</g>
<!-- Node2&#45;&gt;Node3 -->
<g id="edge2_Node000002_Node000003" class="edge">
<title>Node2&#45;&gt;Node3</title>
<g id="a_edge2_Node000002_Node000003"><a xlink:title=" ">
<path fill="none" stroke="#63b8ff" d="M24.12,-55.59C24.12,-49.01 24.12,-39.96 24.12,-31.73"/>
<polygon fill="#63b8ff" stroke="#63b8ff" points="27.63,-31.81 24.13,-21.81 20.63,-31.81 27.63,-31.81"/>
</a>
</g>
</g>
</g>
</svg>
