<?xml version="1.0" encoding="UTF-8" standalone="no"?>
<!DOCTYPE svg PUBLIC "-//W3C//DTD SVG 1.1//EN"
 "http://www.w3.org/Graphics/SVG/1.1/DTD/svg11.dtd">
<!-- Generated by graphviz version 14.1.4 (20260321.0153)
 -->
<!-- Title: include/alerts.h Pages: 1 -->
<svg width="258pt" height="140pt"
 viewBox="0.00 0.00 258.00 140.00" xmlns="http://www.w3.org/2000/svg" xmlns:xlink="http://www.w3.org/1999/xlink">

<svg id="main" version="1.1" xmlns="http://www.w3.org/2000/svg" xmlns:xlink="http://www.w3.org/1999/xlink" xml:space="preserve">

<style type="text/css"><![CDATA[
.node, .edge {opacity: 0.7;}
.node.selected, .edge.selected {opacity: 1;}
.edge:hover path { stroke: red; }
.edge:hover polygon { stroke: red; fill: red; }
]]></style>
<script type="application/ecmascript" xlink:href="svg.min.js"/>
<svg id="graph" class="graph">
<g id="graph0" class="graph" transform="scale(1 1) rotate(0) translate(4 136)">
<title>include/alerts.h</title>
<!-- Node1 -->
<g id="Node000001" class="node">
<title>Node1</title>
<g id="a_Node000001"><a xlink:title="Alert record generation from a set of vital sign measurements.">
<polygon fill="#999999" stroke="#666666" points="164.88,-132 82.88,-132 82.88,-112 164.88,-112 164.88,-132"/>
<text xml:space="preserve" text-anchor="middle" x="123.88" y="-118.5" font-family="Helvetica,sans-Serif" font-size="10.00">include/alerts.h</text>
</a>
</g>
</g>
<!-- Node2 -->
<g id="Node000002" class="node">
<title>Node2</title>
<g id="a_Node000002"><a xlink:href="patient_8h.html" target="_top" xlink:title="Patient record management — demographic data and vital sign history.">
<polygon fill="white" stroke="#666666" points="167.5,-76 80.25,-76 80.25,-56 167.5,-56 167.5,-76"/>
<text xml:space="preserve" text-anchor="middle" x="123.88" y="-62.5" font-family="Helvetica,sans-Serif" font-size="10.00">include/patient.h</text>
</a>
</g>
</g>
<!-- Node1&#45;&gt;Node2 -->
<g id="edge1_Node000001_Node000002" class="edge">
<title>Node1&#45;&gt;Node2</title>
<g id="a_edge1_Node000001_Node000002"><a xlink:title=" ">
<path fill="none" stroke="#63b8ff" d="M123.88,-100.13C123.88,-91.9 123.88,-82.85 123.88,-76.3"/>
<polygon fill="#63b8ff" stroke="#63b8ff" points="120.38,-100.08 123.88,-110.08 127.38,-100.08 120.38,-100.08"/>
</a>
</g>
</g>
<!-- Node3 -->
<g id="Node000003" class="node">
<title>Node3</title>
<g id="a_Node000003"><a xlink:href="gui__main_8c.html" target="_top" xlink:title="Win32 GUI entry point — Patient Vital Signs Monitor.">
<polygon fill="white" stroke="#666666" points="79.75,-20 0,-20 0,0 79.75,0 79.75,-20"/>
<text xml:space="preserve" text-anchor="middle" x="39.88" y="-6.5" font-family="Helvetica,sans-Serif" font-size="10.00">src/gui_main.c</text>
</a>
</g>
</g>
<!-- Node1&#45;&gt;Node3 -->
<g id="edge6_Node000001_Node000003" class="edge">
<title>Node1&#45;&gt;Node3</title>
<g id="a_edge6_Node000001_Node000003"><a xlink:title=" ">
<path fill="none" stroke="#63b8ff" d="M100.7,-104.82C90.63,-96.96 79.24,-86.87 70.88,-76 57.15,-58.17 47.4,-33.28 42.82,-20.07"/>
<polygon fill="#63b8ff" stroke="#63b8ff" points="98.5,-107.54 108.61,-110.72 102.69,-101.93 98.5,-107.54"/>
</a>
</g>
</g>
<!-- Node6 -->
<g id="Node000006" class="node">
<title>Node6</title>
<g id="a_Node000006"><a xlink:href="alerts_8c.html" target="_top" xlink:title="Implementation of alert record generation from vital sign readings.">
<polygon fill="white" stroke="#666666" points="250.25,-76 185.5,-76 185.5,-56 250.25,-56 250.25,-76"/>
<text xml:space="preserve" text-anchor="middle" x="217.88" y="-62.5" font-family="Helvetica,sans-Serif" font-size="10.00">src/alerts.c</text>
</a>
</g>
</g>
<!-- Node1&#45;&gt;Node6 -->
<g id="edge5_Node000001_Node000006" class="edge">
<title>Node1&#45;&gt;Node6</title>
<g id="a_edge5_Node000001_Node000006"><a xlink:title=" ">
<path fill="none" stroke="#63b8ff" d="M149.85,-106.08C166.32,-96.62 187.13,-84.66 201.37,-76.48"/>
<polygon fill="#63b8ff" stroke="#63b8ff" points="148.49,-102.82 141.56,-110.84 151.98,-108.89 148.49,-102.82"/>
</a>
</g>
</g>
<!-- Node2&#45;&gt;Node3 -->
<g id="edge2_Node000002_Node000003" class="edge">
<title>Node2&#45;&gt;Node3</title>
<g id="a_edge2_Node000002_Node000003"><a xlink:title=" ">
<path fill="none" stroke="#63b8ff" d="M99.83,-49.54C85.25,-40.17 67.11,-28.51 54.62,-20.48"/>
<polygon fill="#63b8ff" stroke="#63b8ff" points="97.67,-52.31 107.97,-54.78 101.45,-46.42 97.67,-52.31"/>
</a>
</g>
</g>
<!-- Node4 -->
<g id="Node000004" class="node">
<title>Node4</title>
<g id="a_Node000004"><a xlink:href="main_8c.html" target="_top" xlink:title="Application entry point — simulated patient monitoring session.">
<polygon fill="white" stroke="#666666" points="159.75,-20 98,-20 98,0 159.75,0 159.75,-20"/>
<text xml:space="preserve" text-anchor="middle" x="128.88" y="-6.5" font-family="Helvetica,sans-Serif" font-size="10.00">src/main.c</text>
</a>
</g>
</g>
<!-- Node2&#45;&gt;Node4 -->
<g id="edge3_Node000002_Node000004" class="edge">
<title>Node2&#45;&gt;Node4</title>
<g id="a_edge3_Node000002_Node000004"><a xlink:title=" ">
<path fill="none" stroke="#63b8ff" d="M125.81,-44.13C126.57,-35.9 127.41,-26.85 128.01,-20.3"/>
<polygon fill="#63b8ff" stroke="#63b8ff" points="122.32,-43.81 124.89,-54.09 129.29,-44.45 122.32,-43.81"/>
</a>
</g>
</g>
<!-- Node5 -->
<g id="Node000005" class="node">
<title>Node5</title>
<g id="a_Node000005"><a xlink:href="patient_8c.html" target="_top" xlink:title="Implementation of patient record management functions.">
<polygon fill="white" stroke="#666666" points="247.88,-20 177.88,-20 177.88,0 247.88,0 247.88,-20"/>
<text xml:space="preserve" text-anchor="middle" x="212.88" y="-6.5" font-family="Helvetica,sans-Serif" font-size="10.00">src/patient.c</text>
</a>
</g>
</g>
<!-- Node2&#45;&gt;Node5 -->
<g id="edge4_Node000002_Node000005" class="edge">
<title>Node2&#45;&gt;Node5</title>
<g id="a_edge4_Node000002_Node000005"><a xlink:title=" ">
<path fill="none" stroke="#63b8ff" d="M148.91,-49.81C164.43,-40.39 183.9,-28.58 197.25,-20.48"/>
<polygon fill="#63b8ff" stroke="#63b8ff" points="147.41,-46.63 140.67,-54.81 151.04,-52.61 147.41,-46.63"/>
</a>
</g>
</g>
</g>
</svg>
</svg>

<style type='text/css'>
<![CDATA[
[data-mouse-over-selected='false'] { opacity: 0.7; }
[data-mouse-over-selected='true']  { opacity: 1.0; }
]]>
</style>
<script type="application/ecmascript"><![CDATA[
document.addEventListener('DOMContentLoaded', (event) => {
  highlightEdges();
  highlightAdjacentNodes();
});
]]></script>
</svg>
