<?xml version="1.0" encoding="UTF-8" standalone="no"?>
<!DOCTYPE svg PUBLIC "-//W3C//DTD SVG 1.1//EN"
 "http://www.w3.org/Graphics/SVG/1.1/DTD/svg11.dtd">
<!-- Generated by graphviz version 14.1.4 (20260321.0153)
 -->
<!-- Title: parse_int_field Pages: 1 -->
<svg width="486pt" height="104pt"
 viewBox="0.00 0.00 486.00 104.00" xmlns="http://www.w3.org/2000/svg" xmlns:xlink="http://www.w3.org/1999/xlink">
<g id="graph0" class="graph" transform="scale(1 1) rotate(0) translate(4 100)">
<title>parse_int_field</title>
<!-- Node1 -->
<g id="Node000001" class="node">
<title>Node1</title>
<g id="a_Node000001"><a xlink:title=" ">
<polygon fill="#999999" stroke="#666666" points="478.25,-77 399.25,-77 399.25,-57 478.25,-57 478.25,-77"/>
<text xml:space="preserve" text-anchor="middle" x="438.75" y="-63.5" font-family="Helvetica,sans-Serif" font-size="10.00">parse_int_field</text>
</a>
</g>
</g>
<!-- Node2 -->
<g id="Node000002" class="node">
<title>Node2</title>
<g id="a_Node000002"><a xlink:href="gui__main_8c.html#a9d7273263f3a31bf701590beb4c5b1d1" target="_top" xlink:title="Record a new vital signs reading from the vitals entry fields. @req SWR&#45;GUI&#45;004.">
<polygon fill="white" stroke="#666666" points="271.5,-96 187.25,-96 187.25,-76 271.5,-76 271.5,-96"/>
<text xml:space="preserve" text-anchor="middle" x="229.38" y="-82.5" font-family="Helvetica,sans-Serif" font-size="10.00">do_add_reading</text>
</a>
</g>
</g>
<!-- Node1&#45;&gt;Node2 -->
<g id="edge1_Node000001_Node000002" class="edge">
<title>Node1&#45;&gt;Node2</title>
<g id="a_edge1_Node000001_Node000002"><a xlink:title=" ">
<path fill="none" stroke="#63b8ff" d="M388.15,-71.54C352.65,-74.8 305.4,-79.13 271.89,-82.2"/>
<polygon fill="#63b8ff" stroke="#63b8ff" points="388.08,-75.07 397.72,-70.67 387.45,-68.09 388.08,-75.07"/>
</a>
</g>
</g>
<!-- Node5 -->
<g id="Node000005" class="node">
<title>Node5</title>
<g id="a_Node000005"><a xlink:href="gui__main_8c.html#a6bed6b36812029c7bc2eb263a12e5c98" target="_top" xlink:title="Admit a patient from the identity fields. @req SWR&#45;GUI&#45;004.">
<polygon fill="white" stroke="#666666" points="363.25,-58 307.5,-58 307.5,-38 363.25,-38 363.25,-58"/>
<text xml:space="preserve" text-anchor="middle" x="335.38" y="-44.5" font-family="Helvetica,sans-Serif" font-size="10.00">do_admit</text>
</a>
</g>
</g>
<!-- Node1&#45;&gt;Node5 -->
<g id="edge4_Node000001_Node000005" class="edge">
<title>Node1&#45;&gt;Node5</title>
<g id="a_edge4_Node000001_Node000005"><a xlink:title=" ">
<path fill="none" stroke="#63b8ff" d="M387.67,-57.61C379.41,-56.07 371.13,-54.51 363.7,-53.12"/>
<polygon fill="#63b8ff" stroke="#63b8ff" points="386.88,-61.03 397.36,-59.43 388.17,-54.15 386.88,-61.03"/>
</a>
</g>
</g>
<!-- Node3 -->
<g id="Node000003" class="node">
<title>Node3</title>
<g id="a_Node000003"><a xlink:href="gui__main_8c.html#a50c9496063704973573429586a90b27d" target="_top" xlink:title=" ">
<polygon fill="white" stroke="#666666" points="151.25,-58 90.25,-58 90.25,-38 151.25,-38 151.25,-58"/>
<text xml:space="preserve" text-anchor="middle" x="120.75" y="-44.5" font-family="Helvetica,sans-Serif" font-size="10.00">dash_proc</text>
</a>
</g>
</g>
<!-- Node2&#45;&gt;Node3 -->
<g id="edge2_Node000002_Node000003" class="edge">
<title>Node2&#45;&gt;Node3</title>
<g id="a_edge2_Node000002_Node000003"><a xlink:title=" ">
<path fill="none" stroke="#63b8ff" d="M188.41,-71.76C176.02,-67.34 162.6,-62.56 151.07,-58.45"/>
<polygon fill="#63b8ff" stroke="#63b8ff" points="186.94,-74.95 197.53,-75.01 189.29,-68.35 186.94,-74.95"/>
</a>
</g>
</g>
<!-- Node4 -->
<g id="Node000004" class="node">
<title>Node4</title>
<g id="a_Node000004"><a xlink:href="gui__main_8c.html#aab234127c99873cb463e482155cb679f" target="_top" xlink:title=" ">
<polygon fill="white" stroke="#666666" points="54.25,-58 0,-58 0,-38 54.25,-38 54.25,-58"/>
<text xml:space="preserve" text-anchor="middle" x="27.12" y="-44.5" font-family="Helvetica,sans-Serif" font-size="10.00">WinMain</text>
</a>
</g>
</g>
<!-- Node3&#45;&gt;Node4 -->
<g id="edge3_Node000003_Node000004" class="edge">
<title>Node3&#45;&gt;Node4</title>
<g id="a_edge3_Node000003_Node000004"><a xlink:title=" ">
<path fill="none" stroke="#63b8ff" d="M78.7,-48C70.53,-48 62.16,-48 54.63,-48"/>
<polygon fill="#63b8ff" stroke="#63b8ff" points="78.49,-51.5 88.49,-48 78.49,-44.5 78.49,-51.5"/>
</a>
</g>
</g>
<!-- Node5&#45;&gt;Node2 -->
<g id="edge6_Node000005_Node000002" class="edge">
<title>Node5&#45;&gt;Node2</title>
<g id="a_edge6_Node000005_Node000002"><a xlink:title=" ">
<path fill="none" stroke="#63b8ff" d="M296.53,-61.83C284.13,-66.36 270.57,-71.31 258.97,-75.55"/>
<polygon fill="#63b8ff" stroke="#63b8ff" points="297.44,-65.22 305.63,-58.5 295.03,-58.65 297.44,-65.22"/>
</a>
</g>
</g>
<!-- Node5&#45;&gt;Node3 -->
<g id="edge5_Node000005_Node000003" class="edge">
<title>Node5&#45;&gt;Node3</title>
<g id="a_edge5_Node000005_Node000003"><a xlink:title=" ">
<path fill="none" stroke="#63b8ff" d="M295.74,-48C254.33,-48 189.48,-48 151.75,-48"/>
<polygon fill="#63b8ff" stroke="#63b8ff" points="295.5,-51.5 305.5,-48 295.5,-44.5 295.5,-51.5"/>
</a>
</g>
</g>
<!-- Node6 -->
<g id="Node000006" class="node">
<title>Node6</title>
<g id="a_Node000006"><a xlink:href="gui__main_8c.html#a9106ea80981b1db52b607a5e58f0ecf3" target="_top" xlink:title=" ">
<polygon fill="white" stroke="#666666" points="263.62,-20 195.12,-20 195.12,0 263.62,0 263.62,-20"/>
<text xml:space="preserve" text-anchor="middle" x="229.38" y="-6.5" font-family="Helvetica,sans-Serif" font-size="10.00">do_scenario</text>
</a>
</g>
</g>
<!-- Node5&#45;&gt;Node6 -->
<g id="edge7_Node000005_Node000006" class="edge">
<title>Node5&#45;&gt;Node6</title>
<g id="a_edge7_Node000005_Node000006"><a xlink:title=" ">
<path fill="none" stroke="#63b8ff" d="M296.53,-34.17C284.13,-29.64 270.57,-24.69 258.97,-20.45"/>
<polygon fill="#63b8ff" stroke="#63b8ff" points="295.03,-37.35 305.63,-37.5 297.44,-30.78 295.03,-37.35"/>
</a>
</g>
</g>
<!-- Node6&#45;&gt;Node3 -->
<g id="edge8_Node000006_Node000003" class="edge">
<title>Node6&#45;&gt;Node3</title>
<g id="a_edge8_Node000006_Node000003"><a xlink:title=" ">
<path fill="none" stroke="#63b8ff" d="M188.41,-24.24C176.02,-28.66 162.6,-33.44 151.07,-37.55"/>
<polygon fill="#63b8ff" stroke="#63b8ff" points="189.29,-27.65 197.53,-20.99 186.94,-21.05 189.29,-27.65"/>
</a>
</g>
</g>
</g>
</svg>
