<?xml version="1.0" encoding="UTF-8" standalone="no"?>
<!DOCTYPE svg PUBLIC "-//W3C//DTD SVG 1.1//EN"
 "http://www.w3.org/Graphics/SVG/1.1/DTD/svg11.dtd">
<!-- Generated by graphviz version 14.1.4 (20260321.0153)
 -->
<!-- Title: font_all_children Pages: 1 -->
<svg width="282pt" height="66pt"
 viewBox="0.00 0.00 282.00 66.00" xmlns="http://www.w3.org/2000/svg" xmlns:xlink="http://www.w3.org/1999/xlink">
<g id="graph0" class="graph" transform="scale(1 1) rotate(0) translate(4 62)">
<title>font_all_children</title>
<!-- Node1 -->
<g id="Node000001" class="node">
<title>Node1</title>
<g id="a_Node000001"><a xlink:title=" ">
<polygon fill="#999999" stroke="#666666" points="273.75,-39 187.25,-39 187.25,-19 273.75,-19 273.75,-39"/>
<text xml:space="preserve" text-anchor="middle" x="230.5" y="-25.5" font-family="Helvetica,sans-Serif" font-size="10.00">font_all_children</text>
</a>
</g>
</g>
<!-- Node2 -->
<g id="Node000002" class="node">
<title>Node2</title>
<g id="a_Node000002"><a xlink:href="gui__main_8c.html#a50c9496063704973573429586a90b27d" target="_top" xlink:title=" ">
<polygon fill="white" stroke="#666666" points="151.25,-58 90.25,-58 90.25,-38 151.25,-38 151.25,-58"/>
<text xml:space="preserve" text-anchor="middle" x="120.75" y="-44.5" font-family="Helvetica,sans-Serif" font-size="10.00">dash_proc</text>
</a>
</g>
</g>
<!-- Node1&#45;&gt;Node2 -->
<g id="edge1_Node000001_Node000002" class="edge">
<title>Node1&#45;&gt;Node2</title>
<g id="a_edge1_Node000001_Node000002"><a xlink:title=" ">
<path fill="none" stroke="#63b8ff" d="M175.74,-38.48C167.49,-39.94 159.23,-41.39 151.75,-42.71"/>
<polygon fill="#63b8ff" stroke="#63b8ff" points="176.18,-41.96 185.42,-36.77 174.97,-35.06 176.18,-41.96"/>
</a>
</g>
</g>
<!-- Node4 -->
<g id="Node000004" class="node">
<title>Node4</title>
<g id="a_Node000004"><a xlink:href="gui__main_8c.html#ab5a6eab1941232f61da34dc646009e99" target="_top" xlink:title=" ">
<polygon fill="white" stroke="#666666" points="150.88,-20 90.62,-20 90.62,0 150.88,0 150.88,-20"/>
<text xml:space="preserve" text-anchor="middle" x="120.75" y="-6.5" font-family="Helvetica,sans-Serif" font-size="10.00">login_proc</text>
</a>
</g>
</g>
<!-- Node1&#45;&gt;Node4 -->
<g id="edge3_Node000001_Node000004" class="edge">
<title>Node1&#45;&gt;Node4</title>
<g id="a_edge3_Node000001_Node000004"><a xlink:title=" ">
<path fill="none" stroke="#63b8ff" d="M175.8,-19.53C167.29,-18.03 158.77,-16.53 151.1,-15.17"/>
<polygon fill="#63b8ff" stroke="#63b8ff" points="174.97,-22.94 185.42,-21.23 176.18,-16.04 174.97,-22.94"/>
</a>
</g>
</g>
<!-- Node3 -->
<g id="Node000003" class="node">
<title>Node3</title>
<g id="a_Node000003"><a xlink:href="gui__main_8c.html#aab234127c99873cb463e482155cb679f" target="_top" xlink:title=" ">
<polygon fill="white" stroke="#666666" points="54.25,-39 0,-39 0,-19 54.25,-19 54.25,-39"/>
<text xml:space="preserve" text-anchor="middle" x="27.12" y="-25.5" font-family="Helvetica,sans-Serif" font-size="10.00">WinMain</text>
</a>
</g>
</g>
<!-- Node2&#45;&gt;Node3 -->
<g id="edge2_Node000002_Node000003" class="edge">
<title>Node2&#45;&gt;Node3</title>
<g id="a_edge2_Node000002_Node000003"><a xlink:title=" ">
<path fill="none" stroke="#63b8ff" d="M78.98,-39.55C70.72,-37.83 62.24,-36.07 54.63,-34.5"/>
<polygon fill="#63b8ff" stroke="#63b8ff" points="78.02,-42.92 88.52,-41.52 79.44,-36.07 78.02,-42.92"/>
</a>
</g>
</g>
<!-- Node4&#45;&gt;Node3 -->
<g id="edge4_Node000004_Node000003" class="edge">
<title>Node4&#45;&gt;Node3</title>
<g id="a_edge4_Node000004_Node000003"><a xlink:title=" ">
<path fill="none" stroke="#63b8ff" d="M79.11,-18.43C70.75,-20.16 62.16,-21.94 54.47,-23.54"/>
<polygon fill="#63b8ff" stroke="#63b8ff" points="79.69,-21.88 88.77,-16.42 78.27,-15.03 79.69,-21.88"/>
</a>
</g>
</g>
</g>
</svg>
