<?xml version="1.0" encoding="UTF-8" standalone="no"?>
<!DOCTYPE svg PUBLIC "-//W3C//DTD SVG 1.1//EN"
 "http://www.w3.org/Graphics/SVG/1.1/DTD/svg11.dtd">
<!-- Generated by graphviz version 14.1.4 (20260321.0153)
 -->
<!-- Title: login_proc Pages: 1 -->
<svg width="327pt" height="275pt"
 viewBox="0.00 0.00 327.00 275.00" xmlns="http://www.w3.org/2000/svg" xmlns:xlink="http://www.w3.org/1999/xlink">

<svg id="main" version="1.1" xmlns="http://www.w3.org/2000/svg" xmlns:xlink="http://www.w3.org/1999/xlink" xml:space="preserve">

<style type="text/css"><![CDATA[
.node, .edge {opacity: 0.7;}
.node.selected, .edge.selected {opacity: 1;}
.edge:hover path { stroke: red; }
.edge:hover polygon { stroke: red; fill: red; }
]]></style>
<script type="application/ecmascript" xlink:href="svg.min.js"/>
<svg id="graph" class="graph">
<g id="graph0" class="graph" transform="scale(1 1) rotate(0) translate(4 271)">
<title>login_proc</title>
<!-- Node1 -->
<g id="Node000001" class="node">
<title>Node1</title>
<g id="a_Node000001"><a xlink:title=" ">
<polygon fill="#999999" stroke="#666666" points="60.25,-115 0,-115 0,-95 60.25,-95 60.25,-115"/>
<text xml:space="preserve" text-anchor="middle" x="30.12" y="-101.5" font-family="Helvetica,sans-Serif" font-size="10.00">login_proc</text>
</a>
</g>
</g>
<!-- Node2 -->
<g id="Node000002" class="node">
<title>Node2</title>
<g id="a_Node000002"><a xlink:href="gui__main_8c.html#a51e990e1b26cc2a1c2e8e602d3b13cf5" target="_top" xlink:title="Attempt login from the username/password controls.">
<polygon fill="white" stroke="#666666" points="176.75,-210 102.25,-210 102.25,-190 176.75,-190 176.75,-210"/>
<text xml:space="preserve" text-anchor="middle" x="139.5" y="-196.5" font-family="Helvetica,sans-Serif" font-size="10.00">attempt_login</text>
</a>
</g>
</g>
<!-- Node1&#45;&gt;Node2 -->
<g id="edge1_Node000001_Node000002" class="edge">
<title>Node1&#45;&gt;Node2</title>
<g id="a_edge1_Node000001_Node000002"><a xlink:title=" ">
<path fill="none" stroke="#63b8ff" d="M37.78,-115.37C48.45,-131.3 70.79,-161.95 96.25,-181 97.76,-182.13 99.34,-183.21 100.97,-184.24"/>
<polygon fill="#63b8ff" stroke="#63b8ff" points="98.92,-187.1 109.37,-188.88 102.31,-180.98 98.92,-187.1"/>
</a>
</g>
</g>
<!-- Node7 -->
<g id="Node000007" class="node">
<title>Node7</title>
<g id="a_Node000007"><a xlink:href="gui__main_8c.html#a18faa01dfc1221353f0ca130f5647098" target="_top" xlink:title=" ">
<polygon fill="white" stroke="#666666" points="176.75,-172 102.25,-172 102.25,-152 176.75,-152 176.75,-172"/>
<text xml:space="preserve" text-anchor="middle" x="139.5" y="-158.5" font-family="Helvetica,sans-Serif" font-size="10.00">draw_text_ex</text>
</a>
</g>
</g>
<!-- Node1&#45;&gt;Node7 -->
<g id="edge6_Node000001_Node000007" class="edge">
<title>Node1&#45;&gt;Node7</title>
<g id="a_edge6_Node000001_Node000007"><a xlink:title=" ">
<path fill="none" stroke="#63b8ff" d="M47.72,-115.34C60.72,-123.28 79.37,-134.31 96.25,-143 98.75,-144.29 101.36,-145.58 104,-146.85"/>
<polygon fill="#63b8ff" stroke="#63b8ff" points="102.25,-149.89 112.79,-150.94 105.2,-143.55 102.25,-149.89"/>
</a>
</g>
</g>
<!-- Node8 -->
<g id="Node000008" class="node">
<title>Node8</title>
<g id="a_Node000008"><a xlink:href="gui__main_8c.html#a44c4ee73fc9a634398e794afaf73d079" target="_top" xlink:title=" ">
<polygon fill="white" stroke="#666666" points="163.25,-134 115.75,-134 115.75,-114 163.25,-114 163.25,-134"/>
<text xml:space="preserve" text-anchor="middle" x="139.5" y="-120.5" font-family="Helvetica,sans-Serif" font-size="10.00">fill_rect</text>
</a>
</g>
</g>
<!-- Node1&#45;&gt;Node8 -->
<g id="edge7_Node000001_Node000008" class="edge">
<title>Node1&#45;&gt;Node8</title>
<g id="a_edge7_Node000001_Node000008"><a xlink:title=" ">
<path fill="none" stroke="#63b8ff" d="M60.75,-110.24C74.23,-112.63 90.27,-115.47 104.26,-117.94"/>
<polygon fill="#63b8ff" stroke="#63b8ff" points="103.49,-121.36 113.95,-119.66 104.71,-114.47 103.49,-121.36"/>
</a>
</g>
</g>
<!-- Node9 -->
<g id="Node000009" class="node">
<title>Node9</title>
<g id="a_Node000009"><a xlink:href="gui__main_8c.html#ae6a2186998a99a63c5e56e56fcb3174d" target="_top" xlink:title=" ">
<polygon fill="white" stroke="#666666" points="182.75,-96 96.25,-96 96.25,-76 182.75,-76 182.75,-96"/>
<text xml:space="preserve" text-anchor="middle" x="139.5" y="-82.5" font-family="Helvetica,sans-Serif" font-size="10.00">font_all_children</text>
</a>
</g>
</g>
<!-- Node1&#45;&gt;Node9 -->
<g id="edge8_Node000001_Node000009" class="edge">
<title>Node1&#45;&gt;Node9</title>
<g id="a_edge8_Node000001_Node000009"><a xlink:title=" ">
<path fill="none" stroke="#63b8ff" d="M60.75,-99.76C68.26,-98.43 76.56,-96.96 84.87,-95.49"/>
<polygon fill="#63b8ff" stroke="#63b8ff" points="85.38,-98.95 94.62,-93.76 84.16,-92.06 85.38,-98.95"/>
</a>
</g>
</g>
<!-- Node10 -->
<g id="Node000010" class="node">
<title>Node10</title>
<g id="a_Node000010"><a xlink:href="gui__main_8c.html#aba2b03bc9043c42771599f03493ddb81" target="_top" xlink:title=" ">
<polygon fill="white" stroke="#666666" points="170,-58 109,-58 109,-38 170,-38 170,-58"/>
<text xml:space="preserve" text-anchor="middle" x="139.5" y="-44.5" font-family="Helvetica,sans-Serif" font-size="10.00">make_edit</text>
</a>
</g>
</g>
<!-- Node1&#45;&gt;Node10 -->
<g id="edge9_Node000001_Node000010" class="edge">
<title>Node1&#45;&gt;Node10</title>
<g id="a_edge9_Node000001_Node000010"><a xlink:title=" ">
<path fill="none" stroke="#63b8ff" d="M47.72,-94.66C60.72,-86.72 79.37,-75.69 96.25,-67 98.75,-65.71 101.36,-64.42 104,-63.15"/>
<polygon fill="#63b8ff" stroke="#63b8ff" points="105.2,-66.45 112.79,-59.06 102.25,-60.11 105.2,-66.45"/>
</a>
</g>
</g>
<!-- Node11 -->
<g id="Node000011" class="node">
<title>Node11</title>
<g id="a_Node000011"><a xlink:href="gui__main_8c.html#a68601212c34811f3fdfa6c26760d3b3b" target="_top" xlink:title=" ">
<polygon fill="white" stroke="#666666" points="172.25,-20 106.75,-20 106.75,0 172.25,0 172.25,-20"/>
<text xml:space="preserve" text-anchor="middle" x="139.5" y="-6.5" font-family="Helvetica,sans-Serif" font-size="10.00">make_label</text>
</a>
</g>
</g>
<!-- Node1&#45;&gt;Node11 -->
<g id="edge10_Node000001_Node000011" class="edge">
<title>Node1&#45;&gt;Node11</title>
<g id="a_edge10_Node000001_Node000011"><a xlink:title=" ">
<path fill="none" stroke="#63b8ff" d="M37.78,-94.63C48.45,-78.7 70.79,-48.05 96.25,-29 97.76,-27.87 99.34,-26.79 100.97,-25.76"/>
<polygon fill="#63b8ff" stroke="#63b8ff" points="102.31,-29.02 109.37,-21.12 98.92,-22.9 102.31,-29.02"/>
</a>
</g>
</g>
<!-- Node3 -->
<g id="Node000003" class="node">
<title>Node3</title>
<g id="a_Node000003"><a xlink:href="gui__auth_8c.html#a92304d324761670e4b4267b7a3c0693a" target="_top" xlink:title="Return a human&#45;readable display name for a validated username.">
<polygon fill="white" stroke="#666666" points="318.75,-267 218.75,-267 218.75,-247 318.75,-247 318.75,-267"/>
<text xml:space="preserve" text-anchor="middle" x="268.75" y="-253.5" font-family="Helvetica,sans-Serif" font-size="10.00">auth_display_name</text>
</a>
</g>
</g>
<!-- Node2&#45;&gt;Node3 -->
<g id="edge2_Node000002_Node000003" class="edge">
<title>Node2&#45;&gt;Node3</title>
<g id="a_edge2_Node000002_Node000003"><a xlink:title=" ">
<path fill="none" stroke="#63b8ff" d="M160.88,-210.47C176.55,-218.37 198.81,-229.31 218.75,-238 222.1,-239.46 225.59,-240.92 229.11,-242.36"/>
<polygon fill="#63b8ff" stroke="#63b8ff" points="227.61,-245.53 238.2,-245.98 230.2,-239.03 227.61,-245.53"/>
</a>
</g>
</g>
<!-- Node4 -->
<g id="Node000004" class="node">
<title>Node4</title>
<g id="a_Node000004"><a xlink:href="gui__auth_8c.html#a89879c6685a6b662a08bd4e868130363" target="_top" xlink:title="Validate a username/password pair against the built&#45;in credential.">
<polygon fill="white" stroke="#666666" points="305.62,-229 231.88,-229 231.88,-209 305.62,-209 305.62,-229"/>
<text xml:space="preserve" text-anchor="middle" x="268.75" y="-215.5" font-family="Helvetica,sans-Serif" font-size="10.00">auth_validate</text>
</a>
</g>
</g>
<!-- Node2&#45;&gt;Node4 -->
<g id="edge3_Node000002_Node000004" class="edge">
<title>Node2&#45;&gt;Node4</title>
<g id="a_edge3_Node000002_Node000004"><a xlink:title=" ">
<path fill="none" stroke="#63b8ff" d="M176.96,-205.44C190.53,-207.47 206.11,-209.8 220.5,-211.94"/>
<polygon fill="#63b8ff" stroke="#63b8ff" points="219.82,-215.38 230.22,-213.4 220.85,-208.46 219.82,-215.38"/>
</a>
</g>
</g>
<!-- Node5 -->
<g id="Node000005" class="node">
<title>Node5</title>
<g id="a_Node000005"><a xlink:href="gui__main_8c.html#a05facbe4e175f66ff55a4882c983d058" target="_top" xlink:title=" ">
<polygon fill="white" stroke="#666666" points="315.38,-191 222.12,-191 222.12,-171 315.38,-171 315.38,-191"/>
<text xml:space="preserve" text-anchor="middle" x="268.75" y="-177.5" font-family="Helvetica,sans-Serif" font-size="10.00">create_dashboard</text>
</a>
</g>
</g>
<!-- Node2&#45;&gt;Node5 -->
<g id="edge4_Node000002_Node000005" class="edge">
<title>Node2&#45;&gt;Node5</title>
<g id="a_edge4_Node000002_Node000005"><a xlink:title=" ">
<path fill="none" stroke="#63b8ff" d="M176.96,-194.56C187.43,-192.99 199.1,-191.25 210.5,-189.55"/>
<polygon fill="#63b8ff" stroke="#63b8ff" points="210.88,-193.03 220.25,-188.09 209.85,-186.11 210.88,-193.03"/>
</a>
</g>
</g>
<!-- Node6 -->
<g id="Node000006" class="node">
<title>Node6</title>
<g id="a_Node000006"><a xlink:href="gui__main_8c.html#adfa90e96e8fab8b5af641dd49e420791" target="_top" xlink:title=" ">
<polygon fill="white" stroke="#666666" points="291.75,-153 245.75,-153 245.75,-133 291.75,-133 291.75,-153"/>
<text xml:space="preserve" text-anchor="middle" x="268.75" y="-139.5" font-family="Helvetica,sans-Serif" font-size="10.00">get_txt</text>
</a>
</g>
</g>
<!-- Node2&#45;&gt;Node6 -->
<g id="edge5_Node000002_Node000006" class="edge">
<title>Node2&#45;&gt;Node6</title>
<g id="a_edge5_Node000002_Node000006"><a xlink:title=" ">
<path fill="none" stroke="#63b8ff" d="M164.31,-189.61C170.36,-186.88 176.82,-183.89 182.75,-181 199.01,-173.06 202.29,-169.51 218.75,-162 224.01,-159.6 229.67,-157.23 235.21,-155.01"/>
<polygon fill="#63b8ff" stroke="#63b8ff" points="236.11,-158.41 244.16,-151.53 233.57,-151.89 236.11,-158.41"/>
</a>
</g>
</g>
</g>
</svg>
</svg>

<style type='text/css'>
<![CDATA[
[data-mouse-over-selected='false'] { opacity: 0.7; }
[data-mouse-over-selected='true']  { opacity: 1.0; }
]]>
</style>
<script type="application/ecmascript"><![CDATA[
document.addEventListener('DOMContentLoaded', (event) => {
  highlightEdges();
  highlightAdjacentNodes();
});
]]></script>
</svg>
