<?xml version="1.0" encoding="UTF-8" standalone="no"?>
<!DOCTYPE svg PUBLIC "-//W3C//DTD SVG 1.1//EN"
 "http://www.w3.org/Graphics/SVG/1.1/DTD/svg11.dtd">
<!-- Generated by graphviz version 14.1.4 (20260321.0153)
 -->
<!-- Title: make_edit Pages: 1 -->
<svg width="401pt" height="66pt"
 viewBox="0.00 0.00 401.00 66.00" xmlns="http://www.w3.org/2000/svg" xmlns:xlink="http://www.w3.org/1999/xlink">
<g id="graph0" class="graph" transform="scale(1 1) rotate(0) translate(4 62)">
<title>make_edit</title>
<!-- Node1 -->
<g id="Node000001" class="node">
<title>Node1</title>
<g id="a_Node000001"><a xlink:title=" ">
<polygon fill="#999999" stroke="#666666" points="393.25,-39 332.25,-39 332.25,-19 393.25,-19 393.25,-39"/>
<text xml:space="preserve" text-anchor="middle" x="362.75" y="-25.5" font-family="Helvetica,sans-Serif" font-size="10.00">make_edit</text>
</a>
</g>
</g>
<!-- Node2 -->
<g id="Node000002" class="node">
<title>Node2</title>
<g id="a_Node000002"><a xlink:href="gui__main_8c.html#a6abeadd1e2c5eabbf581278df6fc80dc" target="_top" xlink:title="Create all dashboard child controls. @req SWR&#45;GUI&#45;004.">
<polygon fill="white" stroke="#666666" points="296.25,-58 187.25,-58 187.25,-38 296.25,-38 296.25,-58"/>
<text xml:space="preserve" text-anchor="middle" x="241.75" y="-44.5" font-family="Helvetica,sans-Serif" font-size="10.00">create_dash_controls</text>
</a>
</g>
</g>
<!-- Node1&#45;&gt;Node2 -->
<g id="edge1_Node000001_Node000002" class="edge">
<title>Node1&#45;&gt;Node2</title>
<g id="a_edge1_Node000001_Node000002"><a xlink:title=" ">
<path fill="none" stroke="#63b8ff" d="M320.69,-35.56C312.94,-36.79 304.72,-38.11 296.64,-39.4"/>
<polygon fill="#63b8ff" stroke="#63b8ff" points="321.21,-39.02 330.53,-33.98 320.11,-32.1 321.21,-39.02"/>
</a>
</g>
</g>
<!-- Node5 -->
<g id="Node000005" class="node">
<title>Node5</title>
<g id="a_Node000005"><a xlink:href="gui__main_8c.html#ab5a6eab1941232f61da34dc646009e99" target="_top" xlink:title=" ">
<polygon fill="white" stroke="#666666" points="150.88,-20 90.62,-20 90.62,0 150.88,0 150.88,-20"/>
<text xml:space="preserve" text-anchor="middle" x="120.75" y="-6.5" font-family="Helvetica,sans-Serif" font-size="10.00">login_proc</text>
</a>
</g>
</g>
<!-- Node1&#45;&gt;Node5 -->
<g id="edge4_Node000001_Node000005" class="edge">
<title>Node1&#45;&gt;Node5</title>
<g id="a_edge4_Node000001_Node000005"><a xlink:title=" ">
<path fill="none" stroke="#63b8ff" d="M320.58,-25.74C272.39,-21.93 193.79,-15.7 151.28,-12.34"/>
<polygon fill="#63b8ff" stroke="#63b8ff" points="320.09,-29.21 330.33,-26.51 320.64,-22.23 320.09,-29.21"/>
</a>
</g>
</g>
<!-- Node3 -->
<g id="Node000003" class="node">
<title>Node3</title>
<g id="a_Node000003"><a xlink:href="gui__main_8c.html#a50c9496063704973573429586a90b27d" target="_top" xlink:title=" ">
<polygon fill="white" stroke="#666666" points="151.25,-58 90.25,-58 90.25,-38 151.25,-38 151.25,-58"/>
<text xml:space="preserve" text-anchor="middle" x="120.75" y="-44.5" font-family="Helvetica,sans-Serif" font-size="10.00">dash_proc</text>
</a>
</g>
</g>
<!-- Node2&#45;&gt;Node3 -->
<g id="edge2_Node000002_Node000003" class="edge">
<title>Node2&#45;&gt;Node3</title>
<g id="a_edge2_Node000002_Node000003"><a xlink:title=" ">
<path fill="none" stroke="#63b8ff" d="M175.49,-48C167.21,-48 159.07,-48 151.74,-48"/>
<polygon fill="#63b8ff" stroke="#63b8ff" points="175.31,-51.5 185.31,-48 175.31,-44.5 175.31,-51.5"/>
</a>
</g>
</g>
<!-- Node4 -->
<g id="Node000004" class="node">
<title>Node4</title>
<g id="a_Node000004"><a xlink:href="gui__main_8c.html#aab234127c99873cb463e482155cb679f" target="_top" xlink:title=" ">
<polygon fill="white" stroke="#666666" points="54.25,-39 0,-39 0,-19 54.25,-19 54.25,-39"/>
<text xml:space="preserve" text-anchor="middle" x="27.12" y="-25.5" font-family="Helvetica,sans-Serif" font-size="10.00">WinMain</text>
</a>
</g>
</g>
<!-- Node3&#45;&gt;Node4 -->
<g id="edge3_Node000003_Node000004" class="edge">
<title>Node3&#45;&gt;Node4</title>
<g id="a_edge3_Node000003_Node000004"><a xlink:title=" ">
<path fill="none" stroke="#63b8ff" d="M78.98,-39.55C70.72,-37.83 62.24,-36.07 54.63,-34.5"/>
<polygon fill="#63b8ff" stroke="#63b8ff" points="78.02,-42.92 88.52,-41.52 79.44,-36.07 78.02,-42.92"/>
</a>
</g>
</g>
<!-- Node5&#45;&gt;Node4 -->
<g id="edge5_Node000005_Node000004" class="edge">
<title>Node5&#45;&gt;Node4</title>
<g id="a_edge5_Node000005_Node000004"><a xlink:title=" ">
<path fill="none" stroke="#63b8ff" d="M79.11,-18.43C70.75,-20.16 62.16,-21.94 54.47,-23.54"/>
<polygon fill="#63b8ff" stroke="#63b8ff" points="79.69,-21.88 88.77,-16.42 78.27,-15.03 79.69,-21.88"/>
</a>
</g>
</g>
</g>
</svg>
