<?xml version="1.0" encoding="UTF-8" standalone="no"?>
<!DOCTYPE svg PUBLIC "-//W3C//DTD SVG 1.1//EN"
 "http://www.w3.org/Graphics/SVG/1.1/DTD/svg11.dtd">
<!-- Generated by graphviz version 14.1.4 (20260321.0153)
 -->
<!-- Title: set_txt Pages: 1 -->
<svg width="346pt" height="78pt"
 viewBox="0.00 0.00 346.00 78.00" xmlns="http://www.w3.org/2000/svg" xmlns:xlink="http://www.w3.org/1999/xlink">

<svg id="main" version="1.1" xmlns="http://www.w3.org/2000/svg" xmlns:xlink="http://www.w3.org/1999/xlink" xml:space="preserve">

<style type="text/css"><![CDATA[
.node, .edge {opacity: 0.7;}
.node.selected, .edge.selected {opacity: 1;}
.edge:hover path { stroke: red; }
.edge:hover polygon { stroke: red; fill: red; }
]]></style>
<script type="application/ecmascript" xlink:href="svg.min.js"/>
<svg id="graph" class="graph">
<g id="graph0" class="graph" transform="scale(1 1) rotate(0) translate(4 74.47)">
<title>set_txt</title>
<!-- Node1 -->
<g id="Node000001" class="node">
<title>Node1</title>
<g id="a_Node000001"><a xlink:title=" ">
<polygon fill="#999999" stroke="#666666" points="337.75,-58 291.75,-58 291.75,-38 337.75,-38 337.75,-58"/>
<text xml:space="preserve" text-anchor="middle" x="314.75" y="-44.5" font-family="Helvetica,sans-Serif" font-size="10.00">set_txt</text>
</a>
</g>
</g>
<!-- Node2 -->
<g id="Node000002" class="node">
<title>Node2</title>
<g id="a_Node000002"><a xlink:href="gui__main_8c.html#a50c9496063704973573429586a90b27d" target="_top" xlink:title=" ">
<polygon fill="white" stroke="#666666" points="151.25,-58 90.25,-58 90.25,-38 151.25,-38 151.25,-58"/>
<text xml:space="preserve" text-anchor="middle" x="120.75" y="-44.5" font-family="Helvetica,sans-Serif" font-size="10.00">dash_proc</text>
</a>
</g>
</g>
<!-- Node1&#45;&gt;Node2 -->
<g id="edge1_Node000001_Node000002" class="edge">
<title>Node1&#45;&gt;Node2</title>
<g id="a_edge1_Node000001_Node000002"><a xlink:title=" ">
<path fill="none" stroke="#63b8ff" d="M280.51,-60.88C272.52,-63.41 263.93,-65.69 255.75,-67 225.69,-71.8 217.39,-71.28 187.25,-67 175.18,-65.28 162.21,-61.87 151.03,-58.41"/>
<polygon fill="#63b8ff" stroke="#63b8ff" points="281.53,-64.23 289.87,-57.68 279.27,-57.6 281.53,-64.23"/>
</a>
</g>
</g>
<!-- Node4 -->
<g id="Node000004" class="node">
<title>Node4</title>
<g id="a_Node000004"><a xlink:href="gui__main_8c.html#a11329148e25059d43a9d848bf4f90d4b" target="_top" xlink:title=" ">
<polygon fill="white" stroke="#666666" points="247.88,-58 195.12,-58 195.12,-38 247.88,-38 247.88,-58"/>
<text xml:space="preserve" text-anchor="middle" x="221.5" y="-44.5" font-family="Helvetica,sans-Serif" font-size="10.00">do_clear</text>
</a>
</g>
</g>
<!-- Node1&#45;&gt;Node4 -->
<g id="edge3_Node000001_Node000004" class="edge">
<title>Node1&#45;&gt;Node4</title>
<g id="a_edge3_Node000001_Node000004"><a xlink:title=" ">
<path fill="none" stroke="#63b8ff" d="M280.27,-48C269.7,-48 258.2,-48 248.27,-48"/>
<polygon fill="#63b8ff" stroke="#63b8ff" points="280.15,-51.5 290.15,-48 280.15,-44.5 280.15,-51.5"/>
</a>
</g>
</g>
<!-- Node5 -->
<g id="Node000005" class="node">
<title>Node5</title>
<g id="a_Node000005"><a xlink:href="gui__main_8c.html#a9106ea80981b1db52b607a5e58f0ecf3" target="_top" xlink:title=" ">
<polygon fill="white" stroke="#666666" points="255.75,-20 187.25,-20 187.25,0 255.75,0 255.75,-20"/>
<text xml:space="preserve" text-anchor="middle" x="221.5" y="-6.5" font-family="Helvetica,sans-Serif" font-size="10.00">do_scenario</text>
</a>
</g>
</g>
<!-- Node1&#45;&gt;Node5 -->
<g id="edge5_Node000001_Node000005" class="edge">
<title>Node1&#45;&gt;Node5</title>
<g id="a_edge5_Node000001_Node000005"><a xlink:title=" ">
<path fill="none" stroke="#63b8ff" d="M281.11,-34.41C270.09,-29.82 257.96,-24.77 247.61,-20.46"/>
<polygon fill="#63b8ff" stroke="#63b8ff" points="279.69,-37.61 290.26,-38.22 282.38,-31.14 279.69,-37.61"/>
</a>
</g>
</g>
<!-- Node3 -->
<g id="Node000003" class="node">
<title>Node3</title>
<g id="a_Node000003"><a xlink:href="gui__main_8c.html#aab234127c99873cb463e482155cb679f" target="_top" xlink:title=" ">
<polygon fill="white" stroke="#666666" points="54.25,-58 0,-58 0,-38 54.25,-38 54.25,-58"/>
<text xml:space="preserve" text-anchor="middle" x="27.12" y="-44.5" font-family="Helvetica,sans-Serif" font-size="10.00">WinMain</text>
</a>
</g>
</g>
<!-- Node2&#45;&gt;Node3 -->
<g id="edge2_Node000002_Node000003" class="edge">
<title>Node2&#45;&gt;Node3</title>
<g id="a_edge2_Node000002_Node000003"><a xlink:title=" ">
<path fill="none" stroke="#63b8ff" d="M78.7,-48C70.53,-48 62.16,-48 54.63,-48"/>
<polygon fill="#63b8ff" stroke="#63b8ff" points="78.49,-51.5 88.49,-48 78.49,-44.5 78.49,-51.5"/>
</a>
</g>
</g>
<!-- Node4&#45;&gt;Node2 -->
<g id="edge4_Node000004_Node000002" class="edge">
<title>Node4&#45;&gt;Node2</title>
<g id="a_edge4_Node000004_Node000002"><a xlink:title=" ">
<path fill="none" stroke="#63b8ff" d="M183.38,-48C172.85,-48 161.54,-48 151.51,-48"/>
<polygon fill="#63b8ff" stroke="#63b8ff" points="183.3,-51.5 193.3,-48 183.3,-44.5 183.3,-51.5"/>
</a>
</g>
</g>
<!-- Node5&#45;&gt;Node2 -->
<g id="edge6_Node000005_Node000002" class="edge">
<title>Node5&#45;&gt;Node2</title>
<g id="a_edge6_Node000005_Node000002"><a xlink:title=" ">
<path fill="none" stroke="#63b8ff" d="M182.79,-24.51C171.51,-28.85 159.37,-33.52 148.91,-37.55"/>
<polygon fill="#63b8ff" stroke="#63b8ff" points="183.77,-27.89 191.84,-21.03 181.25,-21.35 183.77,-27.89"/>
</a>
</g>
</g>
</g>
</svg>
</svg>

<style type='text/css'>
<![CDATA[
[data-mouse-over-selected='false'] { opacity: 0.7; }
[data-mouse-over-selected='true']  { opacity: 1.0; }
]]>
</style>
<script type="application/ecmascript"><![CDATA[
document.addEventListener('DOMContentLoaded', (event) => {
  highlightEdges();
  highlightAdjacentNodes();
});
]]></script>
</svg>
