<?xml version="1.0" encoding="UTF-8" standalone="no"?>
<!DOCTYPE svg PUBLIC "-//W3C//DTD SVG 1.1//EN"
 "http://www.w3.org/Graphics/SVG/1.1/DTD/svg11.dtd">
<!-- Generated by graphviz version 14.1.4 (20260321.0153)
 -->
<!-- Title: attempt_login Pages: 1 -->
<svg width="219pt" height="142pt"
 viewBox="0.00 0.00 219.00 142.00" xmlns="http://www.w3.org/2000/svg" xmlns:xlink="http://www.w3.org/1999/xlink">

<svg id="main" version="1.1" xmlns="http://www.w3.org/2000/svg" xmlns:xlink="http://www.w3.org/1999/xlink" xml:space="preserve">

<style type="text/css"><![CDATA[
.node, .edge {opacity: 0.7;}
.node.selected, .edge.selected {opacity: 1;}
.edge:hover path { stroke: red; }
.edge:hover polygon { stroke: red; fill: red; }
]]></style>
<script type="application/ecmascript" xlink:href="svg.min.js"/>
<svg id="graph" class="graph">
<g id="graph0" class="graph" transform="scale(1 1) rotate(0) translate(4 138)">
<title>attempt_login</title>
<!-- Node1 -->
<g id="Node000001" class="node">
<title>Node1</title>
<g id="a_Node000001"><a xlink:title="Attempt login from the username/password controls.">
<polygon fill="#999999" stroke="#666666" points="74.5,-77 0,-77 0,-57 74.5,-57 74.5,-77"/>
<text xml:space="preserve" text-anchor="middle" x="37.25" y="-63.5" font-family="Helvetica,sans-Serif" font-size="10.00">attempt_login</text>
</a>
</g>
</g>
<!-- Node2 -->
<g id="Node000002" class="node">
<title>Node2</title>
<g id="a_Node000002"><a xlink:href="gui__auth_8c.html#a92304d324761670e4b4267b7a3c0693a" target="_top" xlink:title="Return a human&#45;readable display name for a validated username.">
<polygon fill="white" stroke="#666666" points="210.5,-134 110.5,-134 110.5,-114 210.5,-114 210.5,-134"/>
<text xml:space="preserve" text-anchor="middle" x="160.5" y="-120.5" font-family="Helvetica,sans-Serif" font-size="10.00">auth_display_name</text>
</a>
</g>
</g>
<!-- Node1&#45;&gt;Node2 -->
<g id="edge1_Node000001_Node000002" class="edge">
<title>Node1&#45;&gt;Node2</title>
<g id="a_edge1_Node000001_Node000002"><a xlink:title=" ">
<path fill="none" stroke="#63b8ff" d="M56.67,-77.44C71.1,-85.43 91.8,-96.49 110.5,-105 113.68,-106.45 117,-107.88 120.35,-109.28"/>
<polygon fill="#63b8ff" stroke="#63b8ff" points="119.04,-112.53 129.62,-113.03 121.66,-106.04 119.04,-112.53"/>
</a>
</g>
</g>
<!-- Node3 -->
<g id="Node000003" class="node">
<title>Node3</title>
<g id="a_Node000003"><a xlink:href="gui__auth_8c.html#a89879c6685a6b662a08bd4e868130363" target="_top" xlink:title="Validate a username/password pair against the built&#45;in credential.">
<polygon fill="white" stroke="#666666" points="197.38,-96 123.62,-96 123.62,-76 197.38,-76 197.38,-96"/>
<text xml:space="preserve" text-anchor="middle" x="160.5" y="-82.5" font-family="Helvetica,sans-Serif" font-size="10.00">auth_validate</text>
</a>
</g>
</g>
<!-- Node1&#45;&gt;Node3 -->
<g id="edge2_Node000001_Node000003" class="edge">
<title>Node1&#45;&gt;Node3</title>
<g id="a_edge2_Node000001_Node000003"><a xlink:title=" ">
<path fill="none" stroke="#63b8ff" d="M74.96,-72.75C86.7,-74.59 99.86,-76.65 112.25,-78.6"/>
<polygon fill="#63b8ff" stroke="#63b8ff" points="111.42,-82.01 121.84,-80.1 112.5,-75.09 111.42,-82.01"/>
</a>
</g>
</g>
<!-- Node4 -->
<g id="Node000004" class="node">
<title>Node4</title>
<g id="a_Node000004"><a xlink:href="gui__main_8c.html#a05facbe4e175f66ff55a4882c983d058" target="_top" xlink:title=" ">
<polygon fill="white" stroke="#666666" points="207.12,-58 113.88,-58 113.88,-38 207.12,-38 207.12,-58"/>
<text xml:space="preserve" text-anchor="middle" x="160.5" y="-44.5" font-family="Helvetica,sans-Serif" font-size="10.00">create_dashboard</text>
</a>
</g>
</g>
<!-- Node1&#45;&gt;Node4 -->
<g id="edge3_Node000001_Node000004" class="edge">
<title>Node1&#45;&gt;Node4</title>
<g id="a_edge3_Node000001_Node000004"><a xlink:title=" ">
<path fill="none" stroke="#63b8ff" d="M74.96,-61.25C83.58,-59.9 92.97,-58.43 102.26,-56.97"/>
<polygon fill="#63b8ff" stroke="#63b8ff" points="102.64,-60.45 111.97,-55.45 101.55,-53.54 102.64,-60.45"/>
</a>
</g>
</g>
<!-- Node5 -->
<g id="Node000005" class="node">
<title>Node5</title>
<g id="a_Node000005"><a xlink:href="gui__main_8c.html#adfa90e96e8fab8b5af641dd49e420791" target="_top" xlink:title=" ">
<polygon fill="white" stroke="#666666" points="183.5,-20 137.5,-20 137.5,0 183.5,0 183.5,-20"/>
<text xml:space="preserve" text-anchor="middle" x="160.5" y="-6.5" font-family="Helvetica,sans-Serif" font-size="10.00">get_txt</text>
</a>
</g>
</g>
<!-- Node1&#45;&gt;Node5 -->
<g id="edge4_Node000001_Node000005" class="edge">
<title>Node1&#45;&gt;Node5</title>
<g id="a_edge4_Node000001_Node000005"><a xlink:title=" ">
<path fill="none" stroke="#63b8ff" d="M56.67,-56.56C71.1,-48.57 91.8,-37.51 110.5,-29 115.76,-26.61 121.42,-24.23 126.96,-22.02"/>
<polygon fill="#63b8ff" stroke="#63b8ff" points="127.86,-25.42 135.91,-18.53 125.33,-18.9 127.86,-25.42"/>
</a>
</g>
</g>
</g>
</svg>
</svg>

<style type='text/css'>
<![CDATA[
[data-mouse-over-selected='false'] { opacity: 0.7; }
[data-mouse-over-selected='true']  { opacity: 1.0; }
]]>
</style>
<script type="application/ecmascript"><![CDATA[
document.addEventListener('DOMContentLoaded', (event) => {
  highlightEdges();
  highlightAdjacentNodes();
});
]]></script>
</svg>
