<?xml version="1.0" encoding="UTF-8" standalone="no"?>
<!DOCTYPE svg PUBLIC "-//W3C//DTD SVG 1.1//EN"
 "http://www.w3.org/Graphics/SVG/1.1/DTD/svg11.dtd">
<!-- Generated by graphviz version 14.1.4 (20260321.0153)
 -->
<!-- Title: paint_tiles Pages: 1 -->
<svg width="328pt" height="256pt"
 viewBox="0.00 0.00 328.00 256.00" xmlns="http://www.w3.org/2000/svg" xmlns:xlink="http://www.w3.org/1999/xlink">

<svg id="main" version="1.1" xmlns="http://www.w3.org/2000/svg" xmlns:xlink="http://www.w3.org/1999/xlink" xml:space="preserve">

<style type="text/css"><![CDATA[
.node, .edge {opacity: 0.7;}
.node.selected, .edge.selected {opacity: 1;}
.edge:hover path { stroke: red; }
.edge:hover polygon { stroke: red; fill: red; }
]]></style>
<script type="application/ecmascript" xlink:href="svg.min.js"/>
<svg id="graph" class="graph">
<g id="graph0" class="graph" transform="scale(1 1) rotate(0) translate(4 252)">
<title>paint_tiles</title>
<!-- Node1 -->
<g id="Node000001" class="node">
<title>Node1</title>
<g id="a_Node000001"><a xlink:title="Paint the 2×2 vital sign tile grid. @req SWR&#45;GUI&#45;003.">
<polygon fill="#999999" stroke="#666666" points="60.25,-134 0,-134 0,-114 60.25,-114 60.25,-134"/>
<text xml:space="preserve" text-anchor="middle" x="30.12" y="-120.5" font-family="Helvetica,sans-Serif" font-size="10.00">paint_tiles</text>
</a>
</g>
</g>
<!-- Node2 -->
<g id="Node000002" class="node">
<title>Node2</title>
<g id="a_Node000002"><a xlink:href="vitals_8c.html#a3c853e30a899042babf9fdd2bd2cbfc1" target="_top" xlink:title="Classify a blood pressure reading.">
<polygon fill="white" stroke="#666666" points="209.75,-248 96.25,-248 96.25,-228 209.75,-228 209.75,-248"/>
<text xml:space="preserve" text-anchor="middle" x="153" y="-234.5" font-family="Helvetica,sans-Serif" font-size="10.00">check_blood_pressure</text>
</a>
</g>
</g>
<!-- Node1&#45;&gt;Node2 -->
<g id="edge1_Node000001_Node000002" class="edge">
<title>Node1&#45;&gt;Node2</title>
<g id="a_edge1_Node000001_Node000002"><a xlink:title=" ">
<path fill="none" stroke="#63b8ff" d="M35.57,-134.49C44.33,-153.96 65.67,-195.79 96.25,-219 97.79,-220.17 99.41,-221.27 101.08,-222.3"/>
<polygon fill="#63b8ff" stroke="#63b8ff" points="99.32,-225.33 109.81,-226.84 102.55,-219.12 99.32,-225.33"/>
</a>
</g>
</g>
<!-- Node3 -->
<g id="Node000003" class="node">
<title>Node3</title>
<g id="a_Node000003"><a xlink:href="vitals_8c.html#a7604eb6b23010f139f6f960b184a3b28" target="_top" xlink:title="Classify a heart rate reading.">
<polygon fill="white" stroke="#666666" points="198.5,-210 107.5,-210 107.5,-190 198.5,-190 198.5,-210"/>
<text xml:space="preserve" text-anchor="middle" x="153" y="-196.5" font-family="Helvetica,sans-Serif" font-size="10.00">check_heart_rate</text>
</a>
</g>
</g>
<!-- Node1&#45;&gt;Node3 -->
<g id="edge2_Node000001_Node000003" class="edge">
<title>Node1&#45;&gt;Node3</title>
<g id="a_edge2_Node000001_Node000003"><a xlink:title=" ">
<path fill="none" stroke="#63b8ff" d="M40.33,-134.21C52.16,-146.79 73.87,-168.08 96.25,-181 98.86,-182.51 101.6,-183.92 104.42,-185.24"/>
<polygon fill="#63b8ff" stroke="#63b8ff" points="102.85,-188.37 113.42,-189.02 105.56,-181.92 102.85,-188.37"/>
</a>
</g>
</g>
<!-- Node4 -->
<g id="Node000004" class="node">
<title>Node4</title>
<g id="a_Node000004"><a xlink:href="vitals_8c.html#ac0bc076e63894a96df90f2eab73c88fe" target="_top" xlink:title="Classify an SpO2 reading.">
<polygon fill="white" stroke="#666666" points="187.25,-172 118.75,-172 118.75,-152 187.25,-152 187.25,-172"/>
<text xml:space="preserve" text-anchor="middle" x="153" y="-158.5" font-family="Helvetica,sans-Serif" font-size="10.00">check_spo2</text>
</a>
</g>
</g>
<!-- Node1&#45;&gt;Node4 -->
<g id="edge3_Node000001_Node000004" class="edge">
<title>Node1&#45;&gt;Node4</title>
<g id="a_edge3_Node000001_Node000004"><a xlink:title=" ">
<path fill="none" stroke="#63b8ff" d="M60.69,-133.3C75,-137.79 92.47,-143.29 108.28,-148.26"/>
<polygon fill="#63b8ff" stroke="#63b8ff" points="106.87,-151.48 117.46,-151.14 108.97,-144.8 106.87,-151.48"/>
</a>
</g>
</g>
<!-- Node5 -->
<g id="Node000005" class="node">
<title>Node5</title>
<g id="a_Node000005"><a xlink:href="vitals_8c.html#aef7f6fa183fbc5412c13ea63bd2b62ce" target="_top" xlink:title="Classify a temperature reading.">
<polygon fill="white" stroke="#666666" points="202.62,-134 103.38,-134 103.38,-114 202.62,-114 202.62,-134"/>
<text xml:space="preserve" text-anchor="middle" x="153" y="-120.5" font-family="Helvetica,sans-Serif" font-size="10.00">check_temperature</text>
</a>
</g>
</g>
<!-- Node1&#45;&gt;Node5 -->
<g id="edge4_Node000001_Node000005" class="edge">
<title>Node1&#45;&gt;Node5</title>
<g id="a_edge4_Node000001_Node000005"><a xlink:title=" ">
<path fill="none" stroke="#63b8ff" d="M60.69,-124C70.14,-124 80.95,-124 91.76,-124"/>
<polygon fill="#63b8ff" stroke="#63b8ff" points="91.44,-127.5 101.44,-124 91.44,-120.5 91.44,-127.5"/>
</a>
</g>
</g>
<!-- Node6 -->
<g id="Node000006" class="node">
<title>Node6</title>
<g id="a_Node000006"><a xlink:href="gui__main_8c.html#a44c4ee73fc9a634398e794afaf73d079" target="_top" xlink:title=" ">
<polygon fill="white" stroke="#666666" points="306.75,-96 259.25,-96 259.25,-76 306.75,-76 306.75,-96"/>
<text xml:space="preserve" text-anchor="middle" x="283" y="-82.5" font-family="Helvetica,sans-Serif" font-size="10.00">fill_rect</text>
</a>
</g>
</g>
<!-- Node1&#45;&gt;Node6 -->
<g id="edge5_Node000001_Node000006" class="edge">
<title>Node1&#45;&gt;Node6</title>
<g id="a_edge5_Node000001_Node000006"><a xlink:title=" ">
<path fill="none" stroke="#63b8ff" d="M60.67,-114.15C71.73,-110.79 84.46,-107.3 96.25,-105 148.5,-94.79 210.15,-89.86 247.64,-87.64"/>
<polygon fill="#63b8ff" stroke="#63b8ff" points="247.63,-91.15 257.41,-87.09 247.23,-84.16 247.63,-91.15"/>
</a>
</g>
</g>
<!-- Node7 -->
<g id="Node000007" class="node">
<title>Node7</title>
<g id="a_Node000007"><a xlink:href="gui__main_8c.html#acd6770839efac2b7a1806be591ea1d80" target="_top" xlink:title="Paint one colour&#45;coded vital sign tile.">
<polygon fill="white" stroke="#666666" points="180.5,-58 125.5,-58 125.5,-38 180.5,-38 180.5,-58"/>
<text xml:space="preserve" text-anchor="middle" x="153" y="-44.5" font-family="Helvetica,sans-Serif" font-size="10.00">paint_tile</text>
</a>
</g>
</g>
<!-- Node1&#45;&gt;Node7 -->
<g id="edge6_Node000001_Node000007" class="edge">
<title>Node1&#45;&gt;Node7</title>
<g id="a_edge6_Node000001_Node000007"><a xlink:title=" ">
<path fill="none" stroke="#63b8ff" d="M41.98,-113.82C54.38,-102.55 75.65,-84.35 96.25,-72 102.04,-68.53 108.42,-65.29 114.74,-62.39"/>
<polygon fill="#63b8ff" stroke="#63b8ff" points="116.03,-65.64 123.8,-58.44 113.24,-59.23 116.03,-65.64"/>
</a>
</g>
</g>
<!-- Node9 -->
<g id="Node000009" class="node">
<title>Node9</title>
<g id="a_Node000009"><a xlink:href="patient_8c.html#aaf2d461ddd1efafe4887647d0c8688d7" target="_top" xlink:title="Return a pointer to the most recent reading, or NULL if none exist.">
<polygon fill="white" stroke="#666666" points="208.62,-20 97.38,-20 97.38,0 208.62,0 208.62,-20"/>
<text xml:space="preserve" text-anchor="middle" x="153" y="-6.5" font-family="Helvetica,sans-Serif" font-size="10.00">patient_latest_reading</text>
</a>
</g>
</g>
<!-- Node1&#45;&gt;Node9 -->
<g id="edge9_Node000001_Node000009" class="edge">
<title>Node1&#45;&gt;Node9</title>
<g id="a_edge9_Node000001_Node000009"><a xlink:title=" ">
<path fill="none" stroke="#63b8ff" d="M35.57,-113.51C44.33,-94.04 65.67,-52.21 96.25,-29 97.79,-27.83 99.41,-26.73 101.08,-25.7"/>
<polygon fill="#63b8ff" stroke="#63b8ff" points="102.55,-28.88 109.81,-21.16 99.32,-22.67 102.55,-28.88"/>
</a>
</g>
</g>
<!-- Node7&#45;&gt;Node6 -->
<g id="edge8_Node000007_Node000006" class="edge">
<title>Node7&#45;&gt;Node6</title>
<g id="a_edge8_Node000007_Node000006"><a xlink:title=" ">
<path fill="none" stroke="#63b8ff" d="M180.83,-55.97C200.38,-61.77 227,-69.67 248.03,-75.92"/>
<polygon fill="#63b8ff" stroke="#63b8ff" points="247.02,-79.27 257.61,-78.76 249.02,-72.56 247.02,-79.27"/>
</a>
</g>
</g>
<!-- Node8 -->
<g id="Node000008" class="node">
<title>Node8</title>
<g id="a_Node000008"><a xlink:href="gui__main_8c.html#a18faa01dfc1221353f0ca130f5647098" target="_top" xlink:title=" ">
<polygon fill="white" stroke="#666666" points="320.25,-58 245.75,-58 245.75,-38 320.25,-38 320.25,-58"/>
<text xml:space="preserve" text-anchor="middle" x="283" y="-44.5" font-family="Helvetica,sans-Serif" font-size="10.00">draw_text_ex</text>
</a>
</g>
</g>
<!-- Node7&#45;&gt;Node8 -->
<g id="edge7_Node000007_Node000008" class="edge">
<title>Node7&#45;&gt;Node8</title>
<g id="a_edge7_Node000007_Node000008"><a xlink:title=" ">
<path fill="none" stroke="#63b8ff" d="M180.83,-48C196.23,-48 216.01,-48 234,-48"/>
<polygon fill="#63b8ff" stroke="#63b8ff" points="233.98,-51.5 243.98,-48 233.98,-44.5 233.98,-51.5"/>
</a>
</g>
</g>
</g>
</svg>
</svg>

<style type='text/css'>
<![CDATA[
[data-mouse-over-selected='false'] { opacity: 0.7; }
[data-mouse-over-selected='true']  { opacity: 1.0; }
]]>
</style>
<script type="application/ecmascript"><![CDATA[
document.addEventListener('DOMContentLoaded', (event) => {
  highlightEdges();
  highlightAdjacentNodes();
});
]]></script>
</svg>
