<?xml version="1.0" encoding="UTF-8" standalone="no"?>
<!DOCTYPE svg PUBLIC "-//W3C//DTD SVG 1.1//EN"
 "http://www.w3.org/Graphics/SVG/1.1/DTD/svg11.dtd">
<!-- Generated by graphviz version 14.1.4 (20260321.0153)
 -->
<!-- Title: update_dashboard Pages: 1 -->
<svg width="400pt" height="142pt"
 viewBox="0.00 0.00 400.00 142.00" xmlns="http://www.w3.org/2000/svg" xmlns:xlink="http://www.w3.org/1999/xlink">

<svg id="main" version="1.1" xmlns="http://www.w3.org/2000/svg" xmlns:xlink="http://www.w3.org/1999/xlink" xml:space="preserve">

<style type="text/css"><![CDATA[
.node, .edge {opacity: 0.7;}
.node.selected, .edge.selected {opacity: 1;}
.edge:hover path { stroke: red; }
.edge:hover polygon { stroke: red; fill: red; }
]]></style>
<script type="application/ecmascript" xlink:href="svg.min.js"/>
<svg id="graph" class="graph">
<g id="graph0" class="graph" transform="scale(1 1) rotate(0) translate(4 138)">
<title>update_dashboard</title>
<!-- Node1 -->
<g id="Node000001" class="node">
<title>Node1</title>
<g id="a_Node000001"><a xlink:title="Refresh all dynamic dashboard content after any data change. @req SWR&#45;GUI&#45;003 @req SWR&#45;GUI&#45;004.">
<polygon fill="#999999" stroke="#666666" points="95.5,-77 0,-77 0,-57 95.5,-57 95.5,-77"/>
<text xml:space="preserve" text-anchor="middle" x="47.75" y="-63.5" font-family="Helvetica,sans-Serif" font-size="10.00">update_dashboard</text>
</a>
</g>
</g>
<!-- Node2 -->
<g id="Node000002" class="node">
<title>Node2</title>
<g id="a_Node000002"><a xlink:href="vitals_8c.html#a20a209843ea1eeff8484a7998d492615" target="_top" xlink:title="Convert an AlertLevel enum to a display string.">
<polygon fill="white" stroke="#666666" points="225.5,-134 148.75,-134 148.75,-114 225.5,-114 225.5,-134"/>
<text xml:space="preserve" text-anchor="middle" x="187.12" y="-120.5" font-family="Helvetica,sans-Serif" font-size="10.00">alert_level_str</text>
</a>
</g>
</g>
<!-- Node1&#45;&gt;Node2 -->
<g id="edge1_Node000001_Node000002" class="edge">
<title>Node1&#45;&gt;Node2</title>
<g id="a_edge1_Node000001_Node000002"><a xlink:title=" ">
<path fill="none" stroke="#63b8ff" d="M69.94,-77.41C86.51,-85.39 110.23,-96.44 131.5,-105 135.41,-106.57 139.5,-108.14 143.62,-109.66"/>
<polygon fill="#63b8ff" stroke="#63b8ff" points="142.43,-112.95 153.02,-113.05 144.8,-106.37 142.43,-112.95"/>
</a>
</g>
</g>
<!-- Node3 -->
<g id="Node000003" class="node">
<title>Node3</title>
<g id="a_Node000003"><a xlink:href="alerts_8c.html#a98b6140a4d21520d639bc81d1f7c08b7" target="_top" xlink:title="Generate structured alert records for out&#45;of&#45;range vital signs.">
<polygon fill="white" stroke="#666666" points="228.5,-96 145.75,-96 145.75,-76 228.5,-76 228.5,-96"/>
<text xml:space="preserve" text-anchor="middle" x="187.12" y="-82.5" font-family="Helvetica,sans-Serif" font-size="10.00">generate_alerts</text>
</a>
</g>
</g>
<!-- Node1&#45;&gt;Node3 -->
<g id="edge2_Node000001_Node000003" class="edge">
<title>Node1&#45;&gt;Node3</title>
<g id="a_edge2_Node000001_Node000003"><a xlink:title=" ">
<path fill="none" stroke="#63b8ff" d="M95.64,-73.49C108.02,-75.2 121.45,-77.06 134.08,-78.8"/>
<polygon fill="#63b8ff" stroke="#63b8ff" points="133.52,-82.26 143.91,-80.16 134.48,-75.32 133.52,-82.26"/>
</a>
</g>
</g>
<!-- Node8 -->
<g id="Node000008" class="node">
<title>Node8</title>
<g id="a_Node000008"><a xlink:href="vitals_8c.html#af7201b2a5a70f76ab81ade218a863830" target="_top" xlink:title="Return the highest alert level across all four vital parameters.">
<polygon fill="white" stroke="#666666" points="234.12,-58 140.12,-58 140.12,-38 234.12,-38 234.12,-58"/>
<text xml:space="preserve" text-anchor="middle" x="187.12" y="-44.5" font-family="Helvetica,sans-Serif" font-size="10.00">overall_alert_level</text>
</a>
</g>
</g>
<!-- Node1&#45;&gt;Node8 -->
<g id="edge7_Node000001_Node000008" class="edge">
<title>Node1&#45;&gt;Node8</title>
<g id="a_edge7_Node000001_Node000008"><a xlink:title=" ">
<path fill="none" stroke="#63b8ff" d="M95.64,-60.51C106.26,-59.05 117.65,-57.47 128.64,-55.95"/>
<polygon fill="#63b8ff" stroke="#63b8ff" points="128.98,-59.44 138.41,-54.6 128.02,-52.5 128.98,-59.44"/>
</a>
</g>
</g>
<!-- Node9 -->
<g id="Node000009" class="node">
<title>Node9</title>
<g id="a_Node000009"><a xlink:href="patient_8c.html#aaf2d461ddd1efafe4887647d0c8688d7" target="_top" xlink:title="Return a pointer to the most recent reading, or NULL if none exist.">
<polygon fill="white" stroke="#666666" points="242.75,-20 131.5,-20 131.5,0 242.75,0 242.75,-20"/>
<text xml:space="preserve" text-anchor="middle" x="187.12" y="-6.5" font-family="Helvetica,sans-Serif" font-size="10.00">patient_latest_reading</text>
</a>
</g>
</g>
<!-- Node1&#45;&gt;Node9 -->
<g id="edge12_Node000001_Node000009" class="edge">
<title>Node1&#45;&gt;Node9</title>
<g id="a_edge12_Node000001_Node000009"><a xlink:title=" ">
<path fill="none" stroke="#63b8ff" d="M69.94,-56.59C86.51,-48.61 110.23,-37.56 131.5,-29 135.41,-27.43 139.5,-25.86 143.62,-24.34"/>
<polygon fill="#63b8ff" stroke="#63b8ff" points="144.8,-27.63 153.02,-20.95 142.43,-21.05 144.8,-27.63"/>
</a>
</g>
</g>
<!-- Node4 -->
<g id="Node000004" class="node">
<title>Node4</title>
<g id="a_Node000004"><a xlink:href="vitals_8c.html#a3c853e30a899042babf9fdd2bd2cbfc1" target="_top" xlink:title="Classify a blood pressure reading.">
<polygon fill="white" stroke="#666666" points="392.25,-58 278.75,-58 278.75,-38 392.25,-38 392.25,-58"/>
<text xml:space="preserve" text-anchor="middle" x="335.5" y="-44.5" font-family="Helvetica,sans-Serif" font-size="10.00">check_blood_pressure</text>
</a>
</g>
</g>
<!-- Node3&#45;&gt;Node4 -->
<g id="edge3_Node000003_Node000004" class="edge">
<title>Node3&#45;&gt;Node4</title>
<g id="a_edge3_Node000003_Node000004"><a xlink:title=" ">
<path fill="none" stroke="#63b8ff" d="M228.51,-75.52C245.47,-71.11 265.39,-65.94 283.36,-61.28"/>
<polygon fill="#63b8ff" stroke="#63b8ff" points="283.98,-64.73 292.78,-58.83 282.22,-57.96 283.98,-64.73"/>
</a>
</g>
</g>
<!-- Node5 -->
<g id="Node000005" class="node">
<title>Node5</title>
<g id="a_Node000005"><a xlink:href="vitals_8c.html#a7604eb6b23010f139f6f960b184a3b28" target="_top" xlink:title="Classify a heart rate reading.">
<polygon fill="white" stroke="#666666" points="381,-20 290,-20 290,0 381,0 381,-20"/>
<text xml:space="preserve" text-anchor="middle" x="335.5" y="-6.5" font-family="Helvetica,sans-Serif" font-size="10.00">check_heart_rate</text>
</a>
</g>
</g>
<!-- Node3&#45;&gt;Node5 -->
<g id="edge4_Node000003_Node000005" class="edge">
<title>Node3&#45;&gt;Node5</title>
<g id="a_edge4_Node000003_Node000005"><a xlink:title=" ">
<path fill="none" stroke="#63b8ff" d="M225.97,-75.51C231.81,-73.14 237.61,-70.32 242.75,-67 262.29,-54.38 259.17,-41.56 278.75,-29 280.88,-27.63 283.13,-26.35 285.44,-25.15"/>
<polygon fill="#63b8ff" stroke="#63b8ff" points="286.84,-28.36 294.5,-21.04 283.94,-21.98 286.84,-28.36"/>
</a>
</g>
</g>
<!-- Node6 -->
<g id="Node000006" class="node">
<title>Node6</title>
<g id="a_Node000006"><a xlink:href="vitals_8c.html#ac0bc076e63894a96df90f2eab73c88fe" target="_top" xlink:title="Classify an SpO2 reading.">
<polygon fill="white" stroke="#666666" points="369.75,-134 301.25,-134 301.25,-114 369.75,-114 369.75,-134"/>
<text xml:space="preserve" text-anchor="middle" x="335.5" y="-120.5" font-family="Helvetica,sans-Serif" font-size="10.00">check_spo2</text>
</a>
</g>
</g>
<!-- Node3&#45;&gt;Node6 -->
<g id="edge5_Node000003_Node000006" class="edge">
<title>Node3&#45;&gt;Node6</title>
<g id="a_edge5_Node000003_Node000006"><a xlink:title=" ">
<path fill="none" stroke="#63b8ff" d="M228.51,-96.48C247.61,-101.44 270.47,-107.38 290.06,-112.46"/>
<polygon fill="#63b8ff" stroke="#63b8ff" points="289.14,-115.84 299.7,-114.96 290.9,-109.06 289.14,-115.84"/>
</a>
</g>
</g>
<!-- Node7 -->
<g id="Node000007" class="node">
<title>Node7</title>
<g id="a_Node000007"><a xlink:href="vitals_8c.html#aef7f6fa183fbc5412c13ea63bd2b62ce" target="_top" xlink:title="Classify a temperature reading.">
<polygon fill="white" stroke="#666666" points="385.12,-96 285.88,-96 285.88,-76 385.12,-76 385.12,-96"/>
<text xml:space="preserve" text-anchor="middle" x="335.5" y="-82.5" font-family="Helvetica,sans-Serif" font-size="10.00">check_temperature</text>
</a>
</g>
</g>
<!-- Node3&#45;&gt;Node7 -->
<g id="edge6_Node000003_Node000007" class="edge">
<title>Node3&#45;&gt;Node7</title>
<g id="a_edge6_Node000003_Node000007"><a xlink:title=" ">
<path fill="none" stroke="#63b8ff" d="M228.9,-86C242.92,-86 258.93,-86 274.17,-86"/>
<polygon fill="#63b8ff" stroke="#63b8ff" points="274.12,-89.5 284.12,-86 274.12,-82.5 274.12,-89.5"/>
</a>
</g>
</g>
<!-- Node8&#45;&gt;Node4 -->
<g id="edge8_Node000008_Node000004" class="edge">
<title>Node8&#45;&gt;Node4</title>
<g id="a_edge8_Node000008_Node000004"><a xlink:title=" ">
<path fill="none" stroke="#63b8ff" d="M234.44,-48C244.82,-48 256.04,-48 267.08,-48"/>
<polygon fill="#63b8ff" stroke="#63b8ff" points="266.97,-51.5 276.97,-48 266.97,-44.5 266.97,-51.5"/>
</a>
</g>
</g>
<!-- Node8&#45;&gt;Node5 -->
<g id="edge9_Node000008_Node000005" class="edge">
<title>Node8&#45;&gt;Node5</title>
<g id="a_edge9_Node000008_Node000005"><a xlink:title=" ">
<path fill="none" stroke="#63b8ff" d="M228.51,-37.52C245.47,-33.11 265.39,-27.94 283.36,-23.28"/>
<polygon fill="#63b8ff" stroke="#63b8ff" points="283.98,-26.73 292.78,-20.83 282.22,-19.96 283.98,-26.73"/>
</a>
</g>
</g>
<!-- Node8&#45;&gt;Node6 -->
<g id="edge10_Node000008_Node000006" class="edge">
<title>Node8&#45;&gt;Node6</title>
<g id="a_edge10_Node000008_Node000006"><a xlink:title=" ">
<path fill="none" stroke="#63b8ff" d="M225.97,-58.49C231.81,-60.86 237.61,-63.68 242.75,-67 262.29,-79.62 259.17,-92.44 278.75,-105 282.42,-107.36 286.42,-109.45 290.53,-111.31"/>
<polygon fill="#63b8ff" stroke="#63b8ff" points="288.87,-114.42 299.45,-114.9 291.48,-107.93 288.87,-114.42"/>
</a>
</g>
</g>
<!-- Node8&#45;&gt;Node7 -->
<g id="edge11_Node000008_Node000007" class="edge">
<title>Node8&#45;&gt;Node7</title>
<g id="a_edge11_Node000008_Node000007"><a xlink:title=" ">
<path fill="none" stroke="#63b8ff" d="M228.51,-58.48C245.47,-62.89 265.39,-68.06 283.36,-72.72"/>
<polygon fill="#63b8ff" stroke="#63b8ff" points="282.22,-76.04 292.78,-75.17 283.98,-69.27 282.22,-76.04"/>
</a>
</g>
</g>
</g>
</svg>
</svg>

<style type='text/css'>
<![CDATA[
[data-mouse-over-selected='false'] { opacity: 0.7; }
[data-mouse-over-selected='true']  { opacity: 1.0; }
]]>
</style>
<script type="application/ecmascript"><![CDATA[
document.addEventListener('DOMContentLoaded', (event) => {
  highlightEdges();
  highlightAdjacentNodes();
});
]]></script>
</svg>
