<?xml version="1.0" encoding="UTF-8" standalone="no"?>
<!DOCTYPE svg PUBLIC "-//W3C//DTD SVG 1.1//EN"
 "http://www.w3.org/Graphics/SVG/1.1/DTD/svg11.dtd">
<!-- Generated by graphviz version 14.1.4 (20260321.0153)
 -->
<!-- Title: src/gui_main.c Pages: 1 -->
<!--zoomable 196 -->

<svg id="main" version="1.1" xmlns="http://www.w3.org/2000/svg" xmlns:xlink="http://www.w3.org/1999/xlink" xml:space="preserve" onload="init(evt)">

<style type="text/css"><![CDATA[
.node, .edge {opacity: 0.7;}
.node.selected, .edge.selected {opacity: 1;}
.edge:hover path { stroke: red; }
.edge:hover polygon { stroke: red; fill: red; }
]]></style>

<defs>
  <circle id="rim" cx="0" cy="0" r="7"/>
  <circle id="rim2" cx="0" cy="0" r="3.5"/>
  <g id="zoomPlus">
    <use xlink:href="#rim" fill="#404040"><set attributeName="fill" to="#808080" begin="zoomplus.mouseover" end="zoomplus.mouseout"/></use>
    <path d="M-4,0h8M0,-4v8" fill="none" stroke="white" stroke-width="1.5" pointer-events="none"/>
  </g>
  <g id="zoomMin">
    <use xlink:href="#rim" fill="#404040"><set attributeName="fill" to="#808080" begin="zoomminus.mouseover" end="zoomminus.mouseout"/></use>
    <path d="M-4,0h8" fill="none" stroke="white" stroke-width="1.5" pointer-events="none"/>
  </g>
  <g id="arrowUp" transform="translate(30 24)">
    <use xlink:href="#rim"/>
    <path pointer-events="none" fill="none" stroke="white" stroke-width="1.5" d="M0,-3.0v7 M-2.5,-0.5L0,-3.0L2.5,-0.5"/>
  </g>
  <g id="arrowRight" transform="rotate(90) translate(36 -43)">
    <use xlink:href="#rim"/>
    <path pointer-events="none" fill="none" stroke="white" stroke-width="1.5" d="M0,-3.0v7 M-2.5,-0.5L0,-3.0L2.5,-0.5"/>
  </g>
  <g id="arrowDown" transform="rotate(180) translate(-30 -48)">
    <use xlink:href="#rim"/>
    <path pointer-events="none" fill="none" stroke="white" stroke-width="1.5" d="M0,-3.0v7 M-2.5,-0.5L0,-3.0L2.5,-0.5"/>
  </g>
  <g id="arrowLeft" transform="rotate(270) translate(-36 17)">
    <use xlink:href="#rim"/>
    <path pointer-events="none" fill="none" stroke="white" stroke-width="1.5" d="M0,-3.0v7 M-2.5,-0.5L0,-3.0L2.5,-0.5"/>
  </g>
  <g id="resetDef">
    <use xlink:href="#rim2" fill="#404040"><set attributeName="fill" to="#808080" begin="reset.mouseover" end="reset.mouseout"/></use>
  </g>
</defs>
<script type="application/ecmascript">
var viewWidth = 522;
var viewHeight = 196;
var sectionId = 'dynsection-0';
</script>
<script type="application/ecmascript" xlink:href="svg.min.js"/>
<svg id="graph" class="graph">
<g id="viewport">
<title>src/gui_main.c</title>
<!-- Node1 -->
<g id="Node000001" class="node">
<title>Node1</title>
<g id="a_Node000001"><a xlink:title="Win32 GUI entry point — Patient Vital Signs Monitor.">
<polygon fill="#999999" stroke="#666666" points="325.12,-188 245.38,-188 245.38,-168 325.12,-168 325.12,-188"/>
<text xml:space="preserve" text-anchor="middle" x="285.25" y="-174.5" font-family="Helvetica,sans-Serif" font-size="10.00">src/gui_main.c</text>
</a>
</g>
</g>
<!-- Node2 -->
<g id="Node000002" class="node">
<title>Node2</title>
<g id="a_Node000002"><a xlink:title=" ">
<polygon fill="#e0e0e0" stroke="#999999" points="62.5,-132 0,-132 0,-112 62.5,-112 62.5,-132"/>
<text xml:space="preserve" text-anchor="middle" x="31.25" y="-118.5" font-family="Helvetica,sans-Serif" font-size="10.00">windows.h</text>
</a>
</g>
</g>
<!-- Node1&#45;&gt;Node2 -->
<g id="edge1_Node000001_Node000002" class="edge">
<title>Node1&#45;&gt;Node2</title>
<g id="a_edge1_Node000001_Node000002"><a xlink:title=" ">
<path fill="none" stroke="#63b8ff" d="M244.98,-168.71C204.21,-160.27 139.05,-146.69 73.61,-132.49"/>
<polygon fill="#63b8ff" stroke="#63b8ff" points="74.68,-129.14 64.16,-130.44 73.19,-135.98 74.68,-129.14"/>
</a>
</g>
</g>
<!-- Node3 -->
<g id="Node000003" class="node">
<title>Node3</title>
<g id="a_Node000003"><a xlink:title=" ">
<polygon fill="#e0e0e0" stroke="#999999" points="125.88,-132 80.62,-132 80.62,-112 125.88,-112 125.88,-132"/>
<text xml:space="preserve" text-anchor="middle" x="103.25" y="-118.5" font-family="Helvetica,sans-Serif" font-size="10.00">stdio.h</text>
</a>
</g>
</g>
<!-- Node1&#45;&gt;Node3 -->
<g id="edge2_Node000001_Node000003" class="edge">
<title>Node1&#45;&gt;Node3</title>
<g id="a_edge2_Node000001_Node000003"><a xlink:title=" ">
<path fill="none" stroke="#63b8ff" d="M253.55,-167.59C221.02,-157.94 170.6,-142.98 137.26,-133.09"/>
<polygon fill="#63b8ff" stroke="#63b8ff" points="138.27,-129.74 127.69,-130.25 136.28,-136.45 138.27,-129.74"/>
</a>
</g>
</g>
<!-- Node4 -->
<g id="Node000004" class="node">
<title>Node4</title>
<g id="a_Node000004"><a xlink:title=" ">
<polygon fill="#e0e0e0" stroke="#999999" points="191,-132 143.5,-132 143.5,-112 191,-112 191,-132"/>
<text xml:space="preserve" text-anchor="middle" x="167.25" y="-118.5" font-family="Helvetica,sans-Serif" font-size="10.00">stdlib.h</text>
</a>
</g>
</g>
<!-- Node1&#45;&gt;Node4 -->
<g id="edge3_Node000001_Node000004" class="edge">
<title>Node1&#45;&gt;Node4</title>
<g id="a_edge3_Node000001_Node000004"><a xlink:title=" ">
<path fill="none" stroke="#63b8ff" d="M264.7,-167.59C246.37,-159.21 219.26,-146.8 198.29,-137.21"/>
<polygon fill="#63b8ff" stroke="#63b8ff" points="199.89,-134.09 189.34,-133.11 196.98,-140.45 199.89,-134.09"/>
</a>
</g>
</g>
<!-- Node5 -->
<g id="Node000005" class="node">
<title>Node5</title>
<g id="a_Node000005"><a xlink:title=" ">
<polygon fill="#e0e0e0" stroke="#999999" points="257.38,-132 209.12,-132 209.12,-112 257.38,-112 257.38,-132"/>
<text xml:space="preserve" text-anchor="middle" x="233.25" y="-118.5" font-family="Helvetica,sans-Serif" font-size="10.00">string.h</text>
</a>
</g>
</g>
<!-- Node1&#45;&gt;Node5 -->
<g id="edge4_Node000001_Node000005" class="edge">
<title>Node1&#45;&gt;Node5</title>
<g id="a_edge4_Node000001_Node000005"><a xlink:title=" ">
<path fill="none" stroke="#63b8ff" d="M276.19,-167.59C269.03,-160.16 258.84,-149.58 250.18,-140.58"/>
<polygon fill="#63b8ff" stroke="#63b8ff" points="252.71,-138.16 243.25,-133.39 247.67,-143.02 252.71,-138.16"/>
</a>
</g>
</g>
<!-- Node6 -->
<g id="Node000006" class="node">
<title>Node6</title>
<g id="a_Node000006"><a xlink:href="vitals_8h.html" target="_top" xlink:title="Vital signs data types, thresholds, and validation functions.">
<polygon fill="white" stroke="#666666" points="387,-20 339.5,-20 339.5,0 387,0 387,-20"/>
<text xml:space="preserve" text-anchor="middle" x="363.25" y="-6.5" font-family="Helvetica,sans-Serif" font-size="10.00">vitals.h</text>
</a>
</g>
</g>
<!-- Node1&#45;&gt;Node6 -->
<g id="edge5_Node000001_Node000006" class="edge">
<title>Node1&#45;&gt;Node6</title>
<g id="a_edge5_Node000001_Node000006"><a xlink:title=" ">
<path fill="none" stroke="#63b8ff" d="M284.47,-167.73C283.13,-146.37 282.37,-92.71 304.25,-56 311.49,-43.85 323.38,-33.84 334.59,-26.37"/>
<polygon fill="#63b8ff" stroke="#63b8ff" points="336.19,-29.5 342.85,-21.27 332.51,-23.55 336.19,-29.5"/>
</a>
</g>
</g>
<!-- Node7 -->
<g id="Node000007" class="node">
<title>Node7</title>
<g id="a_Node000007"><a xlink:href="alerts_8h.html" target="_top" xlink:title="Alert record generation from a set of vital sign measurements.">
<polygon fill="white" stroke="#666666" points="361.38,-76 313.12,-76 313.12,-56 361.38,-56 361.38,-76"/>
<text xml:space="preserve" text-anchor="middle" x="337.25" y="-62.5" font-family="Helvetica,sans-Serif" font-size="10.00">alerts.h</text>
</a>
</g>
</g>
<!-- Node1&#45;&gt;Node7 -->
<g id="edge6_Node000001_Node000007" class="edge">
<title>Node1&#45;&gt;Node7</title>
<g id="a_edge6_Node000001_Node000007"><a xlink:title=" ">
<path fill="none" stroke="#63b8ff" d="M289.68,-167.62C298.13,-149.76 316.67,-110.53 327.95,-86.67"/>
<polygon fill="#63b8ff" stroke="#63b8ff" points="331.07,-88.26 332.18,-77.72 324.74,-85.27 331.07,-88.26"/>
</a>
</g>
</g>
<!-- Node8 -->
<g id="Node000008" class="node">
<title>Node8</title>
<g id="a_Node000008"><a xlink:href="patient_8h.html" target="_top" xlink:title="Patient record management — demographic data and vital sign history.">
<polygon fill="white" stroke="#666666" points="405,-132 351.5,-132 351.5,-112 405,-112 405,-132"/>
<text xml:space="preserve" text-anchor="middle" x="378.25" y="-118.5" font-family="Helvetica,sans-Serif" font-size="10.00">patient.h</text>
</a>
</g>
</g>
<!-- Node1&#45;&gt;Node8 -->
<g id="edge8_Node000001_Node000008" class="edge">
<title>Node1&#45;&gt;Node8</title>
<g id="a_edge8_Node000001_Node000008"><a xlink:title=" ">
<path fill="none" stroke="#63b8ff" d="M301.45,-167.59C315.5,-159.44 336.08,-147.48 352.41,-138"/>
<polygon fill="#63b8ff" stroke="#63b8ff" points="353.72,-141.29 360.62,-133.24 350.21,-135.23 353.72,-141.29"/>
</a>
</g>
</g>
<!-- Node9 -->
<g id="Node000009" class="node">
<title>Node9</title>
<g id="a_Node000009"><a xlink:href="gui__auth_8h.html" target="_top" xlink:title="GUI authentication interface.">
<polygon fill="white" stroke="#666666" points="483.75,-132 422.75,-132 422.75,-112 483.75,-112 483.75,-132"/>
<text xml:space="preserve" text-anchor="middle" x="453.25" y="-118.5" font-family="Helvetica,sans-Serif" font-size="10.00">gui_auth.h</text>
</a>
</g>
</g>
<!-- Node1&#45;&gt;Node9 -->
<g id="edge11_Node000001_Node000009" class="edge">
<title>Node1&#45;&gt;Node9</title>
<g id="a_edge11_Node000001_Node000009"><a xlink:title=" ">
<path fill="none" stroke="#63b8ff" d="M314.51,-167.59C341.81,-158.82 382.76,-145.66 413.1,-135.9"/>
<polygon fill="#63b8ff" stroke="#63b8ff" points="413.87,-139.33 422.32,-132.94 411.73,-132.67 413.87,-139.33"/>
</a>
</g>
</g>
<!-- Node10 -->
<g id="Node000010" class="node">
<title>Node10</title>
<g id="a_Node000010"><a xlink:href="hw__vitals_8h.html" target="_top" xlink:title="Hardware Abstraction Layer (HAL) for vital signs acquisition.">
<polygon fill="white" stroke="#666666" points="514,-76 448.5,-76 448.5,-56 514,-56 514,-76"/>
<text xml:space="preserve" text-anchor="middle" x="481.25" y="-62.5" font-family="Helvetica,sans-Serif" font-size="10.00">hw_vitals.h</text>
</a>
</g>
</g>
<!-- Node1&#45;&gt;Node10 -->
<g id="edge12_Node000001_Node000010" class="edge">
<title>Node1&#45;&gt;Node10</title>
<g id="a_edge12_Node000001_Node000010"><a xlink:title=" ">
<path fill="none" stroke="#63b8ff" d="M325.2,-174.18C379.59,-169.42 472.54,-157.66 493.25,-132 503.6,-119.17 498.56,-100.28 492.14,-86.17"/>
<polygon fill="#63b8ff" stroke="#63b8ff" points="495.34,-84.73 487.66,-77.43 489.11,-87.92 495.34,-84.73"/>
</a>
</g>
</g>
<!-- Node7&#45;&gt;Node6 -->
<g id="edge7_Node000007_Node000006" class="edge">
<title>Node7&#45;&gt;Node6</title>
<g id="a_edge7_Node000007_Node000006"><a xlink:title=" ">
<path fill="none" stroke="#63b8ff" d="M341.78,-55.59C345.1,-48.7 349.72,-39.1 353.83,-30.57"/>
<polygon fill="#63b8ff" stroke="#63b8ff" points="356.93,-32.19 358.12,-21.66 350.62,-29.15 356.93,-32.19"/>
</a>
</g>
</g>
<!-- Node8&#45;&gt;Node6 -->
<g id="edge9_Node000008_Node000006" class="edge">
<title>Node8&#45;&gt;Node6</title>
<g id="a_edge9_Node000008_Node000006"><a xlink:title=" ">
<path fill="none" stroke="#63b8ff" d="M377.2,-111.73C375.76,-99.11 373.01,-75.82 370.25,-56 369.13,-47.98 367.79,-39.17 366.58,-31.49"/>
<polygon fill="#63b8ff" stroke="#63b8ff" points="370.06,-31.11 365.02,-21.79 363.15,-32.22 370.06,-31.11"/>
</a>
</g>
</g>
<!-- Node8&#45;&gt;Node7 -->
<g id="edge10_Node000008_Node000007" class="edge">
<title>Node8&#45;&gt;Node7</title>
<g id="a_edge10_Node000008_Node000007"><a xlink:title=" ">
<path fill="none" stroke="#63b8ff" d="M371.11,-111.59C365.64,-104.39 357.93,-94.23 351.24,-85.43"/>
<polygon fill="#63b8ff" stroke="#63b8ff" points="354.06,-83.35 345.23,-77.5 348.48,-87.58 354.06,-83.35"/>
</a>
</g>
</g>
<!-- Node10&#45;&gt;Node6 -->
<g id="edge13_Node000010_Node000006" class="edge">
<title>Node10&#45;&gt;Node6</title>
<g id="a_edge13_Node000010_Node000006"><a xlink:title=" ">
<path fill="none" stroke="#63b8ff" d="M460.7,-55.59C442.37,-47.21 415.26,-34.8 394.29,-25.21"/>
<polygon fill="#63b8ff" stroke="#63b8ff" points="395.89,-22.09 385.34,-21.11 392.98,-28.45 395.89,-22.09"/>
</a>
</g>
</g>
</g>
</svg>

<g id="navigator" transform="translate(0 0)" fill="#404254">
  <rect fill="#f2f5e9" fill-opacity="0.5" stroke="#606060" stroke-width=".5" x="0" y="0" width="60" height="60"/>
  <use id="zoomplus" xlink:href="#zoomPlus" x="17" y="9" onmousedown="handleZoom(evt,'in')"/>
  <use id="zoomminus" xlink:href="#zoomMin" x="42" y="9" onmousedown="handleZoom(evt,'out')"/>
  <use id="reset" xlink:href="#resetDef" x="30" y="36" onmousedown="handleReset()"/>
   <use id="arrowup" xlink:href="#arrowUp" x="0" y="0" onmousedown="handlePan(0,-1)"/>
  <use id="arrowright" xlink:href="#arrowRight" x="0" y="0" onmousedown="handlePan(1,0)"/>
  <use id="arrowdown" xlink:href="#arrowDown" x="0" y="0" onmousedown="handlePan(0,1)"/>
  <use id="arrowleft" xlink:href="#arrowLeft" x="0" y="0" onmousedown="handlePan(-1,0)"/>
</g>
<svg viewBox="0 0 15 15" width="100%" height="30px" preserveAspectRatio="xMaxYMin meet">
 <g id="arrow_out" transform="scale(0.3 0.3)">
  <a xlink:href="gui__main_8c__incl_org.svg" target="_base">
   <rect id="button" ry="5" rx="5" y="6" x="6" height="38" width="38"
        fill="#f2f5e9" fill-opacity="0.5" stroke="#606060" stroke-width="1.0"/>
   <path id="arrow"
     d="M 11.500037,31.436501 C 11.940474,20.09759 22.043105,11.32322 32.158766,21.979434 L 37.068811,17.246167 C 37.068811,17.246167 37.088388,32 37.088388,32 L 22.160133,31.978069 C 22.160133,31.978069 26.997745,27.140456 26.997745,27.140456 C 18.528582,18.264221 13.291696,25.230495 11.500037,31.436501 z"
     style="fill:#404040;"/>
  </a>
 </g>
</svg>

<style type='text/css'>
<![CDATA[
[data-mouse-over-selected='false'] { opacity: 0.7; }
[data-mouse-over-selected='true']  { opacity: 1.0; }
]]>
</style>
<script type="application/ecmascript"><![CDATA[
document.addEventListener('DOMContentLoaded', (event) => {
  highlightEdges();
  highlightAdjacentNodes();
});
]]></script>
</svg>
