<?xml version="1.0" encoding="UTF-8" standalone="no"?>
<!DOCTYPE svg PUBLIC "-//W3C//DTD SVG 1.1//EN"
 "http://www.w3.org/Graphics/SVG/1.1/DTD/svg11.dtd">
<!-- Generated by graphviz version 14.1.4 (20260321.0153)
 -->
<!-- Title: paint_patient_bar Pages: 1 -->
<svg width="210pt" height="142pt"
 viewBox="0.00 0.00 210.00 142.00" xmlns="http://www.w3.org/2000/svg" xmlns:xlink="http://www.w3.org/1999/xlink">
<g id="graph0" class="graph" transform="scale(1 1) rotate(0) translate(4 138)">
<title>paint_patient_bar</title>
<!-- Node1 -->
<g id="Node000001" class="node">
<title>Node1</title>
<g id="a_Node000001"><a xlink:title="Paint the patient summary bar. @req SWR&#45;GUI&#45;003.">
<polygon fill="#999999" stroke="#666666" points="90.25,-77 0,-77 0,-57 90.25,-57 90.25,-77"/>
<text xml:space="preserve" text-anchor="middle" x="45.12" y="-63.5" font-family="Helvetica,sans-Serif" font-size="10.00">paint_patient_bar</text>
</a>
</g>
</g>
<!-- Node2 -->
<g id="Node000002" class="node">
<title>Node2</title>
<g id="a_Node000002"><a xlink:href="vitals_8c.html#a7a7981a0a087b3b98763ed48bc789888" target="_top" xlink:title="Map a BMI value to a WHO weight&#45;status category string.">
<polygon fill="white" stroke="#666666" points="201.5,-134 127,-134 127,-114 201.5,-114 201.5,-134"/>
<text xml:space="preserve" text-anchor="middle" x="164.25" y="-120.5" font-family="Helvetica,sans-Serif" font-size="10.00">bmi_category</text>
</a>
</g>
</g>
<!-- Node1&#45;&gt;Node2 -->
<g id="edge1_Node000001_Node000002" class="edge">
<title>Node1&#45;&gt;Node2</title>
<g id="a_edge1_Node000001_Node000002"><a xlink:title=" ">
<path fill="none" stroke="#63b8ff" d="M67.61,-77.45C85.52,-86.17 111.3,-98.72 131.58,-108.59"/>
<polygon fill="#63b8ff" stroke="#63b8ff" points="130.02,-111.72 140.54,-112.95 133.08,-105.43 130.02,-111.72"/>
</a>
</g>
</g>
<!-- Node3 -->
<g id="Node000003" class="node">
<title>Node3</title>
<g id="a_Node000003"><a xlink:href="vitals_8c.html#a10dc695991eacf8ffea85c92b9331aec" target="_top" xlink:title="Calculate BMI using the standard WHO formula.">
<polygon fill="white" stroke="#666666" points="202.25,-96 126.25,-96 126.25,-76 202.25,-76 202.25,-96"/>
<text xml:space="preserve" text-anchor="middle" x="164.25" y="-82.5" font-family="Helvetica,sans-Serif" font-size="10.00">calculate_bmi</text>
</a>
</g>
</g>
<!-- Node1&#45;&gt;Node3 -->
<g id="edge2_Node000001_Node000003" class="edge">
<title>Node1&#45;&gt;Node3</title>
<g id="a_edge2_Node000001_Node000003"><a xlink:title=" ">
<path fill="none" stroke="#63b8ff" d="M90.74,-74.24C98.56,-75.51 106.73,-76.83 114.65,-78.12"/>
<polygon fill="#63b8ff" stroke="#63b8ff" points="114.08,-81.57 124.51,-79.72 115.2,-74.66 114.08,-81.57"/>
</a>
</g>
</g>
<!-- Node4 -->
<g id="Node000004" class="node">
<title>Node4</title>
<g id="a_Node000004"><a xlink:href="gui__main_8c.html#a18faa01dfc1221353f0ca130f5647098" target="_top" xlink:title=" ">
<polygon fill="white" stroke="#666666" points="201.5,-58 127,-58 127,-38 201.5,-38 201.5,-58"/>
<text xml:space="preserve" text-anchor="middle" x="164.25" y="-44.5" font-family="Helvetica,sans-Serif" font-size="10.00">draw_text_ex</text>
</a>
</g>
</g>
<!-- Node1&#45;&gt;Node4 -->
<g id="edge3_Node000001_Node000004" class="edge">
<title>Node1&#45;&gt;Node4</title>
<g id="a_edge3_Node000001_Node000004"><a xlink:title=" ">
<path fill="none" stroke="#63b8ff" d="M90.74,-59.76C98.82,-58.45 107.29,-57.08 115.46,-55.75"/>
<polygon fill="#63b8ff" stroke="#63b8ff" points="115.94,-59.22 125.25,-54.16 114.82,-52.31 115.94,-59.22"/>
</a>
</g>
</g>
<!-- Node5 -->
<g id="Node000005" class="node">
<title>Node5</title>
<g id="a_Node000005"><a xlink:href="gui__main_8c.html#a44c4ee73fc9a634398e794afaf73d079" target="_top" xlink:title=" ">
<polygon fill="white" stroke="#666666" points="188,-20 140.5,-20 140.5,0 188,0 188,-20"/>
<text xml:space="preserve" text-anchor="middle" x="164.25" y="-6.5" font-family="Helvetica,sans-Serif" font-size="10.00">fill_rect</text>
</a>
</g>
</g>
<!-- Node1&#45;&gt;Node5 -->
<g id="edge4_Node000001_Node000005" class="edge">
<title>Node1&#45;&gt;Node5</title>
<g id="a_edge4_Node000001_Node000005"><a xlink:title=" ">
<path fill="none" stroke="#63b8ff" d="M67.61,-56.55C85.52,-47.83 111.3,-35.28 131.58,-25.41"/>
<polygon fill="#63b8ff" stroke="#63b8ff" points="133.08,-28.57 140.54,-21.05 130.02,-22.28 133.08,-28.57"/>
</a>
</g>
</g>
</g>
</svg>
