<?xml version="1.0" encoding="UTF-8" standalone="no"?>
<!DOCTYPE svg PUBLIC "-//W3C//DTD SVG 1.1//EN"
 "http://www.w3.org/Graphics/SVG/1.1/DTD/svg11.dtd">
<!-- Generated by graphviz version 14.1.4 (20260321.0153)
 -->
<!-- Title: paint_tiles Pages: 1 -->
<svg width="256pt" height="28pt"
 viewBox="0.00 0.00 256.00 28.00" xmlns="http://www.w3.org/2000/svg" xmlns:xlink="http://www.w3.org/1999/xlink">
<g id="graph0" class="graph" transform="scale(1 1) rotate(0) translate(4 24)">
<title>paint_tiles</title>
<!-- Node1 -->
<g id="Node000001" class="node">
<title>Node1</title>
<g id="a_Node000001"><a xlink:title="Paint the 2×2 vital sign tile grid. @req SWR&#45;GUI&#45;003.">
<polygon fill="#999999" stroke="#666666" points="247.5,-20 187.25,-20 187.25,0 247.5,0 247.5,-20"/>
<text xml:space="preserve" text-anchor="middle" x="217.38" y="-6.5" font-family="Helvetica,sans-Serif" font-size="10.00">paint_tiles</text>
</a>
</g>
</g>
<!-- Node2 -->
<g id="Node000002" class="node">
<title>Node2</title>
<g id="a_Node000002"><a xlink:href="gui__main_8c.html#a50c9496063704973573429586a90b27d" target="_top" xlink:title=" ">
<polygon fill="white" stroke="#666666" points="151.25,-20 90.25,-20 90.25,0 151.25,0 151.25,-20"/>
<text xml:space="preserve" text-anchor="middle" x="120.75" y="-6.5" font-family="Helvetica,sans-Serif" font-size="10.00">dash_proc</text>
</a>
</g>
</g>
<!-- Node1&#45;&gt;Node2 -->
<g id="edge1_Node000001_Node000002" class="edge">
<title>Node1&#45;&gt;Node2</title>
<g id="a_edge1_Node000001_Node000002"><a xlink:title=" ">
<path fill="none" stroke="#63b8ff" d="M175.44,-10C167.39,-10 159.08,-10 151.48,-10"/>
<polygon fill="#63b8ff" stroke="#63b8ff" points="175.44,-13.5 185.44,-10 175.44,-6.5 175.44,-13.5"/>
</a>
</g>
</g>
<!-- Node3 -->
<g id="Node000003" class="node">
<title>Node3</title>
<g id="a_Node000003"><a xlink:href="gui__main_8c.html#aab234127c99873cb463e482155cb679f" target="_top" xlink:title=" ">
<polygon fill="white" stroke="#666666" points="54.25,-20 0,-20 0,0 54.25,0 54.25,-20"/>
<text xml:space="preserve" text-anchor="middle" x="27.12" y="-6.5" font-family="Helvetica,sans-Serif" font-size="10.00">WinMain</text>
</a>
</g>
</g>
<!-- Node2&#45;&gt;Node3 -->
<g id="edge2_Node000002_Node000003" class="edge">
<title>Node2&#45;&gt;Node3</title>
<g id="a_edge2_Node000002_Node000003"><a xlink:title=" ">
<path fill="none" stroke="#63b8ff" d="M78.7,-10C70.53,-10 62.16,-10 54.63,-10"/>
<polygon fill="#63b8ff" stroke="#63b8ff" points="78.49,-13.5 88.49,-10 78.49,-6.5 78.49,-13.5"/>
</a>
</g>
</g>
</g>
</svg>
