<?xml version="1.0" encoding="UTF-8" standalone="no"?>
<!DOCTYPE svg PUBLIC "-//W3C//DTD SVG 1.1//EN"
 "http://www.w3.org/Graphics/SVG/1.1/DTD/svg11.dtd">
<!-- Generated by graphviz version 14.1.4 (20260321.0153)
 -->
<!-- Title: paint_status_banner Pages: 1 -->
<svg width="557pt" height="142pt"
 viewBox="0.00 0.00 557.00 142.00" xmlns="http://www.w3.org/2000/svg" xmlns:xlink="http://www.w3.org/1999/xlink">
<g id="graph0" class="graph" transform="scale(1 1) rotate(0) translate(4 138)">
<title>paint_status_banner</title>
<!-- Node1 -->
<g id="Node000001" class="node">
<title>Node1</title>
<g id="a_Node000001"><a xlink:title="Paint the aggregate status banner. @req SWR&#45;GUI&#45;003.">
<polygon fill="#999999" stroke="#666666" points="103.75,-96 0,-96 0,-76 103.75,-76 103.75,-96"/>
<text xml:space="preserve" text-anchor="middle" x="51.88" y="-82.5" font-family="Helvetica,sans-Serif" font-size="10.00">paint_status_banner</text>
</a>
</g>
</g>
<!-- Node2 -->
<g id="Node000002" class="node">
<title>Node2</title>
<g id="a_Node000002"><a xlink:href="gui__main_8c.html#a18faa01dfc1221353f0ca130f5647098" target="_top" xlink:title=" ">
<polygon fill="white" stroke="#666666" points="233.38,-134 158.88,-134 158.88,-114 233.38,-114 233.38,-134"/>
<text xml:space="preserve" text-anchor="middle" x="196.12" y="-120.5" font-family="Helvetica,sans-Serif" font-size="10.00">draw_text_ex</text>
</a>
</g>
</g>
<!-- Node1&#45;&gt;Node2 -->
<g id="edge1_Node000001_Node000002" class="edge">
<title>Node1&#45;&gt;Node2</title>
<g id="a_edge1_Node000001_Node000002"><a xlink:title=" ">
<path fill="none" stroke="#63b8ff" d="M92.12,-96.48C109.28,-101.07 129.57,-106.49 147.58,-111.3"/>
<polygon fill="#63b8ff" stroke="#63b8ff" points="146.42,-114.61 156.99,-113.81 148.23,-107.85 146.42,-114.61"/>
</a>
</g>
</g>
<!-- Node3 -->
<g id="Node000003" class="node">
<title>Node3</title>
<g id="a_Node000003"><a xlink:href="gui__main_8c.html#a44c4ee73fc9a634398e794afaf73d079" target="_top" xlink:title=" ">
<polygon fill="white" stroke="#666666" points="219.88,-96 172.38,-96 172.38,-76 219.88,-76 219.88,-96"/>
<text xml:space="preserve" text-anchor="middle" x="196.12" y="-82.5" font-family="Helvetica,sans-Serif" font-size="10.00">fill_rect</text>
</a>
</g>
</g>
<!-- Node1&#45;&gt;Node3 -->
<g id="edge2_Node000001_Node000003" class="edge">
<title>Node1&#45;&gt;Node3</title>
<g id="a_edge2_Node000001_Node000003"><a xlink:title=" ">
<path fill="none" stroke="#63b8ff" d="M104.23,-86C123.11,-86 144.01,-86 161,-86"/>
<polygon fill="#63b8ff" stroke="#63b8ff" points="160.56,-89.5 170.56,-86 160.56,-82.5 160.56,-89.5"/>
</a>
</g>
</g>
<!-- Node4 -->
<g id="Node000004" class="node">
<title>Node4</title>
<g id="a_Node000004"><a xlink:href="patient_8c.html#a7efb2602c9a2566fee89ff6d6af42bcf" target="_top" xlink:title="Return the overall status from the latest reading.">
<polygon fill="white" stroke="#666666" points="252.5,-58 139.75,-58 139.75,-38 252.5,-38 252.5,-58"/>
<text xml:space="preserve" text-anchor="middle" x="196.12" y="-44.5" font-family="Helvetica,sans-Serif" font-size="10.00">patient_current_status</text>
</a>
</g>
</g>
<!-- Node1&#45;&gt;Node4 -->
<g id="edge3_Node000001_Node000004" class="edge">
<title>Node1&#45;&gt;Node4</title>
<g id="a_edge3_Node000001_Node000004"><a xlink:title=" ">
<path fill="none" stroke="#63b8ff" d="M92.12,-75.52C108.45,-71.15 127.6,-66.04 144.93,-61.41"/>
<polygon fill="#63b8ff" stroke="#63b8ff" points="145.79,-64.8 154.54,-58.84 143.98,-58.04 145.79,-64.8"/>
</a>
</g>
</g>
<!-- Node5 -->
<g id="Node000005" class="node">
<title>Node5</title>
<g id="a_Node000005"><a xlink:href="vitals_8c.html#af7201b2a5a70f76ab81ade218a863830" target="_top" xlink:title="Return the highest alert level across all four vital parameters.">
<polygon fill="white" stroke="#666666" points="391.12,-77 297.12,-77 297.12,-57 391.12,-57 391.12,-77"/>
<text xml:space="preserve" text-anchor="middle" x="344.12" y="-63.5" font-family="Helvetica,sans-Serif" font-size="10.00">overall_alert_level</text>
</a>
</g>
</g>
<!-- Node4&#45;&gt;Node5 -->
<g id="edge4_Node000004_Node000005" class="edge">
<title>Node4&#45;&gt;Node5</title>
<g id="a_edge4_Node000004_Node000005"><a xlink:title=" ">
<path fill="none" stroke="#63b8ff" d="M252.74,-55.24C263.39,-56.62 274.57,-58.08 285.29,-59.47"/>
<polygon fill="#63b8ff" stroke="#63b8ff" points="284.83,-62.94 295.19,-60.76 285.73,-56 284.83,-62.94"/>
</a>
</g>
</g>
<!-- Node10 -->
<g id="Node000010" class="node">
<title>Node10</title>
<g id="a_Node000010"><a xlink:href="patient_8c.html#aaf2d461ddd1efafe4887647d0c8688d7" target="_top" xlink:title="Return a pointer to the most recent reading, or NULL if none exist.">
<polygon fill="white" stroke="#666666" points="399.75,-39 288.5,-39 288.5,-19 399.75,-19 399.75,-39"/>
<text xml:space="preserve" text-anchor="middle" x="344.12" y="-25.5" font-family="Helvetica,sans-Serif" font-size="10.00">patient_latest_reading</text>
</a>
</g>
</g>
<!-- Node4&#45;&gt;Node10 -->
<g id="edge9_Node000004_Node000010" class="edge">
<title>Node4&#45;&gt;Node10</title>
<g id="a_edge9_Node000004_Node000010"><a xlink:title=" ">
<path fill="none" stroke="#63b8ff" d="M252.74,-40.76C260.63,-39.74 268.8,-38.67 276.86,-37.62"/>
<polygon fill="#63b8ff" stroke="#63b8ff" points="277.18,-41.11 286.65,-36.35 276.28,-34.17 277.18,-41.11"/>
</a>
</g>
</g>
<!-- Node6 -->
<g id="Node000006" class="node">
<title>Node6</title>
<g id="a_Node000006"><a xlink:href="vitals_8c.html#a3c853e30a899042babf9fdd2bd2cbfc1" target="_top" xlink:title="Classify a blood pressure reading.">
<polygon fill="white" stroke="#666666" points="549.25,-134 435.75,-134 435.75,-114 549.25,-114 549.25,-134"/>
<text xml:space="preserve" text-anchor="middle" x="492.5" y="-120.5" font-family="Helvetica,sans-Serif" font-size="10.00">check_blood_pressure</text>
</a>
</g>
</g>
<!-- Node5&#45;&gt;Node6 -->
<g id="edge5_Node000005_Node000006" class="edge">
<title>Node5&#45;&gt;Node6</title>
<g id="a_edge5_Node000005_Node000006"><a xlink:title=" ">
<path fill="none" stroke="#63b8ff" d="M368.8,-77.45C386.98,-85.35 412.78,-96.28 435.75,-105 439.93,-106.59 444.31,-108.19 448.7,-109.75"/>
<polygon fill="#63b8ff" stroke="#63b8ff" points="447.5,-113.04 458.1,-113.02 449.81,-106.43 447.5,-113.04"/>
</a>
</g>
</g>
<!-- Node7 -->
<g id="Node000007" class="node">
<title>Node7</title>
<g id="a_Node000007"><a xlink:href="vitals_8c.html#a7604eb6b23010f139f6f960b184a3b28" target="_top" xlink:title="Classify a heart rate reading.">
<polygon fill="white" stroke="#666666" points="538,-96 447,-96 447,-76 538,-76 538,-96"/>
<text xml:space="preserve" text-anchor="middle" x="492.5" y="-82.5" font-family="Helvetica,sans-Serif" font-size="10.00">check_heart_rate</text>
</a>
</g>
</g>
<!-- Node5&#45;&gt;Node7 -->
<g id="edge6_Node000005_Node000007" class="edge">
<title>Node5&#45;&gt;Node7</title>
<g id="a_edge6_Node000005_Node000007"><a xlink:title=" ">
<path fill="none" stroke="#63b8ff" d="M391.44,-73.01C405.59,-74.85 421.29,-76.89 435.99,-78.79"/>
<polygon fill="#63b8ff" stroke="#63b8ff" points="435.12,-82.21 445.49,-80.03 436.02,-75.27 435.12,-82.21"/>
</a>
</g>
</g>
<!-- Node8 -->
<g id="Node000008" class="node">
<title>Node8</title>
<g id="a_Node000008"><a xlink:href="vitals_8c.html#ac0bc076e63894a96df90f2eab73c88fe" target="_top" xlink:title="Classify an SpO2 reading.">
<polygon fill="white" stroke="#666666" points="526.75,-58 458.25,-58 458.25,-38 526.75,-38 526.75,-58"/>
<text xml:space="preserve" text-anchor="middle" x="492.5" y="-44.5" font-family="Helvetica,sans-Serif" font-size="10.00">check_spo2</text>
</a>
</g>
</g>
<!-- Node5&#45;&gt;Node8 -->
<g id="edge7_Node000005_Node000008" class="edge">
<title>Node5&#45;&gt;Node8</title>
<g id="a_edge7_Node000005_Node000008"><a xlink:title=" ">
<path fill="none" stroke="#63b8ff" d="M391.44,-60.99C409.08,-58.7 429.14,-56.09 446.65,-53.82"/>
<polygon fill="#63b8ff" stroke="#63b8ff" points="447.04,-57.3 456.51,-52.54 446.14,-50.36 447.04,-57.3"/>
</a>
</g>
</g>
<!-- Node9 -->
<g id="Node000009" class="node">
<title>Node9</title>
<g id="a_Node000009"><a xlink:href="vitals_8c.html#aef7f6fa183fbc5412c13ea63bd2b62ce" target="_top" xlink:title="Classify a temperature reading.">
<polygon fill="white" stroke="#666666" points="542.12,-20 442.88,-20 442.88,0 542.12,0 542.12,-20"/>
<text xml:space="preserve" text-anchor="middle" x="492.5" y="-6.5" font-family="Helvetica,sans-Serif" font-size="10.00">check_temperature</text>
</a>
</g>
</g>
<!-- Node5&#45;&gt;Node9 -->
<g id="edge8_Node000005_Node000009" class="edge">
<title>Node5&#45;&gt;Node9</title>
<g id="a_edge8_Node000005_Node000009"><a xlink:title=" ">
<path fill="none" stroke="#63b8ff" d="M377.79,-56.54C385.09,-53.95 392.75,-51.04 399.75,-48 416.34,-40.79 419.14,-36.16 435.75,-29 439.54,-27.37 443.52,-25.77 447.54,-24.25"/>
<polygon fill="#63b8ff" stroke="#63b8ff" points="448.52,-27.62 456.73,-20.92 446.14,-21.04 448.52,-27.62"/>
</a>
</g>
</g>
</g>
</svg>
