<?xml version="1.0" encoding="UTF-8" standalone="no"?>
<!DOCTYPE svg PUBLIC "-//W3C//DTD SVG 1.1//EN"
 "http://www.w3.org/Graphics/SVG/1.1/DTD/svg11.dtd">
<!-- Generated by graphviz version 14.1.4 (20260321.0153)
 -->
<!-- Title: draw_text_ex Pages: 1 -->
<!--zoomable 180 -->

<svg id="main" version="1.1" xmlns="http://www.w3.org/2000/svg" xmlns:xlink="http://www.w3.org/1999/xlink" xml:space="preserve" onload="init(evt)">

<style type="text/css"><![CDATA[
.node, .edge {opacity: 0.7;}
.node.selected, .edge.selected {opacity: 1;}
.edge:hover path { stroke: red; }
.edge:hover polygon { stroke: red; fill: red; }
]]></style>

<defs>
  <circle id="rim" cx="0" cy="0" r="7"/>
  <circle id="rim2" cx="0" cy="0" r="3.5"/>
  <g id="zoomPlus">
    <use xlink:href="#rim" fill="#404040"><set attributeName="fill" to="#808080" begin="zoomplus.mouseover" end="zoomplus.mouseout"/></use>
    <path d="M-4,0h8M0,-4v8" fill="none" stroke="white" stroke-width="1.5" pointer-events="none"/>
  </g>
  <g id="zoomMin">
    <use xlink:href="#rim" fill="#404040"><set attributeName="fill" to="#808080" begin="zoomminus.mouseover" end="zoomminus.mouseout"/></use>
    <path d="M-4,0h8" fill="none" stroke="white" stroke-width="1.5" pointer-events="none"/>
  </g>
  <g id="arrowUp" transform="translate(30 24)">
    <use xlink:href="#rim"/>
    <path pointer-events="none" fill="none" stroke="white" stroke-width="1.5" d="M0,-3.0v7 M-2.5,-0.5L0,-3.0L2.5,-0.5"/>
  </g>
  <g id="arrowRight" transform="rotate(90) translate(36 -43)">
    <use xlink:href="#rim"/>
    <path pointer-events="none" fill="none" stroke="white" stroke-width="1.5" d="M0,-3.0v7 M-2.5,-0.5L0,-3.0L2.5,-0.5"/>
  </g>
  <g id="arrowDown" transform="rotate(180) translate(-30 -48)">
    <use xlink:href="#rim"/>
    <path pointer-events="none" fill="none" stroke="white" stroke-width="1.5" d="M0,-3.0v7 M-2.5,-0.5L0,-3.0L2.5,-0.5"/>
  </g>
  <g id="arrowLeft" transform="rotate(270) translate(-36 17)">
    <use xlink:href="#rim"/>
    <path pointer-events="none" fill="none" stroke="white" stroke-width="1.5" d="M0,-3.0v7 M-2.5,-0.5L0,-3.0L2.5,-0.5"/>
  </g>
  <g id="resetDef">
    <use xlink:href="#rim2" fill="#404040"><set attributeName="fill" to="#808080" begin="reset.mouseover" end="reset.mouseout"/></use>
  </g>
</defs>
<script type="application/ecmascript">
var viewWidth = 536;
var viewHeight = 180;
var sectionId = 'dynsection-16';
</script>
<script type="application/ecmascript" xlink:href="svg.min.js"/>
<svg id="graph" class="graph">
<g id="viewport">
<title>draw_text_ex</title>
<!-- Node1 -->
<g id="Node000001" class="node">
<title>Node1</title>
<g id="a_Node000001"><a xlink:title=" ">
<polygon fill="#999999" stroke="#666666" points="527.75,-96 453.25,-96 453.25,-76 527.75,-76 527.75,-96"/>
<text xml:space="preserve" text-anchor="middle" x="490.5" y="-82.5" font-family="Helvetica,sans-Serif" font-size="10.00">draw_text_ex</text>
</a>
</g>
</g>
<!-- Node2 -->
<g id="Node000002" class="node">
<title>Node2</title>
<g id="a_Node000002"><a xlink:href="gui__main_8c.html#ab5a6eab1941232f61da34dc646009e99" target="_top" xlink:title=" ">
<polygon fill="white" stroke="#666666" points="269.25,-172 209,-172 209,-152 269.25,-152 269.25,-172"/>
<text xml:space="preserve" text-anchor="middle" x="239.12" y="-158.5" font-family="Helvetica,sans-Serif" font-size="10.00">login_proc</text>
</a>
</g>
</g>
<!-- Node1&#45;&gt;Node2 -->
<g id="edge1_Node000001_Node000002" class="edge">
<title>Node1&#45;&gt;Node2</title>
<g id="a_edge1_Node000001_Node000002"><a xlink:title=" ">
<path fill="none" stroke="#63b8ff" d="M472.45,-104.09C458.85,-117.27 438.61,-134.29 417.25,-143 368.28,-162.98 305.7,-164.75 269.54,-163.71"/>
<polygon fill="#63b8ff" stroke="#63b8ff" points="474.75,-106.75 479.3,-97.18 469.78,-101.82 474.75,-106.75"/>
</a>
</g>
</g>
<!-- Node4 -->
<g id="Node000004" class="node">
<title>Node4</title>
<g id="a_Node000004"><a xlink:href="gui__main_8c.html#a188d44abc7793a822368986491e74f37" target="_top" xlink:title="Paint the application header bar. @req SWR&#45;GUI&#45;002.">
<polygon fill="white" stroke="#666666" points="407.88,-134 336.38,-134 336.38,-114 407.88,-114 407.88,-134"/>
<text xml:space="preserve" text-anchor="middle" x="372.12" y="-120.5" font-family="Helvetica,sans-Serif" font-size="10.00">paint_header</text>
</a>
</g>
</g>
<!-- Node1&#45;&gt;Node4 -->
<g id="edge3_Node000001_Node000004" class="edge">
<title>Node1&#45;&gt;Node4</title>
<g id="a_edge3_Node000001_Node000004"><a xlink:title=" ">
<path fill="none" stroke="#63b8ff" d="M446.7,-99.98C432.95,-104.47 417.96,-109.36 405.13,-113.55"/>
<polygon fill="#63b8ff" stroke="#63b8ff" points="447.53,-103.39 455.95,-96.95 445.36,-96.73 447.53,-103.39"/>
</a>
</g>
</g>
<!-- Node6 -->
<g id="Node000006" class="node">
<title>Node6</title>
<g id="a_Node000006"><a xlink:href="gui__main_8c.html#a3a6ecd59596770bcfc1ecf6fa4fd3219" target="_top" xlink:title="Paint the patient summary bar. @req SWR&#45;GUI&#45;003.">
<polygon fill="white" stroke="#666666" points="417.25,-96 327,-96 327,-76 417.25,-76 417.25,-96"/>
<text xml:space="preserve" text-anchor="middle" x="372.12" y="-82.5" font-family="Helvetica,sans-Serif" font-size="10.00">paint_patient_bar</text>
</a>
</g>
</g>
<!-- Node1&#45;&gt;Node6 -->
<g id="edge6_Node000001_Node000006" class="edge">
<title>Node1&#45;&gt;Node6</title>
<g id="a_edge6_Node000001_Node000006"><a xlink:title=" ">
<path fill="none" stroke="#63b8ff" d="M441.64,-86C433.71,-86 425.52,-86 417.68,-86"/>
<polygon fill="#63b8ff" stroke="#63b8ff" points="441.48,-89.5 451.48,-86 441.48,-82.5 441.48,-89.5"/>
</a>
</g>
</g>
<!-- Node7 -->
<g id="Node000007" class="node">
<title>Node7</title>
<g id="a_Node000007"><a xlink:href="gui__main_8c.html#a71c5868a8a8bcd102dfebf5a8cd8e55a" target="_top" xlink:title="Paint the aggregate status banner. @req SWR&#45;GUI&#45;003.">
<polygon fill="white" stroke="#666666" points="291,-58 187.25,-58 187.25,-38 291,-38 291,-58"/>
<text xml:space="preserve" text-anchor="middle" x="239.12" y="-44.5" font-family="Helvetica,sans-Serif" font-size="10.00">paint_status_banner</text>
</a>
</g>
</g>
<!-- Node1&#45;&gt;Node7 -->
<g id="edge8_Node000001_Node000007" class="edge">
<title>Node1&#45;&gt;Node7</title>
<g id="a_edge8_Node000001_Node000007"><a xlink:title=" ">
<path fill="none" stroke="#63b8ff" d="M443.11,-72.7C434.56,-70.57 425.68,-68.55 417.25,-67 375.12,-59.25 326.73,-54.32 291.19,-51.43"/>
<polygon fill="#63b8ff" stroke="#63b8ff" points="442.07,-76.05 452.63,-75.17 443.83,-69.27 442.07,-76.05"/>
</a>
</g>
</g>
<!-- Node8 -->
<g id="Node000008" class="node">
<title>Node8</title>
<g id="a_Node000008"><a xlink:href="gui__main_8c.html#acd6770839efac2b7a1806be591ea1d80" target="_top" xlink:title="Paint one colour&#45;coded vital sign tile.">
<polygon fill="white" stroke="#666666" points="399.62,-20 344.62,-20 344.62,0 399.62,0 399.62,-20"/>
<text xml:space="preserve" text-anchor="middle" x="372.12" y="-6.5" font-family="Helvetica,sans-Serif" font-size="10.00">paint_tile</text>
</a>
</g>
</g>
<!-- Node1&#45;&gt;Node8 -->
<g id="edge10_Node000001_Node000008" class="edge">
<title>Node1&#45;&gt;Node8</title>
<g id="a_edge10_Node000001_Node000008"><a xlink:title=" ">
<path fill="none" stroke="#63b8ff" d="M467.11,-68.77C453.09,-58.26 434.47,-44.82 417.25,-34 409.72,-29.27 401.18,-24.5 393.64,-20.47"/>
<polygon fill="#63b8ff" stroke="#63b8ff" points="464.71,-71.35 474.8,-74.59 468.94,-65.76 464.71,-71.35"/>
</a>
</g>
</g>
<!-- Node3 -->
<g id="Node000003" class="node">
<title>Node3</title>
<g id="a_Node000003"><a xlink:href="gui__main_8c.html#aab234127c99873cb463e482155cb679f" target="_top" xlink:title=" ">
<polygon fill="white" stroke="#666666" points="54.25,-115 0,-115 0,-95 54.25,-95 54.25,-115"/>
<text xml:space="preserve" text-anchor="middle" x="27.12" y="-101.5" font-family="Helvetica,sans-Serif" font-size="10.00">WinMain</text>
</a>
</g>
</g>
<!-- Node2&#45;&gt;Node3 -->
<g id="edge2_Node000002_Node000003" class="edge">
<title>Node2&#45;&gt;Node3</title>
<g id="a_edge2_Node000002_Node000003"><a xlink:title=" ">
<path fill="none" stroke="#63b8ff" d="M197.93,-151.09C155.7,-139.63 90.52,-121.94 54.43,-112.14"/>
<polygon fill="#63b8ff" stroke="#63b8ff" points="196.9,-154.44 207.46,-153.68 198.73,-147.68 196.9,-154.44"/>
</a>
</g>
</g>
<!-- Node5 -->
<g id="Node000005" class="node">
<title>Node5</title>
<g id="a_Node000005"><a xlink:href="gui__main_8c.html#a50c9496063704973573429586a90b27d" target="_top" xlink:title=" ">
<polygon fill="white" stroke="#666666" points="151.25,-96 90.25,-96 90.25,-76 151.25,-76 151.25,-96"/>
<text xml:space="preserve" text-anchor="middle" x="120.75" y="-82.5" font-family="Helvetica,sans-Serif" font-size="10.00">dash_proc</text>
</a>
</g>
</g>
<!-- Node4&#45;&gt;Node5 -->
<g id="edge4_Node000004_Node000005" class="edge">
<title>Node4&#45;&gt;Node5</title>
<g id="a_edge4_Node000004_Node000005"><a xlink:title=" ">
<path fill="none" stroke="#63b8ff" d="M325.08,-119.03C287.79,-114.76 233.98,-108.03 187.25,-100 175.56,-97.99 162.79,-95.36 151.65,-92.92"/>
<polygon fill="#63b8ff" stroke="#63b8ff" points="324.26,-122.46 334.59,-120.11 325.04,-115.51 324.26,-122.46"/>
</a>
</g>
</g>
<!-- Node5&#45;&gt;Node3 -->
<g id="edge5_Node000005_Node000003" class="edge">
<title>Node5&#45;&gt;Node3</title>
<g id="a_edge5_Node000005_Node000003"><a xlink:title=" ">
<path fill="none" stroke="#63b8ff" d="M78.98,-94.45C70.72,-96.17 62.24,-97.93 54.63,-99.5"/>
<polygon fill="#63b8ff" stroke="#63b8ff" points="79.44,-97.93 88.52,-92.48 78.02,-91.08 79.44,-97.93"/>
</a>
</g>
</g>
<!-- Node6&#45;&gt;Node5 -->
<g id="edge7_Node000006_Node000005" class="edge">
<title>Node6&#45;&gt;Node5</title>
<g id="a_edge7_Node000006_Node000005"><a xlink:title=" ">
<path fill="none" stroke="#63b8ff" d="M315.13,-86C264.45,-86 191.76,-86 151.48,-86"/>
<polygon fill="#63b8ff" stroke="#63b8ff" points="315.03,-89.5 325.03,-86 315.03,-82.5 315.03,-89.5"/>
</a>
</g>
</g>
<!-- Node7&#45;&gt;Node5 -->
<g id="edge9_Node000007_Node000005" class="edge">
<title>Node7&#45;&gt;Node5</title>
<g id="a_edge9_Node000007_Node000005"><a xlink:title=" ">
<path fill="none" stroke="#63b8ff" d="M195.2,-62.02C180.62,-66.78 164.66,-71.99 151.36,-76.33"/>
<polygon fill="#63b8ff" stroke="#63b8ff" points="196.16,-65.39 204.58,-58.95 193.99,-58.73 196.16,-65.39"/>
</a>
</g>
</g>
<!-- Node9 -->
<g id="Node000009" class="node">
<title>Node9</title>
<g id="a_Node000009"><a xlink:href="gui__main_8c.html#a809c12bdd714ab44c54f45da4d3b2dc7" target="_top" xlink:title="Paint the 2×2 vital sign tile grid. @req SWR&#45;GUI&#45;003.">
<polygon fill="white" stroke="#666666" points="269.25,-20 209,-20 209,0 269.25,0 269.25,-20"/>
<text xml:space="preserve" text-anchor="middle" x="239.12" y="-6.5" font-family="Helvetica,sans-Serif" font-size="10.00">paint_tiles</text>
</a>
</g>
</g>
<!-- Node8&#45;&gt;Node9 -->
<g id="edge11_Node000008_Node000009" class="edge">
<title>Node8&#45;&gt;Node9</title>
<g id="a_edge11_Node000008_Node000009"><a xlink:title=" ">
<path fill="none" stroke="#63b8ff" d="M332.98,-10C312.79,-10 288.38,-10 269.65,-10"/>
<polygon fill="#63b8ff" stroke="#63b8ff" points="332.79,-13.5 342.79,-10 332.79,-6.5 332.79,-13.5"/>
</a>
</g>
</g>
<!-- Node9&#45;&gt;Node5 -->
<g id="edge12_Node000009_Node000005" class="edge">
<title>Node9&#45;&gt;Node5</title>
<g id="a_edge12_Node000009_Node000005"><a xlink:title=" ">
<path fill="none" stroke="#63b8ff" d="M197.98,-23.42C194.27,-25.12 190.63,-26.99 187.25,-29 164.97,-42.26 143.06,-63.43 131.08,-75.9"/>
<polygon fill="#63b8ff" stroke="#63b8ff" points="199.23,-26.69 207.11,-19.61 196.53,-20.23 199.23,-26.69"/>
</a>
</g>
</g>
</g>
</svg>

<g id="navigator" transform="translate(0 0)" fill="#404254">
  <rect fill="#f2f5e9" fill-opacity="0.5" stroke="#606060" stroke-width=".5" x="0" y="0" width="60" height="60"/>
  <use id="zoomplus" xlink:href="#zoomPlus" x="17" y="9" onmousedown="handleZoom(evt,'in')"/>
  <use id="zoomminus" xlink:href="#zoomMin" x="42" y="9" onmousedown="handleZoom(evt,'out')"/>
  <use id="reset" xlink:href="#resetDef" x="30" y="36" onmousedown="handleReset()"/>
   <use id="arrowup" xlink:href="#arrowUp" x="0" y="0" onmousedown="handlePan(0,-1)"/>
  <use id="arrowright" xlink:href="#arrowRight" x="0" y="0" onmousedown="handlePan(1,0)"/>
  <use id="arrowdown" xlink:href="#arrowDown" x="0" y="0" onmousedown="handlePan(0,1)"/>
  <use id="arrowleft" xlink:href="#arrowLeft" x="0" y="0" onmousedown="handlePan(-1,0)"/>
</g>
<svg viewBox="0 0 15 15" width="100%" height="30px" preserveAspectRatio="xMaxYMin meet">
 <g id="arrow_out" transform="scale(0.3 0.3)">
  <a xlink:href="gui__main_8c_a18faa01dfc1221353f0ca130f5647098_icgraph_org.svg" target="_base">
   <rect id="button" ry="5" rx="5" y="6" x="6" height="38" width="38"
        fill="#f2f5e9" fill-opacity="0.5" stroke="#606060" stroke-width="1.0"/>
   <path id="arrow"
     d="M 11.500037,31.436501 C 11.940474,20.09759 22.043105,11.32322 32.158766,21.979434 L 37.068811,17.246167 C 37.068811,17.246167 37.088388,32 37.088388,32 L 22.160133,31.978069 C 22.160133,31.978069 26.997745,27.140456 26.997745,27.140456 C 18.528582,18.264221 13.291696,25.230495 11.500037,31.436501 z"
     style="fill:#404040;"/>
  </a>
 </g>
</svg>

<style type='text/css'>
<![CDATA[
[data-mouse-over-selected='false'] { opacity: 0.7; }
[data-mouse-over-selected='true']  { opacity: 1.0; }
]]>
</style>
<script type="application/ecmascript"><![CDATA[
document.addEventListener('DOMContentLoaded', (event) => {
  highlightEdges();
  highlightAdjacentNodes();
});
]]></script>
</svg>
