<?xml version="1.0" encoding="UTF-8" standalone="no"?>
<!DOCTYPE svg PUBLIC "-//W3C//DTD SVG 1.1//EN"
 "http://www.w3.org/Graphics/SVG/1.1/DTD/svg11.dtd">
<!-- Generated by graphviz version 14.1.4 (20260321.0153)
 -->
<!-- Title: do_scenario Pages: 1 -->
<!--zoomable 246 -->

<svg id="main" version="1.1" xmlns="http://www.w3.org/2000/svg" xmlns:xlink="http://www.w3.org/1999/xlink" xml:space="preserve" onload="init(evt)">

<style type="text/css"><![CDATA[
.node, .edge {opacity: 0.7;}
.node.selected, .edge.selected {opacity: 1;}
.edge:hover path { stroke: red; }
.edge:hover polygon { stroke: red; fill: red; }
]]></style>

<defs>
  <circle id="rim" cx="0" cy="0" r="7"/>
  <circle id="rim2" cx="0" cy="0" r="3.5"/>
  <g id="zoomPlus">
    <use xlink:href="#rim" fill="#404040"><set attributeName="fill" to="#808080" begin="zoomplus.mouseover" end="zoomplus.mouseout"/></use>
    <path d="M-4,0h8M0,-4v8" fill="none" stroke="white" stroke-width="1.5" pointer-events="none"/>
  </g>
  <g id="zoomMin">
    <use xlink:href="#rim" fill="#404040"><set attributeName="fill" to="#808080" begin="zoomminus.mouseover" end="zoomminus.mouseout"/></use>
    <path d="M-4,0h8" fill="none" stroke="white" stroke-width="1.5" pointer-events="none"/>
  </g>
  <g id="arrowUp" transform="translate(30 24)">
    <use xlink:href="#rim"/>
    <path pointer-events="none" fill="none" stroke="white" stroke-width="1.5" d="M0,-3.0v7 M-2.5,-0.5L0,-3.0L2.5,-0.5"/>
  </g>
  <g id="arrowRight" transform="rotate(90) translate(36 -43)">
    <use xlink:href="#rim"/>
    <path pointer-events="none" fill="none" stroke="white" stroke-width="1.5" d="M0,-3.0v7 M-2.5,-0.5L0,-3.0L2.5,-0.5"/>
  </g>
  <g id="arrowDown" transform="rotate(180) translate(-30 -48)">
    <use xlink:href="#rim"/>
    <path pointer-events="none" fill="none" stroke="white" stroke-width="1.5" d="M0,-3.0v7 M-2.5,-0.5L0,-3.0L2.5,-0.5"/>
  </g>
  <g id="arrowLeft" transform="rotate(270) translate(-36 17)">
    <use xlink:href="#rim"/>
    <path pointer-events="none" fill="none" stroke="white" stroke-width="1.5" d="M0,-3.0v7 M-2.5,-0.5L0,-3.0L2.5,-0.5"/>
  </g>
  <g id="resetDef">
    <use xlink:href="#rim2" fill="#404040"><set attributeName="fill" to="#808080" begin="reset.mouseover" end="reset.mouseout"/></use>
  </g>
</defs>
<script type="application/ecmascript">
var viewWidth = 644;
var viewHeight = 246;
var sectionId = 'dynsection-14';
</script>
<script type="application/ecmascript" xlink:href="svg.min.js"/>
<svg id="graph" class="graph">
<g id="viewport">
<title>do_scenario</title>
<!-- Node1 -->
<g id="Node000001" class="node">
<title>Node1</title>
<g id="a_Node000001"><a xlink:title=" ">
<polygon fill="#999999" stroke="#666666" points="68.5,-77 0,-77 0,-57 68.5,-57 68.5,-77"/>
<text xml:space="preserve" text-anchor="middle" x="34.25" y="-63.5" font-family="Helvetica,sans-Serif" font-size="10.00">do_scenario</text>
</a>
</g>
</g>
<!-- Node2 -->
<g id="Node000002" class="node">
<title>Node2</title>
<g id="a_Node000002"><a xlink:href="gui__main_8c.html#a6bed6b36812029c7bc2eb263a12e5c98" target="_top" xlink:title="Admit a patient from the identity fields. @req SWR&#45;GUI&#45;004.">
<polygon fill="white" stroke="#666666" points="183.88,-143 128.12,-143 128.12,-123 183.88,-123 183.88,-143"/>
<text xml:space="preserve" text-anchor="middle" x="156" y="-129.5" font-family="Helvetica,sans-Serif" font-size="10.00">do_admit</text>
</a>
</g>
</g>
<!-- Node1&#45;&gt;Node2 -->
<g id="edge1_Node000001_Node000002" class="edge">
<title>Node1&#45;&gt;Node2</title>
<g id="a_edge1_Node000001_Node000002"><a xlink:title=" ">
<path fill="none" stroke="#63b8ff" d="M54.22,-77.46C73.58,-88.13 103.86,-104.82 126.18,-117.12"/>
<polygon fill="#63b8ff" stroke="#63b8ff" points="124.34,-120.1 134.79,-121.86 127.72,-113.97 124.34,-120.1"/>
</a>
</g>
</g>
<!-- Node7 -->
<g id="Node000007" class="node">
<title>Node7</title>
<g id="a_Node000007"><a xlink:href="gui__main_8c.html#a8faad4cd27c161432ac3388959b1a766" target="_top" xlink:title="Refresh all dynamic dashboard content after any data change. @req SWR&#45;GUI&#45;003 @req SWR&#45;GUI&#45;004.">
<polygon fill="white" stroke="#666666" points="339,-86 243.5,-86 243.5,-66 339,-66 339,-86"/>
<text xml:space="preserve" text-anchor="middle" x="291.25" y="-72.5" font-family="Helvetica,sans-Serif" font-size="10.00">update_dashboard</text>
</a>
</g>
</g>
<!-- Node1&#45;&gt;Node7 -->
<g id="edge23_Node000001_Node000007" class="edge">
<title>Node1&#45;&gt;Node7</title>
<g id="a_edge23_Node000001_Node000007"><a xlink:title=" ">
<path fill="none" stroke="#63b8ff" d="M68.85,-68.19C110.25,-69.65 181.3,-72.15 231.74,-73.94"/>
<polygon fill="#63b8ff" stroke="#63b8ff" points="231.5,-77.43 241.62,-74.28 231.75,-70.43 231.5,-77.43"/>
</a>
</g>
</g>
<!-- Node16 -->
<g id="Node000016" class="node">
<title>Node16</title>
<g id="a_Node000016"><a xlink:href="patient_8c.html#a0e22c10046f3778c1f194cc6377d7984" target="_top" xlink:title="Append a vital signs reading, enforcing the MAX_READINGS cap.">
<polygon fill="white" stroke="#666666" points="207.5,-58 104.5,-58 104.5,-38 207.5,-38 207.5,-58"/>
<text xml:space="preserve" text-anchor="middle" x="156" y="-44.5" font-family="Helvetica,sans-Serif" font-size="10.00">patient_add_reading</text>
</a>
</g>
</g>
<!-- Node1&#45;&gt;Node16 -->
<g id="edge21_Node000001_Node000016" class="edge">
<title>Node1&#45;&gt;Node16</title>
<g id="a_edge21_Node000001_Node000016"><a xlink:title=" ">
<path fill="none" stroke="#63b8ff" d="M68.93,-61.66C76.44,-60.46 84.64,-59.16 92.9,-57.85"/>
<polygon fill="#63b8ff" stroke="#63b8ff" points="93.31,-61.33 102.64,-56.31 92.21,-54.42 93.31,-61.33"/>
</a>
</g>
</g>
<!-- Node17 -->
<g id="Node000017" class="node">
<title>Node17</title>
<g id="a_Node000017"><a xlink:href="gui__main_8c.html#aea86431d3096bc14f4f06eb7906f8278" target="_top" xlink:title=" ">
<polygon fill="white" stroke="#666666" points="179,-20 133,-20 133,0 179,0 179,-20"/>
<text xml:space="preserve" text-anchor="middle" x="156" y="-6.5" font-family="Helvetica,sans-Serif" font-size="10.00">set_txt</text>
</a>
</g>
</g>
<!-- Node1&#45;&gt;Node17 -->
<g id="edge22_Node000001_Node000017" class="edge">
<title>Node1&#45;&gt;Node17</title>
<g id="a_edge22_Node000001_Node000017"><a xlink:title=" ">
<path fill="none" stroke="#63b8ff" d="M52.54,-56.61C66.34,-48.55 86.31,-37.36 104.5,-29 110.14,-26.41 116.24,-23.89 122.19,-21.57"/>
<polygon fill="#63b8ff" stroke="#63b8ff" points="123.05,-24.98 131.18,-18.19 120.59,-18.43 123.05,-24.98"/>
</a>
</g>
</g>
<!-- Node3 -->
<g id="Node000003" class="node">
<title>Node3</title>
<g id="a_Node000003"><a xlink:href="gui__main_8c.html#adfa90e96e8fab8b5af641dd49e420791" target="_top" xlink:title=" ">
<polygon fill="white" stroke="#666666" points="453.62,-200 407.62,-200 407.62,-180 453.62,-180 453.62,-200"/>
<text xml:space="preserve" text-anchor="middle" x="430.62" y="-186.5" font-family="Helvetica,sans-Serif" font-size="10.00">get_txt</text>
</a>
</g>
</g>
<!-- Node2&#45;&gt;Node3 -->
<g id="edge2_Node000002_Node000003" class="edge">
<title>Node2&#45;&gt;Node3</title>
<g id="a_edge2_Node000002_Node000003"><a xlink:title=" ">
<path fill="none" stroke="#63b8ff" d="M184.17,-128.4C220.33,-123.31 285.87,-117.68 339,-133 353.09,-137.06 384.26,-157.78 406.08,-173.07"/>
<polygon fill="#63b8ff" stroke="#63b8ff" points="403.94,-175.85 414.12,-178.77 407.98,-170.13 403.94,-175.85"/>
</a>
</g>
</g>
<!-- Node4 -->
<g id="Node000004" class="node">
<title>Node4</title>
<g id="a_Node000004"><a xlink:href="gui__main_8c.html#ac1006f93610e33d2d6f27dd2b1fb95a8" target="_top" xlink:title=" ">
<polygon fill="white" stroke="#666666" points="329.62,-238 252.88,-238 252.88,-218 329.62,-218 329.62,-238"/>
<text xml:space="preserve" text-anchor="middle" x="291.25" y="-224.5" font-family="Helvetica,sans-Serif" font-size="10.00">parse_flt_field</text>
</a>
</g>
</g>
<!-- Node2&#45;&gt;Node4 -->
<g id="edge3_Node000002_Node000004" class="edge">
<title>Node2&#45;&gt;Node4</title>
<g id="a_edge3_Node000002_Node000004"><a xlink:title=" ">
<path fill="none" stroke="#63b8ff" d="M166.5,-143.32C181.55,-159.2 212.38,-189.77 243.5,-209 245.62,-210.31 247.84,-211.56 250.13,-212.76"/>
<polygon fill="#63b8ff" stroke="#63b8ff" points="248.43,-215.83 258.97,-216.94 251.43,-209.5 248.43,-215.83"/>
</a>
</g>
</g>
<!-- Node5 -->
<g id="Node000005" class="node">
<title>Node5</title>
<g id="a_Node000005"><a xlink:href="gui__main_8c.html#a4f193d8e3ae8fd0a97d129b3437d8e86" target="_top" xlink:title=" ">
<polygon fill="white" stroke="#666666" points="330.75,-200 251.75,-200 251.75,-180 330.75,-180 330.75,-200"/>
<text xml:space="preserve" text-anchor="middle" x="291.25" y="-186.5" font-family="Helvetica,sans-Serif" font-size="10.00">parse_int_field</text>
</a>
</g>
</g>
<!-- Node2&#45;&gt;Node5 -->
<g id="edge5_Node000002_Node000005" class="edge">
<title>Node2&#45;&gt;Node5</title>
<g id="a_edge5_Node000002_Node000005"><a xlink:title=" ">
<path fill="none" stroke="#63b8ff" d="M180.42,-143.5C197.78,-151.23 222.05,-161.93 243.5,-171 246.89,-172.43 250.42,-173.91 253.97,-175.37"/>
<polygon fill="#63b8ff" stroke="#63b8ff" points="252.5,-178.55 263.08,-179.1 255.15,-172.07 252.5,-178.55"/>
</a>
</g>
</g>
<!-- Node6 -->
<g id="Node000006" class="node">
<title>Node6</title>
<g id="a_Node000006"><a xlink:href="patient_8c.html#a8fa76aa96b383df3556d391e64953536" target="_top" xlink:title="Initialise a PatientRecord, zeroing all fields before populating.">
<polygon fill="white" stroke="#666666" points="322.88,-162 259.62,-162 259.62,-142 322.88,-142 322.88,-162"/>
<text xml:space="preserve" text-anchor="middle" x="291.25" y="-148.5" font-family="Helvetica,sans-Serif" font-size="10.00">patient_init</text>
</a>
</g>
</g>
<!-- Node2&#45;&gt;Node6 -->
<g id="edge7_Node000002_Node000006" class="edge">
<title>Node2&#45;&gt;Node6</title>
<g id="a_edge7_Node000002_Node000006"><a xlink:title=" ">
<path fill="none" stroke="#63b8ff" d="M184.29,-136.89C202.66,-139.51 227.25,-143.02 248.12,-145.99"/>
<polygon fill="#63b8ff" stroke="#63b8ff" points="247.38,-149.42 257.77,-147.37 248.36,-142.49 247.38,-149.42"/>
</a>
</g>
</g>
<!-- Node2&#45;&gt;Node7 -->
<g id="edge8_Node000002_Node000007" class="edge">
<title>Node2&#45;&gt;Node7</title>
<g id="a_edge8_Node000002_Node000007"><a xlink:title=" ">
<path fill="none" stroke="#63b8ff" d="M181.44,-122.55C202.2,-113.67 232.23,-100.82 255.49,-90.87"/>
<polygon fill="#63b8ff" stroke="#63b8ff" points="256.76,-94.13 264.57,-86.98 254,-87.7 256.76,-94.13"/>
</a>
</g>
</g>
<!-- Node4&#45;&gt;Node3 -->
<g id="edge4_Node000004_Node000003" class="edge">
<title>Node4&#45;&gt;Node3</title>
<g id="a_edge4_Node000004_Node000003"><a xlink:title=" ">
<path fill="none" stroke="#63b8ff" d="M329.79,-217.62C350.51,-211.89 376.02,-204.83 396.07,-199.28"/>
<polygon fill="#63b8ff" stroke="#63b8ff" points="397.01,-202.65 405.71,-196.61 395.14,-195.91 397.01,-202.65"/>
</a>
</g>
</g>
<!-- Node5&#45;&gt;Node3 -->
<g id="edge6_Node000005_Node000003" class="edge">
<title>Node5&#45;&gt;Node3</title>
<g id="a_edge6_Node000005_Node000003"><a xlink:title=" ">
<path fill="none" stroke="#63b8ff" d="M331.25,-190C351.61,-190 376.29,-190 395.83,-190"/>
<polygon fill="#63b8ff" stroke="#63b8ff" points="395.74,-193.5 405.74,-190 395.74,-186.5 395.74,-193.5"/>
</a>
</g>
</g>
<!-- Node8 -->
<g id="Node000008" class="node">
<title>Node8</title>
<g id="a_Node000008"><a xlink:href="vitals_8c.html#a20a209843ea1eeff8484a7998d492615" target="_top" xlink:title="Convert an AlertLevel enum to a display string.">
<polygon fill="white" stroke="#666666" points="469,-29 392.25,-29 392.25,-9 469,-9 469,-29"/>
<text xml:space="preserve" text-anchor="middle" x="430.62" y="-15.5" font-family="Helvetica,sans-Serif" font-size="10.00">alert_level_str</text>
</a>
</g>
</g>
<!-- Node7&#45;&gt;Node8 -->
<g id="edge9_Node000007_Node000008" class="edge">
<title>Node7&#45;&gt;Node8</title>
<g id="a_edge9_Node000007_Node000008"><a xlink:title=" ">
<path fill="none" stroke="#63b8ff" d="M313.44,-65.59C330.01,-57.61 353.73,-46.56 375,-38 378.91,-36.43 383,-34.86 387.12,-33.34"/>
<polygon fill="#63b8ff" stroke="#63b8ff" points="388.3,-36.63 396.52,-29.95 385.93,-30.05 388.3,-36.63"/>
</a>
</g>
</g>
<!-- Node9 -->
<g id="Node000009" class="node">
<title>Node9</title>
<g id="a_Node000009"><a xlink:href="alerts_8c.html#a98b6140a4d21520d639bc81d1f7c08b7" target="_top" xlink:title="Generate structured alert records for out&#45;of&#45;range vital signs.">
<polygon fill="white" stroke="#666666" points="472,-105 389.25,-105 389.25,-85 472,-85 472,-105"/>
<text xml:space="preserve" text-anchor="middle" x="430.62" y="-91.5" font-family="Helvetica,sans-Serif" font-size="10.00">generate_alerts</text>
</a>
</g>
</g>
<!-- Node7&#45;&gt;Node9 -->
<g id="edge10_Node000007_Node000009" class="edge">
<title>Node7&#45;&gt;Node9</title>
<g id="a_edge10_Node000007_Node000009"><a xlink:title=" ">
<path fill="none" stroke="#63b8ff" d="M339.14,-82.49C351.52,-84.2 364.95,-86.06 377.58,-87.8"/>
<polygon fill="#63b8ff" stroke="#63b8ff" points="377.02,-91.26 387.41,-89.16 377.98,-84.32 377.02,-91.26"/>
</a>
</g>
</g>
<!-- Node14 -->
<g id="Node000014" class="node">
<title>Node14</title>
<g id="a_Node000014"><a xlink:href="vitals_8c.html#af7201b2a5a70f76ab81ade218a863830" target="_top" xlink:title="Return the highest alert level across all four vital parameters.">
<polygon fill="white" stroke="#666666" points="477.62,-143 383.62,-143 383.62,-123 477.62,-123 477.62,-143"/>
<text xml:space="preserve" text-anchor="middle" x="430.62" y="-129.5" font-family="Helvetica,sans-Serif" font-size="10.00">overall_alert_level</text>
</a>
</g>
</g>
<!-- Node7&#45;&gt;Node14 -->
<g id="edge15_Node000007_Node000014" class="edge">
<title>Node7&#45;&gt;Node14</title>
<g id="a_edge15_Node000007_Node000014"><a xlink:title=" ">
<path fill="none" stroke="#63b8ff" d="M313.44,-86.41C330.01,-94.39 353.73,-105.44 375,-114 378.91,-115.57 383,-117.14 387.12,-118.66"/>
<polygon fill="#63b8ff" stroke="#63b8ff" points="385.93,-121.95 396.52,-122.05 388.3,-115.37 385.93,-121.95"/>
</a>
</g>
</g>
<!-- Node15 -->
<g id="Node000015" class="node">
<title>Node15</title>
<g id="a_Node000015"><a xlink:href="patient_8c.html#aaf2d461ddd1efafe4887647d0c8688d7" target="_top" xlink:title="Return a pointer to the most recent reading, or NULL if none exist.">
<polygon fill="white" stroke="#666666" points="486.25,-67 375,-67 375,-47 486.25,-47 486.25,-67"/>
<text xml:space="preserve" text-anchor="middle" x="430.62" y="-53.5" font-family="Helvetica,sans-Serif" font-size="10.00">patient_latest_reading</text>
</a>
</g>
</g>
<!-- Node7&#45;&gt;Node15 -->
<g id="edge20_Node000007_Node000015" class="edge">
<title>Node7&#45;&gt;Node15</title>
<g id="a_edge20_Node000007_Node000015"><a xlink:title=" ">
<path fill="none" stroke="#63b8ff" d="M339.14,-69.51C347.05,-68.42 355.39,-67.27 363.68,-66.12"/>
<polygon fill="#63b8ff" stroke="#63b8ff" points="363.97,-69.61 373.4,-64.78 363.01,-62.68 363.97,-69.61"/>
</a>
</g>
</g>
<!-- Node10 -->
<g id="Node000010" class="node">
<title>Node10</title>
<g id="a_Node000010"><a xlink:href="vitals_8c.html#a3c853e30a899042babf9fdd2bd2cbfc1" target="_top" xlink:title="Classify a blood pressure reading.">
<polygon fill="white" stroke="#666666" points="635.75,-105 522.25,-105 522.25,-85 635.75,-85 635.75,-105"/>
<text xml:space="preserve" text-anchor="middle" x="579" y="-91.5" font-family="Helvetica,sans-Serif" font-size="10.00">check_blood_pressure</text>
</a>
</g>
</g>
<!-- Node9&#45;&gt;Node10 -->
<g id="edge11_Node000009_Node000010" class="edge">
<title>Node9&#45;&gt;Node10</title>
<g id="a_edge11_Node000009_Node000010"><a xlink:title=" ">
<path fill="none" stroke="#63b8ff" d="M472.4,-95C484.24,-95 497.5,-95 510.52,-95"/>
<polygon fill="#63b8ff" stroke="#63b8ff" points="510.34,-98.5 520.34,-95 510.34,-91.5 510.34,-98.5"/>
</a>
</g>
</g>
<!-- Node11 -->
<g id="Node000011" class="node">
<title>Node11</title>
<g id="a_Node000011"><a xlink:href="vitals_8c.html#a7604eb6b23010f139f6f960b184a3b28" target="_top" xlink:title="Classify a heart rate reading.">
<polygon fill="white" stroke="#666666" points="624.5,-67 533.5,-67 533.5,-47 624.5,-47 624.5,-67"/>
<text xml:space="preserve" text-anchor="middle" x="579" y="-53.5" font-family="Helvetica,sans-Serif" font-size="10.00">check_heart_rate</text>
</a>
</g>
</g>
<!-- Node9&#45;&gt;Node11 -->
<g id="edge12_Node000009_Node000011" class="edge">
<title>Node9&#45;&gt;Node11</title>
<g id="a_edge12_Node000009_Node000011"><a xlink:title=" ">
<path fill="none" stroke="#63b8ff" d="M472.01,-84.52C488.97,-80.11 508.89,-74.94 526.86,-70.28"/>
<polygon fill="#63b8ff" stroke="#63b8ff" points="527.48,-73.73 536.28,-67.83 525.72,-66.96 527.48,-73.73"/>
</a>
</g>
</g>
<!-- Node12 -->
<g id="Node000012" class="node">
<title>Node12</title>
<g id="a_Node000012"><a xlink:href="vitals_8c.html#ac0bc076e63894a96df90f2eab73c88fe" target="_top" xlink:title="Classify an SpO2 reading.">
<polygon fill="white" stroke="#666666" points="613.25,-181 544.75,-181 544.75,-161 613.25,-161 613.25,-181"/>
<text xml:space="preserve" text-anchor="middle" x="579" y="-167.5" font-family="Helvetica,sans-Serif" font-size="10.00">check_spo2</text>
</a>
</g>
</g>
<!-- Node9&#45;&gt;Node12 -->
<g id="edge13_Node000009_Node000012" class="edge">
<title>Node9&#45;&gt;Node12</title>
<g id="a_edge13_Node000009_Node000012"><a xlink:title=" ">
<path fill="none" stroke="#63b8ff" d="M469.47,-105.49C475.31,-107.86 481.11,-110.68 486.25,-114 505.79,-126.62 502.67,-139.44 522.25,-152 525.92,-154.36 529.92,-156.45 534.03,-158.31"/>
<polygon fill="#63b8ff" stroke="#63b8ff" points="532.37,-161.42 542.95,-161.9 534.98,-154.93 532.37,-161.42"/>
</a>
</g>
</g>
<!-- Node13 -->
<g id="Node000013" class="node">
<title>Node13</title>
<g id="a_Node000013"><a xlink:href="vitals_8c.html#aef7f6fa183fbc5412c13ea63bd2b62ce" target="_top" xlink:title="Classify a temperature reading.">
<polygon fill="white" stroke="#666666" points="628.62,-143 529.38,-143 529.38,-123 628.62,-123 628.62,-143"/>
<text xml:space="preserve" text-anchor="middle" x="579" y="-129.5" font-family="Helvetica,sans-Serif" font-size="10.00">check_temperature</text>
</a>
</g>
</g>
<!-- Node9&#45;&gt;Node13 -->
<g id="edge14_Node000009_Node000013" class="edge">
<title>Node9&#45;&gt;Node13</title>
<g id="a_edge14_Node000009_Node000013"><a xlink:title=" ">
<path fill="none" stroke="#63b8ff" d="M472.01,-105.48C488.97,-109.89 508.89,-115.06 526.86,-119.72"/>
<polygon fill="#63b8ff" stroke="#63b8ff" points="525.72,-123.04 536.28,-122.17 527.48,-116.27 525.72,-123.04"/>
</a>
</g>
</g>
<!-- Node14&#45;&gt;Node10 -->
<g id="edge16_Node000014_Node000010" class="edge">
<title>Node14&#45;&gt;Node10</title>
<g id="a_edge16_Node000014_Node000010"><a xlink:title=" ">
<path fill="none" stroke="#63b8ff" d="M472.01,-122.52C488.97,-118.11 508.89,-112.94 526.86,-108.28"/>
<polygon fill="#63b8ff" stroke="#63b8ff" points="527.48,-111.73 536.28,-105.83 525.72,-104.96 527.48,-111.73"/>
</a>
</g>
</g>
<!-- Node14&#45;&gt;Node11 -->
<g id="edge17_Node000014_Node000011" class="edge">
<title>Node14&#45;&gt;Node11</title>
<g id="a_edge17_Node000014_Node000011"><a xlink:title=" ">
<path fill="none" stroke="#63b8ff" d="M469.47,-122.51C475.31,-120.14 481.11,-117.32 486.25,-114 505.79,-101.38 502.67,-88.56 522.25,-76 524.38,-74.63 526.63,-73.35 528.94,-72.15"/>
<polygon fill="#63b8ff" stroke="#63b8ff" points="530.34,-75.36 538,-68.04 527.44,-68.98 530.34,-75.36"/>
</a>
</g>
</g>
<!-- Node14&#45;&gt;Node12 -->
<g id="edge18_Node000014_Node000012" class="edge">
<title>Node14&#45;&gt;Node12</title>
<g id="a_edge18_Node000014_Node000012"><a xlink:title=" ">
<path fill="none" stroke="#63b8ff" d="M472.01,-143.48C491.11,-148.44 513.97,-154.38 533.56,-159.46"/>
<polygon fill="#63b8ff" stroke="#63b8ff" points="532.64,-162.84 543.2,-161.96 534.4,-156.06 532.64,-162.84"/>
</a>
</g>
</g>
<!-- Node14&#45;&gt;Node13 -->
<g id="edge19_Node000014_Node000013" class="edge">
<title>Node14&#45;&gt;Node13</title>
<g id="a_edge19_Node000014_Node000013"><a xlink:title=" ">
<path fill="none" stroke="#63b8ff" d="M477.94,-133C490.51,-133 504.3,-133 517.53,-133"/>
<polygon fill="#63b8ff" stroke="#63b8ff" points="517.44,-136.5 527.44,-133 517.44,-129.5 517.44,-136.5"/>
</a>
</g>
</g>
</g>
</svg>

<g id="navigator" transform="translate(0 0)" fill="#404254">
  <rect fill="#f2f5e9" fill-opacity="0.5" stroke="#606060" stroke-width=".5" x="0" y="0" width="60" height="60"/>
  <use id="zoomplus" xlink:href="#zoomPlus" x="17" y="9" onmousedown="handleZoom(evt,'in')"/>
  <use id="zoomminus" xlink:href="#zoomMin" x="42" y="9" onmousedown="handleZoom(evt,'out')"/>
  <use id="reset" xlink:href="#resetDef" x="30" y="36" onmousedown="handleReset()"/>
   <use id="arrowup" xlink:href="#arrowUp" x="0" y="0" onmousedown="handlePan(0,-1)"/>
  <use id="arrowright" xlink:href="#arrowRight" x="0" y="0" onmousedown="handlePan(1,0)"/>
  <use id="arrowdown" xlink:href="#arrowDown" x="0" y="0" onmousedown="handlePan(0,1)"/>
  <use id="arrowleft" xlink:href="#arrowLeft" x="0" y="0" onmousedown="handlePan(-1,0)"/>
</g>
<svg viewBox="0 0 15 15" width="100%" height="30px" preserveAspectRatio="xMaxYMin meet">
 <g id="arrow_out" transform="scale(0.3 0.3)">
  <a xlink:href="gui__main_8c_a9106ea80981b1db52b607a5e58f0ecf3_cgraph_org.svg" target="_base">
   <rect id="button" ry="5" rx="5" y="6" x="6" height="38" width="38"
        fill="#f2f5e9" fill-opacity="0.5" stroke="#606060" stroke-width="1.0"/>
   <path id="arrow"
     d="M 11.500037,31.436501 C 11.940474,20.09759 22.043105,11.32322 32.158766,21.979434 L 37.068811,17.246167 C 37.068811,17.246167 37.088388,32 37.088388,32 L 22.160133,31.978069 C 22.160133,31.978069 26.997745,27.140456 26.997745,27.140456 C 18.528582,18.264221 13.291696,25.230495 11.500037,31.436501 z"
     style="fill:#404040;"/>
  </a>
 </g>
</svg>

<style type='text/css'>
<![CDATA[
[data-mouse-over-selected='false'] { opacity: 0.7; }
[data-mouse-over-selected='true']  { opacity: 1.0; }
]]>
</style>
<script type="application/ecmascript"><![CDATA[
document.addEventListener('DOMContentLoaded', (event) => {
  highlightEdges();
  highlightAdjacentNodes();
});
]]></script>
</svg>
