<?xml version="1.0" encoding="UTF-8" standalone="no"?>
<!DOCTYPE svg PUBLIC "-//W3C//DTD SVG 1.1//EN"
 "http://www.w3.org/Graphics/SVG/1.1/DTD/svg11.dtd">
<!-- Generated by graphviz version 14.1.4 (20260321.0153)
 -->
<!-- Title: get_txt Pages: 1 -->
<svg width="568pt" height="142pt"
 viewBox="0.00 0.00 568.00 142.00" xmlns="http://www.w3.org/2000/svg" xmlns:xlink="http://www.w3.org/1999/xlink">
<g id="graph0" class="graph" transform="scale(1 1) rotate(0) translate(4 138)">
<title>get_txt</title>
<!-- Node1 -->
<g id="Node000001" class="node">
<title>Node1</title>
<g id="a_Node000001"><a xlink:title=" ">
<polygon fill="#999999" stroke="#666666" points="560.25,-77 514.25,-77 514.25,-57 560.25,-57 560.25,-77"/>
<text xml:space="preserve" text-anchor="middle" x="537.25" y="-63.5" font-family="Helvetica,sans-Serif" font-size="10.00">get_txt</text>
</a>
</g>
</g>
<!-- Node2 -->
<g id="Node000002" class="node">
<title>Node2</title>
<g id="a_Node000002"><a xlink:href="gui__main_8c.html#a51e990e1b26cc2a1c2e8e602d3b13cf5" target="_top" xlink:title="Attempt login from the username/password controls.">
<polygon fill="white" stroke="#666666" points="476,-134 401.5,-134 401.5,-114 476,-114 476,-134"/>
<text xml:space="preserve" text-anchor="middle" x="438.75" y="-120.5" font-family="Helvetica,sans-Serif" font-size="10.00">attempt_login</text>
</a>
</g>
</g>
<!-- Node1&#45;&gt;Node2 -->
<g id="edge1_Node000001_Node000002" class="edge">
<title>Node1&#45;&gt;Node2</title>
<g id="a_edge1_Node000001_Node000002"><a xlink:title=" ">
<path fill="none" stroke="#63b8ff" d="M512.57,-83.45C502.22,-90.4 489.81,-98.39 478.25,-105 473.07,-107.96 467.37,-110.92 461.98,-113.6"/>
<polygon fill="#63b8ff" stroke="#63b8ff" points="514.23,-86.56 520.53,-78.04 510.29,-80.77 514.23,-86.56"/>
</a>
</g>
</g>
<!-- Node5 -->
<g id="Node000005" class="node">
<title>Node5</title>
<g id="a_Node000005"><a xlink:href="gui__main_8c.html#a6bed6b36812029c7bc2eb263a12e5c98" target="_top" xlink:title="Admit a patient from the identity fields. @req SWR&#45;GUI&#45;004.">
<polygon fill="white" stroke="#666666" points="363.25,-20 307.5,-20 307.5,0 363.25,0 363.25,-20"/>
<text xml:space="preserve" text-anchor="middle" x="335.38" y="-6.5" font-family="Helvetica,sans-Serif" font-size="10.00">do_admit</text>
</a>
</g>
</g>
<!-- Node1&#45;&gt;Node5 -->
<g id="edge4_Node000001_Node000005" class="edge">
<title>Node1&#45;&gt;Node5</title>
<g id="a_edge4_Node000001_Node000005"><a xlink:title=" ">
<path fill="none" stroke="#63b8ff" d="M515.11,-49.85C504.63,-42.23 491.42,-33.9 478.25,-29 440.17,-14.82 392.86,-11 363.64,-10.09"/>
<polygon fill="#63b8ff" stroke="#63b8ff" points="512.96,-52.6 523.03,-55.87 517.2,-47.03 512.96,-52.6"/>
</a>
</g>
</g>
<!-- Node9 -->
<g id="Node000009" class="node">
<title>Node9</title>
<g id="a_Node000009"><a xlink:href="gui__main_8c.html#ac1006f93610e33d2d6f27dd2b1fb95a8" target="_top" xlink:title=" ">
<polygon fill="white" stroke="#666666" points="477.12,-96 400.38,-96 400.38,-76 477.12,-76 477.12,-96"/>
<text xml:space="preserve" text-anchor="middle" x="438.75" y="-82.5" font-family="Helvetica,sans-Serif" font-size="10.00">parse_flt_field</text>
</a>
</g>
</g>
<!-- Node1&#45;&gt;Node9 -->
<g id="edge11_Node000001_Node000009" class="edge">
<title>Node1&#45;&gt;Node9</title>
<g id="a_edge11_Node000001_Node000009"><a xlink:title=" ">
<path fill="none" stroke="#63b8ff" d="M502.85,-73.58C494.67,-75.19 485.87,-76.92 477.51,-78.57"/>
<polygon fill="#63b8ff" stroke="#63b8ff" points="503.25,-77.07 512.38,-71.7 501.9,-70.2 503.25,-77.07"/>
</a>
</g>
</g>
<!-- Node10 -->
<g id="Node000010" class="node">
<title>Node10</title>
<g id="a_Node000010"><a xlink:href="gui__main_8c.html#a4f193d8e3ae8fd0a97d129b3437d8e86" target="_top" xlink:title=" ">
<polygon fill="white" stroke="#666666" points="478.25,-58 399.25,-58 399.25,-38 478.25,-38 478.25,-58"/>
<text xml:space="preserve" text-anchor="middle" x="438.75" y="-44.5" font-family="Helvetica,sans-Serif" font-size="10.00">parse_int_field</text>
</a>
</g>
</g>
<!-- Node1&#45;&gt;Node10 -->
<g id="edge14_Node000001_Node000010" class="edge">
<title>Node1&#45;&gt;Node10</title>
<g id="a_edge14_Node000001_Node000010"><a xlink:title=" ">
<path fill="none" stroke="#63b8ff" d="M502.66,-60.39C494.91,-58.86 486.6,-57.23 478.65,-55.66"/>
<polygon fill="#63b8ff" stroke="#63b8ff" points="501.9,-63.8 512.38,-62.3 503.25,-56.93 501.9,-63.8"/>
</a>
</g>
</g>
<!-- Node3 -->
<g id="Node000003" class="node">
<title>Node3</title>
<g id="a_Node000003"><a xlink:href="gui__main_8c.html#ab5a6eab1941232f61da34dc646009e99" target="_top" xlink:title=" ">
<polygon fill="white" stroke="#666666" points="150.88,-105 90.62,-105 90.62,-85 150.88,-85 150.88,-105"/>
<text xml:space="preserve" text-anchor="middle" x="120.75" y="-91.5" font-family="Helvetica,sans-Serif" font-size="10.00">login_proc</text>
</a>
</g>
</g>
<!-- Node2&#45;&gt;Node3 -->
<g id="edge2_Node000002_Node000003" class="edge">
<title>Node2&#45;&gt;Node3</title>
<g id="a_edge2_Node000002_Node000003"><a xlink:title=" ">
<path fill="none" stroke="#63b8ff" d="M389.82,-119.6C323.45,-113.51 205.58,-102.69 150.99,-97.68"/>
<polygon fill="#63b8ff" stroke="#63b8ff" points="389.41,-123.08 399.68,-120.51 390.05,-116.11 389.41,-123.08"/>
</a>
</g>
</g>
<!-- Node4 -->
<g id="Node000004" class="node">
<title>Node4</title>
<g id="a_Node000004"><a xlink:href="gui__main_8c.html#aab234127c99873cb463e482155cb679f" target="_top" xlink:title=" ">
<polygon fill="white" stroke="#666666" points="54.25,-77 0,-77 0,-57 54.25,-57 54.25,-77"/>
<text xml:space="preserve" text-anchor="middle" x="27.12" y="-63.5" font-family="Helvetica,sans-Serif" font-size="10.00">WinMain</text>
</a>
</g>
</g>
<!-- Node3&#45;&gt;Node4 -->
<g id="edge3_Node000003_Node000004" class="edge">
<title>Node3&#45;&gt;Node4</title>
<g id="a_edge3_Node000003_Node000004"><a xlink:title=" ">
<path fill="none" stroke="#63b8ff" d="M79.39,-82.67C70.95,-80.09 62.25,-77.43 54.47,-75.05"/>
<polygon fill="#63b8ff" stroke="#63b8ff" points="78.22,-85.97 88.81,-85.54 80.27,-79.27 78.22,-85.97"/>
</a>
</g>
</g>
<!-- Node6 -->
<g id="Node000006" class="node">
<title>Node6</title>
<g id="a_Node000006"><a xlink:href="gui__main_8c.html#a50c9496063704973573429586a90b27d" target="_top" xlink:title=" ">
<polygon fill="white" stroke="#666666" points="151.25,-58 90.25,-58 90.25,-38 151.25,-38 151.25,-58"/>
<text xml:space="preserve" text-anchor="middle" x="120.75" y="-44.5" font-family="Helvetica,sans-Serif" font-size="10.00">dash_proc</text>
</a>
</g>
</g>
<!-- Node5&#45;&gt;Node6 -->
<g id="edge5_Node000005_Node000006" class="edge">
<title>Node5&#45;&gt;Node6</title>
<g id="a_edge5_Node000005_Node000006"><a xlink:title=" ">
<path fill="none" stroke="#63b8ff" d="M295.97,-4.61C265.85,-1.67 223.18,-0.33 187.25,-10 167.45,-15.33 147.46,-28.27 134.86,-37.57"/>
<polygon fill="#63b8ff" stroke="#63b8ff" points="295.42,-8.07 305.74,-5.68 296.18,-1.12 295.42,-8.07"/>
</a>
</g>
</g>
<!-- Node7 -->
<g id="Node000007" class="node">
<title>Node7</title>
<g id="a_Node000007"><a xlink:href="gui__main_8c.html#a9d7273263f3a31bf701590beb4c5b1d1" target="_top" xlink:title="Record a new vital signs reading from the vitals entry fields. @req SWR&#45;GUI&#45;004.">
<polygon fill="white" stroke="#666666" points="271.5,-77 187.25,-77 187.25,-57 271.5,-57 271.5,-77"/>
<text xml:space="preserve" text-anchor="middle" x="229.38" y="-63.5" font-family="Helvetica,sans-Serif" font-size="10.00">do_add_reading</text>
</a>
</g>
</g>
<!-- Node5&#45;&gt;Node7 -->
<g id="edge7_Node000005_Node000007" class="edge">
<title>Node5&#45;&gt;Node7</title>
<g id="a_edge7_Node000005_Node000007"><a xlink:title=" ">
<path fill="none" stroke="#63b8ff" d="M308.75,-26.37C297.49,-33.33 284.01,-41.36 271.5,-48 265.94,-50.95 259.84,-53.91 254.08,-56.59"/>
<polygon fill="#63b8ff" stroke="#63b8ff" points="310.47,-29.42 317.09,-21.15 306.76,-23.49 310.47,-29.42"/>
</a>
</g>
</g>
<!-- Node8 -->
<g id="Node000008" class="node">
<title>Node8</title>
<g id="a_Node000008"><a xlink:href="gui__main_8c.html#a9106ea80981b1db52b607a5e58f0ecf3" target="_top" xlink:title=" ">
<polygon fill="white" stroke="#666666" points="263.62,-39 195.12,-39 195.12,-19 263.62,-19 263.62,-39"/>
<text xml:space="preserve" text-anchor="middle" x="229.38" y="-25.5" font-family="Helvetica,sans-Serif" font-size="10.00">do_scenario</text>
</a>
</g>
</g>
<!-- Node5&#45;&gt;Node8 -->
<g id="edge9_Node000005_Node000008" class="edge">
<title>Node5&#45;&gt;Node8</title>
<g id="a_edge9_Node000005_Node000008"><a xlink:title=" ">
<path fill="none" stroke="#63b8ff" d="M296,-17.01C285.45,-18.94 274.08,-21.02 263.83,-22.89"/>
<polygon fill="#63b8ff" stroke="#63b8ff" points="296.35,-20.5 305.56,-15.26 295.1,-13.62 296.35,-20.5"/>
</a>
</g>
</g>
<!-- Node6&#45;&gt;Node4 -->
<g id="edge6_Node000006_Node000004" class="edge">
<title>Node6&#45;&gt;Node4</title>
<g id="a_edge6_Node000006_Node000004"><a xlink:title=" ">
<path fill="none" stroke="#63b8ff" d="M78.98,-56.45C70.72,-58.17 62.24,-59.93 54.63,-61.5"/>
<polygon fill="#63b8ff" stroke="#63b8ff" points="79.44,-59.93 88.52,-54.48 78.02,-53.08 79.44,-59.93"/>
</a>
</g>
</g>
<!-- Node7&#45;&gt;Node6 -->
<g id="edge8_Node000007_Node000006" class="edge">
<title>Node7&#45;&gt;Node6</title>
<g id="a_edge8_Node000007_Node000006"><a xlink:title=" ">
<path fill="none" stroke="#63b8ff" d="M175.61,-57.6C167.31,-56.12 158.99,-54.64 151.45,-53.29"/>
<polygon fill="#63b8ff" stroke="#63b8ff" points="174.9,-61.03 185.36,-59.33 176.12,-54.13 174.9,-61.03"/>
</a>
</g>
</g>
<!-- Node8&#45;&gt;Node6 -->
<g id="edge10_Node000008_Node000006" class="edge">
<title>Node8&#45;&gt;Node6</title>
<g id="a_edge10_Node000008_Node000006"><a xlink:title=" ">
<path fill="none" stroke="#63b8ff" d="M183.3,-37.03C172.62,-38.94 161.48,-40.92 151.66,-42.67"/>
<polygon fill="#63b8ff" stroke="#63b8ff" points="183.92,-40.48 193.15,-35.28 182.69,-33.59 183.92,-40.48"/>
</a>
</g>
</g>
<!-- Node9&#45;&gt;Node5 -->
<g id="edge13_Node000009_Node000005" class="edge">
<title>Node9&#45;&gt;Node5</title>
<g id="a_edge13_Node000009_Node000005"><a xlink:title=" ">
<path fill="none" stroke="#63b8ff" d="M404.13,-70.12C402.45,-69.11 400.82,-68.07 399.25,-67 378.54,-52.91 357.61,-32.4 345.88,-20.21"/>
<polygon fill="#63b8ff" stroke="#63b8ff" points="402.19,-73.05 412.63,-74.82 405.57,-66.92 402.19,-73.05"/>
</a>
</g>
</g>
<!-- Node9&#45;&gt;Node7 -->
<g id="edge12_Node000009_Node000007" class="edge">
<title>Node9&#45;&gt;Node7</title>
<g id="a_edge12_Node000009_Node000007"><a xlink:title=" ">
<path fill="none" stroke="#63b8ff" d="M389.1,-81.54C353.51,-78.28 305.73,-73.9 271.92,-70.81"/>
<polygon fill="#63b8ff" stroke="#63b8ff" points="388.41,-84.99 398.69,-82.42 389.05,-78.02 388.41,-84.99"/>
</a>
</g>
</g>
<!-- Node10&#45;&gt;Node5 -->
<g id="edge16_Node000010_Node000005" class="edge">
<title>Node10&#45;&gt;Node5</title>
<g id="a_edge16_Node000010_Node000005"><a xlink:title=" ">
<path fill="none" stroke="#63b8ff" d="M399.22,-33.56C387.33,-29.1 374.5,-24.29 363.55,-20.19"/>
<polygon fill="#63b8ff" stroke="#63b8ff" points="397.77,-36.75 408.36,-36.98 400.23,-30.2 397.77,-36.75"/>
</a>
</g>
</g>
<!-- Node10&#45;&gt;Node7 -->
<g id="edge15_Node000010_Node000007" class="edge">
<title>Node10&#45;&gt;Node7</title>
<g id="a_edge15_Node000010_Node000007"><a xlink:title=" ">
<path fill="none" stroke="#63b8ff" d="M388.15,-52.54C352.65,-55.8 305.4,-60.13 271.89,-63.2"/>
<polygon fill="#63b8ff" stroke="#63b8ff" points="388.08,-56.07 397.72,-51.67 387.45,-49.09 388.08,-56.07"/>
</a>
</g>
</g>
</g>
</svg>
