<?xml version="1.0" encoding="UTF-8" standalone="no"?>
<!DOCTYPE svg PUBLIC "-//W3C//DTD SVG 1.1//EN"
 "http://www.w3.org/Graphics/SVG/1.1/DTD/svg11.dtd">
<!-- Generated by graphviz version 14.1.4 (20260321.0153)
 -->
<!-- Title: do_admit Pages: 1 -->
<svg width="492pt" height="218pt"
 viewBox="0.00 0.00 492.00 218.00" xmlns="http://www.w3.org/2000/svg" xmlns:xlink="http://www.w3.org/1999/xlink">
<g id="graph0" class="graph" transform="scale(1 1) rotate(0) translate(4 214.16)">
<title>do_admit</title>
<!-- Node1 -->
<g id="Node000001" class="node">
<title>Node1</title>
<g id="a_Node000001"><a xlink:title="Admit a patient from the identity fields. @req SWR&#45;GUI&#45;004.">
<polygon fill="#999999" stroke="#666666" points="55.75,-153 0,-153 0,-133 55.75,-133 55.75,-153"/>
<text xml:space="preserve" text-anchor="middle" x="27.88" y="-139.5" font-family="Helvetica,sans-Serif" font-size="10.00">do_admit</text>
</a>
</g>
</g>
<!-- Node2 -->
<g id="Node000002" class="node">
<title>Node2</title>
<g id="a_Node000002"><a xlink:href="gui__main_8c.html#adfa90e96e8fab8b5af641dd49e420791" target="_top" xlink:title=" ">
<polygon fill="white" stroke="#666666" points="301.88,-191 255.88,-191 255.88,-171 301.88,-171 301.88,-191"/>
<text xml:space="preserve" text-anchor="middle" x="278.88" y="-177.5" font-family="Helvetica,sans-Serif" font-size="10.00">get_txt</text>
</a>
</g>
</g>
<!-- Node1&#45;&gt;Node2 -->
<g id="edge1_Node000001_Node000002" class="edge">
<title>Node1&#45;&gt;Node2</title>
<g id="a_edge1_Node000001_Node000002"><a xlink:title=" ">
<path fill="none" stroke="#63b8ff" d="M36.37,-153.49C46.91,-167.22 67.56,-190.67 91.75,-200 142.64,-219.63 206.85,-205.33 245.01,-193.17"/>
<polygon fill="#63b8ff" stroke="#63b8ff" points="245.7,-196.63 254.08,-190.15 243.48,-189.99 245.7,-196.63"/>
</a>
</g>
</g>
<!-- Node3 -->
<g id="Node000003" class="node">
<title>Node3</title>
<g id="a_Node000003"><a xlink:href="gui__main_8c.html#ac1006f93610e33d2d6f27dd2b1fb95a8" target="_top" xlink:title=" ">
<polygon fill="white" stroke="#666666" points="177.88,-191 101.12,-191 101.12,-171 177.88,-171 177.88,-191"/>
<text xml:space="preserve" text-anchor="middle" x="139.5" y="-177.5" font-family="Helvetica,sans-Serif" font-size="10.00">parse_flt_field</text>
</a>
</g>
</g>
<!-- Node1&#45;&gt;Node3 -->
<g id="edge2_Node000001_Node000003" class="edge">
<title>Node1&#45;&gt;Node3</title>
<g id="a_edge2_Node000001_Node000003"><a xlink:title=" ">
<path fill="none" stroke="#63b8ff" d="M55.97,-152.39C68.48,-156.73 83.6,-161.97 97.46,-166.78"/>
<polygon fill="#63b8ff" stroke="#63b8ff" points="96.21,-170.05 106.81,-170.01 98.51,-163.43 96.21,-170.05"/>
</a>
</g>
</g>
<!-- Node4 -->
<g id="Node000004" class="node">
<title>Node4</title>
<g id="a_Node000004"><a xlink:href="gui__main_8c.html#a4f193d8e3ae8fd0a97d129b3437d8e86" target="_top" xlink:title=" ">
<polygon fill="white" stroke="#666666" points="179,-153 100,-153 100,-133 179,-133 179,-153"/>
<text xml:space="preserve" text-anchor="middle" x="139.5" y="-139.5" font-family="Helvetica,sans-Serif" font-size="10.00">parse_int_field</text>
</a>
</g>
</g>
<!-- Node1&#45;&gt;Node4 -->
<g id="edge4_Node000001_Node000004" class="edge">
<title>Node1&#45;&gt;Node4</title>
<g id="a_edge4_Node000001_Node000004"><a xlink:title=" ">
<path fill="none" stroke="#63b8ff" d="M55.97,-143C65.76,-143 77.15,-143 88.28,-143"/>
<polygon fill="#63b8ff" stroke="#63b8ff" points="88.2,-146.5 98.2,-143 88.2,-139.5 88.2,-146.5"/>
</a>
</g>
</g>
<!-- Node5 -->
<g id="Node000005" class="node">
<title>Node5</title>
<g id="a_Node000005"><a xlink:href="patient_8c.html#a8fa76aa96b383df3556d391e64953536" target="_top" xlink:title="Initialise a PatientRecord, zeroing all fields before populating.">
<polygon fill="white" stroke="#666666" points="171.12,-115 107.88,-115 107.88,-95 171.12,-95 171.12,-115"/>
<text xml:space="preserve" text-anchor="middle" x="139.5" y="-101.5" font-family="Helvetica,sans-Serif" font-size="10.00">patient_init</text>
</a>
</g>
</g>
<!-- Node1&#45;&gt;Node5 -->
<g id="edge6_Node000001_Node000005" class="edge">
<title>Node1&#45;&gt;Node5</title>
<g id="a_edge6_Node000001_Node000005"><a xlink:title=" ">
<path fill="none" stroke="#63b8ff" d="M55.97,-133.61C68.48,-129.27 83.6,-124.03 97.46,-119.22"/>
<polygon fill="#63b8ff" stroke="#63b8ff" points="98.51,-122.57 106.81,-115.99 96.21,-115.95 98.51,-122.57"/>
</a>
</g>
</g>
<!-- Node6 -->
<g id="Node000006" class="node">
<title>Node6</title>
<g id="a_Node000006"><a xlink:href="gui__main_8c.html#a8faad4cd27c161432ac3388959b1a766" target="_top" xlink:title="Refresh all dynamic dashboard content after any data change. @req SWR&#45;GUI&#45;003 @req SWR&#45;GUI&#45;004.">
<polygon fill="white" stroke="#666666" points="187.25,-77 91.75,-77 91.75,-57 187.25,-57 187.25,-77"/>
<text xml:space="preserve" text-anchor="middle" x="139.5" y="-63.5" font-family="Helvetica,sans-Serif" font-size="10.00">update_dashboard</text>
</a>
</g>
</g>
<!-- Node1&#45;&gt;Node6 -->
<g id="edge7_Node000001_Node000006" class="edge">
<title>Node1&#45;&gt;Node6</title>
<g id="a_edge7_Node000001_Node000006"><a xlink:title=" ">
<path fill="none" stroke="#63b8ff" d="M38.22,-132.54C49.78,-120.09 70.54,-99.33 91.75,-86 93.86,-84.67 96.08,-83.41 98.35,-82.21"/>
<polygon fill="#63b8ff" stroke="#63b8ff" points="99.66,-85.46 107.18,-78 96.65,-79.14 99.66,-85.46"/>
</a>
</g>
</g>
<!-- Node3&#45;&gt;Node2 -->
<g id="edge3_Node000003_Node000002" class="edge">
<title>Node3&#45;&gt;Node2</title>
<g id="a_edge3_Node000003_Node000002"><a xlink:title=" ">
<path fill="none" stroke="#63b8ff" d="M178.04,-181C198.66,-181 224.04,-181 244.04,-181"/>
<polygon fill="#63b8ff" stroke="#63b8ff" points="243.91,-184.5 253.91,-181 243.91,-177.5 243.91,-184.5"/>
</a>
</g>
</g>
<!-- Node4&#45;&gt;Node2 -->
<g id="edge5_Node000004_Node000002" class="edge">
<title>Node4&#45;&gt;Node2</title>
<g id="a_edge5_Node000004_Node000002"><a xlink:title=" ">
<path fill="none" stroke="#63b8ff" d="M178.4,-153.48C199.12,-159.21 224.54,-166.25 244.5,-171.77"/>
<polygon fill="#63b8ff" stroke="#63b8ff" points="243.51,-175.13 254.08,-174.42 245.38,-168.38 243.51,-175.13"/>
</a>
</g>
</g>
<!-- Node7 -->
<g id="Node000007" class="node">
<title>Node7</title>
<g id="a_Node000007"><a xlink:href="vitals_8c.html#a20a209843ea1eeff8484a7998d492615" target="_top" xlink:title="Convert an AlertLevel enum to a display string.">
<polygon fill="white" stroke="#666666" points="317.25,-20 240.5,-20 240.5,0 317.25,0 317.25,-20"/>
<text xml:space="preserve" text-anchor="middle" x="278.88" y="-6.5" font-family="Helvetica,sans-Serif" font-size="10.00">alert_level_str</text>
</a>
</g>
</g>
<!-- Node6&#45;&gt;Node7 -->
<g id="edge8_Node000006_Node000007" class="edge">
<title>Node6&#45;&gt;Node7</title>
<g id="a_edge8_Node000006_Node000007"><a xlink:title=" ">
<path fill="none" stroke="#63b8ff" d="M161.69,-56.59C178.26,-48.61 201.98,-37.56 223.25,-29 227.16,-27.43 231.25,-25.86 235.37,-24.34"/>
<polygon fill="#63b8ff" stroke="#63b8ff" points="236.55,-27.63 244.77,-20.95 234.18,-21.05 236.55,-27.63"/>
</a>
</g>
</g>
<!-- Node8 -->
<g id="Node000008" class="node">
<title>Node8</title>
<g id="a_Node000008"><a xlink:href="alerts_8c.html#a98b6140a4d21520d639bc81d1f7c08b7" target="_top" xlink:title="Generate structured alert records for out&#45;of&#45;range vital signs.">
<polygon fill="white" stroke="#666666" points="320.25,-96 237.5,-96 237.5,-76 320.25,-76 320.25,-96"/>
<text xml:space="preserve" text-anchor="middle" x="278.88" y="-82.5" font-family="Helvetica,sans-Serif" font-size="10.00">generate_alerts</text>
</a>
</g>
</g>
<!-- Node6&#45;&gt;Node8 -->
<g id="edge9_Node000006_Node000008" class="edge">
<title>Node6&#45;&gt;Node8</title>
<g id="a_edge9_Node000006_Node000008"><a xlink:title=" ">
<path fill="none" stroke="#63b8ff" d="M187.39,-73.49C199.77,-75.2 213.2,-77.06 225.83,-78.8"/>
<polygon fill="#63b8ff" stroke="#63b8ff" points="225.27,-82.26 235.66,-80.16 226.23,-75.32 225.27,-82.26"/>
</a>
</g>
</g>
<!-- Node13 -->
<g id="Node000013" class="node">
<title>Node13</title>
<g id="a_Node000013"><a xlink:href="vitals_8c.html#af7201b2a5a70f76ab81ade218a863830" target="_top" xlink:title="Return the highest alert level across all four vital parameters.">
<polygon fill="white" stroke="#666666" points="325.88,-134 231.88,-134 231.88,-114 325.88,-114 325.88,-134"/>
<text xml:space="preserve" text-anchor="middle" x="278.88" y="-120.5" font-family="Helvetica,sans-Serif" font-size="10.00">overall_alert_level</text>
</a>
</g>
</g>
<!-- Node6&#45;&gt;Node13 -->
<g id="edge14_Node000006_Node000013" class="edge">
<title>Node6&#45;&gt;Node13</title>
<g id="a_edge14_Node000006_Node000013"><a xlink:title=" ">
<path fill="none" stroke="#63b8ff" d="M167.4,-77.4C173.95,-80.08 180.9,-83.04 187.25,-86 203.65,-93.64 206.66,-97.79 223.25,-105 226.86,-106.57 230.64,-108.1 234.46,-109.58"/>
<polygon fill="#63b8ff" stroke="#63b8ff" points="233.2,-112.84 243.79,-113.02 235.62,-106.27 233.2,-112.84"/>
</a>
</g>
</g>
<!-- Node14 -->
<g id="Node000014" class="node">
<title>Node14</title>
<g id="a_Node000014"><a xlink:href="patient_8c.html#aaf2d461ddd1efafe4887647d0c8688d7" target="_top" xlink:title="Return a pointer to the most recent reading, or NULL if none exist.">
<polygon fill="white" stroke="#666666" points="334.5,-58 223.25,-58 223.25,-38 334.5,-38 334.5,-58"/>
<text xml:space="preserve" text-anchor="middle" x="278.88" y="-44.5" font-family="Helvetica,sans-Serif" font-size="10.00">patient_latest_reading</text>
</a>
</g>
</g>
<!-- Node6&#45;&gt;Node14 -->
<g id="edge19_Node000006_Node000014" class="edge">
<title>Node6&#45;&gt;Node14</title>
<g id="a_edge19_Node000006_Node000014"><a xlink:title=" ">
<path fill="none" stroke="#63b8ff" d="M187.39,-60.51C195.3,-59.42 203.64,-58.27 211.93,-57.12"/>
<polygon fill="#63b8ff" stroke="#63b8ff" points="212.22,-60.61 221.65,-55.78 211.26,-53.68 212.22,-60.61"/>
</a>
</g>
</g>
<!-- Node9 -->
<g id="Node000009" class="node">
<title>Node9</title>
<g id="a_Node000009"><a xlink:href="vitals_8c.html#a3c853e30a899042babf9fdd2bd2cbfc1" target="_top" xlink:title="Classify a blood pressure reading.">
<polygon fill="white" stroke="#666666" points="484,-96 370.5,-96 370.5,-76 484,-76 484,-96"/>
<text xml:space="preserve" text-anchor="middle" x="427.25" y="-82.5" font-family="Helvetica,sans-Serif" font-size="10.00">check_blood_pressure</text>
</a>
</g>
</g>
<!-- Node8&#45;&gt;Node9 -->
<g id="edge10_Node000008_Node000009" class="edge">
<title>Node8&#45;&gt;Node9</title>
<g id="a_edge10_Node000008_Node000009"><a xlink:title=" ">
<path fill="none" stroke="#63b8ff" d="M320.65,-86C332.49,-86 345.75,-86 358.77,-86"/>
<polygon fill="#63b8ff" stroke="#63b8ff" points="358.59,-89.5 368.59,-86 358.59,-82.5 358.59,-89.5"/>
</a>
</g>
</g>
<!-- Node10 -->
<g id="Node000010" class="node">
<title>Node10</title>
<g id="a_Node000010"><a xlink:href="vitals_8c.html#a7604eb6b23010f139f6f960b184a3b28" target="_top" xlink:title="Classify a heart rate reading.">
<polygon fill="white" stroke="#666666" points="472.75,-58 381.75,-58 381.75,-38 472.75,-38 472.75,-58"/>
<text xml:space="preserve" text-anchor="middle" x="427.25" y="-44.5" font-family="Helvetica,sans-Serif" font-size="10.00">check_heart_rate</text>
</a>
</g>
</g>
<!-- Node8&#45;&gt;Node10 -->
<g id="edge11_Node000008_Node000010" class="edge">
<title>Node8&#45;&gt;Node10</title>
<g id="a_edge11_Node000008_Node000010"><a xlink:title=" ">
<path fill="none" stroke="#63b8ff" d="M320.26,-75.52C337.22,-71.11 357.14,-65.94 375.11,-61.28"/>
<polygon fill="#63b8ff" stroke="#63b8ff" points="375.73,-64.73 384.53,-58.83 373.97,-57.96 375.73,-64.73"/>
</a>
</g>
</g>
<!-- Node11 -->
<g id="Node000011" class="node">
<title>Node11</title>
<g id="a_Node000011"><a xlink:href="vitals_8c.html#ac0bc076e63894a96df90f2eab73c88fe" target="_top" xlink:title="Classify an SpO2 reading.">
<polygon fill="white" stroke="#666666" points="461.5,-172 393,-172 393,-152 461.5,-152 461.5,-172"/>
<text xml:space="preserve" text-anchor="middle" x="427.25" y="-158.5" font-family="Helvetica,sans-Serif" font-size="10.00">check_spo2</text>
</a>
</g>
</g>
<!-- Node8&#45;&gt;Node11 -->
<g id="edge12_Node000008_Node000011" class="edge">
<title>Node8&#45;&gt;Node11</title>
<g id="a_edge12_Node000008_Node000011"><a xlink:title=" ">
<path fill="none" stroke="#63b8ff" d="M317.72,-96.49C323.56,-98.86 329.36,-101.68 334.5,-105 354.04,-117.62 350.92,-130.44 370.5,-143 374.17,-145.36 378.17,-147.45 382.28,-149.31"/>
<polygon fill="#63b8ff" stroke="#63b8ff" points="380.62,-152.42 391.2,-152.9 383.23,-145.93 380.62,-152.42"/>
</a>
</g>
</g>
<!-- Node12 -->
<g id="Node000012" class="node">
<title>Node12</title>
<g id="a_Node000012"><a xlink:href="vitals_8c.html#aef7f6fa183fbc5412c13ea63bd2b62ce" target="_top" xlink:title="Classify a temperature reading.">
<polygon fill="white" stroke="#666666" points="476.88,-134 377.62,-134 377.62,-114 476.88,-114 476.88,-134"/>
<text xml:space="preserve" text-anchor="middle" x="427.25" y="-120.5" font-family="Helvetica,sans-Serif" font-size="10.00">check_temperature</text>
</a>
</g>
</g>
<!-- Node8&#45;&gt;Node12 -->
<g id="edge13_Node000008_Node000012" class="edge">
<title>Node8&#45;&gt;Node12</title>
<g id="a_edge13_Node000008_Node000012"><a xlink:title=" ">
<path fill="none" stroke="#63b8ff" d="M320.26,-96.48C337.22,-100.89 357.14,-106.06 375.11,-110.72"/>
<polygon fill="#63b8ff" stroke="#63b8ff" points="373.97,-114.04 384.53,-113.17 375.73,-107.27 373.97,-114.04"/>
</a>
</g>
</g>
<!-- Node13&#45;&gt;Node9 -->
<g id="edge15_Node000013_Node000009" class="edge">
<title>Node13&#45;&gt;Node9</title>
<g id="a_edge15_Node000013_Node000009"><a xlink:title=" ">
<path fill="none" stroke="#63b8ff" d="M320.26,-113.52C337.22,-109.11 357.14,-103.94 375.11,-99.28"/>
<polygon fill="#63b8ff" stroke="#63b8ff" points="375.73,-102.73 384.53,-96.83 373.97,-95.96 375.73,-102.73"/>
</a>
</g>
</g>
<!-- Node13&#45;&gt;Node10 -->
<g id="edge16_Node000013_Node000010" class="edge">
<title>Node13&#45;&gt;Node10</title>
<g id="a_edge16_Node000013_Node000010"><a xlink:title=" ">
<path fill="none" stroke="#63b8ff" d="M317.72,-113.51C323.56,-111.14 329.36,-108.32 334.5,-105 354.04,-92.38 350.92,-79.56 370.5,-67 372.63,-65.63 374.88,-64.35 377.19,-63.15"/>
<polygon fill="#63b8ff" stroke="#63b8ff" points="378.59,-66.36 386.25,-59.04 375.69,-59.98 378.59,-66.36"/>
</a>
</g>
</g>
<!-- Node13&#45;&gt;Node11 -->
<g id="edge17_Node000013_Node000011" class="edge">
<title>Node13&#45;&gt;Node11</title>
<g id="a_edge17_Node000013_Node000011"><a xlink:title=" ">
<path fill="none" stroke="#63b8ff" d="M320.26,-134.48C339.36,-139.44 362.22,-145.38 381.81,-150.46"/>
<polygon fill="#63b8ff" stroke="#63b8ff" points="380.89,-153.84 391.45,-152.96 382.65,-147.06 380.89,-153.84"/>
</a>
</g>
</g>
<!-- Node13&#45;&gt;Node12 -->
<g id="edge18_Node000013_Node000012" class="edge">
<title>Node13&#45;&gt;Node12</title>
<g id="a_edge18_Node000013_Node000012"><a xlink:title=" ">
<path fill="none" stroke="#63b8ff" d="M326.19,-124C338.76,-124 352.55,-124 365.78,-124"/>
<polygon fill="#63b8ff" stroke="#63b8ff" points="365.69,-127.5 375.69,-124 365.69,-120.5 365.69,-127.5"/>
</a>
</g>
</g>
</g>
</svg>
