<?xml version="1.0" encoding="UTF-8" standalone="no"?>
<!DOCTYPE svg PUBLIC "-//W3C//DTD SVG 1.1//EN"
 "http://www.w3.org/Graphics/SVG/1.1/DTD/svg11.dtd">
<!-- Generated by graphviz version 14.1.4 (20260321.0153)
 -->
<!-- Title: paint_tile Pages: 1 -->
<svg width="174pt" height="66pt"
 viewBox="0.00 0.00 174.00 66.00" xmlns="http://www.w3.org/2000/svg" xmlns:xlink="http://www.w3.org/1999/xlink">
<g id="graph0" class="graph" transform="scale(1 1) rotate(0) translate(4 62)">
<title>paint_tile</title>
<!-- Node1 -->
<g id="Node000001" class="node">
<title>Node1</title>
<g id="a_Node000001"><a xlink:title="Paint one colour&#45;coded vital sign tile.">
<polygon fill="#999999" stroke="#666666" points="55,-39 0,-39 0,-19 55,-19 55,-39"/>
<text xml:space="preserve" text-anchor="middle" x="27.5" y="-25.5" font-family="Helvetica,sans-Serif" font-size="10.00">paint_tile</text>
</a>
</g>
</g>
<!-- Node2 -->
<g id="Node000002" class="node">
<title>Node2</title>
<g id="a_Node000002"><a xlink:href="gui__main_8c.html#a18faa01dfc1221353f0ca130f5647098" target="_top" xlink:title=" ">
<polygon fill="white" stroke="#666666" points="165.5,-58 91,-58 91,-38 165.5,-38 165.5,-58"/>
<text xml:space="preserve" text-anchor="middle" x="128.25" y="-44.5" font-family="Helvetica,sans-Serif" font-size="10.00">draw_text_ex</text>
</a>
</g>
</g>
<!-- Node1&#45;&gt;Node2 -->
<g id="edge1_Node000001_Node000002" class="edge">
<title>Node1&#45;&gt;Node2</title>
<g id="a_edge1_Node000001_Node000002"><a xlink:title=" ">
<path fill="none" stroke="#63b8ff" d="M55.48,-34.19C62.94,-35.63 71.27,-37.23 79.53,-38.82"/>
<polygon fill="#63b8ff" stroke="#63b8ff" points="78.7,-42.22 89.19,-40.68 80.03,-35.35 78.7,-42.22"/>
</a>
</g>
</g>
<!-- Node3 -->
<g id="Node000003" class="node">
<title>Node3</title>
<g id="a_Node000003"><a xlink:href="gui__main_8c.html#a44c4ee73fc9a634398e794afaf73d079" target="_top" xlink:title=" ">
<polygon fill="white" stroke="#666666" points="152,-20 104.5,-20 104.5,0 152,0 152,-20"/>
<text xml:space="preserve" text-anchor="middle" x="128.25" y="-6.5" font-family="Helvetica,sans-Serif" font-size="10.00">fill_rect</text>
</a>
</g>
</g>
<!-- Node1&#45;&gt;Node3 -->
<g id="edge2_Node000001_Node000003" class="edge">
<title>Node1&#45;&gt;Node3</title>
<g id="a_edge2_Node000001_Node000003"><a xlink:title=" ">
<path fill="none" stroke="#63b8ff" d="M55.48,-23.81C67.08,-21.58 80.77,-18.94 93.07,-16.58"/>
<polygon fill="#63b8ff" stroke="#63b8ff" points="93.67,-20.03 102.83,-14.7 92.35,-13.15 93.67,-20.03"/>
</a>
</g>
</g>
</g>
</svg>
