<?xml version="1.0" encoding="UTF-8" standalone="no"?>
<!DOCTYPE svg PUBLIC "-//W3C//DTD SVG 1.1//EN"
 "http://www.w3.org/Graphics/SVG/1.1/DTD/svg11.dtd">
<!-- Generated by graphviz version 14.1.4 (20260321.0153)
 -->
<!-- Title: do_add_reading Pages: 1 -->
<!--zoomable 237 -->

<svg id="main" version="1.1" xmlns="http://www.w3.org/2000/svg" xmlns:xlink="http://www.w3.org/1999/xlink" xml:space="preserve" onload="init(evt)">

<style type="text/css"><![CDATA[
.node, .edge {opacity: 0.7;}
.node.selected, .edge.selected {opacity: 1;}
.edge:hover path { stroke: red; }
.edge:hover polygon { stroke: red; fill: red; }
]]></style>

<defs>
  <circle id="rim" cx="0" cy="0" r="7"/>
  <circle id="rim2" cx="0" cy="0" r="3.5"/>
  <g id="zoomPlus">
    <use xlink:href="#rim" fill="#404040"><set attributeName="fill" to="#808080" begin="zoomplus.mouseover" end="zoomplus.mouseout"/></use>
    <path d="M-4,0h8M0,-4v8" fill="none" stroke="white" stroke-width="1.5" pointer-events="none"/>
  </g>
  <g id="zoomMin">
    <use xlink:href="#rim" fill="#404040"><set attributeName="fill" to="#808080" begin="zoomminus.mouseover" end="zoomminus.mouseout"/></use>
    <path d="M-4,0h8" fill="none" stroke="white" stroke-width="1.5" pointer-events="none"/>
  </g>
  <g id="arrowUp" transform="translate(30 24)">
    <use xlink:href="#rim"/>
    <path pointer-events="none" fill="none" stroke="white" stroke-width="1.5" d="M0,-3.0v7 M-2.5,-0.5L0,-3.0L2.5,-0.5"/>
  </g>
  <g id="arrowRight" transform="rotate(90) translate(36 -43)">
    <use xlink:href="#rim"/>
    <path pointer-events="none" fill="none" stroke="white" stroke-width="1.5" d="M0,-3.0v7 M-2.5,-0.5L0,-3.0L2.5,-0.5"/>
  </g>
  <g id="arrowDown" transform="rotate(180) translate(-30 -48)">
    <use xlink:href="#rim"/>
    <path pointer-events="none" fill="none" stroke="white" stroke-width="1.5" d="M0,-3.0v7 M-2.5,-0.5L0,-3.0L2.5,-0.5"/>
  </g>
  <g id="arrowLeft" transform="rotate(270) translate(-36 17)">
    <use xlink:href="#rim"/>
    <path pointer-events="none" fill="none" stroke="white" stroke-width="1.5" d="M0,-3.0v7 M-2.5,-0.5L0,-3.0L2.5,-0.5"/>
  </g>
  <g id="resetDef">
    <use xlink:href="#rim2" fill="#404040"><set attributeName="fill" to="#808080" begin="reset.mouseover" end="reset.mouseout"/></use>
  </g>
</defs>
<script type="application/ecmascript">
var viewWidth = 660;
var viewHeight = 237;
var sectionId = 'dynsection-8';
</script>
<script type="application/ecmascript" xlink:href="svg.min.js"/>
<svg id="graph" class="graph">
<g id="viewport">
<title>do_add_reading</title>
<!-- Node1 -->
<g id="Node000001" class="node">
<title>Node1</title>
<g id="a_Node000001"><a xlink:title="Record a new vital signs reading from the vitals entry fields. @req SWR&#45;GUI&#45;004.">
<polygon fill="#999999" stroke="#666666" points="84.25,-115 0,-115 0,-95 84.25,-95 84.25,-115"/>
<text xml:space="preserve" text-anchor="middle" x="42.12" y="-101.5" font-family="Helvetica,sans-Serif" font-size="10.00">do_add_reading</text>
</a>
</g>
</g>
<!-- Node2 -->
<g id="Node000002" class="node">
<title>Node2</title>
<g id="a_Node000002"><a xlink:href="gui__main_8c.html#a6bed6b36812029c7bc2eb263a12e5c98" target="_top" xlink:title="Admit a patient from the identity fields. @req SWR&#45;GUI&#45;004.">
<polygon fill="white" stroke="#666666" points="199.62,-153 143.88,-153 143.88,-133 199.62,-133 199.62,-153"/>
<text xml:space="preserve" text-anchor="middle" x="171.75" y="-139.5" font-family="Helvetica,sans-Serif" font-size="10.00">do_admit</text>
</a>
</g>
</g>
<!-- Node1&#45;&gt;Node2 -->
<g id="edge1_Node000001_Node000002" class="edge">
<title>Node1&#45;&gt;Node2</title>
<g id="a_edge1_Node000001_Node000002"><a xlink:title=" ">
<path fill="none" stroke="#63b8ff" d="M78.34,-115.48C95.28,-120.53 115.62,-126.59 132.9,-131.73"/>
<polygon fill="#63b8ff" stroke="#63b8ff" points="131.71,-135.03 142.3,-134.53 133.71,-128.32 131.71,-135.03"/>
</a>
</g>
</g>
<!-- Node4 -->
<g id="Node000004" class="node">
<title>Node4</title>
<g id="a_Node000004"><a xlink:href="gui__main_8c.html#ac1006f93610e33d2d6f27dd2b1fb95a8" target="_top" xlink:title=" ">
<polygon fill="white" stroke="#666666" points="345.38,-115 268.62,-115 268.62,-95 345.38,-95 345.38,-115"/>
<text xml:space="preserve" text-anchor="middle" x="307" y="-101.5" font-family="Helvetica,sans-Serif" font-size="10.00">parse_flt_field</text>
</a>
</g>
</g>
<!-- Node1&#45;&gt;Node4 -->
<g id="edge21_Node000001_Node000004" class="edge">
<title>Node1&#45;&gt;Node4</title>
<g id="a_edge21_Node000001_Node000004"><a xlink:title=" ">
<path fill="none" stroke="#63b8ff" d="M84.49,-105C131.2,-105 207.17,-105 256.87,-105"/>
<polygon fill="#63b8ff" stroke="#63b8ff" points="256.77,-108.5 266.77,-105 256.77,-101.5 256.77,-108.5"/>
</a>
</g>
</g>
<!-- Node5 -->
<g id="Node000005" class="node">
<title>Node5</title>
<g id="a_Node000005"><a xlink:href="gui__main_8c.html#a4f193d8e3ae8fd0a97d129b3437d8e86" target="_top" xlink:title=" ">
<polygon fill="white" stroke="#666666" points="346.5,-229 267.5,-229 267.5,-209 346.5,-209 346.5,-229"/>
<text xml:space="preserve" text-anchor="middle" x="307" y="-215.5" font-family="Helvetica,sans-Serif" font-size="10.00">parse_int_field</text>
</a>
</g>
</g>
<!-- Node1&#45;&gt;Node5 -->
<g id="edge22_Node000001_Node000005" class="edge">
<title>Node1&#45;&gt;Node5</title>
<g id="a_edge22_Node000001_Node000005"><a xlink:title=" ">
<path fill="none" stroke="#63b8ff" d="M54.58,-115.44C68.96,-128.05 94.83,-149.18 120.25,-162 163.97,-184.05 217.84,-199.42 256.29,-208.6"/>
<polygon fill="#63b8ff" stroke="#63b8ff" points="255.19,-211.94 265.72,-210.79 256.77,-205.12 255.19,-211.94"/>
</a>
</g>
</g>
<!-- Node7 -->
<g id="Node000007" class="node">
<title>Node7</title>
<g id="a_Node000007"><a xlink:href="gui__main_8c.html#a8faad4cd27c161432ac3388959b1a766" target="_top" xlink:title="Refresh all dynamic dashboard content after any data change. @req SWR&#45;GUI&#45;003 @req SWR&#45;GUI&#45;004.">
<polygon fill="white" stroke="#666666" points="354.75,-77 259.25,-77 259.25,-57 354.75,-57 354.75,-77"/>
<text xml:space="preserve" text-anchor="middle" x="307" y="-63.5" font-family="Helvetica,sans-Serif" font-size="10.00">update_dashboard</text>
</a>
</g>
</g>
<!-- Node1&#45;&gt;Node7 -->
<g id="edge24_Node000001_Node000007" class="edge">
<title>Node1&#45;&gt;Node7</title>
<g id="a_edge24_Node000001_Node000007"><a xlink:title=" ">
<path fill="none" stroke="#63b8ff" d="M84.49,-99.02C128.49,-92.66 198.43,-82.55 247.94,-75.39"/>
<polygon fill="#63b8ff" stroke="#63b8ff" points="248.22,-78.89 257.61,-73.99 247.22,-71.96 248.22,-78.89"/>
</a>
</g>
</g>
<!-- Node16 -->
<g id="Node000016" class="node">
<title>Node16</title>
<g id="a_Node000016"><a xlink:href="patient_8c.html#a0e22c10046f3778c1f194cc6377d7984" target="_top" xlink:title="Append a vital signs reading, enforcing the MAX_READINGS cap.">
<polygon fill="white" stroke="#666666" points="223.25,-39 120.25,-39 120.25,-19 223.25,-19 223.25,-39"/>
<text xml:space="preserve" text-anchor="middle" x="171.75" y="-25.5" font-family="Helvetica,sans-Serif" font-size="10.00">patient_add_reading</text>
</a>
</g>
</g>
<!-- Node1&#45;&gt;Node16 -->
<g id="edge23_Node000001_Node000016" class="edge">
<title>Node1&#45;&gt;Node16</title>
<g id="a_edge23_Node000001_Node000016"><a xlink:title=" ">
<path fill="none" stroke="#63b8ff" d="M57.21,-94.56C72.37,-83.56 97.39,-66.04 120.25,-53 125.57,-49.96 131.34,-46.97 137.01,-44.17"/>
<polygon fill="#63b8ff" stroke="#63b8ff" points="138.12,-47.52 145.63,-40.05 135.1,-41.21 138.12,-47.52"/>
</a>
</g>
</g>
<!-- Node3 -->
<g id="Node000003" class="node">
<title>Node3</title>
<g id="a_Node000003"><a xlink:href="gui__main_8c.html#adfa90e96e8fab8b5af641dd49e420791" target="_top" xlink:title=" ">
<polygon fill="white" stroke="#666666" points="469.38,-191 423.38,-191 423.38,-171 469.38,-171 469.38,-191"/>
<text xml:space="preserve" text-anchor="middle" x="446.38" y="-177.5" font-family="Helvetica,sans-Serif" font-size="10.00">get_txt</text>
</a>
</g>
</g>
<!-- Node2&#45;&gt;Node3 -->
<g id="edge2_Node000002_Node000003" class="edge">
<title>Node2&#45;&gt;Node3</title>
<g id="a_edge2_Node000002_Node000003"><a xlink:title=" ">
<path fill="none" stroke="#63b8ff" d="M199.87,-149.79C216.84,-153.84 239.21,-158.79 259.25,-162 312.21,-170.49 374.29,-175.93 411.69,-178.73"/>
<polygon fill="#63b8ff" stroke="#63b8ff" points="411.18,-182.2 421.41,-179.43 411.69,-175.22 411.18,-182.2"/>
</a>
</g>
</g>
<!-- Node2&#45;&gt;Node4 -->
<g id="edge3_Node000002_Node000004" class="edge">
<title>Node2&#45;&gt;Node4</title>
<g id="a_edge3_Node000002_Node000004"><a xlink:title=" ">
<path fill="none" stroke="#63b8ff" d="M200.04,-135.22C216.85,-130.42 238.88,-124.14 258.5,-118.55"/>
<polygon fill="#63b8ff" stroke="#63b8ff" points="259.29,-121.96 267.94,-115.85 257.37,-115.23 259.29,-121.96"/>
</a>
</g>
</g>
<!-- Node2&#45;&gt;Node5 -->
<g id="edge5_Node000002_Node000005" class="edge">
<title>Node2&#45;&gt;Node5</title>
<g id="a_edge5_Node000002_Node000005"><a xlink:title=" ">
<path fill="none" stroke="#63b8ff" d="M189.14,-153.3C206.4,-164.04 234.45,-181.2 259.25,-195 264.3,-197.81 269.72,-200.7 275.01,-203.46"/>
<polygon fill="#63b8ff" stroke="#63b8ff" points="273.06,-206.39 283.55,-207.85 276.26,-200.17 273.06,-206.39"/>
</a>
</g>
</g>
<!-- Node6 -->
<g id="Node000006" class="node">
<title>Node6</title>
<g id="a_Node000006"><a xlink:href="patient_8c.html#a8fa76aa96b383df3556d391e64953536" target="_top" xlink:title="Initialise a PatientRecord, zeroing all fields before populating.">
<polygon fill="white" stroke="#666666" points="338.62,-153 275.38,-153 275.38,-133 338.62,-133 338.62,-153"/>
<text xml:space="preserve" text-anchor="middle" x="307" y="-139.5" font-family="Helvetica,sans-Serif" font-size="10.00">patient_init</text>
</a>
</g>
</g>
<!-- Node2&#45;&gt;Node6 -->
<g id="edge7_Node000002_Node000006" class="edge">
<title>Node2&#45;&gt;Node6</title>
<g id="a_edge7_Node000002_Node000006"><a xlink:title=" ">
<path fill="none" stroke="#63b8ff" d="M200.04,-143C218.33,-143 242.78,-143 263.58,-143"/>
<polygon fill="#63b8ff" stroke="#63b8ff" points="263.5,-146.5 273.5,-143 263.5,-139.5 263.5,-146.5"/>
</a>
</g>
</g>
<!-- Node2&#45;&gt;Node7 -->
<g id="edge8_Node000002_Node000007" class="edge">
<title>Node2&#45;&gt;Node7</title>
<g id="a_edge8_Node000002_Node000007"><a xlink:title=" ">
<path fill="none" stroke="#63b8ff" d="M186.61,-132.63C203.27,-120.46 232.35,-100.15 259.25,-86 261.92,-84.6 264.72,-83.22 267.56,-81.9"/>
<polygon fill="#63b8ff" stroke="#63b8ff" points="268.76,-85.2 276.52,-77.98 265.95,-78.79 268.76,-85.2"/>
</a>
</g>
</g>
<!-- Node4&#45;&gt;Node3 -->
<g id="edge4_Node000004_Node000003" class="edge">
<title>Node4&#45;&gt;Node3</title>
<g id="a_edge4_Node000004_Node000003"><a xlink:title=" ">
<path fill="none" stroke="#63b8ff" d="M336.05,-115.47C342.3,-118.05 348.82,-120.96 354.75,-124 378.23,-136.04 403.53,-152.25 421.41,-164.3"/>
<polygon fill="#63b8ff" stroke="#63b8ff" points="419.29,-167.09 429.52,-169.84 423.24,-161.31 419.29,-167.09"/>
</a>
</g>
</g>
<!-- Node5&#45;&gt;Node3 -->
<g id="edge6_Node000005_Node000003" class="edge">
<title>Node5&#45;&gt;Node3</title>
<g id="a_edge6_Node000005_Node000003"><a xlink:title=" ">
<path fill="none" stroke="#63b8ff" d="M345.9,-208.52C366.62,-202.79 392.04,-195.75 412,-190.23"/>
<polygon fill="#63b8ff" stroke="#63b8ff" points="412.88,-193.62 421.58,-187.58 411.01,-186.87 412.88,-193.62"/>
</a>
</g>
</g>
<!-- Node8 -->
<g id="Node000008" class="node">
<title>Node8</title>
<g id="a_Node000008"><a xlink:href="vitals_8c.html#a20a209843ea1eeff8484a7998d492615" target="_top" xlink:title="Convert an AlertLevel enum to a display string.">
<polygon fill="white" stroke="#666666" points="484.75,-20 408,-20 408,0 484.75,0 484.75,-20"/>
<text xml:space="preserve" text-anchor="middle" x="446.38" y="-6.5" font-family="Helvetica,sans-Serif" font-size="10.00">alert_level_str</text>
</a>
</g>
</g>
<!-- Node7&#45;&gt;Node8 -->
<g id="edge9_Node000007_Node000008" class="edge">
<title>Node7&#45;&gt;Node8</title>
<g id="a_edge9_Node000007_Node000008"><a xlink:title=" ">
<path fill="none" stroke="#63b8ff" d="M329.19,-56.59C345.76,-48.61 369.48,-37.56 390.75,-29 394.66,-27.43 398.75,-25.86 402.87,-24.34"/>
<polygon fill="#63b8ff" stroke="#63b8ff" points="404.05,-27.63 412.27,-20.95 401.68,-21.05 404.05,-27.63"/>
</a>
</g>
</g>
<!-- Node9 -->
<g id="Node000009" class="node">
<title>Node9</title>
<g id="a_Node000009"><a xlink:href="alerts_8c.html#a98b6140a4d21520d639bc81d1f7c08b7" target="_top" xlink:title="Generate structured alert records for out&#45;of&#45;range vital signs.">
<polygon fill="white" stroke="#666666" points="487.75,-96 405,-96 405,-76 487.75,-76 487.75,-96"/>
<text xml:space="preserve" text-anchor="middle" x="446.38" y="-82.5" font-family="Helvetica,sans-Serif" font-size="10.00">generate_alerts</text>
</a>
</g>
</g>
<!-- Node7&#45;&gt;Node9 -->
<g id="edge10_Node000007_Node000009" class="edge">
<title>Node7&#45;&gt;Node9</title>
<g id="a_edge10_Node000007_Node000009"><a xlink:title=" ">
<path fill="none" stroke="#63b8ff" d="M354.89,-73.49C367.27,-75.2 380.7,-77.06 393.33,-78.8"/>
<polygon fill="#63b8ff" stroke="#63b8ff" points="392.77,-82.26 403.16,-80.16 393.73,-75.32 392.77,-82.26"/>
</a>
</g>
</g>
<!-- Node14 -->
<g id="Node000014" class="node">
<title>Node14</title>
<g id="a_Node000014"><a xlink:href="vitals_8c.html#af7201b2a5a70f76ab81ade218a863830" target="_top" xlink:title="Return the highest alert level across all four vital parameters.">
<polygon fill="white" stroke="#666666" points="493.38,-134 399.38,-134 399.38,-114 493.38,-114 493.38,-134"/>
<text xml:space="preserve" text-anchor="middle" x="446.38" y="-120.5" font-family="Helvetica,sans-Serif" font-size="10.00">overall_alert_level</text>
</a>
</g>
</g>
<!-- Node7&#45;&gt;Node14 -->
<g id="edge15_Node000007_Node000014" class="edge">
<title>Node7&#45;&gt;Node14</title>
<g id="a_edge15_Node000007_Node000014"><a xlink:title=" ">
<path fill="none" stroke="#63b8ff" d="M334.9,-77.4C341.45,-80.08 348.4,-83.04 354.75,-86 371.15,-93.64 374.16,-97.79 390.75,-105 394.36,-106.57 398.14,-108.1 401.96,-109.58"/>
<polygon fill="#63b8ff" stroke="#63b8ff" points="400.7,-112.84 411.29,-113.02 403.12,-106.27 400.7,-112.84"/>
</a>
</g>
</g>
<!-- Node15 -->
<g id="Node000015" class="node">
<title>Node15</title>
<g id="a_Node000015"><a xlink:href="patient_8c.html#aaf2d461ddd1efafe4887647d0c8688d7" target="_top" xlink:title="Return a pointer to the most recent reading, or NULL if none exist.">
<polygon fill="white" stroke="#666666" points="502,-58 390.75,-58 390.75,-38 502,-38 502,-58"/>
<text xml:space="preserve" text-anchor="middle" x="446.38" y="-44.5" font-family="Helvetica,sans-Serif" font-size="10.00">patient_latest_reading</text>
</a>
</g>
</g>
<!-- Node7&#45;&gt;Node15 -->
<g id="edge20_Node000007_Node000015" class="edge">
<title>Node7&#45;&gt;Node15</title>
<g id="a_edge20_Node000007_Node000015"><a xlink:title=" ">
<path fill="none" stroke="#63b8ff" d="M354.89,-60.51C362.8,-59.42 371.14,-58.27 379.43,-57.12"/>
<polygon fill="#63b8ff" stroke="#63b8ff" points="379.72,-60.61 389.15,-55.78 378.76,-53.68 379.72,-60.61"/>
</a>
</g>
</g>
<!-- Node10 -->
<g id="Node000010" class="node">
<title>Node10</title>
<g id="a_Node000010"><a xlink:href="vitals_8c.html#a3c853e30a899042babf9fdd2bd2cbfc1" target="_top" xlink:title="Classify a blood pressure reading.">
<polygon fill="white" stroke="#666666" points="651.5,-96 538,-96 538,-76 651.5,-76 651.5,-96"/>
<text xml:space="preserve" text-anchor="middle" x="594.75" y="-82.5" font-family="Helvetica,sans-Serif" font-size="10.00">check_blood_pressure</text>
</a>
</g>
</g>
<!-- Node9&#45;&gt;Node10 -->
<g id="edge11_Node000009_Node000010" class="edge">
<title>Node9&#45;&gt;Node10</title>
<g id="a_edge11_Node000009_Node000010"><a xlink:title=" ">
<path fill="none" stroke="#63b8ff" d="M488.15,-86C499.99,-86 513.25,-86 526.27,-86"/>
<polygon fill="#63b8ff" stroke="#63b8ff" points="526.09,-89.5 536.09,-86 526.09,-82.5 526.09,-89.5"/>
</a>
</g>
</g>
<!-- Node11 -->
<g id="Node000011" class="node">
<title>Node11</title>
<g id="a_Node000011"><a xlink:href="vitals_8c.html#a7604eb6b23010f139f6f960b184a3b28" target="_top" xlink:title="Classify a heart rate reading.">
<polygon fill="white" stroke="#666666" points="640.25,-58 549.25,-58 549.25,-38 640.25,-38 640.25,-58"/>
<text xml:space="preserve" text-anchor="middle" x="594.75" y="-44.5" font-family="Helvetica,sans-Serif" font-size="10.00">check_heart_rate</text>
</a>
</g>
</g>
<!-- Node9&#45;&gt;Node11 -->
<g id="edge12_Node000009_Node000011" class="edge">
<title>Node9&#45;&gt;Node11</title>
<g id="a_edge12_Node000009_Node000011"><a xlink:title=" ">
<path fill="none" stroke="#63b8ff" d="M487.76,-75.52C504.72,-71.11 524.64,-65.94 542.61,-61.28"/>
<polygon fill="#63b8ff" stroke="#63b8ff" points="543.23,-64.73 552.03,-58.83 541.47,-57.96 543.23,-64.73"/>
</a>
</g>
</g>
<!-- Node12 -->
<g id="Node000012" class="node">
<title>Node12</title>
<g id="a_Node000012"><a xlink:href="vitals_8c.html#ac0bc076e63894a96df90f2eab73c88fe" target="_top" xlink:title="Classify an SpO2 reading.">
<polygon fill="white" stroke="#666666" points="629,-172 560.5,-172 560.5,-152 629,-152 629,-172"/>
<text xml:space="preserve" text-anchor="middle" x="594.75" y="-158.5" font-family="Helvetica,sans-Serif" font-size="10.00">check_spo2</text>
</a>
</g>
</g>
<!-- Node9&#45;&gt;Node12 -->
<g id="edge13_Node000009_Node000012" class="edge">
<title>Node9&#45;&gt;Node12</title>
<g id="a_edge13_Node000009_Node000012"><a xlink:title=" ">
<path fill="none" stroke="#63b8ff" d="M485.22,-96.49C491.06,-98.86 496.86,-101.68 502,-105 521.54,-117.62 518.42,-130.44 538,-143 541.67,-145.36 545.67,-147.45 549.78,-149.31"/>
<polygon fill="#63b8ff" stroke="#63b8ff" points="548.12,-152.42 558.7,-152.9 550.73,-145.93 548.12,-152.42"/>
</a>
</g>
</g>
<!-- Node13 -->
<g id="Node000013" class="node">
<title>Node13</title>
<g id="a_Node000013"><a xlink:href="vitals_8c.html#aef7f6fa183fbc5412c13ea63bd2b62ce" target="_top" xlink:title="Classify a temperature reading.">
<polygon fill="white" stroke="#666666" points="644.38,-134 545.12,-134 545.12,-114 644.38,-114 644.38,-134"/>
<text xml:space="preserve" text-anchor="middle" x="594.75" y="-120.5" font-family="Helvetica,sans-Serif" font-size="10.00">check_temperature</text>
</a>
</g>
</g>
<!-- Node9&#45;&gt;Node13 -->
<g id="edge14_Node000009_Node000013" class="edge">
<title>Node9&#45;&gt;Node13</title>
<g id="a_edge14_Node000009_Node000013"><a xlink:title=" ">
<path fill="none" stroke="#63b8ff" d="M487.76,-96.48C504.72,-100.89 524.64,-106.06 542.61,-110.72"/>
<polygon fill="#63b8ff" stroke="#63b8ff" points="541.47,-114.04 552.03,-113.17 543.23,-107.27 541.47,-114.04"/>
</a>
</g>
</g>
<!-- Node14&#45;&gt;Node10 -->
<g id="edge16_Node000014_Node000010" class="edge">
<title>Node14&#45;&gt;Node10</title>
<g id="a_edge16_Node000014_Node000010"><a xlink:title=" ">
<path fill="none" stroke="#63b8ff" d="M487.76,-113.52C504.72,-109.11 524.64,-103.94 542.61,-99.28"/>
<polygon fill="#63b8ff" stroke="#63b8ff" points="543.23,-102.73 552.03,-96.83 541.47,-95.96 543.23,-102.73"/>
</a>
</g>
</g>
<!-- Node14&#45;&gt;Node11 -->
<g id="edge17_Node000014_Node000011" class="edge">
<title>Node14&#45;&gt;Node11</title>
<g id="a_edge17_Node000014_Node000011"><a xlink:title=" ">
<path fill="none" stroke="#63b8ff" d="M485.22,-113.51C491.06,-111.14 496.86,-108.32 502,-105 521.54,-92.38 518.42,-79.56 538,-67 540.13,-65.63 542.38,-64.35 544.69,-63.15"/>
<polygon fill="#63b8ff" stroke="#63b8ff" points="546.09,-66.36 553.75,-59.04 543.19,-59.98 546.09,-66.36"/>
</a>
</g>
</g>
<!-- Node14&#45;&gt;Node12 -->
<g id="edge18_Node000014_Node000012" class="edge">
<title>Node14&#45;&gt;Node12</title>
<g id="a_edge18_Node000014_Node000012"><a xlink:title=" ">
<path fill="none" stroke="#63b8ff" d="M487.76,-134.48C506.86,-139.44 529.72,-145.38 549.31,-150.46"/>
<polygon fill="#63b8ff" stroke="#63b8ff" points="548.39,-153.84 558.95,-152.96 550.15,-147.06 548.39,-153.84"/>
</a>
</g>
</g>
<!-- Node14&#45;&gt;Node13 -->
<g id="edge19_Node000014_Node000013" class="edge">
<title>Node14&#45;&gt;Node13</title>
<g id="a_edge19_Node000014_Node000013"><a xlink:title=" ">
<path fill="none" stroke="#63b8ff" d="M493.69,-124C506.26,-124 520.05,-124 533.28,-124"/>
<polygon fill="#63b8ff" stroke="#63b8ff" points="533.19,-127.5 543.19,-124 533.19,-120.5 533.19,-127.5"/>
</a>
</g>
</g>
</g>
</svg>

<g id="navigator" transform="translate(0 0)" fill="#404254">
  <rect fill="#f2f5e9" fill-opacity="0.5" stroke="#606060" stroke-width=".5" x="0" y="0" width="60" height="60"/>
  <use id="zoomplus" xlink:href="#zoomPlus" x="17" y="9" onmousedown="handleZoom(evt,'in')"/>
  <use id="zoomminus" xlink:href="#zoomMin" x="42" y="9" onmousedown="handleZoom(evt,'out')"/>
  <use id="reset" xlink:href="#resetDef" x="30" y="36" onmousedown="handleReset()"/>
   <use id="arrowup" xlink:href="#arrowUp" x="0" y="0" onmousedown="handlePan(0,-1)"/>
  <use id="arrowright" xlink:href="#arrowRight" x="0" y="0" onmousedown="handlePan(1,0)"/>
  <use id="arrowdown" xlink:href="#arrowDown" x="0" y="0" onmousedown="handlePan(0,1)"/>
  <use id="arrowleft" xlink:href="#arrowLeft" x="0" y="0" onmousedown="handlePan(-1,0)"/>
</g>
<svg viewBox="0 0 15 15" width="100%" height="30px" preserveAspectRatio="xMaxYMin meet">
 <g id="arrow_out" transform="scale(0.3 0.3)">
  <a xlink:href="gui__main_8c_a9d7273263f3a31bf701590beb4c5b1d1_cgraph_org.svg" target="_base">
   <rect id="button" ry="5" rx="5" y="6" x="6" height="38" width="38"
        fill="#f2f5e9" fill-opacity="0.5" stroke="#606060" stroke-width="1.0"/>
   <path id="arrow"
     d="M 11.500037,31.436501 C 11.940474,20.09759 22.043105,11.32322 32.158766,21.979434 L 37.068811,17.246167 C 37.068811,17.246167 37.088388,32 37.088388,32 L 22.160133,31.978069 C 22.160133,31.978069 26.997745,27.140456 26.997745,27.140456 C 18.528582,18.264221 13.291696,25.230495 11.500037,31.436501 z"
     style="fill:#404040;"/>
  </a>
 </g>
</svg>

<style type='text/css'>
<![CDATA[
[data-mouse-over-selected='false'] { opacity: 0.7; }
[data-mouse-over-selected='true']  { opacity: 1.0; }
]]>
</style>
<script type="application/ecmascript"><![CDATA[
document.addEventListener('DOMContentLoaded', (event) => {
  highlightEdges();
  highlightAdjacentNodes();
});
]]></script>
</svg>
