<?xml version="1.0" encoding="UTF-8" standalone="no"?>
<!DOCTYPE svg PUBLIC "-//W3C//DTD SVG 1.1//EN"
 "http://www.w3.org/Graphics/SVG/1.1/DTD/svg11.dtd">
<!-- Generated by graphviz version 14.1.4 (20260321.0153)
 -->
<!-- Title: paint_header Pages: 1 -->
<svg width="190pt" height="66pt"
 viewBox="0.00 0.00 190.00 66.00" xmlns="http://www.w3.org/2000/svg" xmlns:xlink="http://www.w3.org/1999/xlink">
<g id="graph0" class="graph" transform="scale(1 1) rotate(0) translate(4 62)">
<title>paint_header</title>
<!-- Node1 -->
<g id="Node000001" class="node">
<title>Node1</title>
<g id="a_Node000001"><a xlink:title="Paint the application header bar. @req SWR&#45;GUI&#45;002.">
<polygon fill="#999999" stroke="#666666" points="71.5,-39 0,-39 0,-19 71.5,-19 71.5,-39"/>
<text xml:space="preserve" text-anchor="middle" x="35.75" y="-25.5" font-family="Helvetica,sans-Serif" font-size="10.00">paint_header</text>
</a>
</g>
</g>
<!-- Node2 -->
<g id="Node000002" class="node">
<title>Node2</title>
<g id="a_Node000002"><a xlink:href="gui__main_8c.html#a18faa01dfc1221353f0ca130f5647098" target="_top" xlink:title=" ">
<polygon fill="white" stroke="#666666" points="182,-58 107.5,-58 107.5,-38 182,-38 182,-58"/>
<text xml:space="preserve" text-anchor="middle" x="144.75" y="-44.5" font-family="Helvetica,sans-Serif" font-size="10.00">draw_text_ex</text>
</a>
</g>
</g>
<!-- Node1&#45;&gt;Node2 -->
<g id="edge1_Node000001_Node000002" class="edge">
<title>Node1&#45;&gt;Node2</title>
<g id="a_edge1_Node000001_Node000002"><a xlink:title=" ">
<path fill="none" stroke="#63b8ff" d="M71.79,-35.22C79.49,-36.59 87.78,-38.06 95.89,-39.5"/>
<polygon fill="#63b8ff" stroke="#63b8ff" points="95.22,-42.94 105.67,-41.24 96.44,-36.04 95.22,-42.94"/>
</a>
</g>
</g>
<!-- Node3 -->
<g id="Node000003" class="node">
<title>Node3</title>
<g id="a_Node000003"><a xlink:href="gui__main_8c.html#a44c4ee73fc9a634398e794afaf73d079" target="_top" xlink:title=" ">
<polygon fill="white" stroke="#666666" points="168.5,-20 121,-20 121,0 168.5,0 168.5,-20"/>
<text xml:space="preserve" text-anchor="middle" x="144.75" y="-6.5" font-family="Helvetica,sans-Serif" font-size="10.00">fill_rect</text>
</a>
</g>
</g>
<!-- Node1&#45;&gt;Node3 -->
<g id="edge2_Node000001_Node000003" class="edge">
<title>Node1&#45;&gt;Node3</title>
<g id="a_edge2_Node000001_Node000003"><a xlink:title=" ">
<path fill="none" stroke="#63b8ff" d="M71.79,-22.78C83.98,-20.61 97.63,-18.19 109.74,-16.04"/>
<polygon fill="#63b8ff" stroke="#63b8ff" points="110.06,-19.54 119.29,-14.34 108.83,-12.65 110.06,-19.54"/>
</a>
</g>
</g>
</g>
</svg>
