<?xml version="1.0" encoding="UTF-8" standalone="no"?>
<!DOCTYPE svg PUBLIC "-//W3C//DTD SVG 1.1//EN"
 "http://www.w3.org/Graphics/SVG/1.1/DTD/svg11.dtd">
<!-- Generated by graphviz version 14.1.4 (20260321.0153)
 -->
<!-- Title: fill_rect Pages: 1 -->
<!--zoomable 201 -->

<svg id="main" version="1.1" xmlns="http://www.w3.org/2000/svg" xmlns:xlink="http://www.w3.org/1999/xlink" xml:space="preserve" onload="init(evt)">

<style type="text/css"><![CDATA[
.node, .edge {opacity: 0.7;}
.node.selected, .edge.selected {opacity: 1;}
.edge:hover path { stroke: red; }
.edge:hover polygon { stroke: red; fill: red; }
]]></style>

<defs>
  <circle id="rim" cx="0" cy="0" r="7"/>
  <circle id="rim2" cx="0" cy="0" r="3.5"/>
  <g id="zoomPlus">
    <use xlink:href="#rim" fill="#404040"><set attributeName="fill" to="#808080" begin="zoomplus.mouseover" end="zoomplus.mouseout"/></use>
    <path d="M-4,0h8M0,-4v8" fill="none" stroke="white" stroke-width="1.5" pointer-events="none"/>
  </g>
  <g id="zoomMin">
    <use xlink:href="#rim" fill="#404040"><set attributeName="fill" to="#808080" begin="zoomminus.mouseover" end="zoomminus.mouseout"/></use>
    <path d="M-4,0h8" fill="none" stroke="white" stroke-width="1.5" pointer-events="none"/>
  </g>
  <g id="arrowUp" transform="translate(30 24)">
    <use xlink:href="#rim"/>
    <path pointer-events="none" fill="none" stroke="white" stroke-width="1.5" d="M0,-3.0v7 M-2.5,-0.5L0,-3.0L2.5,-0.5"/>
  </g>
  <g id="arrowRight" transform="rotate(90) translate(36 -43)">
    <use xlink:href="#rim"/>
    <path pointer-events="none" fill="none" stroke="white" stroke-width="1.5" d="M0,-3.0v7 M-2.5,-0.5L0,-3.0L2.5,-0.5"/>
  </g>
  <g id="arrowDown" transform="rotate(180) translate(-30 -48)">
    <use xlink:href="#rim"/>
    <path pointer-events="none" fill="none" stroke="white" stroke-width="1.5" d="M0,-3.0v7 M-2.5,-0.5L0,-3.0L2.5,-0.5"/>
  </g>
  <g id="arrowLeft" transform="rotate(270) translate(-36 17)">
    <use xlink:href="#rim"/>
    <path pointer-events="none" fill="none" stroke="white" stroke-width="1.5" d="M0,-3.0v7 M-2.5,-0.5L0,-3.0L2.5,-0.5"/>
  </g>
  <g id="resetDef">
    <use xlink:href="#rim2" fill="#404040"><set attributeName="fill" to="#808080" begin="reset.mouseover" end="reset.mouseout"/></use>
  </g>
</defs>
<script type="application/ecmascript">
var viewWidth = 509;
var viewHeight = 201;
var sectionId = 'dynsection-17';
</script>
<script type="application/ecmascript" xlink:href="svg.min.js"/>
<svg id="graph" class="graph">
<g id="viewport">
<title>fill_rect</title>
<!-- Node1 -->
<g id="Node000001" class="node">
<title>Node1</title>
<g id="a_Node000001"><a xlink:title=" ">
<polygon fill="#999999" stroke="#666666" points="500.75,-98.37 453.25,-98.37 453.25,-78.37 500.75,-78.37 500.75,-98.37"/>
<text xml:space="preserve" text-anchor="middle" x="477" y="-84.87" font-family="Helvetica,sans-Serif" font-size="10.00">fill_rect</text>
</a>
</g>
</g>
<!-- Node2 -->
<g id="Node000002" class="node">
<title>Node2</title>
<g id="a_Node000002"><a xlink:href="gui__main_8c.html#ab5a6eab1941232f61da34dc646009e99" target="_top" xlink:title=" ">
<polygon fill="white" stroke="#666666" points="269.25,-193.37 209,-193.37 209,-173.37 269.25,-173.37 269.25,-193.37"/>
<text xml:space="preserve" text-anchor="middle" x="239.12" y="-179.87" font-family="Helvetica,sans-Serif" font-size="10.00">login_proc</text>
</a>
</g>
</g>
<!-- Node1&#45;&gt;Node2 -->
<g id="edge1_Node000001_Node000002" class="edge">
<title>Node1&#45;&gt;Node2</title>
<g id="a_edge1_Node000001_Node000002"><a xlink:title=" ">
<path fill="none" stroke="#63b8ff" d="M466.29,-108.68C456.56,-126.6 439.79,-151.77 417.25,-164.37 370.68,-190.41 306.45,-189.98 269.5,-186.93"/>
<polygon fill="#63b8ff" stroke="#63b8ff" points="469.3,-110.49 470.74,-99.99 463.07,-107.3 469.3,-110.49"/>
</a>
</g>
</g>
<!-- Node4 -->
<g id="Node000004" class="node">
<title>Node4</title>
<g id="a_Node000004"><a xlink:href="gui__main_8c.html#a188d44abc7793a822368986491e74f37" target="_top" xlink:title="Paint the application header bar. @req SWR&#45;GUI&#45;002.">
<polygon fill="white" stroke="#666666" points="407.88,-155.37 336.38,-155.37 336.38,-135.37 407.88,-135.37 407.88,-155.37"/>
<text xml:space="preserve" text-anchor="middle" x="372.12" y="-141.87" font-family="Helvetica,sans-Serif" font-size="10.00">paint_header</text>
</a>
</g>
</g>
<!-- Node1&#45;&gt;Node4 -->
<g id="edge3_Node000001_Node000004" class="edge">
<title>Node1&#45;&gt;Node4</title>
<g id="a_edge3_Node000001_Node000004"><a xlink:title=" ">
<path fill="none" stroke="#63b8ff" d="M452.15,-105.09C441.69,-112.09 429.11,-120.04 417.25,-126.37 411.51,-129.43 405.17,-132.4 399.13,-135.03"/>
<polygon fill="#63b8ff" stroke="#63b8ff" points="453.9,-108.14 460.2,-99.61 449.96,-102.35 453.9,-108.14"/>
</a>
</g>
</g>
<!-- Node6 -->
<g id="Node000006" class="node">
<title>Node6</title>
<g id="a_Node000006"><a xlink:href="gui__main_8c.html#a3a6ecd59596770bcfc1ecf6fa4fd3219" target="_top" xlink:title="Paint the patient summary bar. @req SWR&#45;GUI&#45;003.">
<polygon fill="white" stroke="#666666" points="417.25,-117.37 327,-117.37 327,-97.37 417.25,-97.37 417.25,-117.37"/>
<text xml:space="preserve" text-anchor="middle" x="372.12" y="-103.87" font-family="Helvetica,sans-Serif" font-size="10.00">paint_patient_bar</text>
</a>
</g>
</g>
<!-- Node1&#45;&gt;Node6 -->
<g id="edge6_Node000001_Node000006" class="edge">
<title>Node1&#45;&gt;Node6</title>
<g id="a_edge6_Node000001_Node000006"><a xlink:title=" ">
<path fill="none" stroke="#63b8ff" d="M441.75,-94.7C434.02,-96.12 425.72,-97.66 417.64,-99.15"/>
<polygon fill="#63b8ff" stroke="#63b8ff" points="442.23,-98.17 451.42,-92.91 440.96,-91.28 442.23,-98.17"/>
</a>
</g>
</g>
<!-- Node7 -->
<g id="Node000007" class="node">
<title>Node7</title>
<g id="a_Node000007"><a xlink:href="gui__main_8c.html#a71c5868a8a8bcd102dfebf5a8cd8e55a" target="_top" xlink:title="Paint the aggregate status banner. @req SWR&#45;GUI&#45;003.">
<polygon fill="white" stroke="#666666" points="291,-79.37 187.25,-79.37 187.25,-59.37 291,-59.37 291,-79.37"/>
<text xml:space="preserve" text-anchor="middle" x="239.12" y="-65.87" font-family="Helvetica,sans-Serif" font-size="10.00">paint_status_banner</text>
</a>
</g>
</g>
<!-- Node1&#45;&gt;Node7 -->
<g id="edge8_Node000001_Node000007" class="edge">
<title>Node1&#45;&gt;Node7</title>
<g id="a_edge8_Node000001_Node000007"><a xlink:title=" ">
<path fill="none" stroke="#63b8ff" d="M441.56,-85.6C402.04,-82.41 336.83,-77.16 291.35,-73.5"/>
<polygon fill="#63b8ff" stroke="#63b8ff" points="441.2,-89.08 451.45,-86.39 441.76,-82.1 441.2,-89.08"/>
</a>
</g>
</g>
<!-- Node8 -->
<g id="Node000008" class="node">
<title>Node8</title>
<g id="a_Node000008"><a xlink:href="gui__main_8c.html#acd6770839efac2b7a1806be591ea1d80" target="_top" xlink:title="Paint one colour&#45;coded vital sign tile.">
<polygon fill="white" stroke="#666666" points="399.62,-41.37 344.62,-41.37 344.62,-21.37 399.62,-21.37 399.62,-41.37"/>
<text xml:space="preserve" text-anchor="middle" x="372.12" y="-27.87" font-family="Helvetica,sans-Serif" font-size="10.00">paint_tile</text>
</a>
</g>
</g>
<!-- Node1&#45;&gt;Node8 -->
<g id="edge10_Node000001_Node000008" class="edge">
<title>Node1&#45;&gt;Node8</title>
<g id="a_edge10_Node000001_Node000008"><a xlink:title=" ">
<path fill="none" stroke="#63b8ff" d="M447.64,-72.34C438.01,-66.92 427.17,-60.86 417.25,-55.37 409.16,-50.9 400.2,-46.02 392.49,-41.83"/>
<polygon fill="#63b8ff" stroke="#63b8ff" points="445.77,-75.3 456.2,-77.16 449.2,-69.2 445.77,-75.3"/>
</a>
</g>
</g>
<!-- Node9 -->
<g id="Node000009" class="node">
<title>Node9</title>
<g id="a_Node000009"><a xlink:href="gui__main_8c.html#a809c12bdd714ab44c54f45da4d3b2dc7" target="_top" xlink:title="Paint the 2×2 vital sign tile grid. @req SWR&#45;GUI&#45;003.">
<polygon fill="white" stroke="#666666" points="269.25,-41.37 209,-41.37 209,-21.37 269.25,-21.37 269.25,-41.37"/>
<text xml:space="preserve" text-anchor="middle" x="239.12" y="-27.87" font-family="Helvetica,sans-Serif" font-size="10.00">paint_tiles</text>
</a>
</g>
</g>
<!-- Node1&#45;&gt;Node9 -->
<g id="edge13_Node000001_Node000009" class="edge">
<title>Node1&#45;&gt;Node9</title>
<g id="a_edge13_Node000001_Node000009"><a xlink:title=" ">
<path fill="none" stroke="#63b8ff" d="M466.74,-67.78C457.24,-49.45 440.56,-23.81 417.25,-12.37 367.14,12.23 299.64,-7.31 264.18,-20.97"/>
<polygon fill="#63b8ff" stroke="#63b8ff" points="463.55,-69.22 471.06,-76.7 469.85,-66.17 463.55,-69.22"/>
</a>
</g>
</g>
<!-- Node3 -->
<g id="Node000003" class="node">
<title>Node3</title>
<g id="a_Node000003"><a xlink:href="gui__main_8c.html#aab234127c99873cb463e482155cb679f" target="_top" xlink:title=" ">
<polygon fill="white" stroke="#666666" points="54.25,-136.37 0,-136.37 0,-116.37 54.25,-116.37 54.25,-136.37"/>
<text xml:space="preserve" text-anchor="middle" x="27.12" y="-122.87" font-family="Helvetica,sans-Serif" font-size="10.00">WinMain</text>
</a>
</g>
</g>
<!-- Node2&#45;&gt;Node3 -->
<g id="edge2_Node000002_Node000003" class="edge">
<title>Node2&#45;&gt;Node3</title>
<g id="a_edge2_Node000002_Node000003"><a xlink:title=" ">
<path fill="none" stroke="#63b8ff" d="M197.93,-172.46C155.7,-161 90.52,-143.31 54.43,-133.51"/>
<polygon fill="#63b8ff" stroke="#63b8ff" points="196.9,-175.81 207.46,-175.05 198.73,-169.05 196.9,-175.81"/>
</a>
</g>
</g>
<!-- Node5 -->
<g id="Node000005" class="node">
<title>Node5</title>
<g id="a_Node000005"><a xlink:href="gui__main_8c.html#a50c9496063704973573429586a90b27d" target="_top" xlink:title=" ">
<polygon fill="white" stroke="#666666" points="151.25,-117.37 90.25,-117.37 90.25,-97.37 151.25,-97.37 151.25,-117.37"/>
<text xml:space="preserve" text-anchor="middle" x="120.75" y="-103.87" font-family="Helvetica,sans-Serif" font-size="10.00">dash_proc</text>
</a>
</g>
</g>
<!-- Node4&#45;&gt;Node5 -->
<g id="edge4_Node000004_Node000005" class="edge">
<title>Node4&#45;&gt;Node5</title>
<g id="a_edge4_Node000004_Node000005"><a xlink:title=" ">
<path fill="none" stroke="#63b8ff" d="M325.08,-140.41C287.79,-136.13 233.98,-129.4 187.25,-121.37 175.56,-119.36 162.79,-116.73 151.65,-114.29"/>
<polygon fill="#63b8ff" stroke="#63b8ff" points="324.26,-143.83 334.59,-141.48 325.04,-136.88 324.26,-143.83"/>
</a>
</g>
</g>
<!-- Node5&#45;&gt;Node3 -->
<g id="edge5_Node000005_Node000003" class="edge">
<title>Node5&#45;&gt;Node3</title>
<g id="a_edge5_Node000005_Node000003"><a xlink:title=" ">
<path fill="none" stroke="#63b8ff" d="M78.98,-115.83C70.72,-117.54 62.24,-119.3 54.63,-120.87"/>
<polygon fill="#63b8ff" stroke="#63b8ff" points="79.44,-119.3 88.52,-113.85 78.02,-112.45 79.44,-119.3"/>
</a>
</g>
</g>
<!-- Node6&#45;&gt;Node5 -->
<g id="edge7_Node000006_Node000005" class="edge">
<title>Node6&#45;&gt;Node5</title>
<g id="a_edge7_Node000006_Node000005"><a xlink:title=" ">
<path fill="none" stroke="#63b8ff" d="M315.13,-107.37C264.45,-107.37 191.76,-107.37 151.48,-107.37"/>
<polygon fill="#63b8ff" stroke="#63b8ff" points="315.03,-110.87 325.03,-107.37 315.03,-103.87 315.03,-110.87"/>
</a>
</g>
</g>
<!-- Node7&#45;&gt;Node5 -->
<g id="edge9_Node000007_Node000005" class="edge">
<title>Node7&#45;&gt;Node5</title>
<g id="a_edge9_Node000007_Node000005"><a xlink:title=" ">
<path fill="none" stroke="#63b8ff" d="M195.2,-83.39C180.62,-88.15 164.66,-93.36 151.36,-97.7"/>
<polygon fill="#63b8ff" stroke="#63b8ff" points="196.16,-86.76 204.58,-80.32 193.99,-80.1 196.16,-86.76"/>
</a>
</g>
</g>
<!-- Node8&#45;&gt;Node9 -->
<g id="edge11_Node000008_Node000009" class="edge">
<title>Node8&#45;&gt;Node9</title>
<g id="a_edge11_Node000008_Node000009"><a xlink:title=" ">
<path fill="none" stroke="#63b8ff" d="M332.98,-31.37C312.79,-31.37 288.38,-31.37 269.65,-31.37"/>
<polygon fill="#63b8ff" stroke="#63b8ff" points="332.79,-34.87 342.79,-31.37 332.79,-27.87 332.79,-34.87"/>
</a>
</g>
</g>
<!-- Node9&#45;&gt;Node5 -->
<g id="edge12_Node000009_Node000005" class="edge">
<title>Node9&#45;&gt;Node5</title>
<g id="a_edge12_Node000009_Node000005"><a xlink:title=" ">
<path fill="none" stroke="#63b8ff" d="M197.98,-44.79C194.27,-46.49 190.63,-48.36 187.25,-50.37 164.97,-63.63 143.06,-84.8 131.08,-97.27"/>
<polygon fill="#63b8ff" stroke="#63b8ff" points="199.23,-48.06 207.11,-40.98 196.53,-41.6 199.23,-48.06"/>
</a>
</g>
</g>
</g>
</svg>

<g id="navigator" transform="translate(0 0)" fill="#404254">
  <rect fill="#f2f5e9" fill-opacity="0.5" stroke="#606060" stroke-width=".5" x="0" y="0" width="60" height="60"/>
  <use id="zoomplus" xlink:href="#zoomPlus" x="17" y="9" onmousedown="handleZoom(evt,'in')"/>
  <use id="zoomminus" xlink:href="#zoomMin" x="42" y="9" onmousedown="handleZoom(evt,'out')"/>
  <use id="reset" xlink:href="#resetDef" x="30" y="36" onmousedown="handleReset()"/>
   <use id="arrowup" xlink:href="#arrowUp" x="0" y="0" onmousedown="handlePan(0,-1)"/>
  <use id="arrowright" xlink:href="#arrowRight" x="0" y="0" onmousedown="handlePan(1,0)"/>
  <use id="arrowdown" xlink:href="#arrowDown" x="0" y="0" onmousedown="handlePan(0,1)"/>
  <use id="arrowleft" xlink:href="#arrowLeft" x="0" y="0" onmousedown="handlePan(-1,0)"/>
</g>
<svg viewBox="0 0 15 15" width="100%" height="30px" preserveAspectRatio="xMaxYMin meet">
 <g id="arrow_out" transform="scale(0.3 0.3)">
  <a xlink:href="gui__main_8c_a44c4ee73fc9a634398e794afaf73d079_icgraph_org.svg" target="_base">
   <rect id="button" ry="5" rx="5" y="6" x="6" height="38" width="38"
        fill="#f2f5e9" fill-opacity="0.5" stroke="#606060" stroke-width="1.0"/>
   <path id="arrow"
     d="M 11.500037,31.436501 C 11.940474,20.09759 22.043105,11.32322 32.158766,21.979434 L 37.068811,17.246167 C 37.068811,17.246167 37.088388,32 37.088388,32 L 22.160133,31.978069 C 22.160133,31.978069 26.997745,27.140456 26.997745,27.140456 C 18.528582,18.264221 13.291696,25.230495 11.500037,31.436501 z"
     style="fill:#404040;"/>
  </a>
 </g>
</svg>

<style type='text/css'>
<![CDATA[
[data-mouse-over-selected='false'] { opacity: 0.7; }
[data-mouse-over-selected='true']  { opacity: 1.0; }
]]>
</style>
<script type="application/ecmascript"><![CDATA[
document.addEventListener('DOMContentLoaded', (event) => {
  highlightEdges();
  highlightAdjacentNodes();
});
]]></script>
</svg>
