<?xml version="1.0" encoding="UTF-8" standalone="no"?>
<!DOCTYPE svg PUBLIC "-//W3C//DTD SVG 1.1//EN"
 "http://www.w3.org/Graphics/SVG/1.1/DTD/svg11.dtd">
<!-- Generated by graphviz version 14.1.4 (20260321.0153)
 -->
<!-- Title: auth_display_name Pages: 1 -->
<svg width="405pt" height="28pt"
 viewBox="0.00 0.00 405.00 28.00" xmlns="http://www.w3.org/2000/svg" xmlns:xlink="http://www.w3.org/1999/xlink">
<g id="graph0" class="graph" transform="scale(1 1) rotate(0) translate(4 24)">
<title>auth_display_name</title>
<!-- Node1 -->
<g id="Node000001" class="node">
<title>Node1</title>
<g id="a_Node000001"><a xlink:title="Return a human&#45;readable display name for a validated username.">
<polygon fill="#999999" stroke="#666666" points="397,-20 297,-20 297,0 397,0 397,-20"/>
<text xml:space="preserve" text-anchor="middle" x="347" y="-6.5" font-family="Helvetica,sans-Serif" font-size="10.00">auth_display_name</text>
</a>
</g>
</g>
<!-- Node2 -->
<g id="Node000002" class="node">
<title>Node2</title>
<g id="a_Node000002"><a xlink:href="gui__main_8c.html#a51e990e1b26cc2a1c2e8e602d3b13cf5" target="_top" xlink:title="Attempt login from the username/password controls.">
<polygon fill="white" stroke="#666666" points="261,-20 186.5,-20 186.5,0 261,0 261,-20"/>
<text xml:space="preserve" text-anchor="middle" x="223.75" y="-6.5" font-family="Helvetica,sans-Serif" font-size="10.00">attempt_login</text>
</a>
</g>
</g>
<!-- Node1&#45;&gt;Node2 -->
<g id="edge1_Node000001_Node000002" class="edge">
<title>Node1&#45;&gt;Node2</title>
<g id="a_edge1_Node000001_Node000002"><a xlink:title=" ">
<path fill="none" stroke="#63b8ff" d="M285.22,-10C277.07,-10 268.93,-10 261.38,-10"/>
<polygon fill="#63b8ff" stroke="#63b8ff" points="285.17,-13.5 295.17,-10 285.17,-6.5 285.17,-13.5"/>
</a>
</g>
</g>
<!-- Node3 -->
<g id="Node000003" class="node">
<title>Node3</title>
<g id="a_Node000003"><a xlink:href="gui__main_8c.html#ab5a6eab1941232f61da34dc646009e99" target="_top" xlink:title=" ">
<polygon fill="white" stroke="#666666" points="150.5,-20 90.25,-20 90.25,0 150.5,0 150.5,-20"/>
<text xml:space="preserve" text-anchor="middle" x="120.38" y="-6.5" font-family="Helvetica,sans-Serif" font-size="10.00">login_proc</text>
</a>
</g>
</g>
<!-- Node2&#45;&gt;Node3 -->
<g id="edge2_Node000002_Node000003" class="edge">
<title>Node2&#45;&gt;Node3</title>
<g id="a_edge2_Node000002_Node000003"><a xlink:title=" ">
<path fill="none" stroke="#63b8ff" d="M174.79,-10C166.65,-10 158.42,-10 150.94,-10"/>
<polygon fill="#63b8ff" stroke="#63b8ff" points="174.64,-13.5 184.64,-10 174.64,-6.5 174.64,-13.5"/>
</a>
</g>
</g>
<!-- Node4 -->
<g id="Node000004" class="node">
<title>Node4</title>
<g id="a_Node000004"><a xlink:href="gui__main_8c.html#aab234127c99873cb463e482155cb679f" target="_top" xlink:title=" ">
<polygon fill="white" stroke="#666666" points="54.25,-20 0,-20 0,0 54.25,0 54.25,-20"/>
<text xml:space="preserve" text-anchor="middle" x="27.12" y="-6.5" font-family="Helvetica,sans-Serif" font-size="10.00">WinMain</text>
</a>
</g>
</g>
<!-- Node3&#45;&gt;Node4 -->
<g id="edge3_Node000003_Node000004" class="edge">
<title>Node3&#45;&gt;Node4</title>
<g id="a_edge3_Node000003_Node000004"><a xlink:title=" ">
<path fill="none" stroke="#63b8ff" d="M78.72,-10C70.56,-10 62.19,-10 54.67,-10"/>
<polygon fill="#63b8ff" stroke="#63b8ff" points="78.49,-13.5 88.49,-10 78.49,-6.5 78.49,-13.5"/>
</a>
</g>
</g>
</g>
</svg>
