<?xml version="1.0" encoding="UTF-8" standalone="no"?>
<!DOCTYPE svg PUBLIC "-//W3C//DTD SVG 1.1//EN"
 "http://www.w3.org/Graphics/SVG/1.1/DTD/svg11.dtd">
<!-- Generated by graphviz version 14.1.4 (20260321.0153)
 -->
<!-- Title: do_clear Pages: 1 -->
<svg width="489pt" height="142pt"
 viewBox="0.00 0.00 489.00 142.00" xmlns="http://www.w3.org/2000/svg" xmlns:xlink="http://www.w3.org/1999/xlink">

<svg id="main" version="1.1" xmlns="http://www.w3.org/2000/svg" xmlns:xlink="http://www.w3.org/1999/xlink" xml:space="preserve">

<style type="text/css"><![CDATA[
.node, .edge {opacity: 0.7;}
.node.selected, .edge.selected {opacity: 1;}
.edge:hover path { stroke: red; }
.edge:hover polygon { stroke: red; fill: red; }
]]></style>
<script type="application/ecmascript" xlink:href="svg.min.js"/>
<svg id="graph" class="graph">
<g id="graph0" class="graph" transform="scale(1 1) rotate(0) translate(4 138)">
<title>do_clear</title>
<!-- Node1 -->
<g id="Node000001" class="node">
<title>Node1</title>
<g id="a_Node000001"><a xlink:title=" ">
<polygon fill="#999999" stroke="#666666" points="52.75,-96 0,-96 0,-76 52.75,-76 52.75,-96"/>
<text xml:space="preserve" text-anchor="middle" x="26.38" y="-82.5" font-family="Helvetica,sans-Serif" font-size="10.00">do_clear</text>
</a>
</g>
</g>
<!-- Node2 -->
<g id="Node000002" class="node">
<title>Node2</title>
<g id="a_Node000002"><a xlink:href="gui__main_8c.html#aea86431d3096bc14f4f06eb7906f8278" target="_top" xlink:title=" ">
<polygon fill="white" stroke="#666666" points="159.5,-115 113.5,-115 113.5,-95 159.5,-95 159.5,-115"/>
<text xml:space="preserve" text-anchor="middle" x="136.5" y="-101.5" font-family="Helvetica,sans-Serif" font-size="10.00">set_txt</text>
</a>
</g>
</g>
<!-- Node1&#45;&gt;Node2 -->
<g id="edge1_Node000001_Node000002" class="edge">
<title>Node1&#45;&gt;Node2</title>
<g id="a_edge1_Node000001_Node000002"><a xlink:title=" ">
<path fill="none" stroke="#63b8ff" d="M53,-90.5C67.77,-93.1 86.51,-96.39 102.39,-99.18"/>
<polygon fill="#63b8ff" stroke="#63b8ff" points="101.41,-102.56 111.86,-100.85 102.62,-95.67 101.41,-102.56"/>
</a>
</g>
</g>
<!-- Node3 -->
<g id="Node000003" class="node">
<title>Node3</title>
<g id="a_Node000003"><a xlink:href="gui__main_8c.html#a8faad4cd27c161432ac3388959b1a766" target="_top" xlink:title="Refresh all dynamic dashboard content after any data change. @req SWR&#45;GUI&#45;003 @req SWR&#45;GUI&#45;004.">
<polygon fill="white" stroke="#666666" points="184.25,-77 88.75,-77 88.75,-57 184.25,-57 184.25,-77"/>
<text xml:space="preserve" text-anchor="middle" x="136.5" y="-63.5" font-family="Helvetica,sans-Serif" font-size="10.00">update_dashboard</text>
</a>
</g>
</g>
<!-- Node1&#45;&gt;Node3 -->
<g id="edge2_Node000001_Node000003" class="edge">
<title>Node1&#45;&gt;Node3</title>
<g id="a_edge2_Node000001_Node000003"><a xlink:title=" ">
<path fill="none" stroke="#63b8ff" d="M53,-81.5C60.38,-80.2 68.75,-78.73 77.26,-77.23"/>
<polygon fill="#63b8ff" stroke="#63b8ff" points="77.72,-80.71 86.96,-75.53 76.51,-73.81 77.72,-80.71"/>
</a>
</g>
</g>
<!-- Node4 -->
<g id="Node000004" class="node">
<title>Node4</title>
<g id="a_Node000004"><a xlink:href="vitals_8c.html#a20a209843ea1eeff8484a7998d492615" target="_top" xlink:title="Convert an AlertLevel enum to a display string.">
<polygon fill="white" stroke="#666666" points="314.25,-134 237.5,-134 237.5,-114 314.25,-114 314.25,-134"/>
<text xml:space="preserve" text-anchor="middle" x="275.88" y="-120.5" font-family="Helvetica,sans-Serif" font-size="10.00">alert_level_str</text>
</a>
</g>
</g>
<!-- Node3&#45;&gt;Node4 -->
<g id="edge3_Node000003_Node000004" class="edge">
<title>Node3&#45;&gt;Node4</title>
<g id="a_edge3_Node000003_Node000004"><a xlink:title=" ">
<path fill="none" stroke="#63b8ff" d="M164.4,-77.4C170.95,-80.08 177.9,-83.04 184.25,-86 200.65,-93.64 203.66,-97.79 220.25,-105 223.86,-106.57 227.64,-108.1 231.46,-109.58"/>
<polygon fill="#63b8ff" stroke="#63b8ff" points="230.2,-112.84 240.79,-113.02 232.62,-106.27 230.2,-112.84"/>
</a>
</g>
</g>
<!-- Node5 -->
<g id="Node000005" class="node">
<title>Node5</title>
<g id="a_Node000005"><a xlink:href="alerts_8c.html#a98b6140a4d21520d639bc81d1f7c08b7" target="_top" xlink:title="Generate structured alert records for out&#45;of&#45;range vital signs.">
<polygon fill="white" stroke="#666666" points="317.25,-96 234.5,-96 234.5,-76 317.25,-76 317.25,-96"/>
<text xml:space="preserve" text-anchor="middle" x="275.88" y="-82.5" font-family="Helvetica,sans-Serif" font-size="10.00">generate_alerts</text>
</a>
</g>
</g>
<!-- Node3&#45;&gt;Node5 -->
<g id="edge4_Node000003_Node000005" class="edge">
<title>Node3&#45;&gt;Node5</title>
<g id="a_edge4_Node000003_Node000005"><a xlink:title=" ">
<path fill="none" stroke="#63b8ff" d="M184.39,-73.49C196.77,-75.2 210.2,-77.06 222.83,-78.8"/>
<polygon fill="#63b8ff" stroke="#63b8ff" points="222.27,-82.26 232.66,-80.16 223.23,-75.32 222.27,-82.26"/>
</a>
</g>
</g>
<!-- Node10 -->
<g id="Node000010" class="node">
<title>Node10</title>
<g id="a_Node000010"><a xlink:href="vitals_8c.html#af7201b2a5a70f76ab81ade218a863830" target="_top" xlink:title="Return the highest alert level across all four vital parameters.">
<polygon fill="white" stroke="#666666" points="322.88,-58 228.88,-58 228.88,-38 322.88,-38 322.88,-58"/>
<text xml:space="preserve" text-anchor="middle" x="275.88" y="-44.5" font-family="Helvetica,sans-Serif" font-size="10.00">overall_alert_level</text>
</a>
</g>
</g>
<!-- Node3&#45;&gt;Node10 -->
<g id="edge9_Node000003_Node000010" class="edge">
<title>Node3&#45;&gt;Node10</title>
<g id="a_edge9_Node000003_Node000010"><a xlink:title=" ">
<path fill="none" stroke="#63b8ff" d="M184.39,-60.51C195.01,-59.05 206.4,-57.47 217.39,-55.95"/>
<polygon fill="#63b8ff" stroke="#63b8ff" points="217.73,-59.44 227.16,-54.6 216.77,-52.5 217.73,-59.44"/>
</a>
</g>
</g>
<!-- Node11 -->
<g id="Node000011" class="node">
<title>Node11</title>
<g id="a_Node000011"><a xlink:href="patient_8c.html#aaf2d461ddd1efafe4887647d0c8688d7" target="_top" xlink:title="Return a pointer to the most recent reading, or NULL if none exist.">
<polygon fill="white" stroke="#666666" points="331.5,-20 220.25,-20 220.25,0 331.5,0 331.5,-20"/>
<text xml:space="preserve" text-anchor="middle" x="275.88" y="-6.5" font-family="Helvetica,sans-Serif" font-size="10.00">patient_latest_reading</text>
</a>
</g>
</g>
<!-- Node3&#45;&gt;Node11 -->
<g id="edge14_Node000003_Node000011" class="edge">
<title>Node3&#45;&gt;Node11</title>
<g id="a_edge14_Node000003_Node000011"><a xlink:title=" ">
<path fill="none" stroke="#63b8ff" d="M158.69,-56.59C175.26,-48.61 198.98,-37.56 220.25,-29 224.16,-27.43 228.25,-25.86 232.37,-24.34"/>
<polygon fill="#63b8ff" stroke="#63b8ff" points="233.55,-27.63 241.77,-20.95 231.18,-21.05 233.55,-27.63"/>
</a>
</g>
</g>
<!-- Node6 -->
<g id="Node000006" class="node">
<title>Node6</title>
<g id="a_Node000006"><a xlink:href="vitals_8c.html#a3c853e30a899042babf9fdd2bd2cbfc1" target="_top" xlink:title="Classify a blood pressure reading.">
<polygon fill="white" stroke="#666666" points="481,-58 367.5,-58 367.5,-38 481,-38 481,-58"/>
<text xml:space="preserve" text-anchor="middle" x="424.25" y="-44.5" font-family="Helvetica,sans-Serif" font-size="10.00">check_blood_pressure</text>
</a>
</g>
</g>
<!-- Node5&#45;&gt;Node6 -->
<g id="edge5_Node000005_Node000006" class="edge">
<title>Node5&#45;&gt;Node6</title>
<g id="a_edge5_Node000005_Node000006"><a xlink:title=" ">
<path fill="none" stroke="#63b8ff" d="M317.26,-75.52C334.22,-71.11 354.14,-65.94 372.11,-61.28"/>
<polygon fill="#63b8ff" stroke="#63b8ff" points="372.73,-64.73 381.53,-58.83 370.97,-57.96 372.73,-64.73"/>
</a>
</g>
</g>
<!-- Node7 -->
<g id="Node000007" class="node">
<title>Node7</title>
<g id="a_Node000007"><a xlink:href="vitals_8c.html#a7604eb6b23010f139f6f960b184a3b28" target="_top" xlink:title="Classify a heart rate reading.">
<polygon fill="white" stroke="#666666" points="469.75,-20 378.75,-20 378.75,0 469.75,0 469.75,-20"/>
<text xml:space="preserve" text-anchor="middle" x="424.25" y="-6.5" font-family="Helvetica,sans-Serif" font-size="10.00">check_heart_rate</text>
</a>
</g>
</g>
<!-- Node5&#45;&gt;Node7 -->
<g id="edge6_Node000005_Node000007" class="edge">
<title>Node5&#45;&gt;Node7</title>
<g id="a_edge6_Node000005_Node000007"><a xlink:title=" ">
<path fill="none" stroke="#63b8ff" d="M314.72,-75.51C320.56,-73.14 326.36,-70.32 331.5,-67 351.04,-54.38 347.92,-41.56 367.5,-29 369.63,-27.63 371.88,-26.35 374.19,-25.15"/>
<polygon fill="#63b8ff" stroke="#63b8ff" points="375.59,-28.36 383.25,-21.04 372.69,-21.98 375.59,-28.36"/>
</a>
</g>
</g>
<!-- Node8 -->
<g id="Node000008" class="node">
<title>Node8</title>
<g id="a_Node000008"><a xlink:href="vitals_8c.html#ac0bc076e63894a96df90f2eab73c88fe" target="_top" xlink:title="Classify an SpO2 reading.">
<polygon fill="white" stroke="#666666" points="458.5,-134 390,-134 390,-114 458.5,-114 458.5,-134"/>
<text xml:space="preserve" text-anchor="middle" x="424.25" y="-120.5" font-family="Helvetica,sans-Serif" font-size="10.00">check_spo2</text>
</a>
</g>
</g>
<!-- Node5&#45;&gt;Node8 -->
<g id="edge7_Node000005_Node000008" class="edge">
<title>Node5&#45;&gt;Node8</title>
<g id="a_edge7_Node000005_Node000008"><a xlink:title=" ">
<path fill="none" stroke="#63b8ff" d="M317.26,-96.48C336.36,-101.44 359.22,-107.38 378.81,-112.46"/>
<polygon fill="#63b8ff" stroke="#63b8ff" points="377.89,-115.84 388.45,-114.96 379.65,-109.06 377.89,-115.84"/>
</a>
</g>
</g>
<!-- Node9 -->
<g id="Node000009" class="node">
<title>Node9</title>
<g id="a_Node000009"><a xlink:href="vitals_8c.html#aef7f6fa183fbc5412c13ea63bd2b62ce" target="_top" xlink:title="Classify a temperature reading.">
<polygon fill="white" stroke="#666666" points="473.88,-96 374.62,-96 374.62,-76 473.88,-76 473.88,-96"/>
<text xml:space="preserve" text-anchor="middle" x="424.25" y="-82.5" font-family="Helvetica,sans-Serif" font-size="10.00">check_temperature</text>
</a>
</g>
</g>
<!-- Node5&#45;&gt;Node9 -->
<g id="edge8_Node000005_Node000009" class="edge">
<title>Node5&#45;&gt;Node9</title>
<g id="a_edge8_Node000005_Node000009"><a xlink:title=" ">
<path fill="none" stroke="#63b8ff" d="M317.65,-86C331.67,-86 347.68,-86 362.92,-86"/>
<polygon fill="#63b8ff" stroke="#63b8ff" points="362.87,-89.5 372.87,-86 362.87,-82.5 362.87,-89.5"/>
</a>
</g>
</g>
<!-- Node10&#45;&gt;Node6 -->
<g id="edge10_Node000010_Node000006" class="edge">
<title>Node10&#45;&gt;Node6</title>
<g id="a_edge10_Node000010_Node000006"><a xlink:title=" ">
<path fill="none" stroke="#63b8ff" d="M323.19,-48C333.57,-48 344.79,-48 355.83,-48"/>
<polygon fill="#63b8ff" stroke="#63b8ff" points="355.72,-51.5 365.72,-48 355.72,-44.5 355.72,-51.5"/>
</a>
</g>
</g>
<!-- Node10&#45;&gt;Node7 -->
<g id="edge11_Node000010_Node000007" class="edge">
<title>Node10&#45;&gt;Node7</title>
<g id="a_edge11_Node000010_Node000007"><a xlink:title=" ">
<path fill="none" stroke="#63b8ff" d="M317.26,-37.52C334.22,-33.11 354.14,-27.94 372.11,-23.28"/>
<polygon fill="#63b8ff" stroke="#63b8ff" points="372.73,-26.73 381.53,-20.83 370.97,-19.96 372.73,-26.73"/>
</a>
</g>
</g>
<!-- Node10&#45;&gt;Node8 -->
<g id="edge12_Node000010_Node000008" class="edge">
<title>Node10&#45;&gt;Node8</title>
<g id="a_edge12_Node000010_Node000008"><a xlink:title=" ">
<path fill="none" stroke="#63b8ff" d="M314.72,-58.49C320.56,-60.86 326.36,-63.68 331.5,-67 351.04,-79.62 347.92,-92.44 367.5,-105 371.17,-107.36 375.17,-109.45 379.28,-111.31"/>
<polygon fill="#63b8ff" stroke="#63b8ff" points="377.62,-114.42 388.2,-114.9 380.23,-107.93 377.62,-114.42"/>
</a>
</g>
</g>
<!-- Node10&#45;&gt;Node9 -->
<g id="edge13_Node000010_Node000009" class="edge">
<title>Node10&#45;&gt;Node9</title>
<g id="a_edge13_Node000010_Node000009"><a xlink:title=" ">
<path fill="none" stroke="#63b8ff" d="M317.26,-58.48C334.22,-62.89 354.14,-68.06 372.11,-72.72"/>
<polygon fill="#63b8ff" stroke="#63b8ff" points="370.97,-76.04 381.53,-75.17 372.73,-69.27 370.97,-76.04"/>
</a>
</g>
</g>
</g>
</svg>
</svg>

<style type='text/css'>
<![CDATA[
[data-mouse-over-selected='false'] { opacity: 0.7; }
[data-mouse-over-selected='true']  { opacity: 1.0; }
]]>
</style>
<script type="application/ecmascript"><![CDATA[
document.addEventListener('DOMContentLoaded', (event) => {
  highlightEdges();
  highlightAdjacentNodes();
});
]]></script>
</svg>
