<?xml version="1.0" encoding="UTF-8" standalone="no"?>
<!DOCTYPE svg PUBLIC "-//W3C//DTD SVG 1.1//EN"
 "http://www.w3.org/Graphics/SVG/1.1/DTD/svg11.dtd">
<!-- Generated by graphviz version 14.1.4 (20260321.0153)
 -->
<!-- Title: update_dashboard Pages: 1 -->
<svg width="503pt" height="161pt"
 viewBox="0.00 0.00 503.00 161.00" xmlns="http://www.w3.org/2000/svg" xmlns:xlink="http://www.w3.org/1999/xlink">
<g id="graph0" class="graph" transform="scale(1 1) rotate(0) translate(4 157.29)">
<title>update_dashboard</title>
<!-- Node1 -->
<g id="Node000001" class="node">
<title>Node1</title>
<g id="a_Node000001"><a xlink:title="Refresh all dynamic dashboard content after any data change. @req SWR&#45;GUI&#45;003 @req SWR&#45;GUI&#45;004.">
<polygon fill="#999999" stroke="#666666" points="494.75,-96 399.25,-96 399.25,-76 494.75,-76 494.75,-96"/>
<text xml:space="preserve" text-anchor="middle" x="447" y="-82.5" font-family="Helvetica,sans-Serif" font-size="10.00">update_dashboard</text>
</a>
</g>
</g>
<!-- Node2 -->
<g id="Node000002" class="node">
<title>Node2</title>
<g id="a_Node000002"><a xlink:href="gui__main_8c.html#a50c9496063704973573429586a90b27d" target="_top" xlink:title=" ">
<polygon fill="white" stroke="#666666" points="151.25,-96 90.25,-96 90.25,-76 151.25,-76 151.25,-96"/>
<text xml:space="preserve" text-anchor="middle" x="120.75" y="-82.5" font-family="Helvetica,sans-Serif" font-size="10.00">dash_proc</text>
</a>
</g>
</g>
<!-- Node1&#45;&gt;Node2 -->
<g id="edge1_Node000001_Node000002" class="edge">
<title>Node1&#45;&gt;Node2</title>
<g id="a_edge1_Node000001_Node000002"><a xlink:title=" ">
<path fill="none" stroke="#63b8ff" d="M418.98,-101.85C371.11,-127.79 268.76,-173.5 187.25,-143 162.4,-133.7 140.76,-110.25 129.66,-96.5"/>
<polygon fill="#63b8ff" stroke="#63b8ff" points="420.52,-105 427.56,-97.08 417.12,-98.89 420.52,-105"/>
</a>
</g>
</g>
<!-- Node4 -->
<g id="Node000004" class="node">
<title>Node4</title>
<g id="a_Node000004"><a xlink:href="gui__main_8c.html#a9d7273263f3a31bf701590beb4c5b1d1" target="_top" xlink:title="Record a new vital signs reading from the vitals entry fields. @req SWR&#45;GUI&#45;004.">
<polygon fill="white" stroke="#666666" points="271.5,-134 187.25,-134 187.25,-114 271.5,-114 271.5,-134"/>
<text xml:space="preserve" text-anchor="middle" x="229.38" y="-120.5" font-family="Helvetica,sans-Serif" font-size="10.00">do_add_reading</text>
</a>
</g>
</g>
<!-- Node1&#45;&gt;Node4 -->
<g id="edge3_Node000001_Node000004" class="edge">
<title>Node1&#45;&gt;Node4</title>
<g id="a_edge3_Node000001_Node000004"><a xlink:title=" ">
<path fill="none" stroke="#63b8ff" d="M392.46,-98.98C382.77,-101.14 372.73,-103.24 363.25,-105 332.78,-110.67 298.1,-115.57 271.82,-118.98"/>
<polygon fill="#63b8ff" stroke="#63b8ff" points="393.17,-102.41 402.14,-96.78 391.62,-95.58 393.17,-102.41"/>
</a>
</g>
</g>
<!-- Node5 -->
<g id="Node000005" class="node">
<title>Node5</title>
<g id="a_Node000005"><a xlink:href="gui__main_8c.html#a6bed6b36812029c7bc2eb263a12e5c98" target="_top" xlink:title="Admit a patient from the identity fields. @req SWR&#45;GUI&#45;004.">
<polygon fill="white" stroke="#666666" points="363.25,-96 307.5,-96 307.5,-76 363.25,-76 363.25,-96"/>
<text xml:space="preserve" text-anchor="middle" x="335.38" y="-82.5" font-family="Helvetica,sans-Serif" font-size="10.00">do_admit</text>
</a>
</g>
</g>
<!-- Node1&#45;&gt;Node5 -->
<g id="edge5_Node000001_Node000005" class="edge">
<title>Node1&#45;&gt;Node5</title>
<g id="a_edge5_Node000001_Node000005"><a xlink:title=" ">
<path fill="none" stroke="#63b8ff" d="M387.48,-86C379.13,-86 370.89,-86 363.54,-86"/>
<polygon fill="#63b8ff" stroke="#63b8ff" points="387.36,-89.5 397.36,-86 387.36,-82.5 387.36,-89.5"/>
</a>
</g>
</g>
<!-- Node6 -->
<g id="Node000006" class="node">
<title>Node6</title>
<g id="a_Node000006"><a xlink:href="gui__main_8c.html#a9106ea80981b1db52b607a5e58f0ecf3" target="_top" xlink:title=" ">
<polygon fill="white" stroke="#666666" points="263.62,-58 195.12,-58 195.12,-38 263.62,-38 263.62,-58"/>
<text xml:space="preserve" text-anchor="middle" x="229.38" y="-44.5" font-family="Helvetica,sans-Serif" font-size="10.00">do_scenario</text>
</a>
</g>
</g>
<!-- Node1&#45;&gt;Node6 -->
<g id="edge12_Node000001_Node000006" class="edge">
<title>Node1&#45;&gt;Node6</title>
<g id="a_edge12_Node000001_Node000006"><a xlink:title=" ">
<path fill="none" stroke="#63b8ff" d="M392.46,-73.02C382.77,-70.86 372.73,-68.76 363.25,-67 329.69,-60.76 291.02,-55.44 264.09,-52.03"/>
<polygon fill="#63b8ff" stroke="#63b8ff" points="391.62,-76.42 402.14,-75.22 393.17,-69.59 391.62,-76.42"/>
</a>
</g>
</g>
<!-- Node7 -->
<g id="Node000007" class="node">
<title>Node7</title>
<g id="a_Node000007"><a xlink:href="gui__main_8c.html#a11329148e25059d43a9d848bf4f90d4b" target="_top" xlink:title=" ">
<polygon fill="white" stroke="#666666" points="361.75,-20 309,-20 309,0 361.75,0 361.75,-20"/>
<text xml:space="preserve" text-anchor="middle" x="335.38" y="-6.5" font-family="Helvetica,sans-Serif" font-size="10.00">do_clear</text>
</a>
</g>
</g>
<!-- Node1&#45;&gt;Node7 -->
<g id="edge10_Node000001_Node000007" class="edge">
<title>Node1&#45;&gt;Node7</title>
<g id="a_edge10_Node000001_Node000007"><a xlink:title=" ">
<path fill="none" stroke="#63b8ff" d="M421.76,-69.2C400.21,-54.26 369.39,-32.89 351.28,-20.33"/>
<polygon fill="#63b8ff" stroke="#63b8ff" points="419.76,-72.07 429.97,-74.89 423.75,-66.31 419.76,-72.07"/>
</a>
</g>
</g>
<!-- Node3 -->
<g id="Node000003" class="node">
<title>Node3</title>
<g id="a_Node000003"><a xlink:href="gui__main_8c.html#aab234127c99873cb463e482155cb679f" target="_top" xlink:title=" ">
<polygon fill="white" stroke="#666666" points="54.25,-96 0,-96 0,-76 54.25,-76 54.25,-96"/>
<text xml:space="preserve" text-anchor="middle" x="27.12" y="-82.5" font-family="Helvetica,sans-Serif" font-size="10.00">WinMain</text>
</a>
</g>
</g>
<!-- Node2&#45;&gt;Node3 -->
<g id="edge2_Node000002_Node000003" class="edge">
<title>Node2&#45;&gt;Node3</title>
<g id="a_edge2_Node000002_Node000003"><a xlink:title=" ">
<path fill="none" stroke="#63b8ff" d="M78.7,-86C70.53,-86 62.16,-86 54.63,-86"/>
<polygon fill="#63b8ff" stroke="#63b8ff" points="78.49,-89.5 88.49,-86 78.49,-82.5 78.49,-89.5"/>
</a>
</g>
</g>
<!-- Node4&#45;&gt;Node2 -->
<g id="edge4_Node000004_Node000002" class="edge">
<title>Node4&#45;&gt;Node2</title>
<g id="a_edge4_Node000004_Node000002"><a xlink:title=" ">
<path fill="none" stroke="#63b8ff" d="M188.41,-109.76C176.02,-105.34 162.6,-100.56 151.07,-96.45"/>
<polygon fill="#63b8ff" stroke="#63b8ff" points="186.94,-112.95 197.53,-113.01 189.29,-106.35 186.94,-112.95"/>
</a>
</g>
</g>
<!-- Node5&#45;&gt;Node2 -->
<g id="edge6_Node000005_Node000002" class="edge">
<title>Node5&#45;&gt;Node2</title>
<g id="a_edge6_Node000005_Node000002"><a xlink:title=" ">
<path fill="none" stroke="#63b8ff" d="M295.74,-86C254.33,-86 189.48,-86 151.75,-86"/>
<polygon fill="#63b8ff" stroke="#63b8ff" points="295.5,-89.5 305.5,-86 295.5,-82.5 295.5,-89.5"/>
</a>
</g>
</g>
<!-- Node5&#45;&gt;Node4 -->
<g id="edge7_Node000005_Node000004" class="edge">
<title>Node5&#45;&gt;Node4</title>
<g id="a_edge7_Node000005_Node000004"><a xlink:title=" ">
<path fill="none" stroke="#63b8ff" d="M296.53,-99.83C284.13,-104.36 270.57,-109.31 258.97,-113.55"/>
<polygon fill="#63b8ff" stroke="#63b8ff" points="297.44,-103.22 305.63,-96.5 295.03,-96.65 297.44,-103.22"/>
</a>
</g>
</g>
<!-- Node5&#45;&gt;Node6 -->
<g id="edge8_Node000005_Node000006" class="edge">
<title>Node5&#45;&gt;Node6</title>
<g id="a_edge8_Node000005_Node000006"><a xlink:title=" ">
<path fill="none" stroke="#63b8ff" d="M296.53,-72.17C284.13,-67.64 270.57,-62.69 258.97,-58.45"/>
<polygon fill="#63b8ff" stroke="#63b8ff" points="295.03,-75.35 305.63,-75.5 297.44,-68.78 295.03,-75.35"/>
</a>
</g>
</g>
<!-- Node6&#45;&gt;Node2 -->
<g id="edge9_Node000006_Node000002" class="edge">
<title>Node6&#45;&gt;Node2</title>
<g id="a_edge9_Node000006_Node000002"><a xlink:title=" ">
<path fill="none" stroke="#63b8ff" d="M188.41,-62.24C176.02,-66.66 162.6,-71.44 151.07,-75.55"/>
<polygon fill="#63b8ff" stroke="#63b8ff" points="189.29,-65.65 197.53,-58.99 186.94,-59.05 189.29,-65.65"/>
</a>
</g>
</g>
<!-- Node7&#45;&gt;Node2 -->
<g id="edge11_Node000007_Node000002" class="edge">
<title>Node7&#45;&gt;Node2</title>
<g id="a_edge11_Node000007_Node000002"><a xlink:title=" ">
<path fill="none" stroke="#63b8ff" d="M297.22,-8.94C266.47,-9.41 222.3,-13.25 187.25,-29 163.32,-39.75 141.66,-62.22 130.24,-75.51"/>
<polygon fill="#63b8ff" stroke="#63b8ff" points="297.2,-12.44 307.19,-8.91 297.18,-5.44 297.2,-12.44"/>
</a>
</g>
</g>
</g>
</svg>
