<?xml version="1.0" encoding="UTF-8" standalone="no"?>
<!DOCTYPE svg PUBLIC "-//W3C//DTD SVG 1.1//EN"
 "http://www.w3.org/Graphics/SVG/1.1/DTD/svg11.dtd">
<!-- Generated by graphviz version 14.1.4 (20260321.0153)
 -->
<!-- Title: main Pages: 1 -->
<svg width="797pt" height="446pt"
 viewBox="0.00 0.00 797.00 446.00" xmlns="http://www.w3.org/2000/svg" xmlns:xlink="http://www.w3.org/1999/xlink">
<g id="graph0" class="graph" transform="scale(1 1) rotate(0) translate(4 442)">
<title>main</title>
<!-- Node1 -->
<g id="Node000001" class="node">
<title>Node1</title>
<g id="a_Node000001"><a xlink:title="Application entry point.">
<polygon fill="#999999" stroke="#666666" points="37,-338 0,-338 0,-318 37,-318 37,-338"/>
<text xml:space="preserve" text-anchor="middle" x="18.5" y="-324.5" font-family="Helvetica,sans-Serif" font-size="10.00">main</text>
</a>
</g>
</g>
<!-- Node2 -->
<g id="Node000002" class="node">
<title>Node2</title>
<g id="a_Node000002"><a xlink:href="main_8c.html#a1a904050ef641d46ba74b91e8ff5b7f9" target="_top" xlink:title="Run the monitoring session for Patient 1 (deterioration scenario).">
<polygon fill="white" stroke="#666666" points="174.12,-319 91.38,-319 91.38,-299 174.12,-299 174.12,-319"/>
<text xml:space="preserve" text-anchor="middle" x="132.75" y="-305.5" font-family="Helvetica,sans-Serif" font-size="10.00">monitor_patient</text>
</a>
</g>
</g>
<!-- Node1&#45;&gt;Node2 -->
<g id="edge1_Node000001_Node000002" class="edge">
<title>Node1&#45;&gt;Node2</title>
<g id="a_edge1_Node000001_Node000002"><a xlink:title=" ">
<path fill="none" stroke="#63b8ff" d="M37.29,-324.99C48.93,-323.02 64.78,-320.34 80.18,-317.73"/>
<polygon fill="#63b8ff" stroke="#63b8ff" points="80.47,-321.23 89.75,-316.11 79.3,-314.33 80.47,-321.23"/>
</a>
</g>
</g>
<!-- Node18 -->
<g id="Node000018" class="node">
<title>Node18</title>
<g id="a_Node000018"><a xlink:href="main_8c.html#a418db4bf280a08fda4493a816c841643" target="_top" xlink:title="Run the monitoring session for Patient 2 (bradycardia scenario).">
<polygon fill="white" stroke="#666666" points="192.5,-357 73,-357 73,-337 192.5,-337 192.5,-357"/>
<text xml:space="preserve" text-anchor="middle" x="132.75" y="-343.5" font-family="Helvetica,sans-Serif" font-size="10.00">monitor_second_patient</text>
</a>
</g>
</g>
<!-- Node1&#45;&gt;Node18 -->
<g id="edge35_Node000001_Node000018" class="edge">
<title>Node1&#45;&gt;Node18</title>
<g id="a_edge35_Node000001_Node000018"><a xlink:title=" ">
<path fill="none" stroke="#63b8ff" d="M37.29,-331.01C44.23,-332.19 52.67,-333.62 61.63,-335.13"/>
<polygon fill="#63b8ff" stroke="#63b8ff" points="60.79,-338.54 71.24,-336.76 61.96,-331.64 60.79,-338.54"/>
</a>
</g>
</g>
<!-- Node3 -->
<g id="Node000003" class="node">
<title>Node3</title>
<g id="a_Node000003"><a xlink:href="vitals_8c.html#a7a7981a0a087b3b98763ed48bc789888" target="_top" xlink:title="Map a BMI value to a WHO weight&#45;status category string.">
<polygon fill="white" stroke="#666666" points="473.12,-438 398.62,-438 398.62,-418 473.12,-418 473.12,-438"/>
<text xml:space="preserve" text-anchor="middle" x="435.88" y="-424.5" font-family="Helvetica,sans-Serif" font-size="10.00">bmi_category</text>
</a>
</g>
</g>
<!-- Node2&#45;&gt;Node3 -->
<g id="edge2_Node000002_Node000003" class="edge">
<title>Node2&#45;&gt;Node3</title>
<g id="a_edge2_Node000002_Node000003"><a xlink:title=" ">
<path fill="none" stroke="#63b8ff" d="M174.59,-301.35C220.17,-295.18 294,-292.56 343.5,-328 375.53,-350.94 350.45,-382.39 379.5,-409 382.08,-411.36 384.96,-413.43 388.02,-415.24"/>
<polygon fill="#63b8ff" stroke="#63b8ff" points="386.37,-418.33 396.89,-419.55 389.42,-412.03 386.37,-418.33"/>
</a>
</g>
</g>
<!-- Node4 -->
<g id="Node000004" class="node">
<title>Node4</title>
<g id="a_Node000004"><a xlink:href="vitals_8c.html#a10dc695991eacf8ffea85c92b9331aec" target="_top" xlink:title="Calculate BMI using the standard WHO formula.">
<polygon fill="white" stroke="#666666" points="473.88,-400 397.88,-400 397.88,-380 473.88,-380 473.88,-400"/>
<text xml:space="preserve" text-anchor="middle" x="435.88" y="-386.5" font-family="Helvetica,sans-Serif" font-size="10.00">calculate_bmi</text>
</a>
</g>
</g>
<!-- Node2&#45;&gt;Node4 -->
<g id="edge3_Node000002_Node000004" class="edge">
<title>Node2&#45;&gt;Node4</title>
<g id="a_edge3_Node000002_Node000004"><a xlink:title=" ">
<path fill="none" stroke="#63b8ff" d="M158.91,-298.59C200.69,-283.09 285.5,-259.38 343.5,-295 373.65,-313.52 353.74,-341.75 379.5,-366 382.8,-369.1 386.56,-371.84 390.53,-374.25"/>
<polygon fill="#63b8ff" stroke="#63b8ff" points="388.89,-377.34 399.37,-378.88 392.13,-371.14 388.89,-377.34"/>
</a>
</g>
</g>
<!-- Node5 -->
<g id="Node000005" class="node">
<title>Node5</title>
<g id="a_Node000005"><a xlink:href="patient_8c.html#a0e22c10046f3778c1f194cc6377d7984" target="_top" xlink:title="Append a vital signs reading, enforcing the MAX_READINGS cap.">
<polygon fill="white" stroke="#666666" points="337.5,-395 234.5,-395 234.5,-375 337.5,-375 337.5,-395"/>
<text xml:space="preserve" text-anchor="middle" x="286" y="-381.5" font-family="Helvetica,sans-Serif" font-size="10.00">patient_add_reading</text>
</a>
</g>
</g>
<!-- Node2&#45;&gt;Node5 -->
<g id="edge4_Node000002_Node000005" class="edge">
<title>Node2&#45;&gt;Node5</title>
<g id="a_edge4_Node000002_Node000005"><a xlink:title=" ">
<path fill="none" stroke="#63b8ff" d="M174.45,-319.21C180.74,-321.61 186.97,-324.51 192.5,-328 212.18,-340.41 208.89,-353.48 228.5,-366 230.63,-367.36 232.86,-368.63 235.16,-369.82"/>
<polygon fill="#63b8ff" stroke="#63b8ff" points="233.63,-372.97 244.18,-373.9 236.51,-366.59 233.63,-372.97"/>
</a>
</g>
</g>
<!-- Node6 -->
<g id="Node000006" class="node">
<title>Node6</title>
<g id="a_Node000006"><a xlink:href="patient_8c.html#a8fa76aa96b383df3556d391e64953536" target="_top" xlink:title="Initialise a PatientRecord, zeroing all fields before populating.">
<polygon fill="white" stroke="#666666" points="317.62,-357 254.38,-357 254.38,-337 317.62,-337 317.62,-357"/>
<text xml:space="preserve" text-anchor="middle" x="286" y="-343.5" font-family="Helvetica,sans-Serif" font-size="10.00">patient_init</text>
</a>
</g>
</g>
<!-- Node2&#45;&gt;Node6 -->
<g id="edge5_Node000002_Node000006" class="edge">
<title>Node2&#45;&gt;Node6</title>
<g id="a_edge5_Node000002_Node000006"><a xlink:title=" ">
<path fill="none" stroke="#63b8ff" d="M174.28,-319.18C195.5,-324.51 221.44,-331.03 242.89,-336.42"/>
<polygon fill="#63b8ff" stroke="#63b8ff" points="241.94,-339.79 252.49,-338.83 243.64,-333 241.94,-339.79"/>
</a>
</g>
</g>
<!-- Node7 -->
<g id="Node000007" class="node">
<title>Node7</title>
<g id="a_Node000007"><a xlink:href="patient_8c.html#a19d76f7281d5f5ad5408c1ff4dc2ee11" target="_top" xlink:title="Print a formatted patient summary including vitals and active alerts.">
<polygon fill="white" stroke="#666666" points="343.5,-243 228.5,-243 228.5,-223 343.5,-223 343.5,-243"/>
<text xml:space="preserve" text-anchor="middle" x="286" y="-229.5" font-family="Helvetica,sans-Serif" font-size="10.00">patient_print_summary</text>
</a>
</g>
</g>
<!-- Node2&#45;&gt;Node7 -->
<g id="edge6_Node000002_Node000007" class="edge">
<title>Node2&#45;&gt;Node7</title>
<g id="a_edge6_Node000002_Node000007"><a xlink:title=" ">
<path fill="none" stroke="#63b8ff" d="M151.28,-298.69C170.09,-287.78 200.98,-270.35 228.5,-257 234.92,-253.89 241.84,-250.76 248.57,-247.84"/>
<polygon fill="#63b8ff" stroke="#63b8ff" points="249.65,-251.18 257.49,-244.05 246.91,-244.74 249.65,-251.18"/>
</a>
</g>
</g>
<!-- Node17 -->
<g id="Node000017" class="node">
<title>Node17</title>
<g id="a_Node000017"><a xlink:href="main_8c.html#a0082d156ee2712806a55606f6637d160" target="_top" xlink:title="Print a single vital sign reading with per&#45;parameter status and alerts.">
<polygon fill="white" stroke="#666666" points="471.62,-134 400.12,-134 400.12,-114 471.62,-114 471.62,-134"/>
<text xml:space="preserve" text-anchor="middle" x="435.88" y="-120.5" font-family="Helvetica,sans-Serif" font-size="10.00">print_reading</text>
</a>
</g>
</g>
<!-- Node2&#45;&gt;Node17 -->
<g id="edge27_Node000002_Node000017" class="edge">
<title>Node2&#45;&gt;Node17</title>
<g id="a_edge27_Node000002_Node000017"><a xlink:title=" ">
<path fill="none" stroke="#63b8ff" d="M137.7,-298.82C148.21,-273.13 179.47,-205.33 228.5,-172 276.53,-139.34 343.82,-128.71 388.34,-125.36"/>
<polygon fill="#63b8ff" stroke="#63b8ff" points="388.43,-128.86 398.19,-124.72 387.98,-121.87 388.43,-128.86"/>
</a>
</g>
</g>
<!-- Node7&#45;&gt;Node3 -->
<g id="edge8_Node000007_Node000003" class="edge">
<title>Node7&#45;&gt;Node3</title>
<g id="a_edge8_Node000007_Node000003"><a xlink:title=" ">
<path fill="none" stroke="#63b8ff" d="M299.03,-243.25C311.75,-254.68 331.58,-274.3 343.5,-295 370.01,-341.05 342.4,-370.97 379.5,-409 382.09,-411.66 385.07,-413.94 388.27,-415.91"/>
<polygon fill="#63b8ff" stroke="#63b8ff" points="386.51,-418.94 397.03,-420.23 389.61,-412.66 386.51,-418.94"/>
</a>
</g>
</g>
<!-- Node7&#45;&gt;Node4 -->
<g id="edge9_Node000007_Node000004" class="edge">
<title>Node7&#45;&gt;Node4</title>
<g id="a_edge9_Node000007_Node000004"><a xlink:title=" ">
<path fill="none" stroke="#63b8ff" d="M324.26,-243.48C331.37,-246.87 338.23,-251.28 343.5,-257 378.05,-294.54 345.08,-328.34 379.5,-366 382.2,-368.95 385.32,-371.56 388.68,-373.85"/>
<polygon fill="#63b8ff" stroke="#63b8ff" points="386.9,-376.87 397.32,-378.78 390.37,-370.79 386.9,-376.87"/>
</a>
</g>
</g>
<!-- Node8 -->
<g id="Node000008" class="node">
<title>Node8</title>
<g id="a_Node000008"><a xlink:href="vitals_8c.html#a20a209843ea1eeff8484a7998d492615" target="_top" xlink:title="Convert an AlertLevel enum to a display string.">
<polygon fill="white" stroke="#666666" points="622.25,-248 545.5,-248 545.5,-228 622.25,-228 622.25,-248"/>
<text xml:space="preserve" text-anchor="middle" x="583.88" y="-234.5" font-family="Helvetica,sans-Serif" font-size="10.00">alert_level_str</text>
</a>
</g>
</g>
<!-- Node7&#45;&gt;Node8 -->
<g id="edge7_Node000007_Node000008" class="edge">
<title>Node7&#45;&gt;Node8</title>
<g id="a_edge7_Node000007_Node000008"><a xlink:title=" ">
<path fill="none" stroke="#63b8ff" d="M343.59,-223.06C355.42,-221.37 367.84,-219.88 379.5,-219 429.47,-215.24 442.41,-213.83 492.25,-219 505.99,-220.42 520.72,-223.03 534.22,-225.87"/>
<polygon fill="#63b8ff" stroke="#63b8ff" points="533.23,-229.24 543.75,-227.96 534.73,-222.4 533.23,-229.24"/>
</a>
</g>
</g>
<!-- Node9 -->
<g id="Node000009" class="node">
<title>Node9</title>
<g id="a_Node000009"><a xlink:href="vitals_8c.html#a3c853e30a899042babf9fdd2bd2cbfc1" target="_top" xlink:title="Classify a blood pressure reading.">
<polygon fill="white" stroke="#666666" points="789,-153 675.5,-153 675.5,-133 789,-133 789,-153"/>
<text xml:space="preserve" text-anchor="middle" x="732.25" y="-139.5" font-family="Helvetica,sans-Serif" font-size="10.00">check_blood_pressure</text>
</a>
</g>
</g>
<!-- Node7&#45;&gt;Node9 -->
<g id="edge10_Node000007_Node000009" class="edge">
<title>Node7&#45;&gt;Node9</title>
<g id="a_edge10_Node000007_Node000009"><a xlink:title=" ">
<path fill="none" stroke="#63b8ff" d="M303.01,-243.43C356.65,-276.97 532.67,-375.22 639.5,-295 685.39,-260.54 638.8,-215.11 675.5,-171 679.44,-166.26 684.38,-162.25 689.68,-158.87"/>
<polygon fill="#63b8ff" stroke="#63b8ff" points="691.1,-162.09 698.16,-154.19 687.71,-155.96 691.1,-162.09"/>
</a>
</g>
</g>
<!-- Node10 -->
<g id="Node000010" class="node">
<title>Node10</title>
<g id="a_Node000010"><a xlink:href="vitals_8c.html#a7604eb6b23010f139f6f960b184a3b28" target="_top" xlink:title="Classify a heart rate reading.">
<polygon fill="white" stroke="#666666" points="777.75,-200 686.75,-200 686.75,-180 777.75,-180 777.75,-200"/>
<text xml:space="preserve" text-anchor="middle" x="732.25" y="-186.5" font-family="Helvetica,sans-Serif" font-size="10.00">check_heart_rate</text>
</a>
</g>
</g>
<!-- Node7&#45;&gt;Node10 -->
<g id="edge11_Node000007_Node000010" class="edge">
<title>Node7&#45;&gt;Node10</title>
<g id="a_edge11_Node000007_Node000010"><a xlink:title=" ">
<path fill="none" stroke="#63b8ff" d="M305.96,-243.47C317.66,-250.53 332.48,-260.61 343.5,-272 364.08,-293.26 353.53,-313.82 379.5,-328 480.92,-383.37 537.65,-382.59 639.5,-328 686.04,-303.05 713.01,-242.94 724.55,-210.91"/>
<polygon fill="#63b8ff" stroke="#63b8ff" points="727.82,-212.17 727.73,-201.57 721.19,-209.91 727.82,-212.17"/>
</a>
</g>
</g>
<!-- Node11 -->
<g id="Node000011" class="node">
<title>Node11</title>
<g id="a_Node000011"><a xlink:href="vitals_8c.html#ac0bc076e63894a96df90f2eab73c88fe" target="_top" xlink:title="Classify an SpO2 reading.">
<polygon fill="white" stroke="#666666" points="766.5,-96 698,-96 698,-76 766.5,-76 766.5,-96"/>
<text xml:space="preserve" text-anchor="middle" x="732.25" y="-82.5" font-family="Helvetica,sans-Serif" font-size="10.00">check_spo2</text>
</a>
</g>
</g>
<!-- Node7&#45;&gt;Node11 -->
<g id="edge12_Node000007_Node000011" class="edge">
<title>Node7&#45;&gt;Node11</title>
<g id="a_edge12_Node000007_Node000011"><a xlink:title=" ">
<path fill="none" stroke="#63b8ff" d="M291.15,-222.55C301.68,-197.52 332.03,-134.05 379.5,-105 475.61,-46.18 615.57,-62.18 686.49,-75.78"/>
<polygon fill="#63b8ff" stroke="#63b8ff" points="685.69,-79.19 696.18,-77.72 687.06,-72.32 685.69,-79.19"/>
</a>
</g>
</g>
<!-- Node12 -->
<g id="Node000012" class="node">
<title>Node12</title>
<g id="a_Node000012"><a xlink:href="vitals_8c.html#aef7f6fa183fbc5412c13ea63bd2b62ce" target="_top" xlink:title="Classify a temperature reading.">
<polygon fill="white" stroke="#666666" points="781.88,-20 682.62,-20 682.62,0 781.88,0 781.88,-20"/>
<text xml:space="preserve" text-anchor="middle" x="732.25" y="-6.5" font-family="Helvetica,sans-Serif" font-size="10.00">check_temperature</text>
</a>
</g>
</g>
<!-- Node7&#45;&gt;Node12 -->
<g id="edge13_Node000007_Node000012" class="edge">
<title>Node7&#45;&gt;Node12</title>
<g id="a_edge13_Node000007_Node000012"><a xlink:title=" ">
<path fill="none" stroke="#63b8ff" d="M289.37,-222.57C296.78,-192.49 322.53,-105.08 379.5,-64 466.01,-1.61 595.81,1.19 671.17,-3.6"/>
<polygon fill="#63b8ff" stroke="#63b8ff" points="670.6,-7.07 680.82,-4.29 671.09,-0.09 670.6,-7.07"/>
</a>
</g>
</g>
<!-- Node13 -->
<g id="Node000013" class="node">
<title>Node13</title>
<g id="a_Node000013"><a xlink:href="alerts_8c.html#a98b6140a4d21520d639bc81d1f7c08b7" target="_top" xlink:title="Generate structured alert records for out&#45;of&#45;range vital signs.">
<polygon fill="white" stroke="#666666" points="625.25,-134 542.5,-134 542.5,-114 625.25,-114 625.25,-134"/>
<text xml:space="preserve" text-anchor="middle" x="583.88" y="-120.5" font-family="Helvetica,sans-Serif" font-size="10.00">generate_alerts</text>
</a>
</g>
</g>
<!-- Node7&#45;&gt;Node13 -->
<g id="edge14_Node000007_Node000013" class="edge">
<title>Node7&#45;&gt;Node13</title>
<g id="a_edge14_Node000007_Node000013"><a xlink:title=" ">
<path fill="none" stroke="#63b8ff" d="M314.42,-222.54C359.11,-205.55 450.45,-171.04 528.25,-143 532.66,-141.41 537.28,-139.77 541.88,-138.15"/>
<polygon fill="#63b8ff" stroke="#63b8ff" points="542.78,-141.54 551.07,-134.93 540.47,-134.93 542.78,-141.54"/>
</a>
</g>
</g>
<!-- Node14 -->
<g id="Node000014" class="node">
<title>Node14</title>
<g id="a_Node000014"><a xlink:href="patient_8c.html#a7efb2602c9a2566fee89ff6d6af42bcf" target="_top" xlink:title="Return the overall status from the latest reading.">
<polygon fill="white" stroke="#666666" points="492.25,-248 379.5,-248 379.5,-228 492.25,-228 492.25,-248"/>
<text xml:space="preserve" text-anchor="middle" x="435.88" y="-234.5" font-family="Helvetica,sans-Serif" font-size="10.00">patient_current_status</text>
</a>
</g>
</g>
<!-- Node7&#45;&gt;Node14 -->
<g id="edge19_Node000007_Node000014" class="edge">
<title>Node7&#45;&gt;Node14</title>
<g id="a_edge19_Node000007_Node000014"><a xlink:title=" ">
<path fill="none" stroke="#63b8ff" d="M343.75,-234.92C351.61,-235.18 359.75,-235.46 367.77,-235.73"/>
<polygon fill="#63b8ff" stroke="#63b8ff" points="367.38,-239.22 377.5,-236.06 367.62,-232.22 367.38,-239.22"/>
</a>
</g>
</g>
<!-- Node16 -->
<g id="Node000016" class="node">
<title>Node16</title>
<g id="a_Node000016"><a xlink:href="patient_8c.html#aaf2d461ddd1efafe4887647d0c8688d7" target="_top" xlink:title="Return a pointer to the most recent reading, or NULL if none exist.">
<polygon fill="white" stroke="#666666" points="639.5,-286 528.25,-286 528.25,-266 639.5,-266 639.5,-286"/>
<text xml:space="preserve" text-anchor="middle" x="583.88" y="-272.5" font-family="Helvetica,sans-Serif" font-size="10.00">patient_latest_reading</text>
</a>
</g>
</g>
<!-- Node7&#45;&gt;Node16 -->
<g id="edge26_Node000007_Node000016" class="edge">
<title>Node7&#45;&gt;Node16</title>
<g id="a_edge26_Node000007_Node000016"><a xlink:title=" ">
<path fill="none" stroke="#63b8ff" d="M321.85,-243.46C339.06,-248.26 360.22,-253.62 379.5,-257 424.96,-264.97 476.77,-269.75 516.71,-272.52"/>
<polygon fill="#63b8ff" stroke="#63b8ff" points="516.46,-276.01 526.67,-273.18 516.92,-269.02 516.46,-276.01"/>
</a>
</g>
</g>
<!-- Node13&#45;&gt;Node9 -->
<g id="edge15_Node000013_Node000009" class="edge">
<title>Node13&#45;&gt;Node9</title>
<g id="a_edge15_Node000013_Node000009"><a xlink:title=" ">
<path fill="none" stroke="#63b8ff" d="M625.65,-129.29C637.49,-130.83 650.75,-132.55 663.77,-134.24"/>
<polygon fill="#63b8ff" stroke="#63b8ff" points="663.24,-137.7 673.61,-135.52 664.14,-130.76 663.24,-137.7"/>
</a>
</g>
</g>
<!-- Node13&#45;&gt;Node10 -->
<g id="edge16_Node000013_Node000010" class="edge">
<title>Node13&#45;&gt;Node10</title>
<g id="a_edge16_Node000013_Node000010"><a xlink:title=" ">
<path fill="none" stroke="#63b8ff" d="M617.54,-134.46C624.84,-137.05 632.5,-139.96 639.5,-143 656.09,-150.21 659.42,-153.72 675.5,-162 683.47,-166.1 692.11,-170.48 700.16,-174.52"/>
<polygon fill="#63b8ff" stroke="#63b8ff" points="698.42,-177.57 708.93,-178.92 701.56,-171.31 698.42,-177.57"/>
</a>
</g>
</g>
<!-- Node13&#45;&gt;Node11 -->
<g id="edge17_Node000013_Node000011" class="edge">
<title>Node13&#45;&gt;Node11</title>
<g id="a_edge17_Node000013_Node000011"><a xlink:title=" ">
<path fill="none" stroke="#63b8ff" d="M625.26,-113.52C644.36,-108.56 667.22,-102.62 686.81,-97.54"/>
<polygon fill="#63b8ff" stroke="#63b8ff" points="687.65,-100.94 696.45,-95.04 685.89,-94.16 687.65,-100.94"/>
</a>
</g>
</g>
<!-- Node13&#45;&gt;Node12 -->
<g id="edge18_Node000013_Node000012" class="edge">
<title>Node13&#45;&gt;Node12</title>
<g id="a_edge18_Node000013_Node000012"><a xlink:title=" ">
<path fill="none" stroke="#63b8ff" d="M598.12,-113.68C623.38,-94.01 678.63,-50.98 709.43,-27"/>
<polygon fill="#63b8ff" stroke="#63b8ff" points="711.2,-30.05 716.94,-21.14 706.9,-24.53 711.2,-30.05"/>
</a>
</g>
</g>
<!-- Node15 -->
<g id="Node000015" class="node">
<title>Node15</title>
<g id="a_Node000015"><a xlink:href="vitals_8c.html#af7201b2a5a70f76ab81ade218a863830" target="_top" xlink:title="Return the highest alert level across all four vital parameters.">
<polygon fill="white" stroke="#666666" points="630.88,-172 536.88,-172 536.88,-152 630.88,-152 630.88,-172"/>
<text xml:space="preserve" text-anchor="middle" x="583.88" y="-158.5" font-family="Helvetica,sans-Serif" font-size="10.00">overall_alert_level</text>
</a>
</g>
</g>
<!-- Node14&#45;&gt;Node15 -->
<g id="edge20_Node000014_Node000015" class="edge">
<title>Node14&#45;&gt;Node15</title>
<g id="a_edge20_Node000014_Node000015"><a xlink:title=" ">
<path fill="none" stroke="#63b8ff" d="M456.87,-227.59C481.77,-214.63 524.52,-192.37 553.24,-177.43"/>
<polygon fill="#63b8ff" stroke="#63b8ff" points="554.53,-180.7 561.78,-172.98 551.29,-174.49 554.53,-180.7"/>
</a>
</g>
</g>
<!-- Node14&#45;&gt;Node16 -->
<g id="edge25_Node000014_Node000016" class="edge">
<title>Node14&#45;&gt;Node16</title>
<g id="a_edge25_Node000014_Node000016"><a xlink:title=" ">
<path fill="none" stroke="#63b8ff" d="M477.16,-248.48C493.99,-252.87 513.75,-258.01 531.61,-262.66"/>
<polygon fill="#63b8ff" stroke="#63b8ff" points="530.7,-266.04 541.26,-265.17 532.46,-259.26 530.7,-266.04"/>
</a>
</g>
</g>
<!-- Node15&#45;&gt;Node9 -->
<g id="edge21_Node000015_Node000009" class="edge">
<title>Node15&#45;&gt;Node9</title>
<g id="a_edge21_Node000015_Node000009"><a xlink:title=" ">
<path fill="none" stroke="#63b8ff" d="M631.19,-155.99C641.57,-154.64 652.79,-153.18 663.83,-151.75"/>
<polygon fill="#63b8ff" stroke="#63b8ff" points="664.27,-155.22 673.73,-150.47 663.36,-148.28 664.27,-155.22"/>
</a>
</g>
</g>
<!-- Node15&#45;&gt;Node10 -->
<g id="edge22_Node000015_Node000010" class="edge">
<title>Node15&#45;&gt;Node10</title>
<g id="a_edge22_Node000015_Node000010"><a xlink:title=" ">
<path fill="none" stroke="#63b8ff" d="M631.19,-170.86C645.34,-173.57 661.04,-176.57 675.74,-179.38"/>
<polygon fill="#63b8ff" stroke="#63b8ff" points="674.77,-182.76 685.25,-181.2 676.09,-175.88 674.77,-182.76"/>
</a>
</g>
</g>
<!-- Node15&#45;&gt;Node11 -->
<g id="edge23_Node000015_Node000011" class="edge">
<title>Node15&#45;&gt;Node11</title>
<g id="a_edge23_Node000015_Node000011"><a xlink:title=" ">
<path fill="none" stroke="#63b8ff" d="M618.57,-151.59C625.6,-149.06 632.89,-146.16 639.5,-143 663.66,-131.47 689.41,-115.07 707.46,-102.82"/>
<polygon fill="#63b8ff" stroke="#63b8ff" points="709.39,-105.74 715.64,-97.19 705.42,-99.98 709.39,-105.74"/>
</a>
</g>
</g>
<!-- Node15&#45;&gt;Node12 -->
<g id="edge24_Node000015_Node000012" class="edge">
<title>Node15&#45;&gt;Node12</title>
<g id="a_edge24_Node000015_Node000012"><a xlink:title=" ">
<path fill="none" stroke="#63b8ff" d="M626.53,-151.54C631.23,-149.23 635.69,-146.42 639.5,-143 667.31,-118.03 654.14,-97.67 675.5,-67 685.49,-52.66 699.18,-38.6 710.5,-28.03"/>
<polygon fill="#63b8ff" stroke="#63b8ff" points="712.77,-30.7 717.83,-21.38 708.07,-25.51 712.77,-30.7"/>
</a>
</g>
</g>
<!-- Node17&#45;&gt;Node8 -->
<g id="edge28_Node000017_Node000008" class="edge">
<title>Node17&#45;&gt;Node8</title>
<g id="a_edge28_Node000017_Node000008"><a xlink:title=" ">
<path fill="none" stroke="#63b8ff" d="M445.22,-134.41C460.21,-152.58 493.42,-190.38 528.25,-214 533,-217.22 538.26,-220.18 543.58,-222.83"/>
<polygon fill="#63b8ff" stroke="#63b8ff" points="541.85,-225.88 552.4,-226.9 544.79,-219.53 541.85,-225.88"/>
</a>
</g>
</g>
<!-- Node17&#45;&gt;Node9 -->
<g id="edge29_Node000017_Node000009" class="edge">
<title>Node17&#45;&gt;Node9</title>
<g id="a_edge29_Node000017_Node000009"><a xlink:title=" ">
<path fill="none" stroke="#63b8ff" d="M471.97,-114.62C512.62,-105.15 581.46,-93.46 639.5,-105 661.35,-109.34 684.51,-118.98 702.09,-127.46"/>
<polygon fill="#63b8ff" stroke="#63b8ff" points="700.4,-130.53 710.91,-131.86 703.52,-124.26 700.4,-130.53"/>
</a>
</g>
</g>
<!-- Node17&#45;&gt;Node10 -->
<g id="edge30_Node000017_Node000010" class="edge">
<title>Node17&#45;&gt;Node10</title>
<g id="a_edge30_Node000017_Node000010"><a xlink:title=" ">
<path fill="none" stroke="#63b8ff" d="M448.86,-134.36C465.42,-147.96 496.82,-171.24 528.25,-181 576.29,-195.91 633.8,-197.01 675.32,-195.05"/>
<polygon fill="#63b8ff" stroke="#63b8ff" points="675.28,-198.55 685.07,-194.51 674.89,-191.57 675.28,-198.55"/>
</a>
</g>
</g>
<!-- Node17&#45;&gt;Node11 -->
<g id="edge31_Node000017_Node000011" class="edge">
<title>Node17&#45;&gt;Node11</title>
<g id="a_edge31_Node000017_Node000011"><a xlink:title=" ">
<path fill="none" stroke="#63b8ff" d="M464.43,-113.6C482.34,-107.33 506.35,-99.83 528.25,-96 581.99,-86.59 644.85,-84.9 686.23,-85.04"/>
<polygon fill="#63b8ff" stroke="#63b8ff" points="686.02,-88.54 696.05,-85.11 686.07,-81.54 686.02,-88.54"/>
</a>
</g>
</g>
<!-- Node17&#45;&gt;Node12 -->
<g id="edge32_Node000017_Node000012" class="edge">
<title>Node17&#45;&gt;Node12</title>
<g id="a_edge32_Node000017_Node000012"><a xlink:title=" ">
<path fill="none" stroke="#63b8ff" d="M458.05,-113.61C476.42,-104.75 503.82,-91.92 528.25,-82 582.68,-59.89 646.75,-37.8 688.13,-24.04"/>
<polygon fill="#63b8ff" stroke="#63b8ff" points="689.09,-27.41 697.48,-20.94 686.89,-20.76 689.09,-27.41"/>
</a>
</g>
</g>
<!-- Node17&#45;&gt;Node13 -->
<g id="edge33_Node000017_Node000013" class="edge">
<title>Node17&#45;&gt;Node13</title>
<g id="a_edge33_Node000017_Node000013"><a xlink:title=" ">
<path fill="none" stroke="#63b8ff" d="M471.85,-124C489.55,-124 511.39,-124 531,-124"/>
<polygon fill="#63b8ff" stroke="#63b8ff" points="530.73,-127.5 540.73,-124 530.73,-120.5 530.73,-127.5"/>
</a>
</g>
</g>
<!-- Node17&#45;&gt;Node15 -->
<g id="edge34_Node000017_Node000015" class="edge">
<title>Node17&#45;&gt;Node15</title>
<g id="a_edge34_Node000017_Node000015"><a xlink:title=" ">
<path fill="none" stroke="#63b8ff" d="M471.85,-133.1C489.77,-137.77 511.94,-143.54 531.74,-148.69"/>
<polygon fill="#63b8ff" stroke="#63b8ff" points="530.75,-152.05 541.3,-151.18 532.51,-145.27 530.75,-152.05"/>
</a>
</g>
</g>
<!-- Node18&#45;&gt;Node3 -->
<g id="edge36_Node000018_Node000003" class="edge">
<title>Node18&#45;&gt;Node3</title>
<g id="a_edge36_Node000018_Node000003"><a xlink:title=" ">
<path fill="none" stroke="#63b8ff" d="M142.66,-357.48C158.07,-374.74 191.64,-408.57 228.5,-422 280.18,-440.82 344.04,-439.24 386.92,-434.95"/>
<polygon fill="#63b8ff" stroke="#63b8ff" points="387.1,-438.45 396.66,-433.88 386.33,-431.49 387.1,-438.45"/>
</a>
</g>
</g>
<!-- Node18&#45;&gt;Node4 -->
<g id="edge37_Node000018_Node000004" class="edge">
<title>Node18&#45;&gt;Node4</title>
<g id="a_edge37_Node000018_Node000004"><a xlink:title=" ">
<path fill="none" stroke="#63b8ff" d="M145.9,-357.34C163,-371.14 195.76,-394.91 228.5,-404 281.12,-418.61 344.04,-410.92 386.46,-402.27"/>
<polygon fill="#63b8ff" stroke="#63b8ff" points="387.06,-405.72 396.11,-400.2 385.59,-398.88 387.06,-405.72"/>
</a>
</g>
</g>
<!-- Node18&#45;&gt;Node5 -->
<g id="edge38_Node000018_Node000005" class="edge">
<title>Node18&#45;&gt;Node5</title>
<g id="a_edge38_Node000018_Node000005"><a xlink:title=" ">
<path fill="none" stroke="#63b8ff" d="M175.48,-357.48C193.09,-361.91 213.78,-367.11 232.42,-371.79"/>
<polygon fill="#63b8ff" stroke="#63b8ff" points="231.39,-375.14 241.94,-374.18 233.09,-368.35 231.39,-375.14"/>
</a>
</g>
</g>
<!-- Node18&#45;&gt;Node6 -->
<g id="edge39_Node000018_Node000006" class="edge">
<title>Node18&#45;&gt;Node6</title>
<g id="a_edge39_Node000018_Node000006"><a xlink:title=" ">
<path fill="none" stroke="#63b8ff" d="M192.66,-347C209.32,-347 227.11,-347 242.59,-347"/>
<polygon fill="#63b8ff" stroke="#63b8ff" points="242.41,-350.5 252.41,-347 242.41,-343.5 242.41,-350.5"/>
</a>
</g>
</g>
<!-- Node18&#45;&gt;Node7 -->
<g id="edge40_Node000018_Node000007" class="edge">
<title>Node18&#45;&gt;Node7</title>
<g id="a_edge40_Node000018_Node000007"><a xlink:title=" ">
<path fill="none" stroke="#63b8ff" d="M174.72,-336.61C180.91,-334.24 187.04,-331.39 192.5,-328 224.91,-307.87 254.13,-273.98 270.7,-252.59"/>
<polygon fill="#63b8ff" stroke="#63b8ff" points="273.44,-254.77 276.67,-244.68 267.86,-250.55 273.44,-254.77"/>
</a>
</g>
</g>
<!-- Node18&#45;&gt;Node17 -->
<g id="edge41_Node000018_Node000017" class="edge">
<title>Node18&#45;&gt;Node17</title>
<g id="a_edge41_Node000018_Node000017"><a xlink:title=" ">
<path fill="none" stroke="#63b8ff" d="M180.76,-336.53C185.08,-334.23 189.1,-331.42 192.5,-328 229.94,-290.3 192.65,-253.21 228.5,-214 265.87,-173.12 292.77,-188.24 343.5,-166 363.23,-157.35 385.17,-147.28 402.6,-139.17"/>
<polygon fill="#63b8ff" stroke="#63b8ff" points="403.86,-142.45 411.45,-135.04 400.9,-136.1 403.86,-142.45"/>
</a>
</g>
</g>
</g>
</svg>
