<?xml version="1.0" encoding="UTF-8" standalone="no"?>
<!DOCTYPE svg PUBLIC "-//W3C//DTD SVG 1.1//EN"
 "http://www.w3.org/Graphics/SVG/1.1/DTD/svg11.dtd">
<!-- Generated by graphviz version 14.1.4 (20260321.0153)
 -->
<!-- Title: src/main.c Pages: 1 -->
<svg width="148pt" height="196pt"
 viewBox="0.00 0.00 148.00 196.00" xmlns="http://www.w3.org/2000/svg" xmlns:xlink="http://www.w3.org/1999/xlink">
<g id="graph0" class="graph" transform="scale(1 1) rotate(0) translate(4 192)">
<title>src/main.c</title>
<!-- Node1 -->
<g id="Node000001" class="node">
<title>Node1</title>
<g id="a_Node000001"><a xlink:title="Application entry point — simulated patient monitoring session.">
<polygon fill="#999999" stroke="#666666" points="86.5,-188 24.75,-188 24.75,-168 86.5,-168 86.5,-188"/>
<text xml:space="preserve" text-anchor="middle" x="55.62" y="-174.5" font-family="Helvetica,sans-Serif" font-size="10.00">src/main.c</text>
</a>
</g>
</g>
<!-- Node2 -->
<g id="Node000002" class="node">
<title>Node2</title>
<g id="a_Node000002"><a xlink:title=" ">
<polygon fill="#e0e0e0" stroke="#999999" points="45.25,-132 0,-132 0,-112 45.25,-112 45.25,-132"/>
<text xml:space="preserve" text-anchor="middle" x="22.62" y="-118.5" font-family="Helvetica,sans-Serif" font-size="10.00">stdio.h</text>
</a>
</g>
</g>
<!-- Node1&#45;&gt;Node2 -->
<g id="edge1_Node000001_Node000002" class="edge">
<title>Node1&#45;&gt;Node2</title>
<g id="a_edge1_Node000001_Node000002"><a xlink:title=" ">
<path fill="none" stroke="#63b8ff" d="M49.88,-167.59C45.57,-160.55 39.53,-150.67 34.24,-142"/>
<polygon fill="#63b8ff" stroke="#63b8ff" points="37.3,-140.3 29.1,-133.59 31.32,-143.95 37.3,-140.3"/>
</a>
</g>
</g>
<!-- Node3 -->
<g id="Node000003" class="node">
<title>Node3</title>
<g id="a_Node000003"><a xlink:href="patient_8h.html" target="_top" xlink:title="Patient record management — demographic data and vital sign history.">
<polygon fill="white" stroke="#666666" points="116.38,-132 62.88,-132 62.88,-112 116.38,-112 116.38,-132"/>
<text xml:space="preserve" text-anchor="middle" x="89.62" y="-118.5" font-family="Helvetica,sans-Serif" font-size="10.00">patient.h</text>
</a>
</g>
</g>
<!-- Node1&#45;&gt;Node3 -->
<g id="edge2_Node000001_Node000003" class="edge">
<title>Node1&#45;&gt;Node3</title>
<g id="a_edge2_Node000001_Node000003"><a xlink:title=" ">
<path fill="none" stroke="#63b8ff" d="M61.55,-167.59C65.98,-160.55 72.2,-150.67 77.66,-142"/>
<polygon fill="#63b8ff" stroke="#63b8ff" points="80.6,-143.91 82.96,-133.58 74.67,-140.18 80.6,-143.91"/>
</a>
</g>
</g>
<!-- Node4 -->
<g id="Node000004" class="node">
<title>Node4</title>
<g id="a_Node000004"><a xlink:href="vitals_8h.html" target="_top" xlink:title="Vital signs data types, thresholds, and validation functions.">
<polygon fill="white" stroke="#666666" points="113.38,-20 65.88,-20 65.88,0 113.38,0 113.38,-20"/>
<text xml:space="preserve" text-anchor="middle" x="89.62" y="-6.5" font-family="Helvetica,sans-Serif" font-size="10.00">vitals.h</text>
</a>
</g>
</g>
<!-- Node3&#45;&gt;Node4 -->
<g id="edge3_Node000003_Node000004" class="edge">
<title>Node3&#45;&gt;Node4</title>
<g id="a_edge3_Node000003_Node000004"><a xlink:title=" ">
<path fill="none" stroke="#63b8ff" d="M87.76,-111.74C86.03,-102.68 83.59,-88.46 82.62,-76 81.47,-61.06 83.37,-44.25 85.48,-31.46"/>
<polygon fill="#63b8ff" stroke="#63b8ff" points="88.9,-32.2 87.28,-21.73 82.02,-30.93 88.9,-32.2"/>
</a>
</g>
</g>
<!-- Node5 -->
<g id="Node000005" class="node">
<title>Node5</title>
<g id="a_Node000005"><a xlink:href="alerts_8h.html" target="_top" xlink:title="Alert record generation from a set of vital sign measurements.">
<polygon fill="white" stroke="#666666" points="139.75,-76 91.5,-76 91.5,-56 139.75,-56 139.75,-76"/>
<text xml:space="preserve" text-anchor="middle" x="115.62" y="-62.5" font-family="Helvetica,sans-Serif" font-size="10.00">alerts.h</text>
</a>
</g>
</g>
<!-- Node3&#45;&gt;Node5 -->
<g id="edge4_Node000003_Node000005" class="edge">
<title>Node3&#45;&gt;Node5</title>
<g id="a_edge4_Node000003_Node000005"><a xlink:title=" ">
<path fill="none" stroke="#63b8ff" d="M94.15,-111.59C97.47,-104.7 102.09,-95.1 106.2,-86.57"/>
<polygon fill="#63b8ff" stroke="#63b8ff" points="109.31,-88.19 110.49,-77.66 103,-85.15 109.31,-88.19"/>
</a>
</g>
</g>
<!-- Node5&#45;&gt;Node4 -->
<g id="edge5_Node000005_Node000004" class="edge">
<title>Node5&#45;&gt;Node4</title>
<g id="a_edge5_Node000005_Node000004"><a xlink:title=" ">
<path fill="none" stroke="#63b8ff" d="M111.1,-55.59C107.78,-48.7 103.16,-39.1 99.05,-30.57"/>
<polygon fill="#63b8ff" stroke="#63b8ff" points="102.25,-29.15 94.76,-21.66 95.94,-32.19 102.25,-29.15"/>
</a>
</g>
</g>
</g>
</svg>
