<?xml version="1.0" encoding="UTF-8" standalone="no"?>
<!DOCTYPE svg PUBLIC "-//W3C//DTD SVG 1.1//EN"
 "http://www.w3.org/Graphics/SVG/1.1/DTD/svg11.dtd">
<!-- Generated by graphviz version 14.1.4 (20260321.0153)
 -->
<!-- Title: monitor_patient Pages: 1 -->
<!--zoomable 463 -->

<svg id="main" version="1.1" xmlns="http://www.w3.org/2000/svg" xmlns:xlink="http://www.w3.org/1999/xlink" xml:space="preserve" onload="init(evt)">

<style type="text/css"><![CDATA[
.node, .edge {opacity: 0.7;}
.node.selected, .edge.selected {opacity: 1;}
.edge:hover path { stroke: red; }
.edge:hover polygon { stroke: red; fill: red; }
]]></style>

<defs>
  <circle id="rim" cx="0" cy="0" r="7"/>
  <circle id="rim2" cx="0" cy="0" r="3.5"/>
  <g id="zoomPlus">
    <use xlink:href="#rim" fill="#404040"><set attributeName="fill" to="#808080" begin="zoomplus.mouseover" end="zoomplus.mouseout"/></use>
    <path d="M-4,0h8M0,-4v8" fill="none" stroke="white" stroke-width="1.5" pointer-events="none"/>
  </g>
  <g id="zoomMin">
    <use xlink:href="#rim" fill="#404040"><set attributeName="fill" to="#808080" begin="zoomminus.mouseover" end="zoomminus.mouseout"/></use>
    <path d="M-4,0h8" fill="none" stroke="white" stroke-width="1.5" pointer-events="none"/>
  </g>
  <g id="arrowUp" transform="translate(30 24)">
    <use xlink:href="#rim"/>
    <path pointer-events="none" fill="none" stroke="white" stroke-width="1.5" d="M0,-3.0v7 M-2.5,-0.5L0,-3.0L2.5,-0.5"/>
  </g>
  <g id="arrowRight" transform="rotate(90) translate(36 -43)">
    <use xlink:href="#rim"/>
    <path pointer-events="none" fill="none" stroke="white" stroke-width="1.5" d="M0,-3.0v7 M-2.5,-0.5L0,-3.0L2.5,-0.5"/>
  </g>
  <g id="arrowDown" transform="rotate(180) translate(-30 -48)">
    <use xlink:href="#rim"/>
    <path pointer-events="none" fill="none" stroke="white" stroke-width="1.5" d="M0,-3.0v7 M-2.5,-0.5L0,-3.0L2.5,-0.5"/>
  </g>
  <g id="arrowLeft" transform="rotate(270) translate(-36 17)">
    <use xlink:href="#rim"/>
    <path pointer-events="none" fill="none" stroke="white" stroke-width="1.5" d="M0,-3.0v7 M-2.5,-0.5L0,-3.0L2.5,-0.5"/>
  </g>
  <g id="resetDef">
    <use xlink:href="#rim2" fill="#404040"><set attributeName="fill" to="#808080" begin="reset.mouseover" end="reset.mouseout"/></use>
  </g>
</defs>
<script type="application/ecmascript">
var viewWidth = 687;
var viewHeight = 463;
var sectionId = 'dynsection-2';
</script>
<script type="application/ecmascript" xlink:href="svg.min.js"/>
<svg id="graph" class="graph">
<g id="viewport">
<title>monitor_patient</title>
<!-- Node1 -->
<g id="Node000001" class="node">
<title>Node1</title>
<g id="a_Node000001"><a xlink:title="Run the monitoring session for Patient 1 (deterioration scenario).">
<polygon fill="#999999" stroke="#666666" points="82.75,-284.29 0,-284.29 0,-264.29 82.75,-264.29 82.75,-284.29"/>
<text xml:space="preserve" text-anchor="middle" x="41.38" y="-270.79" font-family="Helvetica,sans-Serif" font-size="10.00">monitor_patient</text>
</a>
</g>
</g>
<!-- Node2 -->
<g id="Node000002" class="node">
<title>Node2</title>
<g id="a_Node000002"><a xlink:href="vitals_8c.html#a7a7981a0a087b3b98763ed48bc789888" target="_top" xlink:title="Map a BMI value to a WHO weight&#45;status category string.">
<polygon fill="white" stroke="#666666" points="363.38,-455.29 288.88,-455.29 288.88,-435.29 363.38,-435.29 363.38,-455.29"/>
<text xml:space="preserve" text-anchor="middle" x="326.12" y="-441.79" font-family="Helvetica,sans-Serif" font-size="10.00">bmi_category</text>
</a>
</g>
</g>
<!-- Node1&#45;&gt;Node2 -->
<g id="edge1_Node000001_Node000002" class="edge">
<title>Node1&#45;&gt;Node2</title>
<g id="a_edge1_Node000001_Node000002"><a xlink:title=" ">
<path fill="none" stroke="#63b8ff" d="M50.35,-284.64C63.3,-300.9 90.31,-332.71 118.75,-353.29 169.04,-389.67 236,-416.22 279.82,-431.2"/>
<polygon fill="#63b8ff" stroke="#63b8ff" points="278.68,-434.51 289.27,-434.36 280.9,-427.87 278.68,-434.51"/>
</a>
</g>
</g>
<!-- Node3 -->
<g id="Node000003" class="node">
<title>Node3</title>
<g id="a_Node000003"><a xlink:href="vitals_8c.html#a10dc695991eacf8ffea85c92b9331aec" target="_top" xlink:title="Calculate BMI using the standard WHO formula.">
<polygon fill="white" stroke="#666666" points="364.12,-417.29 288.12,-417.29 288.12,-397.29 364.12,-397.29 364.12,-417.29"/>
<text xml:space="preserve" text-anchor="middle" x="326.12" y="-403.79" font-family="Helvetica,sans-Serif" font-size="10.00">calculate_bmi</text>
</a>
</g>
</g>
<!-- Node1&#45;&gt;Node3 -->
<g id="edge2_Node000001_Node000003" class="edge">
<title>Node1&#45;&gt;Node3</title>
<g id="a_edge2_Node000001_Node000003"><a xlink:title=" ">
<path fill="none" stroke="#63b8ff" d="M63.06,-284.73C78.39,-292.44 99.82,-303.13 118.75,-312.29 185.51,-344.58 202.16,-352.76 269.75,-383.29 276.33,-386.26 283.38,-389.37 290.17,-392.33"/>
<polygon fill="#63b8ff" stroke="#63b8ff" points="288.56,-395.45 299.13,-396.21 291.35,-389.02 288.56,-395.45"/>
</a>
</g>
</g>
<!-- Node4 -->
<g id="Node000004" class="node">
<title>Node4</title>
<g id="a_Node000004"><a xlink:href="patient_8c.html#a0e22c10046f3778c1f194cc6377d7984" target="_top" xlink:title="Append a vital signs reading, enforcing the MAX_READINGS cap.">
<polygon fill="white" stroke="#666666" points="227.75,-227.29 124.75,-227.29 124.75,-207.29 227.75,-207.29 227.75,-227.29"/>
<text xml:space="preserve" text-anchor="middle" x="176.25" y="-213.79" font-family="Helvetica,sans-Serif" font-size="10.00">patient_add_reading</text>
</a>
</g>
</g>
<!-- Node1&#45;&gt;Node4 -->
<g id="edge3_Node000001_Node000004" class="edge">
<title>Node1&#45;&gt;Node4</title>
<g id="a_edge3_Node000001_Node000004"><a xlink:title=" ">
<path fill="none" stroke="#63b8ff" d="M66.44,-263.84C81.47,-257.33 101.22,-248.8 118.75,-241.29 125.73,-238.3 133.19,-235.11 140.34,-232.08"/>
<polygon fill="#63b8ff" stroke="#63b8ff" points="141.25,-235.49 149.09,-228.36 138.52,-229.05 141.25,-235.49"/>
</a>
</g>
</g>
<!-- Node5 -->
<g id="Node000005" class="node">
<title>Node5</title>
<g id="a_Node000005"><a xlink:href="patient_8c.html#a8fa76aa96b383df3556d391e64953536" target="_top" xlink:title="Initialise a PatientRecord, zeroing all fields before populating.">
<polygon fill="white" stroke="#666666" points="207.88,-189.29 144.62,-189.29 144.62,-169.29 207.88,-169.29 207.88,-189.29"/>
<text xml:space="preserve" text-anchor="middle" x="176.25" y="-175.79" font-family="Helvetica,sans-Serif" font-size="10.00">patient_init</text>
</a>
</g>
</g>
<!-- Node1&#45;&gt;Node5 -->
<g id="edge4_Node000001_Node000005" class="edge">
<title>Node1&#45;&gt;Node5</title>
<g id="a_edge4_Node000001_Node000005"><a xlink:title=" ">
<path fill="none" stroke="#63b8ff" d="M50.15,-263.93C62.83,-247.73 89.47,-216.38 118.75,-198.29 123.35,-195.44 128.42,-192.97 133.59,-190.83"/>
<polygon fill="#63b8ff" stroke="#63b8ff" points="134.61,-194.19 142.78,-187.43 132.18,-187.62 134.61,-194.19"/>
</a>
</g>
</g>
<!-- Node6 -->
<g id="Node000006" class="node">
<title>Node6</title>
<g id="a_Node000006"><a xlink:href="patient_8c.html#a19d76f7281d5f5ad5408c1ff4dc2ee11" target="_top" xlink:title="Print a formatted patient summary including vitals and active alerts.">
<polygon fill="white" stroke="#666666" points="233.75,-303.29 118.75,-303.29 118.75,-283.29 233.75,-283.29 233.75,-303.29"/>
<text xml:space="preserve" text-anchor="middle" x="176.25" y="-289.79" font-family="Helvetica,sans-Serif" font-size="10.00">patient_print_summary</text>
</a>
</g>
</g>
<!-- Node1&#45;&gt;Node6 -->
<g id="edge5_Node000001_Node000006" class="edge">
<title>Node1&#45;&gt;Node6</title>
<g id="a_edge5_Node000001_Node000006"><a xlink:title=" ">
<path fill="none" stroke="#63b8ff" d="M82.96,-280.09C90.62,-281.19 98.83,-282.36 107.07,-283.54"/>
<polygon fill="#63b8ff" stroke="#63b8ff" points="106.39,-286.98 116.78,-284.93 107.38,-280.05 106.39,-286.98"/>
</a>
</g>
</g>
<!-- Node16 -->
<g id="Node000016" class="node">
<title>Node16</title>
<g id="a_Node000016"><a xlink:href="main_8c.html#a0082d156ee2712806a55606f6637d160" target="_top" xlink:title="Print a single vital sign reading with per&#45;parameter status and alerts.">
<polygon fill="white" stroke="#666666" points="361.88,-179.29 290.38,-179.29 290.38,-159.29 361.88,-159.29 361.88,-179.29"/>
<text xml:space="preserve" text-anchor="middle" x="326.12" y="-165.79" font-family="Helvetica,sans-Serif" font-size="10.00">print_reading</text>
</a>
</g>
</g>
<!-- Node1&#45;&gt;Node16 -->
<g id="edge26_Node000001_Node000016" class="edge">
<title>Node1&#45;&gt;Node16</title>
<g id="a_edge26_Node000001_Node000016"><a xlink:title=" ">
<path fill="none" stroke="#63b8ff" d="M82.91,-273.31C123.4,-270.77 186.3,-262.47 233.75,-236.29 254.12,-225.05 251.19,-212.32 269.75,-198.29 276.28,-193.35 283.77,-188.8 291.09,-184.85"/>
<polygon fill="#63b8ff" stroke="#63b8ff" points="292.55,-188.03 299.85,-180.36 289.36,-181.8 292.55,-188.03"/>
</a>
</g>
</g>
<!-- Node6&#45;&gt;Node2 -->
<g id="edge7_Node000006_Node000002" class="edge">
<title>Node6&#45;&gt;Node2</title>
<g id="a_edge7_Node000006_Node000002"><a xlink:title=" ">
<path fill="none" stroke="#63b8ff" d="M181.64,-303.6C192.72,-328.41 224.19,-391.88 269.75,-426.29 272.37,-428.27 275.22,-430.05 278.19,-431.66"/>
<polygon fill="#63b8ff" stroke="#63b8ff" points="276.69,-434.82 287.23,-435.82 279.61,-428.46 276.69,-434.82"/>
</a>
</g>
</g>
<!-- Node6&#45;&gt;Node3 -->
<g id="edge8_Node000006_Node000003" class="edge">
<title>Node6&#45;&gt;Node3</title>
<g id="a_edge8_Node000006_Node000003"><a xlink:title=" ">
<path fill="none" stroke="#63b8ff" d="M185.71,-303.71C200.92,-321.89 234.57,-359.71 269.75,-383.29 274.58,-386.52 279.91,-389.48 285.31,-392.13"/>
<polygon fill="#63b8ff" stroke="#63b8ff" points="283.71,-395.25 294.26,-396.21 286.61,-388.88 283.71,-395.25"/>
</a>
</g>
</g>
<!-- Node7 -->
<g id="Node000007" class="node">
<title>Node7</title>
<g id="a_Node000007"><a xlink:href="vitals_8c.html#a20a209843ea1eeff8484a7998d492615" target="_top" xlink:title="Convert an AlertLevel enum to a display string.">
<polygon fill="white" stroke="#666666" points="512.5,-189.29 435.75,-189.29 435.75,-169.29 512.5,-169.29 512.5,-189.29"/>
<text xml:space="preserve" text-anchor="middle" x="474.12" y="-175.79" font-family="Helvetica,sans-Serif" font-size="10.00">alert_level_str</text>
</a>
</g>
</g>
<!-- Node6&#45;&gt;Node7 -->
<g id="edge6_Node000006_Node000007" class="edge">
<title>Node6&#45;&gt;Node7</title>
<g id="a_edge6_Node000006_Node000007"><a xlink:title=" ">
<path fill="none" stroke="#63b8ff" d="M203.93,-282.84C213.63,-278.58 224.48,-273.24 233.75,-267.29 251.51,-255.87 251.14,-246.26 269.75,-236.29 318.89,-209.94 381.41,-194.78 424.07,-186.82"/>
<polygon fill="#63b8ff" stroke="#63b8ff" points="424.57,-190.28 433.79,-185.07 423.33,-183.39 424.57,-190.28"/>
</a>
</g>
</g>
<!-- Node8 -->
<g id="Node000008" class="node">
<title>Node8</title>
<g id="a_Node000008"><a xlink:href="vitals_8c.html#a3c853e30a899042babf9fdd2bd2cbfc1" target="_top" xlink:title="Classify a blood pressure reading.">
<polygon fill="white" stroke="#666666" points="679.25,-246.29 565.75,-246.29 565.75,-226.29 679.25,-226.29 679.25,-246.29"/>
<text xml:space="preserve" text-anchor="middle" x="622.5" y="-232.79" font-family="Helvetica,sans-Serif" font-size="10.00">check_blood_pressure</text>
</a>
</g>
</g>
<!-- Node6&#45;&gt;Node8 -->
<g id="edge9_Node000006_Node000008" class="edge">
<title>Node6&#45;&gt;Node8</title>
<g id="a_edge9_Node000006_Node000008"><a xlink:title=" ">
<path fill="none" stroke="#63b8ff" d="M224.59,-303.75C227.77,-305.09 230.86,-306.6 233.75,-308.29 253.55,-319.87 248.61,-336.36 269.75,-345.29 376.2,-390.24 424.98,-394.04 529.75,-345.29 569,-327.02 597.46,-282.79 611.54,-256.63"/>
<polygon fill="#63b8ff" stroke="#63b8ff" points="614.52,-258.49 615.99,-248 608.3,-255.28 614.52,-258.49"/>
</a>
</g>
</g>
<!-- Node9 -->
<g id="Node000009" class="node">
<title>Node9</title>
<g id="a_Node000009"><a xlink:href="vitals_8c.html#a7604eb6b23010f139f6f960b184a3b28" target="_top" xlink:title="Classify a heart rate reading.">
<polygon fill="white" stroke="#666666" points="668,-94.29 577,-94.29 577,-74.29 668,-74.29 668,-94.29"/>
<text xml:space="preserve" text-anchor="middle" x="622.5" y="-80.79" font-family="Helvetica,sans-Serif" font-size="10.00">check_heart_rate</text>
</a>
</g>
</g>
<!-- Node6&#45;&gt;Node9 -->
<g id="edge10_Node000006_Node000009" class="edge">
<title>Node6&#45;&gt;Node9</title>
<g id="a_edge10_Node000006_Node000009"><a xlink:title=" ">
<path fill="none" stroke="#63b8ff" d="M190.92,-283.01C203.81,-272.6 222.76,-255.36 233.75,-236.29 264.32,-183.22 226.14,-146.28 269.75,-103.29 351.98,-22.22 504.25,-50.4 578.52,-70.77"/>
<polygon fill="#63b8ff" stroke="#63b8ff" points="577.29,-74.06 587.86,-73.42 579.2,-67.33 577.29,-74.06"/>
</a>
</g>
</g>
<!-- Node10 -->
<g id="Node000010" class="node">
<title>Node10</title>
<g id="a_Node000010"><a xlink:href="vitals_8c.html#ac0bc076e63894a96df90f2eab73c88fe" target="_top" xlink:title="Classify an SpO2 reading.">
<polygon fill="white" stroke="#666666" points="656.75,-189.29 588.25,-189.29 588.25,-169.29 656.75,-169.29 656.75,-189.29"/>
<text xml:space="preserve" text-anchor="middle" x="622.5" y="-175.79" font-family="Helvetica,sans-Serif" font-size="10.00">check_spo2</text>
</a>
</g>
</g>
<!-- Node6&#45;&gt;Node10 -->
<g id="edge11_Node000006_Node000010" class="edge">
<title>Node6&#45;&gt;Node10</title>
<g id="a_edge11_Node000006_Node000010"><a xlink:title=" ">
<path fill="none" stroke="#63b8ff" d="M229.99,-303.78C316.24,-319.7 482.59,-344.84 529.75,-312.29 566.91,-286.63 537.8,-252.75 565.75,-217.29 572.39,-208.86 581.41,-201.61 590.26,-195.76"/>
<polygon fill="#63b8ff" stroke="#63b8ff" points="592.05,-198.76 598.75,-190.55 588.39,-192.79 592.05,-198.76"/>
</a>
</g>
</g>
<!-- Node11 -->
<g id="Node000011" class="node">
<title>Node11</title>
<g id="a_Node000011"><a xlink:href="vitals_8c.html#aef7f6fa183fbc5412c13ea63bd2b62ce" target="_top" xlink:title="Classify a temperature reading.">
<polygon fill="white" stroke="#666666" points="672.12,-47.29 572.88,-47.29 572.88,-27.29 672.12,-27.29 672.12,-47.29"/>
<text xml:space="preserve" text-anchor="middle" x="622.5" y="-33.79" font-family="Helvetica,sans-Serif" font-size="10.00">check_temperature</text>
</a>
</g>
</g>
<!-- Node6&#45;&gt;Node11 -->
<g id="edge12_Node000006_Node000011" class="edge">
<title>Node6&#45;&gt;Node11</title>
<g id="a_edge12_Node000006_Node000011"><a xlink:title=" ">
<path fill="none" stroke="#63b8ff" d="M191.74,-282.79C204.85,-272.48 223.61,-255.52 233.75,-236.29 273.42,-161.03 205.04,-103.51 269.75,-48.29 357.32,26.44 506.53,-2.87 579.21,-23.56"/>
<polygon fill="#63b8ff" stroke="#63b8ff" points="578.16,-26.9 588.75,-26.36 580.14,-20.18 578.16,-26.9"/>
</a>
</g>
</g>
<!-- Node12 -->
<g id="Node000012" class="node">
<title>Node12</title>
<g id="a_Node000012"><a xlink:href="alerts_8c.html#a98b6140a4d21520d639bc81d1f7c08b7" target="_top" xlink:title="Generate structured alert records for out&#45;of&#45;range vital signs.">
<polygon fill="white" stroke="#666666" points="515.5,-113.29 432.75,-113.29 432.75,-93.29 515.5,-93.29 515.5,-113.29"/>
<text xml:space="preserve" text-anchor="middle" x="474.12" y="-99.79" font-family="Helvetica,sans-Serif" font-size="10.00">generate_alerts</text>
</a>
</g>
</g>
<!-- Node6&#45;&gt;Node12 -->
<g id="edge13_Node000006_Node000012" class="edge">
<title>Node6&#45;&gt;Node12</title>
<g id="a_edge13_Node000006_Node000012"><a xlink:title=" ">
<path fill="none" stroke="#63b8ff" d="M189.9,-283.07C202.4,-272.46 221.37,-254.83 233.75,-236.29 256.76,-201.83 238.08,-177 269.75,-150.29 312.05,-114.61 376.25,-104.77 421.17,-102.64"/>
<polygon fill="#63b8ff" stroke="#63b8ff" points="421.05,-106.15 430.93,-102.3 420.81,-99.15 421.05,-106.15"/>
</a>
</g>
</g>
<!-- Node13 -->
<g id="Node000013" class="node">
<title>Node13</title>
<g id="a_Node000013"><a xlink:href="patient_8c.html#a7efb2602c9a2566fee89ff6d6af42bcf" target="_top" xlink:title="Return the overall status from the latest reading.">
<polygon fill="white" stroke="#666666" points="382.5,-265.29 269.75,-265.29 269.75,-245.29 382.5,-245.29 382.5,-265.29"/>
<text xml:space="preserve" text-anchor="middle" x="326.12" y="-251.79" font-family="Helvetica,sans-Serif" font-size="10.00">patient_current_status</text>
</a>
</g>
</g>
<!-- Node6&#45;&gt;Node13 -->
<g id="edge18_Node000006_Node000013" class="edge">
<title>Node6&#45;&gt;Node13</title>
<g id="a_edge18_Node000006_Node000013"><a xlink:title=" ">
<path fill="none" stroke="#63b8ff" d="M218.05,-282.8C235.18,-278.4 255.31,-273.23 273.46,-268.56"/>
<polygon fill="#63b8ff" stroke="#63b8ff" points="274.18,-271.99 282.99,-266.11 272.44,-265.21 274.18,-271.99"/>
</a>
</g>
</g>
<!-- Node15 -->
<g id="Node000015" class="node">
<title>Node15</title>
<g id="a_Node000015"><a xlink:href="patient_8c.html#aaf2d461ddd1efafe4887647d0c8688d7" target="_top" xlink:title="Return a pointer to the most recent reading, or NULL if none exist.">
<polygon fill="white" stroke="#666666" points="529.75,-303.29 418.5,-303.29 418.5,-283.29 529.75,-283.29 529.75,-303.29"/>
<text xml:space="preserve" text-anchor="middle" x="474.12" y="-289.79" font-family="Helvetica,sans-Serif" font-size="10.00">patient_latest_reading</text>
</a>
</g>
</g>
<!-- Node6&#45;&gt;Node15 -->
<g id="edge25_Node000006_Node000015" class="edge">
<title>Node6&#45;&gt;Node15</title>
<g id="a_edge25_Node000006_Node000015"><a xlink:title=" ">
<path fill="none" stroke="#63b8ff" d="M233.95,-293.29C283.24,-293.29 354.71,-293.29 406.68,-293.29"/>
<polygon fill="#63b8ff" stroke="#63b8ff" points="406.61,-296.79 416.61,-293.29 406.61,-289.79 406.61,-296.79"/>
</a>
</g>
</g>
<!-- Node12&#45;&gt;Node8 -->
<g id="edge14_Node000012_Node000008" class="edge">
<title>Node12&#45;&gt;Node8</title>
<g id="a_edge14_Node000012_Node000008"><a xlink:title=" ">
<path fill="none" stroke="#63b8ff" d="M485.21,-113.77C496.19,-125.2 514.24,-144.01 529.75,-160.29 545.8,-177.13 548.04,-183.2 565.75,-198.29 574.75,-205.95 585.32,-213.48 594.82,-219.79"/>
<polygon fill="#63b8ff" stroke="#63b8ff" points="592.66,-222.56 602.96,-225.05 596.47,-216.68 592.66,-222.56"/>
</a>
</g>
</g>
<!-- Node12&#45;&gt;Node9 -->
<g id="edge15_Node000012_Node000009" class="edge">
<title>Node12&#45;&gt;Node9</title>
<g id="a_edge15_Node000012_Node000009"><a xlink:title=" ">
<path fill="none" stroke="#63b8ff" d="M515.9,-97.99C531.23,-96 548.93,-93.71 565.41,-91.57"/>
<polygon fill="#63b8ff" stroke="#63b8ff" points="565.61,-95.07 575.08,-90.31 564.71,-88.13 565.61,-95.07"/>
</a>
</g>
</g>
<!-- Node12&#45;&gt;Node10 -->
<g id="edge16_Node000012_Node000010" class="edge">
<title>Node12&#45;&gt;Node10</title>
<g id="a_edge16_Node000012_Node000010"><a xlink:title=" ">
<path fill="none" stroke="#63b8ff" d="M500.39,-113.75C509.71,-117.78 520.31,-122.55 529.75,-127.29 552.05,-138.47 576.6,-152.48 594.7,-163.14"/>
<polygon fill="#63b8ff" stroke="#63b8ff" points="592.85,-166.11 603.23,-168.21 596.42,-160.09 592.85,-166.11"/>
</a>
</g>
</g>
<!-- Node12&#45;&gt;Node11 -->
<g id="edge17_Node000012_Node000011" class="edge">
<title>Node12&#45;&gt;Node11</title>
<g id="a_edge17_Node000012_Node000011"><a xlink:title=" ">
<path fill="none" stroke="#63b8ff" d="M498.32,-92.83C522.52,-81.92 560.68,-64.71 588.11,-52.34"/>
<polygon fill="#63b8ff" stroke="#63b8ff" points="589.36,-55.62 597.04,-48.32 586.48,-49.24 589.36,-55.62"/>
</a>
</g>
</g>
<!-- Node14 -->
<g id="Node000014" class="node">
<title>Node14</title>
<g id="a_Node000014"><a xlink:href="vitals_8c.html#af7201b2a5a70f76ab81ade218a863830" target="_top" xlink:title="Return the highest alert level across all four vital parameters.">
<polygon fill="white" stroke="#666666" points="521.12,-227.29 427.12,-227.29 427.12,-207.29 521.12,-207.29 521.12,-227.29"/>
<text xml:space="preserve" text-anchor="middle" x="474.12" y="-213.79" font-family="Helvetica,sans-Serif" font-size="10.00">overall_alert_level</text>
</a>
</g>
</g>
<!-- Node13&#45;&gt;Node14 -->
<g id="edge19_Node000013_Node000014" class="edge">
<title>Node13&#45;&gt;Node14</title>
<g id="a_edge19_Node000013_Node000014"><a xlink:title=" ">
<path fill="none" stroke="#63b8ff" d="M367.41,-244.8C384.24,-240.42 404,-235.28 421.86,-230.63"/>
<polygon fill="#63b8ff" stroke="#63b8ff" points="422.71,-234.02 431.51,-228.12 420.95,-227.25 422.71,-234.02"/>
</a>
</g>
</g>
<!-- Node13&#45;&gt;Node15 -->
<g id="edge24_Node000013_Node000015" class="edge">
<title>Node13&#45;&gt;Node15</title>
<g id="a_edge24_Node000013_Node000015"><a xlink:title=" ">
<path fill="none" stroke="#63b8ff" d="M367.41,-265.77C384.24,-270.15 404,-275.3 421.86,-279.94"/>
<polygon fill="#63b8ff" stroke="#63b8ff" points="420.95,-283.32 431.51,-282.46 422.71,-276.55 420.95,-283.32"/>
</a>
</g>
</g>
<!-- Node14&#45;&gt;Node8 -->
<g id="edge20_Node000014_Node000008" class="edge">
<title>Node14&#45;&gt;Node8</title>
<g id="a_edge20_Node000014_Node000008"><a xlink:title=" ">
<path fill="none" stroke="#63b8ff" d="M521.44,-223.3C531.82,-224.65 543.04,-226.1 554.08,-227.54"/>
<polygon fill="#63b8ff" stroke="#63b8ff" points="553.61,-231 563.98,-228.82 554.52,-224.06 553.61,-231"/>
</a>
</g>
</g>
<!-- Node14&#45;&gt;Node9 -->
<g id="edge21_Node000014_Node000009" class="edge">
<title>Node14&#45;&gt;Node9</title>
<g id="a_edge21_Node000014_Node000009"><a xlink:title=" ">
<path fill="none" stroke="#63b8ff" d="M514.07,-206.79C519.58,-204.45 524.99,-201.64 529.75,-198.29 548.7,-184.93 587.25,-132.69 607.83,-103.79"/>
<polygon fill="#63b8ff" stroke="#63b8ff" points="610.51,-106.06 613.43,-95.87 604.8,-102.02 610.51,-106.06"/>
</a>
</g>
</g>
<!-- Node14&#45;&gt;Node10 -->
<g id="edge22_Node000014_Node000010" class="edge">
<title>Node14&#45;&gt;Node10</title>
<g id="a_edge22_Node000014_Node000010"><a xlink:title=" ">
<path fill="none" stroke="#63b8ff" d="M515.51,-206.8C534.61,-201.84 557.47,-195.91 577.06,-190.82"/>
<polygon fill="#63b8ff" stroke="#63b8ff" points="577.9,-194.22 586.7,-188.32 576.14,-187.45 577.9,-194.22"/>
</a>
</g>
</g>
<!-- Node14&#45;&gt;Node11 -->
<g id="edge23_Node000014_Node000011" class="edge">
<title>Node14&#45;&gt;Node11</title>
<g id="a_edge23_Node000014_Node000011"><a xlink:title=" ">
<path fill="none" stroke="#63b8ff" d="M518.47,-206.88C522.66,-204.56 526.53,-201.74 529.75,-198.29 571.5,-153.49 527.01,-112.72 565.75,-65.29 569.65,-60.52 574.56,-56.48 579.86,-53.09"/>
<polygon fill="#63b8ff" stroke="#63b8ff" points="581.27,-56.31 588.32,-48.41 577.88,-50.19 581.27,-56.31"/>
</a>
</g>
</g>
<!-- Node16&#45;&gt;Node7 -->
<g id="edge27_Node000016_Node000007" class="edge">
<title>Node16&#45;&gt;Node7</title>
<g id="a_edge27_Node000016_Node000007"><a xlink:title=" ">
<path fill="none" stroke="#63b8ff" d="M362.1,-171.68C380.66,-172.95 403.77,-174.54 424.1,-175.93"/>
<polygon fill="#63b8ff" stroke="#63b8ff" points="423.64,-179.41 433.86,-176.6 424.12,-172.42 423.64,-179.41"/>
</a>
</g>
</g>
<!-- Node16&#45;&gt;Node8 -->
<g id="edge28_Node000016_Node000008" class="edge">
<title>Node16&#45;&gt;Node8</title>
<g id="a_edge28_Node000016_Node000008"><a xlink:title=" ">
<path fill="none" stroke="#63b8ff" d="M336.58,-179.53C351.95,-195.34 384.1,-225.03 418.5,-236.29 462.03,-250.54 513.69,-250.32 554,-246.65"/>
<polygon fill="#63b8ff" stroke="#63b8ff" points="554.22,-250.14 563.81,-245.65 553.51,-243.18 554.22,-250.14"/>
</a>
</g>
</g>
<!-- Node16&#45;&gt;Node9 -->
<g id="edge29_Node000016_Node000009" class="edge">
<title>Node16&#45;&gt;Node9</title>
<g id="a_edge29_Node000016_Node000009"><a xlink:title=" ">
<path fill="none" stroke="#63b8ff" d="M334.14,-158.86C347.74,-139.71 379.79,-99.51 418.5,-84.29 465.42,-65.84 523.29,-68.01 565.22,-73.51"/>
<polygon fill="#63b8ff" stroke="#63b8ff" points="564.71,-76.98 575.1,-74.93 565.7,-70.05 564.71,-76.98"/>
</a>
</g>
</g>
<!-- Node16&#45;&gt;Node10 -->
<g id="edge30_Node000016_Node000010" class="edge">
<title>Node16&#45;&gt;Node10</title>
<g id="a_edge30_Node000016_Node000010"><a xlink:title=" ">
<path fill="none" stroke="#63b8ff" d="M362.36,-164.61C402.85,-159.95 471.25,-154.29 529.75,-160.29 545.22,-161.87 561.94,-164.92 576.81,-168.13"/>
<polygon fill="#63b8ff" stroke="#63b8ff" points="575.77,-171.48 586.29,-170.25 577.3,-164.65 575.77,-171.48"/>
</a>
</g>
</g>
<!-- Node16&#45;&gt;Node11 -->
<g id="edge31_Node000016_Node000011" class="edge">
<title>Node16&#45;&gt;Node11</title>
<g id="a_edge31_Node000016_Node000011"><a xlink:title=" ">
<path fill="none" stroke="#63b8ff" d="M332.8,-158.83C345.17,-137.21 376.8,-87.72 418.5,-65.29 462.41,-41.67 519.09,-35.52 561.39,-34.79"/>
<polygon fill="#63b8ff" stroke="#63b8ff" points="561.15,-38.29 571.13,-34.72 561.1,-31.29 561.15,-38.29"/>
</a>
</g>
</g>
<!-- Node16&#45;&gt;Node12 -->
<g id="edge32_Node000016_Node000012" class="edge">
<title>Node16&#45;&gt;Node12</title>
<g id="a_edge32_Node000016_Node000012"><a xlink:title=" ">
<path fill="none" stroke="#63b8ff" d="M349.61,-158.82C368.07,-150.26 394.93,-137.88 418.5,-127.29 425.07,-124.33 432.11,-121.21 438.87,-118.23"/>
<polygon fill="#63b8ff" stroke="#63b8ff" points="440.02,-121.55 447.77,-114.32 437.21,-115.14 440.02,-121.55"/>
</a>
</g>
</g>
<!-- Node16&#45;&gt;Node14 -->
<g id="edge33_Node000016_Node000014" class="edge">
<title>Node16&#45;&gt;Node14</title>
<g id="a_edge33_Node000016_Node000014"><a xlink:title=" ">
<path fill="none" stroke="#63b8ff" d="M358.8,-179.7C379.78,-186.6 407.54,-195.72 430.45,-203.26"/>
<polygon fill="#63b8ff" stroke="#63b8ff" points="429.22,-206.54 439.82,-206.34 431.41,-199.89 429.22,-206.54"/>
</a>
</g>
</g>
</g>
</svg>

<g id="navigator" transform="translate(0 0)" fill="#404254">
  <rect fill="#f2f5e9" fill-opacity="0.5" stroke="#606060" stroke-width=".5" x="0" y="0" width="60" height="60"/>
  <use id="zoomplus" xlink:href="#zoomPlus" x="17" y="9" onmousedown="handleZoom(evt,'in')"/>
  <use id="zoomminus" xlink:href="#zoomMin" x="42" y="9" onmousedown="handleZoom(evt,'out')"/>
  <use id="reset" xlink:href="#resetDef" x="30" y="36" onmousedown="handleReset()"/>
   <use id="arrowup" xlink:href="#arrowUp" x="0" y="0" onmousedown="handlePan(0,-1)"/>
  <use id="arrowright" xlink:href="#arrowRight" x="0" y="0" onmousedown="handlePan(1,0)"/>
  <use id="arrowdown" xlink:href="#arrowDown" x="0" y="0" onmousedown="handlePan(0,1)"/>
  <use id="arrowleft" xlink:href="#arrowLeft" x="0" y="0" onmousedown="handlePan(-1,0)"/>
</g>
<svg viewBox="0 0 15 15" width="100%" height="30px" preserveAspectRatio="xMaxYMin meet">
 <g id="arrow_out" transform="scale(0.3 0.3)">
  <a xlink:href="main_8c_a1a904050ef641d46ba74b91e8ff5b7f9_cgraph_org.svg" target="_base">
   <rect id="button" ry="5" rx="5" y="6" x="6" height="38" width="38"
        fill="#f2f5e9" fill-opacity="0.5" stroke="#606060" stroke-width="1.0"/>
   <path id="arrow"
     d="M 11.500037,31.436501 C 11.940474,20.09759 22.043105,11.32322 32.158766,21.979434 L 37.068811,17.246167 C 37.068811,17.246167 37.088388,32 37.088388,32 L 22.160133,31.978069 C 22.160133,31.978069 26.997745,27.140456 26.997745,27.140456 C 18.528582,18.264221 13.291696,25.230495 11.500037,31.436501 z"
     style="fill:#404040;"/>
  </a>
 </g>
</svg>

<style type='text/css'>
<![CDATA[
[data-mouse-over-selected='false'] { opacity: 0.7; }
[data-mouse-over-selected='true']  { opacity: 1.0; }
]]>
</style>
<script type="application/ecmascript"><![CDATA[
document.addEventListener('DOMContentLoaded', (event) => {
  highlightEdges();
  highlightAdjacentNodes();
});
]]></script>
</svg>
