<?xml version="1.0" encoding="UTF-8" standalone="no"?>
<!DOCTYPE svg PUBLIC "-//W3C//DTD SVG 1.1//EN"
 "http://www.w3.org/Graphics/SVG/1.1/DTD/svg11.dtd">
<!-- Generated by graphviz version 14.1.4 (20260321.0153)
 -->
<!-- Title: monitor_second_patient Pages: 1 -->
<!--zoomable 463 -->

<svg id="main" version="1.1" xmlns="http://www.w3.org/2000/svg" xmlns:xlink="http://www.w3.org/1999/xlink" xml:space="preserve" onload="init(evt)">

<style type="text/css"><![CDATA[
.node, .edge {opacity: 0.7;}
.node.selected, .edge.selected {opacity: 1;}
.edge:hover path { stroke: red; }
.edge:hover polygon { stroke: red; fill: red; }
]]></style>

<defs>
  <circle id="rim" cx="0" cy="0" r="7"/>
  <circle id="rim2" cx="0" cy="0" r="3.5"/>
  <g id="zoomPlus">
    <use xlink:href="#rim" fill="#404040"><set attributeName="fill" to="#808080" begin="zoomplus.mouseover" end="zoomplus.mouseout"/></use>
    <path d="M-4,0h8M0,-4v8" fill="none" stroke="white" stroke-width="1.5" pointer-events="none"/>
  </g>
  <g id="zoomMin">
    <use xlink:href="#rim" fill="#404040"><set attributeName="fill" to="#808080" begin="zoomminus.mouseover" end="zoomminus.mouseout"/></use>
    <path d="M-4,0h8" fill="none" stroke="white" stroke-width="1.5" pointer-events="none"/>
  </g>
  <g id="arrowUp" transform="translate(30 24)">
    <use xlink:href="#rim"/>
    <path pointer-events="none" fill="none" stroke="white" stroke-width="1.5" d="M0,-3.0v7 M-2.5,-0.5L0,-3.0L2.5,-0.5"/>
  </g>
  <g id="arrowRight" transform="rotate(90) translate(36 -43)">
    <use xlink:href="#rim"/>
    <path pointer-events="none" fill="none" stroke="white" stroke-width="1.5" d="M0,-3.0v7 M-2.5,-0.5L0,-3.0L2.5,-0.5"/>
  </g>
  <g id="arrowDown" transform="rotate(180) translate(-30 -48)">
    <use xlink:href="#rim"/>
    <path pointer-events="none" fill="none" stroke="white" stroke-width="1.5" d="M0,-3.0v7 M-2.5,-0.5L0,-3.0L2.5,-0.5"/>
  </g>
  <g id="arrowLeft" transform="rotate(270) translate(-36 17)">
    <use xlink:href="#rim"/>
    <path pointer-events="none" fill="none" stroke="white" stroke-width="1.5" d="M0,-3.0v7 M-2.5,-0.5L0,-3.0L2.5,-0.5"/>
  </g>
  <g id="resetDef">
    <use xlink:href="#rim2" fill="#404040"><set attributeName="fill" to="#808080" begin="reset.mouseover" end="reset.mouseout"/></use>
  </g>
</defs>
<script type="application/ecmascript">
var viewWidth = 724;
var viewHeight = 463;
var sectionId = 'dynsection-4';
</script>
<script type="application/ecmascript" xlink:href="svg.min.js"/>
<svg id="graph" class="graph">
<g id="viewport">
<title>monitor_second_patient</title>
<!-- Node1 -->
<g id="Node000001" class="node">
<title>Node1</title>
<g id="a_Node000001"><a xlink:title="Run the monitoring session for Patient 2 (bradycardia scenario).">
<polygon fill="#999999" stroke="#666666" points="119.5,-284.29 0,-284.29 0,-264.29 119.5,-264.29 119.5,-284.29"/>
<text xml:space="preserve" text-anchor="middle" x="59.75" y="-270.79" font-family="Helvetica,sans-Serif" font-size="10.00">monitor_second_patient</text>
</a>
</g>
</g>
<!-- Node2 -->
<g id="Node000002" class="node">
<title>Node2</title>
<g id="a_Node000002"><a xlink:href="vitals_8c.html#a7a7981a0a087b3b98763ed48bc789888" target="_top" xlink:title="Map a BMI value to a WHO weight&#45;status category string.">
<polygon fill="white" stroke="#666666" points="400.12,-455.29 325.62,-455.29 325.62,-435.29 400.12,-435.29 400.12,-455.29"/>
<text xml:space="preserve" text-anchor="middle" x="362.88" y="-441.79" font-family="Helvetica,sans-Serif" font-size="10.00">bmi_category</text>
</a>
</g>
</g>
<!-- Node1&#45;&gt;Node2 -->
<g id="edge1_Node000001_Node000002" class="edge">
<title>Node1&#45;&gt;Node2</title>
<g id="a_edge1_Node000001_Node000002"><a xlink:title=" ">
<path fill="none" stroke="#63b8ff" d="M70.77,-284.67C87.27,-301.35 121.7,-334.44 155.5,-356.29 217.63,-396.44 237.87,-398.69 306.5,-426.29 310.41,-427.86 314.5,-429.42 318.62,-430.93"/>
<polygon fill="#63b8ff" stroke="#63b8ff" points="317.44,-434.22 328.03,-434.28 319.79,-427.63 317.44,-434.22"/>
</a>
</g>
</g>
<!-- Node3 -->
<g id="Node000003" class="node">
<title>Node3</title>
<g id="a_Node000003"><a xlink:href="vitals_8c.html#a10dc695991eacf8ffea85c92b9331aec" target="_top" xlink:title="Calculate BMI using the standard WHO formula.">
<polygon fill="white" stroke="#666666" points="400.88,-417.29 324.88,-417.29 324.88,-397.29 400.88,-397.29 400.88,-417.29"/>
<text xml:space="preserve" text-anchor="middle" x="362.88" y="-403.79" font-family="Helvetica,sans-Serif" font-size="10.00">calculate_bmi</text>
</a>
</g>
</g>
<!-- Node1&#45;&gt;Node3 -->
<g id="edge2_Node000001_Node000003" class="edge">
<title>Node1&#45;&gt;Node3</title>
<g id="a_edge2_Node000001_Node000003"><a xlink:title=" ">
<path fill="none" stroke="#63b8ff" d="M84.1,-284.72C127.74,-304.21 224.64,-347.4 306.5,-383.29 313.18,-386.21 320.31,-389.32 327.17,-392.3"/>
<polygon fill="#63b8ff" stroke="#63b8ff" points="325.64,-395.45 336.21,-396.22 328.42,-389.03 325.64,-395.45"/>
</a>
</g>
</g>
<!-- Node4 -->
<g id="Node000004" class="node">
<title>Node4</title>
<g id="a_Node000004"><a xlink:href="patient_8c.html#a0e22c10046f3778c1f194cc6377d7984" target="_top" xlink:title="Append a vital signs reading, enforcing the MAX_READINGS cap.">
<polygon fill="white" stroke="#666666" points="264.5,-227.29 161.5,-227.29 161.5,-207.29 264.5,-207.29 264.5,-227.29"/>
<text xml:space="preserve" text-anchor="middle" x="213" y="-213.79" font-family="Helvetica,sans-Serif" font-size="10.00">patient_add_reading</text>
</a>
</g>
</g>
<!-- Node1&#45;&gt;Node4 -->
<g id="edge3_Node000001_Node000004" class="edge">
<title>Node1&#45;&gt;Node4</title>
<g id="a_edge3_Node000001_Node000004"><a xlink:title=" ">
<path fill="none" stroke="#63b8ff" d="M88.49,-263.83C112.4,-254.82 147.16,-241.72 173.72,-231.71"/>
<polygon fill="#63b8ff" stroke="#63b8ff" points="174.64,-235.11 182.76,-228.31 172.17,-228.56 174.64,-235.11"/>
</a>
</g>
</g>
<!-- Node5 -->
<g id="Node000005" class="node">
<title>Node5</title>
<g id="a_Node000005"><a xlink:href="patient_8c.html#a8fa76aa96b383df3556d391e64953536" target="_top" xlink:title="Initialise a PatientRecord, zeroing all fields before populating.">
<polygon fill="white" stroke="#666666" points="244.62,-189.29 181.38,-189.29 181.38,-169.29 244.62,-169.29 244.62,-189.29"/>
<text xml:space="preserve" text-anchor="middle" x="213" y="-175.79" font-family="Helvetica,sans-Serif" font-size="10.00">patient_init</text>
</a>
</g>
</g>
<!-- Node1&#45;&gt;Node5 -->
<g id="edge4_Node000001_Node000005" class="edge">
<title>Node1&#45;&gt;Node5</title>
<g id="a_edge4_Node000001_Node000005"><a xlink:title=" ">
<path fill="none" stroke="#63b8ff" d="M70.94,-264.05C87.4,-248.02 121.45,-216.9 155.5,-198.29 160.19,-195.72 165.29,-193.42 170.44,-191.38"/>
<polygon fill="#63b8ff" stroke="#63b8ff" points="171.34,-194.77 179.55,-188.07 168.95,-188.19 171.34,-194.77"/>
</a>
</g>
</g>
<!-- Node6 -->
<g id="Node000006" class="node">
<title>Node6</title>
<g id="a_Node000006"><a xlink:href="patient_8c.html#a19d76f7281d5f5ad5408c1ff4dc2ee11" target="_top" xlink:title="Print a formatted patient summary including vitals and active alerts.">
<polygon fill="white" stroke="#666666" points="270.5,-303.29 155.5,-303.29 155.5,-283.29 270.5,-283.29 270.5,-303.29"/>
<text xml:space="preserve" text-anchor="middle" x="213" y="-289.79" font-family="Helvetica,sans-Serif" font-size="10.00">patient_print_summary</text>
</a>
</g>
</g>
<!-- Node1&#45;&gt;Node6 -->
<g id="edge5_Node000001_Node000006" class="edge">
<title>Node1&#45;&gt;Node6</title>
<g id="a_edge5_Node000001_Node000006"><a xlink:title=" ">
<path fill="none" stroke="#63b8ff" d="M119.66,-281.69C127.67,-282.69 135.93,-283.73 144.08,-284.75"/>
<polygon fill="#63b8ff" stroke="#63b8ff" points="143.62,-288.22 153.98,-286 144.49,-281.28 143.62,-288.22"/>
</a>
</g>
</g>
<!-- Node16 -->
<g id="Node000016" class="node">
<title>Node16</title>
<g id="a_Node000016"><a xlink:href="main_8c.html#a0082d156ee2712806a55606f6637d160" target="_top" xlink:title="Print a single vital sign reading with per&#45;parameter status and alerts.">
<polygon fill="white" stroke="#666666" points="398.62,-179.29 327.12,-179.29 327.12,-159.29 398.62,-159.29 398.62,-179.29"/>
<text xml:space="preserve" text-anchor="middle" x="362.88" y="-165.79" font-family="Helvetica,sans-Serif" font-size="10.00">print_reading</text>
</a>
</g>
</g>
<!-- Node1&#45;&gt;Node16 -->
<g id="edge26_Node000001_Node000016" class="edge">
<title>Node1&#45;&gt;Node16</title>
<g id="a_edge26_Node000001_Node000016"><a xlink:title=" ">
<path fill="none" stroke="#63b8ff" d="M119.61,-273.36C163.54,-270.43 223.79,-261.55 270.5,-236.29 290.96,-225.22 287.94,-212.32 306.5,-198.29 313.03,-193.35 320.52,-188.8 327.84,-184.85"/>
<polygon fill="#63b8ff" stroke="#63b8ff" points="329.3,-188.03 336.6,-180.36 326.11,-181.8 329.3,-188.03"/>
</a>
</g>
</g>
<!-- Node6&#45;&gt;Node2 -->
<g id="edge7_Node000006_Node000002" class="edge">
<title>Node6&#45;&gt;Node2</title>
<g id="a_edge7_Node000006_Node000002"><a xlink:title=" ">
<path fill="none" stroke="#63b8ff" d="M218.39,-303.6C229.47,-328.41 260.94,-391.88 306.5,-426.29 309.12,-428.27 311.97,-430.05 314.94,-431.66"/>
<polygon fill="#63b8ff" stroke="#63b8ff" points="313.44,-434.82 323.98,-435.82 316.36,-428.46 313.44,-434.82"/>
</a>
</g>
</g>
<!-- Node6&#45;&gt;Node3 -->
<g id="edge8_Node000006_Node000003" class="edge">
<title>Node6&#45;&gt;Node3</title>
<g id="a_edge8_Node000006_Node000003"><a xlink:title=" ">
<path fill="none" stroke="#63b8ff" d="M222.46,-303.71C237.67,-321.89 271.32,-359.71 306.5,-383.29 311.33,-386.52 316.66,-389.48 322.06,-392.13"/>
<polygon fill="#63b8ff" stroke="#63b8ff" points="320.46,-395.25 331.01,-396.21 323.36,-388.88 320.46,-395.25"/>
</a>
</g>
</g>
<!-- Node7 -->
<g id="Node000007" class="node">
<title>Node7</title>
<g id="a_Node000007"><a xlink:href="vitals_8c.html#a20a209843ea1eeff8484a7998d492615" target="_top" xlink:title="Convert an AlertLevel enum to a display string.">
<polygon fill="white" stroke="#666666" points="549.25,-189.29 472.5,-189.29 472.5,-169.29 549.25,-169.29 549.25,-189.29"/>
<text xml:space="preserve" text-anchor="middle" x="510.88" y="-175.79" font-family="Helvetica,sans-Serif" font-size="10.00">alert_level_str</text>
</a>
</g>
</g>
<!-- Node6&#45;&gt;Node7 -->
<g id="edge6_Node000006_Node000007" class="edge">
<title>Node6&#45;&gt;Node7</title>
<g id="a_edge6_Node000006_Node000007"><a xlink:title=" ">
<path fill="none" stroke="#63b8ff" d="M239.19,-282.88C249.23,-278.31 260.71,-272.57 270.5,-266.29 288.03,-255.04 288.06,-245.98 306.5,-236.29 355.85,-210.34 418.33,-195.11 460.93,-187.01"/>
<polygon fill="#63b8ff" stroke="#63b8ff" points="461.42,-190.48 470.63,-185.24 460.16,-183.6 461.42,-190.48"/>
</a>
</g>
</g>
<!-- Node8 -->
<g id="Node000008" class="node">
<title>Node8</title>
<g id="a_Node000008"><a xlink:href="vitals_8c.html#a3c853e30a899042babf9fdd2bd2cbfc1" target="_top" xlink:title="Classify a blood pressure reading.">
<polygon fill="white" stroke="#666666" points="716,-246.29 602.5,-246.29 602.5,-226.29 716,-226.29 716,-246.29"/>
<text xml:space="preserve" text-anchor="middle" x="659.25" y="-232.79" font-family="Helvetica,sans-Serif" font-size="10.00">check_blood_pressure</text>
</a>
</g>
</g>
<!-- Node6&#45;&gt;Node8 -->
<g id="edge9_Node000006_Node000008" class="edge">
<title>Node6&#45;&gt;Node8</title>
<g id="a_edge9_Node000006_Node000008"><a xlink:title=" ">
<path fill="none" stroke="#63b8ff" d="M248.06,-303.72C255.69,-306.66 263.56,-310.19 270.5,-314.29 288.68,-325.02 286.71,-337.94 306.5,-345.29 414.83,-385.5 461.73,-394.04 566.5,-345.29 605.75,-327.02 634.21,-282.79 648.29,-256.63"/>
<polygon fill="#63b8ff" stroke="#63b8ff" points="651.27,-258.49 652.74,-248 645.05,-255.28 651.27,-258.49"/>
</a>
</g>
</g>
<!-- Node9 -->
<g id="Node000009" class="node">
<title>Node9</title>
<g id="a_Node000009"><a xlink:href="vitals_8c.html#a7604eb6b23010f139f6f960b184a3b28" target="_top" xlink:title="Classify a heart rate reading.">
<polygon fill="white" stroke="#666666" points="704.75,-94.29 613.75,-94.29 613.75,-74.29 704.75,-74.29 704.75,-94.29"/>
<text xml:space="preserve" text-anchor="middle" x="659.25" y="-80.79" font-family="Helvetica,sans-Serif" font-size="10.00">check_heart_rate</text>
</a>
</g>
</g>
<!-- Node6&#45;&gt;Node9 -->
<g id="edge10_Node000006_Node000009" class="edge">
<title>Node6&#45;&gt;Node9</title>
<g id="a_edge10_Node000006_Node000009"><a xlink:title=" ">
<path fill="none" stroke="#63b8ff" d="M227.67,-283.01C240.56,-272.6 259.51,-255.36 270.5,-236.29 301.07,-183.22 262.89,-146.28 306.5,-103.29 388.73,-22.22 541,-50.4 615.27,-70.77"/>
<polygon fill="#63b8ff" stroke="#63b8ff" points="614.04,-74.06 624.61,-73.42 615.95,-67.33 614.04,-74.06"/>
</a>
</g>
</g>
<!-- Node10 -->
<g id="Node000010" class="node">
<title>Node10</title>
<g id="a_Node000010"><a xlink:href="vitals_8c.html#ac0bc076e63894a96df90f2eab73c88fe" target="_top" xlink:title="Classify an SpO2 reading.">
<polygon fill="white" stroke="#666666" points="693.5,-189.29 625,-189.29 625,-169.29 693.5,-169.29 693.5,-189.29"/>
<text xml:space="preserve" text-anchor="middle" x="659.25" y="-175.79" font-family="Helvetica,sans-Serif" font-size="10.00">check_spo2</text>
</a>
</g>
</g>
<!-- Node6&#45;&gt;Node10 -->
<g id="edge11_Node000006_Node000010" class="edge">
<title>Node6&#45;&gt;Node10</title>
<g id="a_edge11_Node000006_Node000010"><a xlink:title=" ">
<path fill="none" stroke="#63b8ff" d="M266.74,-303.78C352.99,-319.7 519.34,-344.84 566.5,-312.29 603.66,-286.63 574.55,-252.75 602.5,-217.29 609.14,-208.86 618.16,-201.61 627.01,-195.76"/>
<polygon fill="#63b8ff" stroke="#63b8ff" points="628.8,-198.76 635.5,-190.55 625.14,-192.79 628.8,-198.76"/>
</a>
</g>
</g>
<!-- Node11 -->
<g id="Node000011" class="node">
<title>Node11</title>
<g id="a_Node000011"><a xlink:href="vitals_8c.html#aef7f6fa183fbc5412c13ea63bd2b62ce" target="_top" xlink:title="Classify a temperature reading.">
<polygon fill="white" stroke="#666666" points="708.88,-47.29 609.62,-47.29 609.62,-27.29 708.88,-27.29 708.88,-47.29"/>
<text xml:space="preserve" text-anchor="middle" x="659.25" y="-33.79" font-family="Helvetica,sans-Serif" font-size="10.00">check_temperature</text>
</a>
</g>
</g>
<!-- Node6&#45;&gt;Node11 -->
<g id="edge12_Node000006_Node000011" class="edge">
<title>Node6&#45;&gt;Node11</title>
<g id="a_edge12_Node000006_Node000011"><a xlink:title=" ">
<path fill="none" stroke="#63b8ff" d="M228.49,-282.79C241.6,-272.48 260.36,-255.52 270.5,-236.29 310.17,-161.03 241.79,-103.51 306.5,-48.29 394.07,26.44 543.28,-2.87 615.96,-23.56"/>
<polygon fill="#63b8ff" stroke="#63b8ff" points="614.91,-26.9 625.5,-26.36 616.89,-20.18 614.91,-26.9"/>
</a>
</g>
</g>
<!-- Node12 -->
<g id="Node000012" class="node">
<title>Node12</title>
<g id="a_Node000012"><a xlink:href="alerts_8c.html#a98b6140a4d21520d639bc81d1f7c08b7" target="_top" xlink:title="Generate structured alert records for out&#45;of&#45;range vital signs.">
<polygon fill="white" stroke="#666666" points="552.25,-113.29 469.5,-113.29 469.5,-93.29 552.25,-93.29 552.25,-113.29"/>
<text xml:space="preserve" text-anchor="middle" x="510.88" y="-99.79" font-family="Helvetica,sans-Serif" font-size="10.00">generate_alerts</text>
</a>
</g>
</g>
<!-- Node6&#45;&gt;Node12 -->
<g id="edge13_Node000006_Node000012" class="edge">
<title>Node6&#45;&gt;Node12</title>
<g id="a_edge13_Node000006_Node000012"><a xlink:title=" ">
<path fill="none" stroke="#63b8ff" d="M226.65,-283.07C239.15,-272.46 258.12,-254.83 270.5,-236.29 293.51,-201.83 274.83,-177 306.5,-150.29 348.8,-114.61 413,-104.77 457.92,-102.64"/>
<polygon fill="#63b8ff" stroke="#63b8ff" points="457.8,-106.15 467.68,-102.3 457.56,-99.15 457.8,-106.15"/>
</a>
</g>
</g>
<!-- Node13 -->
<g id="Node000013" class="node">
<title>Node13</title>
<g id="a_Node000013"><a xlink:href="patient_8c.html#a7efb2602c9a2566fee89ff6d6af42bcf" target="_top" xlink:title="Return the overall status from the latest reading.">
<polygon fill="white" stroke="#666666" points="419.25,-265.29 306.5,-265.29 306.5,-245.29 419.25,-245.29 419.25,-265.29"/>
<text xml:space="preserve" text-anchor="middle" x="362.88" y="-251.79" font-family="Helvetica,sans-Serif" font-size="10.00">patient_current_status</text>
</a>
</g>
</g>
<!-- Node6&#45;&gt;Node13 -->
<g id="edge18_Node000006_Node000013" class="edge">
<title>Node6&#45;&gt;Node13</title>
<g id="a_edge18_Node000006_Node000013"><a xlink:title=" ">
<path fill="none" stroke="#63b8ff" d="M254.8,-282.8C271.93,-278.4 292.06,-273.23 310.21,-268.56"/>
<polygon fill="#63b8ff" stroke="#63b8ff" points="310.93,-271.99 319.74,-266.11 309.19,-265.21 310.93,-271.99"/>
</a>
</g>
</g>
<!-- Node15 -->
<g id="Node000015" class="node">
<title>Node15</title>
<g id="a_Node000015"><a xlink:href="patient_8c.html#aaf2d461ddd1efafe4887647d0c8688d7" target="_top" xlink:title="Return a pointer to the most recent reading, or NULL if none exist.">
<polygon fill="white" stroke="#666666" points="566.5,-303.29 455.25,-303.29 455.25,-283.29 566.5,-283.29 566.5,-303.29"/>
<text xml:space="preserve" text-anchor="middle" x="510.88" y="-289.79" font-family="Helvetica,sans-Serif" font-size="10.00">patient_latest_reading</text>
</a>
</g>
</g>
<!-- Node6&#45;&gt;Node15 -->
<g id="edge25_Node000006_Node000015" class="edge">
<title>Node6&#45;&gt;Node15</title>
<g id="a_edge25_Node000006_Node000015"><a xlink:title=" ">
<path fill="none" stroke="#63b8ff" d="M270.7,-293.29C319.99,-293.29 391.46,-293.29 443.43,-293.29"/>
<polygon fill="#63b8ff" stroke="#63b8ff" points="443.36,-296.79 453.36,-293.29 443.36,-289.79 443.36,-296.79"/>
</a>
</g>
</g>
<!-- Node12&#45;&gt;Node8 -->
<g id="edge14_Node000012_Node000008" class="edge">
<title>Node12&#45;&gt;Node8</title>
<g id="a_edge14_Node000012_Node000008"><a xlink:title=" ">
<path fill="none" stroke="#63b8ff" d="M521.96,-113.77C532.94,-125.2 550.99,-144.01 566.5,-160.29 582.55,-177.13 584.79,-183.2 602.5,-198.29 611.5,-205.95 622.07,-213.48 631.57,-219.79"/>
<polygon fill="#63b8ff" stroke="#63b8ff" points="629.41,-222.56 639.71,-225.05 633.22,-216.68 629.41,-222.56"/>
</a>
</g>
</g>
<!-- Node12&#45;&gt;Node9 -->
<g id="edge15_Node000012_Node000009" class="edge">
<title>Node12&#45;&gt;Node9</title>
<g id="a_edge15_Node000012_Node000009"><a xlink:title=" ">
<path fill="none" stroke="#63b8ff" d="M552.65,-97.99C567.98,-96 585.68,-93.71 602.16,-91.57"/>
<polygon fill="#63b8ff" stroke="#63b8ff" points="602.36,-95.07 611.83,-90.31 601.46,-88.13 602.36,-95.07"/>
</a>
</g>
</g>
<!-- Node12&#45;&gt;Node10 -->
<g id="edge16_Node000012_Node000010" class="edge">
<title>Node12&#45;&gt;Node10</title>
<g id="a_edge16_Node000012_Node000010"><a xlink:title=" ">
<path fill="none" stroke="#63b8ff" d="M537.14,-113.75C546.46,-117.78 557.06,-122.55 566.5,-127.29 588.8,-138.47 613.35,-152.48 631.45,-163.14"/>
<polygon fill="#63b8ff" stroke="#63b8ff" points="629.6,-166.11 639.98,-168.21 633.17,-160.09 629.6,-166.11"/>
</a>
</g>
</g>
<!-- Node12&#45;&gt;Node11 -->
<g id="edge17_Node000012_Node000011" class="edge">
<title>Node12&#45;&gt;Node11</title>
<g id="a_edge17_Node000012_Node000011"><a xlink:title=" ">
<path fill="none" stroke="#63b8ff" d="M535.07,-92.83C559.27,-81.92 597.43,-64.71 624.86,-52.34"/>
<polygon fill="#63b8ff" stroke="#63b8ff" points="626.11,-55.62 633.79,-48.32 623.23,-49.24 626.11,-55.62"/>
</a>
</g>
</g>
<!-- Node14 -->
<g id="Node000014" class="node">
<title>Node14</title>
<g id="a_Node000014"><a xlink:href="vitals_8c.html#af7201b2a5a70f76ab81ade218a863830" target="_top" xlink:title="Return the highest alert level across all four vital parameters.">
<polygon fill="white" stroke="#666666" points="557.88,-227.29 463.88,-227.29 463.88,-207.29 557.88,-207.29 557.88,-227.29"/>
<text xml:space="preserve" text-anchor="middle" x="510.88" y="-213.79" font-family="Helvetica,sans-Serif" font-size="10.00">overall_alert_level</text>
</a>
</g>
</g>
<!-- Node13&#45;&gt;Node14 -->
<g id="edge19_Node000013_Node000014" class="edge">
<title>Node13&#45;&gt;Node14</title>
<g id="a_edge19_Node000013_Node000014"><a xlink:title=" ">
<path fill="none" stroke="#63b8ff" d="M404.16,-244.8C420.99,-240.42 440.75,-235.28 458.61,-230.63"/>
<polygon fill="#63b8ff" stroke="#63b8ff" points="459.46,-234.02 468.26,-228.12 457.7,-227.25 459.46,-234.02"/>
</a>
</g>
</g>
<!-- Node13&#45;&gt;Node15 -->
<g id="edge24_Node000013_Node000015" class="edge">
<title>Node13&#45;&gt;Node15</title>
<g id="a_edge24_Node000013_Node000015"><a xlink:title=" ">
<path fill="none" stroke="#63b8ff" d="M404.16,-265.77C420.99,-270.15 440.75,-275.3 458.61,-279.94"/>
<polygon fill="#63b8ff" stroke="#63b8ff" points="457.7,-283.32 468.26,-282.46 459.46,-276.55 457.7,-283.32"/>
</a>
</g>
</g>
<!-- Node14&#45;&gt;Node8 -->
<g id="edge20_Node000014_Node000008" class="edge">
<title>Node14&#45;&gt;Node8</title>
<g id="a_edge20_Node000014_Node000008"><a xlink:title=" ">
<path fill="none" stroke="#63b8ff" d="M558.19,-223.3C568.57,-224.65 579.79,-226.1 590.83,-227.54"/>
<polygon fill="#63b8ff" stroke="#63b8ff" points="590.36,-231 600.73,-228.82 591.27,-224.06 590.36,-231"/>
</a>
</g>
</g>
<!-- Node14&#45;&gt;Node9 -->
<g id="edge21_Node000014_Node000009" class="edge">
<title>Node14&#45;&gt;Node9</title>
<g id="a_edge21_Node000014_Node000009"><a xlink:title=" ">
<path fill="none" stroke="#63b8ff" d="M550.82,-206.79C556.33,-204.45 561.74,-201.64 566.5,-198.29 585.45,-184.93 624,-132.69 644.58,-103.79"/>
<polygon fill="#63b8ff" stroke="#63b8ff" points="647.26,-106.06 650.18,-95.87 641.55,-102.02 647.26,-106.06"/>
</a>
</g>
</g>
<!-- Node14&#45;&gt;Node10 -->
<g id="edge22_Node000014_Node000010" class="edge">
<title>Node14&#45;&gt;Node10</title>
<g id="a_edge22_Node000014_Node000010"><a xlink:title=" ">
<path fill="none" stroke="#63b8ff" d="M552.26,-206.8C571.36,-201.84 594.22,-195.91 613.81,-190.82"/>
<polygon fill="#63b8ff" stroke="#63b8ff" points="614.65,-194.22 623.45,-188.32 612.89,-187.45 614.65,-194.22"/>
</a>
</g>
</g>
<!-- Node14&#45;&gt;Node11 -->
<g id="edge23_Node000014_Node000011" class="edge">
<title>Node14&#45;&gt;Node11</title>
<g id="a_edge23_Node000014_Node000011"><a xlink:title=" ">
<path fill="none" stroke="#63b8ff" d="M555.22,-206.88C559.41,-204.56 563.28,-201.74 566.5,-198.29 608.25,-153.49 563.76,-112.72 602.5,-65.29 606.4,-60.52 611.31,-56.48 616.61,-53.09"/>
<polygon fill="#63b8ff" stroke="#63b8ff" points="618.02,-56.31 625.07,-48.41 614.63,-50.19 618.02,-56.31"/>
</a>
</g>
</g>
<!-- Node16&#45;&gt;Node7 -->
<g id="edge27_Node000016_Node000007" class="edge">
<title>Node16&#45;&gt;Node7</title>
<g id="a_edge27_Node000016_Node000007"><a xlink:title=" ">
<path fill="none" stroke="#63b8ff" d="M398.85,-171.68C417.41,-172.95 440.52,-174.54 460.85,-175.93"/>
<polygon fill="#63b8ff" stroke="#63b8ff" points="460.39,-179.41 470.61,-176.6 460.87,-172.42 460.39,-179.41"/>
</a>
</g>
</g>
<!-- Node16&#45;&gt;Node8 -->
<g id="edge28_Node000016_Node000008" class="edge">
<title>Node16&#45;&gt;Node8</title>
<g id="a_edge28_Node000016_Node000008"><a xlink:title=" ">
<path fill="none" stroke="#63b8ff" d="M373.33,-179.53C388.7,-195.34 420.85,-225.03 455.25,-236.29 498.78,-250.54 550.44,-250.32 590.75,-246.65"/>
<polygon fill="#63b8ff" stroke="#63b8ff" points="590.97,-250.14 600.56,-245.65 590.26,-243.18 590.97,-250.14"/>
</a>
</g>
</g>
<!-- Node16&#45;&gt;Node9 -->
<g id="edge29_Node000016_Node000009" class="edge">
<title>Node16&#45;&gt;Node9</title>
<g id="a_edge29_Node000016_Node000009"><a xlink:title=" ">
<path fill="none" stroke="#63b8ff" d="M370.89,-158.86C384.49,-139.71 416.54,-99.51 455.25,-84.29 502.17,-65.84 560.04,-68.01 601.97,-73.51"/>
<polygon fill="#63b8ff" stroke="#63b8ff" points="601.46,-76.98 611.85,-74.93 602.45,-70.05 601.46,-76.98"/>
</a>
</g>
</g>
<!-- Node16&#45;&gt;Node10 -->
<g id="edge30_Node000016_Node000010" class="edge">
<title>Node16&#45;&gt;Node10</title>
<g id="a_edge30_Node000016_Node000010"><a xlink:title=" ">
<path fill="none" stroke="#63b8ff" d="M399.11,-164.61C439.6,-159.95 508,-154.29 566.5,-160.29 581.97,-161.87 598.69,-164.92 613.56,-168.13"/>
<polygon fill="#63b8ff" stroke="#63b8ff" points="612.52,-171.48 623.04,-170.25 614.05,-164.65 612.52,-171.48"/>
</a>
</g>
</g>
<!-- Node16&#45;&gt;Node11 -->
<g id="edge31_Node000016_Node000011" class="edge">
<title>Node16&#45;&gt;Node11</title>
<g id="a_edge31_Node000016_Node000011"><a xlink:title=" ">
<path fill="none" stroke="#63b8ff" d="M369.55,-158.83C381.92,-137.21 413.55,-87.72 455.25,-65.29 499.16,-41.67 555.84,-35.52 598.14,-34.79"/>
<polygon fill="#63b8ff" stroke="#63b8ff" points="597.9,-38.29 607.88,-34.72 597.85,-31.29 597.9,-38.29"/>
</a>
</g>
</g>
<!-- Node16&#45;&gt;Node12 -->
<g id="edge32_Node000016_Node000012" class="edge">
<title>Node16&#45;&gt;Node12</title>
<g id="a_edge32_Node000016_Node000012"><a xlink:title=" ">
<path fill="none" stroke="#63b8ff" d="M386.36,-158.82C404.82,-150.26 431.68,-137.88 455.25,-127.29 461.82,-124.33 468.86,-121.21 475.62,-118.23"/>
<polygon fill="#63b8ff" stroke="#63b8ff" points="476.77,-121.55 484.52,-114.32 473.96,-115.14 476.77,-121.55"/>
</a>
</g>
</g>
<!-- Node16&#45;&gt;Node14 -->
<g id="edge33_Node000016_Node000014" class="edge">
<title>Node16&#45;&gt;Node14</title>
<g id="a_edge33_Node000016_Node000014"><a xlink:title=" ">
<path fill="none" stroke="#63b8ff" d="M395.55,-179.7C416.53,-186.6 444.29,-195.72 467.2,-203.26"/>
<polygon fill="#63b8ff" stroke="#63b8ff" points="465.97,-206.54 476.57,-206.34 468.16,-199.89 465.97,-206.54"/>
</a>
</g>
</g>
</g>
</svg>

<g id="navigator" transform="translate(0 0)" fill="#404254">
  <rect fill="#f2f5e9" fill-opacity="0.5" stroke="#606060" stroke-width=".5" x="0" y="0" width="60" height="60"/>
  <use id="zoomplus" xlink:href="#zoomPlus" x="17" y="9" onmousedown="handleZoom(evt,'in')"/>
  <use id="zoomminus" xlink:href="#zoomMin" x="42" y="9" onmousedown="handleZoom(evt,'out')"/>
  <use id="reset" xlink:href="#resetDef" x="30" y="36" onmousedown="handleReset()"/>
   <use id="arrowup" xlink:href="#arrowUp" x="0" y="0" onmousedown="handlePan(0,-1)"/>
  <use id="arrowright" xlink:href="#arrowRight" x="0" y="0" onmousedown="handlePan(1,0)"/>
  <use id="arrowdown" xlink:href="#arrowDown" x="0" y="0" onmousedown="handlePan(0,1)"/>
  <use id="arrowleft" xlink:href="#arrowLeft" x="0" y="0" onmousedown="handlePan(-1,0)"/>
</g>
<svg viewBox="0 0 15 15" width="100%" height="30px" preserveAspectRatio="xMaxYMin meet">
 <g id="arrow_out" transform="scale(0.3 0.3)">
  <a xlink:href="main_8c_a418db4bf280a08fda4493a816c841643_cgraph_org.svg" target="_base">
   <rect id="button" ry="5" rx="5" y="6" x="6" height="38" width="38"
        fill="#f2f5e9" fill-opacity="0.5" stroke="#606060" stroke-width="1.0"/>
   <path id="arrow"
     d="M 11.500037,31.436501 C 11.940474,20.09759 22.043105,11.32322 32.158766,21.979434 L 37.068811,17.246167 C 37.068811,17.246167 37.088388,32 37.088388,32 L 22.160133,31.978069 C 22.160133,31.978069 26.997745,27.140456 26.997745,27.140456 C 18.528582,18.264221 13.291696,25.230495 11.500037,31.436501 z"
     style="fill:#404040;"/>
  </a>
 </g>
</svg>

<style type='text/css'>
<![CDATA[
[data-mouse-over-selected='false'] { opacity: 0.7; }
[data-mouse-over-selected='true']  { opacity: 1.0; }
]]>
</style>
<script type="application/ecmascript"><![CDATA[
document.addEventListener('DOMContentLoaded', (event) => {
  highlightEdges();
  highlightAdjacentNodes();
});
]]></script>
</svg>
