<?xml version="1.0" encoding="UTF-8" standalone="no"?>
<!DOCTYPE svg PUBLIC "-//W3C//DTD SVG 1.1//EN"
 "http://www.w3.org/Graphics/SVG/1.1/DTD/svg11.dtd">
<!-- Generated by graphviz version 14.1.4 (20260321.0153)
 -->
<!-- Title: print_reading Pages: 1 -->
<svg width="359pt" height="219pt"
 viewBox="0.00 0.00 359.00 219.00" xmlns="http://www.w3.org/2000/svg" xmlns:xlink="http://www.w3.org/1999/xlink">

<svg id="main" version="1.1" xmlns="http://www.w3.org/2000/svg" xmlns:xlink="http://www.w3.org/1999/xlink" xml:space="preserve">

<style type="text/css"><![CDATA[
.node, .edge {opacity: 0.7;}
.node.selected, .edge.selected {opacity: 1;}
.edge:hover path { stroke: red; }
.edge:hover polygon { stroke: red; fill: red; }
]]></style>
<script type="application/ecmascript" xlink:href="svg.min.js"/>
<svg id="graph" class="graph">
<g id="graph0" class="graph" transform="scale(1 1) rotate(0) translate(4 214.92)">
<title>print_reading</title>
<!-- Node1 -->
<g id="Node000001" class="node">
<title>Node1</title>
<g id="a_Node000001"><a xlink:title="Print a single vital sign reading with per&#45;parameter status and alerts.">
<polygon fill="#999999" stroke="#666666" points="71.5,-96.92 0,-96.92 0,-76.92 71.5,-76.92 71.5,-96.92"/>
<text xml:space="preserve" text-anchor="middle" x="35.75" y="-83.42" font-family="Helvetica,sans-Serif" font-size="10.00">print_reading</text>
</a>
</g>
</g>
<!-- Node2 -->
<g id="Node000002" class="node">
<title>Node2</title>
<g id="a_Node000002"><a xlink:href="vitals_8c.html#a20a209843ea1eeff8484a7998d492615" target="_top" xlink:title="Convert an AlertLevel enum to a display string.">
<polygon fill="white" stroke="#666666" points="192.88,-210.92 116.12,-210.92 116.12,-190.92 192.88,-190.92 192.88,-210.92"/>
<text xml:space="preserve" text-anchor="middle" x="154.5" y="-197.42" font-family="Helvetica,sans-Serif" font-size="10.00">alert_level_str</text>
</a>
</g>
</g>
<!-- Node1&#45;&gt;Node2 -->
<g id="edge1_Node000001_Node000002" class="edge">
<title>Node1&#45;&gt;Node2</title>
<g id="a_edge1_Node000001_Node000002"><a xlink:title=" ">
<path fill="none" stroke="#63b8ff" d="M42.81,-97.26C53.81,-115.31 78.59,-152.93 107.5,-176.92 110.99,-179.81 114.88,-182.5 118.89,-184.94"/>
<polygon fill="#63b8ff" stroke="#63b8ff" points="117.14,-187.97 127.58,-189.77 120.54,-181.86 117.14,-187.97"/>
</a>
</g>
</g>
<!-- Node3 -->
<g id="Node000003" class="node">
<title>Node3</title>
<g id="a_Node000003"><a xlink:href="vitals_8c.html#a3c853e30a899042babf9fdd2bd2cbfc1" target="_top" xlink:title="Classify a blood pressure reading.">
<polygon fill="white" stroke="#666666" points="351,-134.92 237.5,-134.92 237.5,-114.92 351,-114.92 351,-134.92"/>
<text xml:space="preserve" text-anchor="middle" x="294.25" y="-121.42" font-family="Helvetica,sans-Serif" font-size="10.00">check_blood_pressure</text>
</a>
</g>
</g>
<!-- Node1&#45;&gt;Node3 -->
<g id="edge2_Node000001_Node000003" class="edge">
<title>Node1&#45;&gt;Node3</title>
<g id="a_edge2_Node000001_Node000003"><a xlink:title=" ">
<path fill="none" stroke="#63b8ff" d="M52.54,-97.29C66.39,-105.74 87.39,-117.05 107.5,-121.92 145.97,-131.24 190.24,-132.32 225.91,-130.91"/>
<polygon fill="#63b8ff" stroke="#63b8ff" points="225.84,-134.41 235.66,-130.44 225.5,-127.42 225.84,-134.41"/>
</a>
</g>
</g>
<!-- Node4 -->
<g id="Node000004" class="node">
<title>Node4</title>
<g id="a_Node000004"><a xlink:href="vitals_8c.html#a7604eb6b23010f139f6f960b184a3b28" target="_top" xlink:title="Classify a heart rate reading.">
<polygon fill="white" stroke="#666666" points="339.75,-96.92 248.75,-96.92 248.75,-76.92 339.75,-76.92 339.75,-96.92"/>
<text xml:space="preserve" text-anchor="middle" x="294.25" y="-83.42" font-family="Helvetica,sans-Serif" font-size="10.00">check_heart_rate</text>
</a>
</g>
</g>
<!-- Node1&#45;&gt;Node4 -->
<g id="edge3_Node000001_Node000004" class="edge">
<title>Node1&#45;&gt;Node4</title>
<g id="a_edge3_Node000001_Node000004"><a xlink:title=" ">
<path fill="none" stroke="#63b8ff" d="M68.44,-97.33C80.52,-100.8 94.51,-104.21 107.5,-105.92 148.92,-111.38 159.94,-110.18 201.5,-105.92 214.39,-104.6 228.14,-102.26 240.97,-99.66"/>
<polygon fill="#63b8ff" stroke="#63b8ff" points="241.43,-103.15 250.49,-97.65 239.98,-96.3 241.43,-103.15"/>
</a>
</g>
</g>
<!-- Node5 -->
<g id="Node000005" class="node">
<title>Node5</title>
<g id="a_Node000005"><a xlink:href="vitals_8c.html#ac0bc076e63894a96df90f2eab73c88fe" target="_top" xlink:title="Classify an SpO2 reading.">
<polygon fill="white" stroke="#666666" points="328.5,-58.92 260,-58.92 260,-38.92 328.5,-38.92 328.5,-58.92"/>
<text xml:space="preserve" text-anchor="middle" x="294.25" y="-45.42" font-family="Helvetica,sans-Serif" font-size="10.00">check_spo2</text>
</a>
</g>
</g>
<!-- Node1&#45;&gt;Node5 -->
<g id="edge4_Node000001_Node000005" class="edge">
<title>Node1&#45;&gt;Node5</title>
<g id="a_edge4_Node000001_Node000005"><a xlink:title=" ">
<path fill="none" stroke="#63b8ff" d="M45.08,-76.87C57.16,-63.17 81.02,-39.26 107.5,-29.92 155.77,-12.89 215.17,-24.1 253.6,-35.19"/>
<polygon fill="#63b8ff" stroke="#63b8ff" points="252.3,-38.45 262.89,-38 254.33,-31.75 252.3,-38.45"/>
</a>
</g>
</g>
<!-- Node6 -->
<g id="Node000006" class="node">
<title>Node6</title>
<g id="a_Node000006"><a xlink:href="vitals_8c.html#aef7f6fa183fbc5412c13ea63bd2b62ce" target="_top" xlink:title="Classify a temperature reading.">
<polygon fill="white" stroke="#666666" points="343.88,-20.92 244.62,-20.92 244.62,-0.92 343.88,-0.92 343.88,-20.92"/>
<text xml:space="preserve" text-anchor="middle" x="294.25" y="-7.42" font-family="Helvetica,sans-Serif" font-size="10.00">check_temperature</text>
</a>
</g>
</g>
<!-- Node1&#45;&gt;Node6 -->
<g id="edge5_Node000001_Node000006" class="edge">
<title>Node1&#45;&gt;Node6</title>
<g id="a_edge5_Node000001_Node000006"><a xlink:title=" ">
<path fill="none" stroke="#63b8ff" d="M43.28,-76.67C54.26,-60.48 78.13,-29.55 107.5,-16.92 146.85,0.01 195.35,0.99 232.92,-1.99"/>
<polygon fill="#63b8ff" stroke="#63b8ff" points="232.42,-5.45 242.7,-2.88 233.06,1.52 232.42,-5.45"/>
</a>
</g>
</g>
<!-- Node7 -->
<g id="Node000007" class="node">
<title>Node7</title>
<g id="a_Node000007"><a xlink:href="alerts_8c.html#a98b6140a4d21520d639bc81d1f7c08b7" target="_top" xlink:title="Generate structured alert records for out&#45;of&#45;range vital signs.">
<polygon fill="white" stroke="#666666" points="195.88,-58.92 113.12,-58.92 113.12,-38.92 195.88,-38.92 195.88,-58.92"/>
<text xml:space="preserve" text-anchor="middle" x="154.5" y="-45.42" font-family="Helvetica,sans-Serif" font-size="10.00">generate_alerts</text>
</a>
</g>
</g>
<!-- Node1&#45;&gt;Node7 -->
<g id="edge6_Node000001_Node000007" class="edge">
<title>Node1&#45;&gt;Node7</title>
<g id="a_edge6_Node000001_Node000007"><a xlink:title=" ">
<path fill="none" stroke="#63b8ff" d="M68.96,-76.43C81.85,-72.24 96.88,-67.35 110.67,-62.86"/>
<polygon fill="#63b8ff" stroke="#63b8ff" points="111.53,-66.26 119.95,-59.84 109.36,-59.6 111.53,-66.26"/>
</a>
</g>
</g>
<!-- Node8 -->
<g id="Node000008" class="node">
<title>Node8</title>
<g id="a_Node000008"><a xlink:href="vitals_8c.html#af7201b2a5a70f76ab81ade218a863830" target="_top" xlink:title="Return the highest alert level across all four vital parameters.">
<polygon fill="white" stroke="#666666" points="201.5,-96.92 107.5,-96.92 107.5,-76.92 201.5,-76.92 201.5,-96.92"/>
<text xml:space="preserve" text-anchor="middle" x="154.5" y="-83.42" font-family="Helvetica,sans-Serif" font-size="10.00">overall_alert_level</text>
</a>
</g>
</g>
<!-- Node1&#45;&gt;Node8 -->
<g id="edge11_Node000001_Node000008" class="edge">
<title>Node1&#45;&gt;Node8</title>
<g id="a_edge11_Node000001_Node000008"><a xlink:title=" ">
<path fill="none" stroke="#63b8ff" d="M71.78,-86.92C79.36,-86.92 87.56,-86.92 95.75,-86.92"/>
<polygon fill="#63b8ff" stroke="#63b8ff" points="95.74,-90.42 105.74,-86.92 95.74,-83.42 95.74,-90.42"/>
</a>
</g>
</g>
<!-- Node7&#45;&gt;Node3 -->
<g id="edge7_Node000007_Node000003" class="edge">
<title>Node7&#45;&gt;Node3</title>
<g id="a_edge7_Node000007_Node000003"><a xlink:title=" ">
<path fill="none" stroke="#63b8ff" d="M185.65,-59.23C191.14,-61.69 196.66,-64.59 201.5,-67.92 220.67,-81.09 217.92,-93.36 237.5,-105.92 239.63,-107.29 241.88,-108.57 244.19,-109.77"/>
<polygon fill="#63b8ff" stroke="#63b8ff" points="242.69,-112.93 253.25,-113.88 245.59,-106.56 242.69,-112.93"/>
</a>
</g>
</g>
<!-- Node7&#45;&gt;Node4 -->
<g id="edge8_Node000007_Node000004" class="edge">
<title>Node7&#45;&gt;Node4</title>
<g id="a_edge8_Node000007_Node000004"><a xlink:title=" ">
<path fill="none" stroke="#63b8ff" d="M193.51,-59.4C209.31,-63.76 227.86,-68.88 244.64,-73.51"/>
<polygon fill="#63b8ff" stroke="#63b8ff" points="243.34,-76.78 253.91,-76.07 245.2,-70.03 243.34,-76.78"/>
</a>
</g>
</g>
<!-- Node7&#45;&gt;Node5 -->
<g id="edge9_Node000007_Node000005" class="edge">
<title>Node7&#45;&gt;Node5</title>
<g id="a_edge9_Node000007_Node000005"><a xlink:title=" ">
<path fill="none" stroke="#63b8ff" d="M196.08,-48.92C212.59,-48.92 231.72,-48.92 248.62,-48.92"/>
<polygon fill="#63b8ff" stroke="#63b8ff" points="248.39,-52.42 258.39,-48.92 248.39,-45.42 248.39,-52.42"/>
</a>
</g>
</g>
<!-- Node7&#45;&gt;Node6 -->
<g id="edge10_Node000007_Node000006" class="edge">
<title>Node7&#45;&gt;Node6</title>
<g id="a_edge10_Node000007_Node000006"><a xlink:title=" ">
<path fill="none" stroke="#63b8ff" d="M193.51,-38.43C209.31,-34.07 227.86,-28.96 244.64,-24.33"/>
<polygon fill="#63b8ff" stroke="#63b8ff" points="245.2,-27.8 253.91,-21.77 243.34,-21.06 245.2,-27.8"/>
</a>
</g>
</g>
<!-- Node8&#45;&gt;Node3 -->
<g id="edge12_Node000008_Node000003" class="edge">
<title>Node8&#45;&gt;Node3</title>
<g id="a_edge12_Node000008_Node000003"><a xlink:title=" ">
<path fill="none" stroke="#63b8ff" d="M193.51,-97.4C209.31,-101.76 227.86,-106.88 244.64,-111.51"/>
<polygon fill="#63b8ff" stroke="#63b8ff" points="243.34,-114.78 253.91,-114.07 245.2,-108.03 243.34,-114.78"/>
</a>
</g>
</g>
<!-- Node8&#45;&gt;Node4 -->
<g id="edge13_Node000008_Node000004" class="edge">
<title>Node8&#45;&gt;Node4</title>
<g id="a_edge13_Node000008_Node000004"><a xlink:title=" ">
<path fill="none" stroke="#63b8ff" d="M201.75,-86.92C213.01,-86.92 225.17,-86.92 236.84,-86.92"/>
<polygon fill="#63b8ff" stroke="#63b8ff" points="236.77,-90.42 246.77,-86.92 236.77,-83.42 236.77,-90.42"/>
</a>
</g>
</g>
<!-- Node8&#45;&gt;Node5 -->
<g id="edge14_Node000008_Node000005" class="edge">
<title>Node8&#45;&gt;Node5</title>
<g id="a_edge14_Node000008_Node000005"><a xlink:title=" ">
<path fill="none" stroke="#63b8ff" d="M193.51,-76.43C210.57,-71.73 230.82,-66.14 248.61,-61.23"/>
<polygon fill="#63b8ff" stroke="#63b8ff" points="249.43,-64.64 258.13,-58.61 247.56,-57.89 249.43,-64.64"/>
</a>
</g>
</g>
<!-- Node8&#45;&gt;Node6 -->
<g id="edge15_Node000008_Node000006" class="edge">
<title>Node8&#45;&gt;Node6</title>
<g id="a_edge15_Node000008_Node000006"><a xlink:title=" ">
<path fill="none" stroke="#63b8ff" d="M185.65,-76.61C191.14,-74.15 196.66,-71.25 201.5,-67.92 220.67,-54.74 217.92,-42.48 237.5,-29.92 239.63,-28.55 241.88,-27.27 244.19,-26.07"/>
<polygon fill="#63b8ff" stroke="#63b8ff" points="245.59,-29.28 253.25,-21.96 242.69,-22.9 245.59,-29.28"/>
</a>
</g>
</g>
</g>
</svg>
</svg>

<style type='text/css'>
<![CDATA[
[data-mouse-over-selected='false'] { opacity: 0.7; }
[data-mouse-over-selected='true']  { opacity: 1.0; }
]]>
</style>
<script type="application/ecmascript"><![CDATA[
document.addEventListener('DOMContentLoaded', (event) => {
  highlightEdges();
  highlightAdjacentNodes();
});
]]></script>
</svg>
