<?xml version="1.0" encoding="UTF-8" standalone="no"?>
<!DOCTYPE svg PUBLIC "-//W3C//DTD SVG 1.1//EN"
 "http://www.w3.org/Graphics/SVG/1.1/DTD/svg11.dtd">
<!-- Generated by graphviz version 14.1.4 (20260321.0153)
 -->
<!-- Title: patient_latest_reading Pages: 1 -->
<svg width="762pt" height="332pt"
 viewBox="0.00 0.00 762.00 332.00" xmlns="http://www.w3.org/2000/svg" xmlns:xlink="http://www.w3.org/1999/xlink">
<g id="graph0" class="graph" transform="scale(1 1) rotate(0) translate(4 328)">
<title>patient_latest_reading</title>
<!-- Node1 -->
<g id="Node000001" class="node">
<title>Node1</title>
<g id="a_Node000001"><a xlink:title="Return a pointer to the most recent reading, or NULL if none exist.">
<polygon fill="#999999" stroke="#666666" points="753.75,-229 642.5,-229 642.5,-209 753.75,-209 753.75,-229"/>
<text xml:space="preserve" text-anchor="middle" x="698.12" y="-215.5" font-family="Helvetica,sans-Serif" font-size="10.00">patient_latest_reading</text>
</a>
</g>
</g>
<!-- Node2 -->
<g id="Node000002" class="node">
<title>Node2</title>
<g id="a_Node000002"><a xlink:href="gui__main_8c.html#a809c12bdd714ab44c54f45da4d3b2dc7" target="_top" xlink:title="Paint the 2×2 vital sign tile grid. @req SWR&#45;GUI&#45;003.">
<polygon fill="white" stroke="#666666" points="580.25,-210 520,-210 520,-190 580.25,-190 580.25,-210"/>
<text xml:space="preserve" text-anchor="middle" x="550.12" y="-196.5" font-family="Helvetica,sans-Serif" font-size="10.00">paint_tiles</text>
</a>
</g>
</g>
<!-- Node1&#45;&gt;Node2 -->
<g id="edge1_Node000001_Node000002" class="edge">
<title>Node1&#45;&gt;Node2</title>
<g id="a_edge1_Node000001_Node000002"><a xlink:title=" ">
<path fill="none" stroke="#63b8ff" d="M631.09,-210.41C613.32,-208.09 594.99,-205.71 580.38,-203.81"/>
<polygon fill="#63b8ff" stroke="#63b8ff" points="630.48,-213.86 640.84,-211.68 631.38,-206.91 630.48,-213.86"/>
</a>
</g>
</g>
<!-- Node5 -->
<g id="Node000005" class="node">
<title>Node5</title>
<g id="a_Node000005"><a xlink:href="patient_8c.html#a7efb2602c9a2566fee89ff6d6af42bcf" target="_top" xlink:title="Return the overall status from the latest reading.">
<polygon fill="white" stroke="#666666" points="606.5,-248 493.75,-248 493.75,-228 606.5,-228 606.5,-248"/>
<text xml:space="preserve" text-anchor="middle" x="550.12" y="-234.5" font-family="Helvetica,sans-Serif" font-size="10.00">patient_current_status</text>
</a>
</g>
</g>
<!-- Node1&#45;&gt;Node5 -->
<g id="edge4_Node000001_Node000005" class="edge">
<title>Node1&#45;&gt;Node5</title>
<g id="a_edge4_Node000001_Node000005"><a xlink:title=" ">
<path fill="none" stroke="#63b8ff" d="M630.99,-227.61C622.87,-228.66 614.64,-229.73 606.7,-230.77"/>
<polygon fill="#63b8ff" stroke="#63b8ff" points="631.38,-231.09 640.84,-226.32 630.48,-224.14 631.38,-231.09"/>
</a>
</g>
</g>
<!-- Node7 -->
<g id="Node000007" class="node">
<title>Node7</title>
<g id="a_Node000007"><a xlink:href="patient_8c.html#a19d76f7281d5f5ad5408c1ff4dc2ee11" target="_top" xlink:title="Print a formatted patient summary including vitals and active alerts.">
<polygon fill="white" stroke="#666666" points="457.75,-286 342.75,-286 342.75,-266 457.75,-266 457.75,-286"/>
<text xml:space="preserve" text-anchor="middle" x="400.25" y="-272.5" font-family="Helvetica,sans-Serif" font-size="10.00">patient_print_summary</text>
</a>
</g>
</g>
<!-- Node1&#45;&gt;Node7 -->
<g id="edge12_Node000001_Node000007" class="edge">
<title>Node1&#45;&gt;Node7</title>
<g id="a_edge12_Node000001_Node000007"><a xlink:title=" ">
<path fill="none" stroke="#63b8ff" d="M667.17,-234.28C649.88,-242.4 627.47,-251.76 606.5,-257 557.37,-269.27 499.85,-273.78 458.22,-275.36"/>
<polygon fill="#63b8ff" stroke="#63b8ff" points="668.37,-237.59 675.85,-230.09 665.33,-231.29 668.37,-237.59"/>
</a>
</g>
</g>
<!-- Node11 -->
<g id="Node000011" class="node">
<title>Node11</title>
<g id="a_Node000011"><a xlink:href="gui__main_8c.html#a8faad4cd27c161432ac3388959b1a766" target="_top" xlink:title="Refresh all dynamic dashboard content after any data change. @req SWR&#45;GUI&#45;003 @req SWR&#45;GUI&#45;004.">
<polygon fill="white" stroke="#666666" points="597.88,-115 502.38,-115 502.38,-95 597.88,-95 597.88,-115"/>
<text xml:space="preserve" text-anchor="middle" x="550.12" y="-101.5" font-family="Helvetica,sans-Serif" font-size="10.00">update_dashboard</text>
</a>
</g>
</g>
<!-- Node1&#45;&gt;Node11 -->
<g id="edge13_Node000001_Node000011" class="edge">
<title>Node1&#45;&gt;Node11</title>
<g id="a_edge13_Node000001_Node000011"><a xlink:title=" ">
<path fill="none" stroke="#63b8ff" d="M675.19,-201.87C644.39,-177.82 589.29,-134.8 564.2,-115.21"/>
<polygon fill="#63b8ff" stroke="#63b8ff" points="672.68,-204.35 682.72,-207.75 676.99,-198.84 672.68,-204.35"/>
</a>
</g>
</g>
<!-- Node3 -->
<g id="Node000003" class="node">
<title>Node3</title>
<g id="a_Node000003"><a xlink:href="gui__main_8c.html#a50c9496063704973573429586a90b27d" target="_top" xlink:title=" ">
<polygon fill="white" stroke="#666666" points="151.25,-134 90.25,-134 90.25,-114 151.25,-114 151.25,-134"/>
<text xml:space="preserve" text-anchor="middle" x="120.75" y="-120.5" font-family="Helvetica,sans-Serif" font-size="10.00">dash_proc</text>
</a>
</g>
</g>
<!-- Node2&#45;&gt;Node3 -->
<g id="edge2_Node000002_Node000003" class="edge">
<title>Node2&#45;&gt;Node3</title>
<g id="a_edge2_Node000002_Node000003"><a xlink:title=" ">
<path fill="none" stroke="#63b8ff" d="M508.2,-200.91C439.95,-201.26 299.34,-197 187.25,-161 168.35,-154.93 148.8,-143.02 136.04,-134.35"/>
<polygon fill="#63b8ff" stroke="#63b8ff" points="508.2,-204.41 518.17,-200.81 508.14,-197.41 508.2,-204.41"/>
</a>
</g>
</g>
<!-- Node4 -->
<g id="Node000004" class="node">
<title>Node4</title>
<g id="a_Node000004"><a xlink:href="gui__main_8c.html#aab234127c99873cb463e482155cb679f" target="_top" xlink:title=" ">
<polygon fill="white" stroke="#666666" points="54.25,-134 0,-134 0,-114 54.25,-114 54.25,-134"/>
<text xml:space="preserve" text-anchor="middle" x="27.12" y="-120.5" font-family="Helvetica,sans-Serif" font-size="10.00">WinMain</text>
</a>
</g>
</g>
<!-- Node3&#45;&gt;Node4 -->
<g id="edge3_Node000003_Node000004" class="edge">
<title>Node3&#45;&gt;Node4</title>
<g id="a_edge3_Node000003_Node000004"><a xlink:title=" ">
<path fill="none" stroke="#63b8ff" d="M78.7,-124C70.53,-124 62.16,-124 54.63,-124"/>
<polygon fill="#63b8ff" stroke="#63b8ff" points="78.49,-127.5 88.49,-124 78.49,-120.5 78.49,-127.5"/>
</a>
</g>
</g>
<!-- Node6 -->
<g id="Node000006" class="node">
<title>Node6</title>
<g id="a_Node000006"><a xlink:href="gui__main_8c.html#a71c5868a8a8bcd102dfebf5a8cd8e55a" target="_top" xlink:title="Paint the aggregate status banner. @req SWR&#45;GUI&#45;003.">
<polygon fill="white" stroke="#666666" points="452.12,-248 348.38,-248 348.38,-228 452.12,-228 452.12,-248"/>
<text xml:space="preserve" text-anchor="middle" x="400.25" y="-234.5" font-family="Helvetica,sans-Serif" font-size="10.00">paint_status_banner</text>
</a>
</g>
</g>
<!-- Node5&#45;&gt;Node6 -->
<g id="edge5_Node000005_Node000006" class="edge">
<title>Node5&#45;&gt;Node6</title>
<g id="a_edge5_Node000005_Node000006"><a xlink:title=" ">
<path fill="none" stroke="#63b8ff" d="M482.32,-238C472.19,-238 461.88,-238 452.16,-238"/>
<polygon fill="#63b8ff" stroke="#63b8ff" points="482.13,-241.5 492.13,-238 482.13,-234.5 482.13,-241.5"/>
</a>
</g>
</g>
<!-- Node5&#45;&gt;Node7 -->
<g id="edge7_Node000005_Node000007" class="edge">
<title>Node5&#45;&gt;Node7</title>
<g id="a_edge7_Node000005_Node000007"><a xlink:title=" ">
<path fill="none" stroke="#63b8ff" d="M497.32,-251.31C479.16,-255.98 459.03,-261.15 441.92,-265.55"/>
<polygon fill="#63b8ff" stroke="#63b8ff" points="498.05,-254.74 506.86,-248.86 496.3,-247.96 498.05,-254.74"/>
</a>
</g>
</g>
<!-- Node6&#45;&gt;Node3 -->
<g id="edge6_Node000006_Node000003" class="edge">
<title>Node6&#45;&gt;Node3</title>
<g id="a_edge6_Node000006_Node000003"><a xlink:title=" ">
<path fill="none" stroke="#63b8ff" d="M336.86,-243.72C292.29,-244.9 232.45,-240.32 187.25,-214 155.02,-195.24 134.16,-153.61 125.84,-134.26"/>
<polygon fill="#63b8ff" stroke="#63b8ff" points="336.77,-247.23 346.63,-243.35 336.5,-240.24 336.77,-247.23"/>
</a>
</g>
</g>
<!-- Node8 -->
<g id="Node000008" class="node">
<title>Node8</title>
<g id="a_Node000008"><a xlink:href="main_8c.html#a1a904050ef641d46ba74b91e8ff5b7f9" target="_top" xlink:title="Run the monitoring session for Patient 1 (deterioration scenario).">
<polygon fill="white" stroke="#666666" points="288.38,-324 205.62,-324 205.62,-304 288.38,-304 288.38,-324"/>
<text xml:space="preserve" text-anchor="middle" x="247" y="-310.5" font-family="Helvetica,sans-Serif" font-size="10.00">monitor_patient</text>
</a>
</g>
</g>
<!-- Node7&#45;&gt;Node8 -->
<g id="edge8_Node000007_Node000008" class="edge">
<title>Node7&#45;&gt;Node8</title>
<g id="a_edge8_Node000007_Node000008"><a xlink:title=" ">
<path fill="none" stroke="#63b8ff" d="M346.38,-289.28C327.5,-294.03 306.52,-299.3 288.81,-303.75"/>
<polygon fill="#63b8ff" stroke="#63b8ff" points="347.21,-292.68 356.05,-286.85 345.5,-285.9 347.21,-292.68"/>
</a>
</g>
</g>
<!-- Node10 -->
<g id="Node000010" class="node">
<title>Node10</title>
<g id="a_Node000010"><a xlink:href="main_8c.html#a418db4bf280a08fda4493a816c841643" target="_top" xlink:title="Run the monitoring session for Patient 2 (bradycardia scenario).">
<polygon fill="white" stroke="#666666" points="306.75,-286 187.25,-286 187.25,-266 306.75,-266 306.75,-286"/>
<text xml:space="preserve" text-anchor="middle" x="247" y="-272.5" font-family="Helvetica,sans-Serif" font-size="10.00">monitor_second_patient</text>
</a>
</g>
</g>
<!-- Node7&#45;&gt;Node10 -->
<g id="edge10_Node000007_Node000010" class="edge">
<title>Node7&#45;&gt;Node10</title>
<g id="a_edge10_Node000007_Node000010"><a xlink:title=" ">
<path fill="none" stroke="#63b8ff" d="M331.23,-276C323.17,-276 315,-276 307.09,-276"/>
<polygon fill="#63b8ff" stroke="#63b8ff" points="330.99,-279.5 340.99,-276 330.99,-272.5 330.99,-279.5"/>
</a>
</g>
</g>
<!-- Node9 -->
<g id="Node000009" class="node">
<title>Node9</title>
<g id="a_Node000009"><a xlink:href="main_8c.html#a840291bc02cba5474a4cb46a9b9566fe" target="_top" xlink:title="Application entry point.">
<polygon fill="white" stroke="#666666" points="139.25,-305 102.25,-305 102.25,-285 139.25,-285 139.25,-305"/>
<text xml:space="preserve" text-anchor="middle" x="120.75" y="-291.5" font-family="Helvetica,sans-Serif" font-size="10.00">main</text>
</a>
</g>
</g>
<!-- Node8&#45;&gt;Node9 -->
<g id="edge9_Node000008_Node000009" class="edge">
<title>Node8&#45;&gt;Node9</title>
<g id="a_edge9_Node000008_Node000009"><a xlink:title=" ">
<path fill="none" stroke="#63b8ff" d="M194.1,-306.06C174.68,-303.09 153.89,-299.92 139.61,-297.73"/>
<polygon fill="#63b8ff" stroke="#63b8ff" points="193.41,-309.5 203.82,-307.55 194.46,-302.58 193.41,-309.5"/>
</a>
</g>
</g>
<!-- Node10&#45;&gt;Node9 -->
<g id="edge11_Node000010_Node000009" class="edge">
<title>Node10&#45;&gt;Node9</title>
<g id="a_edge11_Node000010_Node000009"><a xlink:title=" ">
<path fill="none" stroke="#63b8ff" d="M175.56,-286.77C162.27,-288.8 149.5,-290.76 139.74,-292.25"/>
<polygon fill="#63b8ff" stroke="#63b8ff" points="175.93,-290.26 185.29,-285.28 174.88,-283.34 175.93,-290.26"/>
</a>
</g>
</g>
<!-- Node11&#45;&gt;Node3 -->
<g id="edge14_Node000011_Node000003" class="edge">
<title>Node11&#45;&gt;Node3</title>
<g id="a_edge14_Node000011_Node000003"><a xlink:title=" ">
<path fill="none" stroke="#63b8ff" d="M503.92,-118.45C489.3,-122.37 472.94,-126.32 457.75,-129 339.2,-149.92 306.44,-159.94 187.25,-143 175.18,-141.28 162.21,-137.87 151.03,-134.41"/>
<polygon fill="#63b8ff" stroke="#63b8ff" points="504.54,-121.91 513.25,-115.87 502.68,-115.16 504.54,-121.91"/>
</a>
</g>
</g>
<!-- Node12 -->
<g id="Node000012" class="node">
<title>Node12</title>
<g id="a_Node000012"><a xlink:href="gui__main_8c.html#a9d7273263f3a31bf701590beb4c5b1d1" target="_top" xlink:title="Record a new vital signs reading from the vitals entry fields. @req SWR&#45;GUI&#45;004.">
<polygon fill="white" stroke="#666666" points="289.12,-134 204.88,-134 204.88,-114 289.12,-114 289.12,-134"/>
<text xml:space="preserve" text-anchor="middle" x="247" y="-120.5" font-family="Helvetica,sans-Serif" font-size="10.00">do_add_reading</text>
</a>
</g>
</g>
<!-- Node11&#45;&gt;Node12 -->
<g id="edge15_Node000011_Node000012" class="edge">
<title>Node11&#45;&gt;Node12</title>
<g id="a_edge15_Node000011_Node000012"><a xlink:title=" ">
<path fill="none" stroke="#63b8ff" d="M490.67,-108.69C431.52,-112.42 341.56,-118.1 289.4,-121.39"/>
<polygon fill="#63b8ff" stroke="#63b8ff" points="490.8,-112.19 500.56,-108.06 490.36,-105.2 490.8,-112.19"/>
</a>
</g>
</g>
<!-- Node13 -->
<g id="Node000013" class="node">
<title>Node13</title>
<g id="a_Node000013"><a xlink:href="gui__main_8c.html#a6bed6b36812029c7bc2eb263a12e5c98" target="_top" xlink:title="Admit a patient from the identity fields. @req SWR&#45;GUI&#45;004.">
<polygon fill="white" stroke="#666666" points="428.12,-96 372.38,-96 372.38,-76 428.12,-76 428.12,-96"/>
<text xml:space="preserve" text-anchor="middle" x="400.25" y="-82.5" font-family="Helvetica,sans-Serif" font-size="10.00">do_admit</text>
</a>
</g>
</g>
<!-- Node11&#45;&gt;Node13 -->
<g id="edge17_Node000011_Node000013" class="edge">
<title>Node11&#45;&gt;Node13</title>
<g id="a_edge17_Node000011_Node000013"><a xlink:title=" ">
<path fill="none" stroke="#63b8ff" d="M490.54,-97.47C469,-94.7 445.64,-91.7 428.22,-89.47"/>
<polygon fill="#63b8ff" stroke="#63b8ff" points="490.06,-100.94 500.43,-98.74 490.96,-94 490.06,-100.94"/>
</a>
</g>
</g>
<!-- Node14 -->
<g id="Node000014" class="node">
<title>Node14</title>
<g id="a_Node000014"><a xlink:href="gui__main_8c.html#a9106ea80981b1db52b607a5e58f0ecf3" target="_top" xlink:title=" ">
<polygon fill="white" stroke="#666666" points="281.25,-58 212.75,-58 212.75,-38 281.25,-38 281.25,-58"/>
<text xml:space="preserve" text-anchor="middle" x="247" y="-44.5" font-family="Helvetica,sans-Serif" font-size="10.00">do_scenario</text>
</a>
</g>
</g>
<!-- Node11&#45;&gt;Node14 -->
<g id="edge24_Node000011_Node000014" class="edge">
<title>Node11&#45;&gt;Node14</title>
<g id="a_edge24_Node000011_Node000014"><a xlink:title=" ">
<path fill="none" stroke="#63b8ff" d="M518.92,-89.71C501.48,-81.58 478.88,-72.22 457.75,-67 396.87,-51.96 323.43,-48.54 281.57,-47.93"/>
<polygon fill="#63b8ff" stroke="#63b8ff" points="517.15,-92.74 527.68,-93.9 520.17,-86.43 517.15,-92.74"/>
</a>
</g>
</g>
<!-- Node15 -->
<g id="Node000015" class="node">
<title>Node15</title>
<g id="a_Node000015"><a xlink:href="gui__main_8c.html#a11329148e25059d43a9d848bf4f90d4b" target="_top" xlink:title=" ">
<polygon fill="white" stroke="#666666" points="426.62,-20 373.88,-20 373.88,0 426.62,0 426.62,-20"/>
<text xml:space="preserve" text-anchor="middle" x="400.25" y="-6.5" font-family="Helvetica,sans-Serif" font-size="10.00">do_clear</text>
</a>
</g>
</g>
<!-- Node11&#45;&gt;Node15 -->
<g id="edge22_Node000011_Node000015" class="edge">
<title>Node11&#45;&gt;Node15</title>
<g id="a_edge22_Node000011_Node000015"><a xlink:title=" ">
<path fill="none" stroke="#63b8ff" d="M529.32,-87.16C511.51,-71.72 484.15,-49.51 457.75,-34 448.1,-28.33 436.86,-23.28 426.96,-19.28"/>
<polygon fill="#63b8ff" stroke="#63b8ff" points="526.76,-89.56 536.58,-93.54 531.38,-84.3 526.76,-89.56"/>
</a>
</g>
</g>
<!-- Node12&#45;&gt;Node3 -->
<g id="edge16_Node000012_Node000003" class="edge">
<title>Node12&#45;&gt;Node3</title>
<g id="a_edge16_Node000012_Node000003"><a xlink:title=" ">
<path fill="none" stroke="#63b8ff" d="M193.37,-124C179.08,-124 164.1,-124 151.55,-124"/>
<polygon fill="#63b8ff" stroke="#63b8ff" points="193.11,-127.5 203.11,-124 193.11,-120.5 193.11,-127.5"/>
</a>
</g>
</g>
<!-- Node13&#45;&gt;Node3 -->
<g id="edge18_Node000013_Node000003" class="edge">
<title>Node13&#45;&gt;Node3</title>
<g id="a_edge18_Node000013_Node000003"><a xlink:title=" ">
<path fill="none" stroke="#63b8ff" d="M360.64,-87.22C317.91,-89.1 247.17,-93.73 187.25,-105 175.38,-107.23 162.57,-110.7 151.46,-114.07"/>
<polygon fill="#63b8ff" stroke="#63b8ff" points="360.55,-90.73 370.4,-86.83 360.27,-83.74 360.55,-90.73"/>
</a>
</g>
</g>
<!-- Node13&#45;&gt;Node12 -->
<g id="edge19_Node000013_Node000012" class="edge">
<title>Node13&#45;&gt;Node12</title>
<g id="a_edge19_Node000013_Node000012"><a xlink:title=" ">
<path fill="none" stroke="#63b8ff" d="M361.32,-95.53C339.41,-101.03 311.82,-107.97 289.35,-113.61"/>
<polygon fill="#63b8ff" stroke="#63b8ff" points="361.9,-98.99 370.74,-93.16 360.19,-92.2 361.9,-98.99"/>
</a>
</g>
</g>
<!-- Node13&#45;&gt;Node14 -->
<g id="edge20_Node000013_Node000014" class="edge">
<title>Node13&#45;&gt;Node14</title>
<g id="a_edge20_Node000013_Node000014"><a xlink:title=" ">
<path fill="none" stroke="#63b8ff" d="M361.18,-76.43C336.72,-70.29 305.24,-62.38 281.69,-56.46"/>
<polygon fill="#63b8ff" stroke="#63b8ff" points="360.19,-79.8 370.74,-78.84 361.9,-73.01 360.19,-79.8"/>
</a>
</g>
</g>
<!-- Node14&#45;&gt;Node3 -->
<g id="edge21_Node000014_Node000003" class="edge">
<title>Node14&#45;&gt;Node3</title>
<g id="a_edge21_Node000014_Node000003"><a xlink:title=" ">
<path fill="none" stroke="#63b8ff" d="M205.52,-62.76C199.26,-65.55 192.98,-68.65 187.25,-72 166.45,-84.17 145.08,-102.42 132.63,-113.75"/>
<polygon fill="#63b8ff" stroke="#63b8ff" points="206.68,-66.07 214.54,-58.97 203.96,-59.62 206.68,-66.07"/>
</a>
</g>
</g>
<!-- Node15&#45;&gt;Node3 -->
<g id="edge23_Node000015_Node000003" class="edge">
<title>Node15&#45;&gt;Node3</title>
<g id="a_edge23_Node000015_Node000003"><a xlink:title=" ">
<path fill="none" stroke="#63b8ff" d="M362.5,-4.34C317.85,0.63 241.74,2.8 187.25,-29 153.51,-48.69 133.17,-93.5 125.39,-113.74"/>
<polygon fill="#63b8ff" stroke="#63b8ff" points="361.83,-7.78 372.18,-5.53 362.68,-0.83 361.83,-7.78"/>
</a>
</g>
</g>
</g>
</svg>
