<?xml version="1.0" encoding="UTF-8" standalone="no"?>
<!DOCTYPE svg PUBLIC "-//W3C//DTD SVG 1.1//EN"
 "http://www.w3.org/Graphics/SVG/1.1/DTD/svg11.dtd">
<!-- Generated by graphviz version 14.1.4 (20260321.0153)
 -->
<!-- Title: src/patient.c Pages: 1 -->
<svg width="191pt" height="196pt"
 viewBox="0.00 0.00 191.00 196.00" xmlns="http://www.w3.org/2000/svg" xmlns:xlink="http://www.w3.org/1999/xlink">
<g id="graph0" class="graph" transform="scale(1 1) rotate(0) translate(4 192)">
<title>src/patient.c</title>
<!-- Node1 -->
<g id="Node000001" class="node">
<title>Node1</title>
<g id="a_Node000001"><a xlink:title="Implementation of patient record management functions.">
<polygon fill="#999999" stroke="#666666" points="128.75,-188 58.75,-188 58.75,-168 128.75,-168 128.75,-188"/>
<text xml:space="preserve" text-anchor="middle" x="93.75" y="-174.5" font-family="Helvetica,sans-Serif" font-size="10.00">src/patient.c</text>
</a>
</g>
</g>
<!-- Node2 -->
<g id="Node000002" class="node">
<title>Node2</title>
<g id="a_Node000002"><a xlink:href="patient_8h.html" target="_top" xlink:title="Patient record management — demographic data and vital sign history.">
<polygon fill="white" stroke="#666666" points="53.5,-132 0,-132 0,-112 53.5,-112 53.5,-132"/>
<text xml:space="preserve" text-anchor="middle" x="26.75" y="-118.5" font-family="Helvetica,sans-Serif" font-size="10.00">patient.h</text>
</a>
</g>
</g>
<!-- Node1&#45;&gt;Node2 -->
<g id="edge1_Node000001_Node000002" class="edge">
<title>Node1&#45;&gt;Node2</title>
<g id="a_edge1_Node000001_Node000002"><a xlink:title=" ">
<path fill="none" stroke="#63b8ff" d="M82.08,-167.59C72.47,-159.85 58.62,-148.69 47.18,-139.47"/>
<polygon fill="#63b8ff" stroke="#63b8ff" points="49.45,-136.8 39.47,-133.25 45.05,-142.25 49.45,-136.8"/>
</a>
</g>
</g>
<!-- Node5 -->
<g id="Node000005" class="node">
<title>Node5</title>
<g id="a_Node000005"><a xlink:title=" ">
<polygon fill="#e0e0e0" stroke="#999999" points="116.38,-132 71.12,-132 71.12,-112 116.38,-112 116.38,-132"/>
<text xml:space="preserve" text-anchor="middle" x="93.75" y="-118.5" font-family="Helvetica,sans-Serif" font-size="10.00">stdio.h</text>
</a>
</g>
</g>
<!-- Node1&#45;&gt;Node5 -->
<g id="edge5_Node000001_Node000005" class="edge">
<title>Node1&#45;&gt;Node5</title>
<g id="a_edge5_Node000001_Node000005"><a xlink:title=" ">
<path fill="none" stroke="#63b8ff" d="M93.75,-167.59C93.75,-161.01 93.75,-151.96 93.75,-143.73"/>
<polygon fill="#63b8ff" stroke="#63b8ff" points="97.25,-143.81 93.75,-133.81 90.25,-143.81 97.25,-143.81"/>
</a>
</g>
</g>
<!-- Node6 -->
<g id="Node000006" class="node">
<title>Node6</title>
<g id="a_Node000006"><a xlink:title=" ">
<polygon fill="#e0e0e0" stroke="#999999" points="182.88,-132 134.62,-132 134.62,-112 182.88,-112 182.88,-132"/>
<text xml:space="preserve" text-anchor="middle" x="158.75" y="-118.5" font-family="Helvetica,sans-Serif" font-size="10.00">string.h</text>
</a>
</g>
</g>
<!-- Node1&#45;&gt;Node6 -->
<g id="edge6_Node000001_Node000006" class="edge">
<title>Node1&#45;&gt;Node6</title>
<g id="a_edge6_Node000001_Node000006"><a xlink:title=" ">
<path fill="none" stroke="#63b8ff" d="M105.07,-167.59C114.39,-159.85 127.83,-148.69 138.93,-139.47"/>
<polygon fill="#63b8ff" stroke="#63b8ff" points="140.94,-142.35 146.39,-133.27 136.46,-136.96 140.94,-142.35"/>
</a>
</g>
</g>
<!-- Node3 -->
<g id="Node000003" class="node">
<title>Node3</title>
<g id="a_Node000003"><a xlink:href="vitals_8h.html" target="_top" xlink:title="Vital signs data types, thresholds, and validation functions.">
<polygon fill="white" stroke="#666666" points="50.5,-20 3,-20 3,0 50.5,0 50.5,-20"/>
<text xml:space="preserve" text-anchor="middle" x="26.75" y="-6.5" font-family="Helvetica,sans-Serif" font-size="10.00">vitals.h</text>
</a>
</g>
</g>
<!-- Node2&#45;&gt;Node3 -->
<g id="edge2_Node000002_Node000003" class="edge">
<title>Node2&#45;&gt;Node3</title>
<g id="a_edge2_Node000002_Node000003"><a xlink:title=" ">
<path fill="none" stroke="#63b8ff" d="M24.88,-111.74C23.15,-102.68 20.71,-88.46 19.75,-76 18.6,-61.06 20.49,-44.25 22.6,-31.46"/>
<polygon fill="#63b8ff" stroke="#63b8ff" points="26.02,-32.2 24.4,-21.73 19.14,-30.93 26.02,-32.2"/>
</a>
</g>
</g>
<!-- Node4 -->
<g id="Node000004" class="node">
<title>Node4</title>
<g id="a_Node000004"><a xlink:href="alerts_8h.html" target="_top" xlink:title="Alert record generation from a set of vital sign measurements.">
<polygon fill="white" stroke="#666666" points="76.88,-76 28.62,-76 28.62,-56 76.88,-56 76.88,-76"/>
<text xml:space="preserve" text-anchor="middle" x="52.75" y="-62.5" font-family="Helvetica,sans-Serif" font-size="10.00">alerts.h</text>
</a>
</g>
</g>
<!-- Node2&#45;&gt;Node4 -->
<g id="edge3_Node000002_Node000004" class="edge">
<title>Node2&#45;&gt;Node4</title>
<g id="a_edge3_Node000002_Node000004"><a xlink:title=" ">
<path fill="none" stroke="#63b8ff" d="M31.28,-111.59C34.6,-104.7 39.22,-95.1 43.33,-86.57"/>
<polygon fill="#63b8ff" stroke="#63b8ff" points="46.43,-88.19 47.62,-77.66 40.12,-85.15 46.43,-88.19"/>
</a>
</g>
</g>
<!-- Node4&#45;&gt;Node3 -->
<g id="edge4_Node000004_Node000003" class="edge">
<title>Node4&#45;&gt;Node3</title>
<g id="a_edge4_Node000004_Node000003"><a xlink:title=" ">
<path fill="none" stroke="#63b8ff" d="M48.22,-55.59C44.9,-48.7 40.28,-39.1 36.17,-30.57"/>
<polygon fill="#63b8ff" stroke="#63b8ff" points="39.38,-29.15 31.88,-21.66 33.07,-32.19 39.38,-29.15"/>
</a>
</g>
</g>
</g>
</svg>
