<?xml version="1.0" encoding="UTF-8" standalone="no"?>
<!DOCTYPE svg PUBLIC "-//W3C//DTD SVG 1.1//EN"
 "http://www.w3.org/Graphics/SVG/1.1/DTD/svg11.dtd">
<!-- Generated by graphviz version 14.1.4 (20260321.0153)
 -->
<!-- Title: patient_print_summary Pages: 1 -->
<svg width="569pt" height="370pt"
 viewBox="0.00 0.00 569.00 370.00" xmlns="http://www.w3.org/2000/svg" xmlns:xlink="http://www.w3.org/1999/xlink">
<g id="graph0" class="graph" transform="scale(1 1) rotate(0) translate(4 365.64)">
<title>patient_print_summary</title>
<!-- Node1 -->
<g id="Node000001" class="node">
<title>Node1</title>
<g id="a_Node000001"><a xlink:title="Print a formatted patient summary to stdout.">
<polygon fill="#999999" stroke="#666666" points="115,-190.64 0,-190.64 0,-170.64 115,-170.64 115,-190.64"/>
<text xml:space="preserve" text-anchor="middle" x="57.5" y="-177.14" font-family="Helvetica,sans-Serif" font-size="10.00">patient_print_summary</text>
</a>
</g>
</g>
<!-- Node2 -->
<g id="Node000002" class="node">
<title>Node2</title>
<g id="a_Node000002"><a xlink:href="vitals_8c.html#a20a209843ea1eeff8484a7998d492615" target="_top" xlink:title="Convert an AlertLevel enum to a display string.">
<polygon fill="white" stroke="#666666" points="245.75,-361.64 169,-361.64 169,-341.64 245.75,-341.64 245.75,-361.64"/>
<text xml:space="preserve" text-anchor="middle" x="207.38" y="-348.14" font-family="Helvetica,sans-Serif" font-size="10.00">alert_level_str</text>
</a>
</g>
</g>
<!-- Node1&#45;&gt;Node2 -->
<g id="edge1_Node000001_Node000002" class="edge">
<title>Node1&#45;&gt;Node2</title>
<g id="a_edge1_Node000001_Node000002"><a xlink:title=" ">
<path fill="none" stroke="#63b8ff" d="M61.89,-190.81C71.45,-217.92 101.17,-292.57 151,-332.64 153.37,-334.55 155.94,-336.27 158.63,-337.82"/>
<polygon fill="#63b8ff" stroke="#63b8ff" points="156.89,-340.86 167.42,-342.07 159.94,-334.56 156.89,-340.86"/>
</a>
</g>
</g>
<!-- Node3 -->
<g id="Node000003" class="node">
<title>Node3</title>
<g id="a_Node000003"><a xlink:href="vitals_8c.html#a7a7981a0a087b3b98763ed48bc789888" target="_top" xlink:title="Map a BMI value to a WHO weight&#45;status category string.">
<polygon fill="white" stroke="#666666" points="244.62,-323.64 170.12,-323.64 170.12,-303.64 244.62,-303.64 244.62,-323.64"/>
<text xml:space="preserve" text-anchor="middle" x="207.38" y="-310.14" font-family="Helvetica,sans-Serif" font-size="10.00">bmi_category</text>
</a>
</g>
</g>
<!-- Node1&#45;&gt;Node3 -->
<g id="edge2_Node000001_Node000003" class="edge">
<title>Node1&#45;&gt;Node3</title>
<g id="a_edge2_Node000001_Node000003"><a xlink:title=" ">
<path fill="none" stroke="#63b8ff" d="M64.22,-191.09C76.92,-213.35 109.63,-265.74 151,-294.64 153.66,-296.5 156.51,-298.19 159.47,-299.72"/>
<polygon fill="#63b8ff" stroke="#63b8ff" points="157.87,-302.84 168.43,-303.74 160.74,-296.45 157.87,-302.84"/>
</a>
</g>
</g>
<!-- Node4 -->
<g id="Node000004" class="node">
<title>Node4</title>
<g id="a_Node000004"><a xlink:href="vitals_8c.html#a10dc695991eacf8ffea85c92b9331aec" target="_top" xlink:title="Calculate BMI using the standard WHO formula.">
<polygon fill="white" stroke="#666666" points="245.38,-285.64 169.38,-285.64 169.38,-265.64 245.38,-265.64 245.38,-285.64"/>
<text xml:space="preserve" text-anchor="middle" x="207.38" y="-272.14" font-family="Helvetica,sans-Serif" font-size="10.00">calculate_bmi</text>
</a>
</g>
</g>
<!-- Node1&#45;&gt;Node4 -->
<g id="edge3_Node000001_Node000004" class="edge">
<title>Node1&#45;&gt;Node4</title>
<g id="a_edge3_Node000001_Node000004"><a xlink:title=" ">
<path fill="none" stroke="#63b8ff" d="M70.09,-191.06C86.99,-205.87 119.77,-233.27 151,-251.64 156.42,-254.83 162.34,-257.84 168.23,-260.58"/>
<polygon fill="#63b8ff" stroke="#63b8ff" points="166.74,-263.75 177.3,-264.6 169.57,-257.35 166.74,-263.75"/>
</a>
</g>
</g>
<!-- Node5 -->
<g id="Node000005" class="node">
<title>Node5</title>
<g id="a_Node000005"><a xlink:href="vitals_8c.html#a3c853e30a899042babf9fdd2bd2cbfc1" target="_top" xlink:title="Classify a blood pressure reading.">
<polygon fill="white" stroke="#666666" points="560.5,-209.64 447,-209.64 447,-189.64 560.5,-189.64 560.5,-209.64"/>
<text xml:space="preserve" text-anchor="middle" x="503.75" y="-196.14" font-family="Helvetica,sans-Serif" font-size="10.00">check_blood_pressure</text>
</a>
</g>
</g>
<!-- Node1&#45;&gt;Node5 -->
<g id="edge4_Node000001_Node000005" class="edge">
<title>Node1&#45;&gt;Node5</title>
<g id="a_edge4_Node000001_Node000005"><a xlink:title=" ">
<path fill="none" stroke="#63b8ff" d="M80.72,-191.01C99.1,-198.98 126.13,-209.34 151,-213.64 248.89,-230.58 364.29,-220.36 435.49,-210.65"/>
<polygon fill="#63b8ff" stroke="#63b8ff" points="435.62,-214.16 445.03,-209.31 434.64,-207.23 435.62,-214.16"/>
</a>
</g>
</g>
<!-- Node6 -->
<g id="Node000006" class="node">
<title>Node6</title>
<g id="a_Node000006"><a xlink:href="vitals_8c.html#a7604eb6b23010f139f6f960b184a3b28" target="_top" xlink:title="Classify a heart rate reading.">
<polygon fill="white" stroke="#666666" points="549.25,-171.64 458.25,-171.64 458.25,-151.64 549.25,-151.64 549.25,-171.64"/>
<text xml:space="preserve" text-anchor="middle" x="503.75" y="-158.14" font-family="Helvetica,sans-Serif" font-size="10.00">check_heart_rate</text>
</a>
</g>
</g>
<!-- Node1&#45;&gt;Node6 -->
<g id="edge5_Node000001_Node000006" class="edge">
<title>Node1&#45;&gt;Node6</title>
<g id="a_edge5_Node000001_Node000006"><a xlink:title=" ">
<path fill="none" stroke="#63b8ff" d="M115.22,-184.77C185.08,-188.91 307.24,-193.05 411,-180.64 423.37,-179.16 436.54,-176.87 448.94,-174.38"/>
<polygon fill="#63b8ff" stroke="#63b8ff" points="449.5,-177.84 458.57,-172.37 448.07,-170.98 449.5,-177.84"/>
</a>
</g>
</g>
<!-- Node7 -->
<g id="Node000007" class="node">
<title>Node7</title>
<g id="a_Node000007"><a xlink:href="vitals_8c.html#ac0bc076e63894a96df90f2eab73c88fe" target="_top" xlink:title="Classify an SpO2 reading.">
<polygon fill="white" stroke="#666666" points="538,-133.64 469.5,-133.64 469.5,-113.64 538,-113.64 538,-133.64"/>
<text xml:space="preserve" text-anchor="middle" x="503.75" y="-120.14" font-family="Helvetica,sans-Serif" font-size="10.00">check_spo2</text>
</a>
</g>
</g>
<!-- Node1&#45;&gt;Node7 -->
<g id="edge6_Node000001_Node000007" class="edge">
<title>Node1&#45;&gt;Node7</title>
<g id="a_edge6_Node000001_Node000007"><a xlink:title=" ">
<path fill="none" stroke="#63b8ff" d="M64.24,-170.2C76.75,-148.63 108.75,-99.44 151,-78.64 254.79,-27.56 304.73,-20.93 411,-66.64 432.37,-75.83 427.42,-92.08 447,-104.64 450.67,-107 454.67,-109.09 458.78,-110.96"/>
<polygon fill="#63b8ff" stroke="#63b8ff" points="457.12,-114.06 467.7,-114.54 459.73,-107.57 457.12,-114.06"/>
</a>
</g>
</g>
<!-- Node8 -->
<g id="Node000008" class="node">
<title>Node8</title>
<g id="a_Node000008"><a xlink:href="vitals_8c.html#aef7f6fa183fbc5412c13ea63bd2b62ce" target="_top" xlink:title="Classify a temperature reading.">
<polygon fill="white" stroke="#666666" points="553.38,-95.64 454.12,-95.64 454.12,-75.64 553.38,-75.64 553.38,-95.64"/>
<text xml:space="preserve" text-anchor="middle" x="503.75" y="-82.14" font-family="Helvetica,sans-Serif" font-size="10.00">check_temperature</text>
</a>
</g>
</g>
<!-- Node1&#45;&gt;Node8 -->
<g id="edge7_Node000001_Node000008" class="edge">
<title>Node1&#45;&gt;Node8</title>
<g id="a_edge7_Node000001_Node000008"><a xlink:title=" ">
<path fill="none" stroke="#63b8ff" d="M61.26,-170.29C69.39,-142.12 96.2,-64.15 151,-33.64 251.97,22.56 299.38,-2.72 411,-32.64 437.09,-39.63 463.43,-56.04 481.15,-68.76"/>
<polygon fill="#63b8ff" stroke="#63b8ff" points="478.72,-71.31 488.84,-74.46 482.89,-65.69 478.72,-71.31"/>
</a>
</g>
</g>
<!-- Node9 -->
<g id="Node000009" class="node">
<title>Node9</title>
<g id="a_Node000009"><a xlink:href="alerts_8c.html#a98b6140a4d21520d639bc81d1f7c08b7" target="_top" xlink:title="Generate structured alert records for out&#45;of&#45;range vital signs.">
<polygon fill="white" stroke="#666666" points="396.75,-171.64 314,-171.64 314,-151.64 396.75,-151.64 396.75,-171.64"/>
<text xml:space="preserve" text-anchor="middle" x="355.38" y="-158.14" font-family="Helvetica,sans-Serif" font-size="10.00">generate_alerts</text>
</a>
</g>
</g>
<!-- Node1&#45;&gt;Node9 -->
<g id="edge8_Node000001_Node000009" class="edge">
<title>Node1&#45;&gt;Node9</title>
<g id="a_edge8_Node000001_Node000009"><a xlink:title=" ">
<path fill="none" stroke="#63b8ff" d="M115.2,-177C169.17,-173.53 249.73,-168.36 302.17,-164.99"/>
<polygon fill="#63b8ff" stroke="#63b8ff" points="302.3,-168.49 312.05,-164.36 301.85,-161.51 302.3,-168.49"/>
</a>
</g>
</g>
<!-- Node10 -->
<g id="Node000010" class="node">
<title>Node10</title>
<g id="a_Node000010"><a xlink:href="patient_8c.html#a7efb2602c9a2566fee89ff6d6af42bcf" target="_top" xlink:title="Return the overall status from the latest reading.">
<polygon fill="white" stroke="#666666" points="263.75,-133.64 151,-133.64 151,-113.64 263.75,-113.64 263.75,-133.64"/>
<text xml:space="preserve" text-anchor="middle" x="207.38" y="-120.14" font-family="Helvetica,sans-Serif" font-size="10.00">patient_current_status</text>
</a>
</g>
</g>
<!-- Node1&#45;&gt;Node10 -->
<g id="edge13_Node000001_Node000010" class="edge">
<title>Node1&#45;&gt;Node10</title>
<g id="a_edge13_Node000001_Node000010"><a xlink:title=" ">
<path fill="none" stroke="#63b8ff" d="M85.62,-170.19C108.9,-161.22 142.68,-148.19 168.6,-138.2"/>
<polygon fill="#63b8ff" stroke="#63b8ff" points="169.69,-141.53 177.76,-134.67 167.17,-135 169.69,-141.53"/>
</a>
</g>
</g>
<!-- Node12 -->
<g id="Node000012" class="node">
<title>Node12</title>
<g id="a_Node000012"><a xlink:href="patient_8c.html#aaf2d461ddd1efafe4887647d0c8688d7" target="_top" xlink:title="Return a pointer to the most recent reading, or NULL if none exist.">
<polygon fill="white" stroke="#666666" points="411,-95.64 299.75,-95.64 299.75,-75.64 411,-75.64 411,-95.64"/>
<text xml:space="preserve" text-anchor="middle" x="355.38" y="-82.14" font-family="Helvetica,sans-Serif" font-size="10.00">patient_latest_reading</text>
</a>
</g>
</g>
<!-- Node1&#45;&gt;Node12 -->
<g id="edge20_Node000001_Node000012" class="edge">
<title>Node1&#45;&gt;Node12</title>
<g id="a_edge20_Node000001_Node000012"><a xlink:title=" ">
<path fill="none" stroke="#63b8ff" d="M67.2,-170.28C82.27,-153.17 115.06,-119.44 151,-104.64 194.37,-86.79 247.21,-82.31 288.16,-82.15"/>
<polygon fill="#63b8ff" stroke="#63b8ff" points="288.11,-85.65 298.13,-82.21 288.15,-78.65 288.11,-85.65"/>
</a>
</g>
</g>
<!-- Node9&#45;&gt;Node5 -->
<g id="edge9_Node000009_Node000005" class="edge">
<title>Node9&#45;&gt;Node5</title>
<g id="a_edge9_Node000009_Node000005"><a xlink:title=" ">
<path fill="none" stroke="#63b8ff" d="M396.76,-172.13C413.72,-176.53 433.64,-181.7 451.61,-186.36"/>
<polygon fill="#63b8ff" stroke="#63b8ff" points="450.47,-189.69 461.03,-188.81 452.23,-182.91 450.47,-189.69"/>
</a>
</g>
</g>
<!-- Node9&#45;&gt;Node6 -->
<g id="edge10_Node000009_Node000006" class="edge">
<title>Node9&#45;&gt;Node6</title>
<g id="a_edge10_Node000009_Node000006"><a xlink:title=" ">
<path fill="none" stroke="#63b8ff" d="M397.15,-161.64C412.48,-161.64 430.18,-161.64 446.66,-161.64"/>
<polygon fill="#63b8ff" stroke="#63b8ff" points="446.31,-165.14 456.31,-161.64 446.31,-158.14 446.31,-165.14"/>
</a>
</g>
</g>
<!-- Node9&#45;&gt;Node7 -->
<g id="edge11_Node000009_Node000007" class="edge">
<title>Node9&#45;&gt;Node7</title>
<g id="a_edge11_Node000009_Node000007"><a xlink:title=" ">
<path fill="none" stroke="#63b8ff" d="M396.76,-151.16C415.86,-146.2 438.72,-140.27 458.31,-135.18"/>
<polygon fill="#63b8ff" stroke="#63b8ff" points="459.15,-138.58 467.95,-132.68 457.39,-131.8 459.15,-138.58"/>
</a>
</g>
</g>
<!-- Node9&#45;&gt;Node8 -->
<g id="edge12_Node000009_Node000008" class="edge">
<title>Node9&#45;&gt;Node8</title>
<g id="a_edge12_Node000009_Node000008"><a xlink:title=" ">
<path fill="none" stroke="#63b8ff" d="M394.22,-151.15C400.06,-148.78 405.86,-145.97 411,-142.64 430.54,-130.02 427.42,-117.2 447,-104.64 449.13,-103.27 451.38,-101.99 453.69,-100.79"/>
<polygon fill="#63b8ff" stroke="#63b8ff" points="455.09,-104 462.75,-96.68 452.19,-97.63 455.09,-104"/>
</a>
</g>
</g>
<!-- Node11 -->
<g id="Node000011" class="node">
<title>Node11</title>
<g id="a_Node000011"><a xlink:href="vitals_8c.html#af7201b2a5a70f76ab81ade218a863830" target="_top" xlink:title="Return the highest alert level across all four vital parameters.">
<polygon fill="white" stroke="#666666" points="402.38,-133.64 308.38,-133.64 308.38,-113.64 402.38,-113.64 402.38,-133.64"/>
<text xml:space="preserve" text-anchor="middle" x="355.38" y="-120.14" font-family="Helvetica,sans-Serif" font-size="10.00">overall_alert_level</text>
</a>
</g>
</g>
<!-- Node10&#45;&gt;Node11 -->
<g id="edge14_Node000010_Node000011" class="edge">
<title>Node10&#45;&gt;Node11</title>
<g id="a_edge14_Node000010_Node000011"><a xlink:title=" ">
<path fill="none" stroke="#63b8ff" d="M263.99,-123.64C274.64,-123.64 285.82,-123.64 296.54,-123.64"/>
<polygon fill="#63b8ff" stroke="#63b8ff" points="296.43,-127.14 306.43,-123.64 296.43,-120.14 296.43,-127.14"/>
</a>
</g>
</g>
<!-- Node10&#45;&gt;Node12 -->
<g id="edge19_Node000010_Node000012" class="edge">
<title>Node10&#45;&gt;Node12</title>
<g id="a_edge19_Node000010_Node000012"><a xlink:title=" ">
<path fill="none" stroke="#63b8ff" d="M248.66,-113.16C265.49,-108.78 285.25,-103.63 303.11,-98.98"/>
<polygon fill="#63b8ff" stroke="#63b8ff" points="303.96,-102.38 312.76,-96.47 302.2,-95.6 303.96,-102.38"/>
</a>
</g>
</g>
<!-- Node11&#45;&gt;Node5 -->
<g id="edge15_Node000011_Node000005" class="edge">
<title>Node11&#45;&gt;Node5</title>
<g id="a_edge15_Node000011_Node000005"><a xlink:title=" ">
<path fill="none" stroke="#63b8ff" d="M394.22,-134.13C400.06,-136.5 405.86,-139.32 411,-142.64 430.54,-155.27 427.42,-168.08 447,-180.64 449.13,-182.01 451.38,-183.29 453.69,-184.49"/>
<polygon fill="#63b8ff" stroke="#63b8ff" points="452.19,-187.66 462.75,-188.6 455.09,-181.28 452.19,-187.66"/>
</a>
</g>
</g>
<!-- Node11&#45;&gt;Node6 -->
<g id="edge16_Node000011_Node000006" class="edge">
<title>Node11&#45;&gt;Node6</title>
<g id="a_edge16_Node000011_Node000006"><a xlink:title=" ">
<path fill="none" stroke="#63b8ff" d="M396.76,-134.13C413.72,-138.53 433.64,-143.7 451.61,-148.36"/>
<polygon fill="#63b8ff" stroke="#63b8ff" points="450.47,-151.69 461.03,-150.81 452.23,-144.91 450.47,-151.69"/>
</a>
</g>
</g>
<!-- Node11&#45;&gt;Node7 -->
<g id="edge17_Node000011_Node000007" class="edge">
<title>Node11&#45;&gt;Node7</title>
<g id="a_edge17_Node000011_Node000007"><a xlink:title=" ">
<path fill="none" stroke="#63b8ff" d="M402.69,-123.64C420.33,-123.64 440.39,-123.64 457.9,-123.64"/>
<polygon fill="#63b8ff" stroke="#63b8ff" points="457.75,-127.14 467.75,-123.64 457.75,-120.14 457.75,-127.14"/>
</a>
</g>
</g>
<!-- Node11&#45;&gt;Node8 -->
<g id="edge18_Node000011_Node000008" class="edge">
<title>Node11&#45;&gt;Node8</title>
<g id="a_edge18_Node000011_Node000008"><a xlink:title=" ">
<path fill="none" stroke="#63b8ff" d="M396.76,-113.16C413.72,-108.75 433.64,-103.58 451.61,-98.92"/>
<polygon fill="#63b8ff" stroke="#63b8ff" points="452.23,-102.37 461.03,-96.47 450.47,-95.6 452.23,-102.37"/>
</a>
</g>
</g>
</g>
</svg>
