<?xml version="1.0" encoding="UTF-8" standalone="no"?>
<!DOCTYPE svg PUBLIC "-//W3C//DTD SVG 1.1//EN"
 "http://www.w3.org/Graphics/SVG/1.1/DTD/svg11.dtd">
<!-- Generated by graphviz version 14.1.4 (20260321.0153)
 -->
<!-- Title: patient_current_status Pages: 1 -->
<svg width="418pt" height="142pt"
 viewBox="0.00 0.00 418.00 142.00" xmlns="http://www.w3.org/2000/svg" xmlns:xlink="http://www.w3.org/1999/xlink">
<g id="graph0" class="graph" transform="scale(1 1) rotate(0) translate(4 138)">
<title>patient_current_status</title>
<!-- Node1 -->
<g id="Node000001" class="node">
<title>Node1</title>
<g id="a_Node000001"><a xlink:title="Return the overall status from the latest reading.">
<polygon fill="#999999" stroke="#666666" points="112.75,-58 0,-58 0,-38 112.75,-38 112.75,-58"/>
<text xml:space="preserve" text-anchor="middle" x="56.38" y="-44.5" font-family="Helvetica,sans-Serif" font-size="10.00">patient_current_status</text>
</a>
</g>
</g>
<!-- Node2 -->
<g id="Node000002" class="node">
<title>Node2</title>
<g id="a_Node000002"><a xlink:href="vitals_8c.html#af7201b2a5a70f76ab81ade218a863830" target="_top" xlink:title="Return the highest alert level across all four vital parameters.">
<polygon fill="white" stroke="#666666" points="251.38,-77 157.38,-77 157.38,-57 251.38,-57 251.38,-77"/>
<text xml:space="preserve" text-anchor="middle" x="204.38" y="-63.5" font-family="Helvetica,sans-Serif" font-size="10.00">overall_alert_level</text>
</a>
</g>
</g>
<!-- Node1&#45;&gt;Node2 -->
<g id="edge1_Node000001_Node000002" class="edge">
<title>Node1&#45;&gt;Node2</title>
<g id="a_edge1_Node000001_Node000002"><a xlink:title=" ">
<path fill="none" stroke="#63b8ff" d="M112.99,-55.24C123.64,-56.62 134.82,-58.08 145.54,-59.47"/>
<polygon fill="#63b8ff" stroke="#63b8ff" points="145.08,-62.94 155.44,-60.76 145.98,-56 145.08,-62.94"/>
</a>
</g>
</g>
<!-- Node7 -->
<g id="Node000007" class="node">
<title>Node7</title>
<g id="a_Node000007"><a xlink:href="patient_8c.html#aaf2d461ddd1efafe4887647d0c8688d7" target="_top" xlink:title="Return a pointer to the most recent reading, or NULL if none exist.">
<polygon fill="white" stroke="#666666" points="260,-39 148.75,-39 148.75,-19 260,-19 260,-39"/>
<text xml:space="preserve" text-anchor="middle" x="204.38" y="-25.5" font-family="Helvetica,sans-Serif" font-size="10.00">patient_latest_reading</text>
</a>
</g>
</g>
<!-- Node1&#45;&gt;Node7 -->
<g id="edge6_Node000001_Node000007" class="edge">
<title>Node1&#45;&gt;Node7</title>
<g id="a_edge6_Node000001_Node000007"><a xlink:title=" ">
<path fill="none" stroke="#63b8ff" d="M112.99,-40.76C120.88,-39.74 129.05,-38.67 137.11,-37.62"/>
<polygon fill="#63b8ff" stroke="#63b8ff" points="137.43,-41.11 146.9,-36.35 136.53,-34.17 137.43,-41.11"/>
</a>
</g>
</g>
<!-- Node3 -->
<g id="Node000003" class="node">
<title>Node3</title>
<g id="a_Node000003"><a xlink:href="vitals_8c.html#a3c853e30a899042babf9fdd2bd2cbfc1" target="_top" xlink:title="Classify a blood pressure reading.">
<polygon fill="white" stroke="#666666" points="409.5,-134 296,-134 296,-114 409.5,-114 409.5,-134"/>
<text xml:space="preserve" text-anchor="middle" x="352.75" y="-120.5" font-family="Helvetica,sans-Serif" font-size="10.00">check_blood_pressure</text>
</a>
</g>
</g>
<!-- Node2&#45;&gt;Node3 -->
<g id="edge2_Node000002_Node000003" class="edge">
<title>Node2&#45;&gt;Node3</title>
<g id="a_edge2_Node000002_Node000003"><a xlink:title=" ">
<path fill="none" stroke="#63b8ff" d="M229.05,-77.45C247.23,-85.35 273.03,-96.28 296,-105 300.18,-106.59 304.56,-108.19 308.95,-109.75"/>
<polygon fill="#63b8ff" stroke="#63b8ff" points="307.75,-113.04 318.35,-113.02 310.06,-106.43 307.75,-113.04"/>
</a>
</g>
</g>
<!-- Node4 -->
<g id="Node000004" class="node">
<title>Node4</title>
<g id="a_Node000004"><a xlink:href="vitals_8c.html#a7604eb6b23010f139f6f960b184a3b28" target="_top" xlink:title="Classify a heart rate reading.">
<polygon fill="white" stroke="#666666" points="398.25,-96 307.25,-96 307.25,-76 398.25,-76 398.25,-96"/>
<text xml:space="preserve" text-anchor="middle" x="352.75" y="-82.5" font-family="Helvetica,sans-Serif" font-size="10.00">check_heart_rate</text>
</a>
</g>
</g>
<!-- Node2&#45;&gt;Node4 -->
<g id="edge3_Node000002_Node000004" class="edge">
<title>Node2&#45;&gt;Node4</title>
<g id="a_edge3_Node000002_Node000004"><a xlink:title=" ">
<path fill="none" stroke="#63b8ff" d="M251.69,-73.01C265.84,-74.85 281.54,-76.89 296.24,-78.79"/>
<polygon fill="#63b8ff" stroke="#63b8ff" points="295.37,-82.21 305.74,-80.03 296.27,-75.27 295.37,-82.21"/>
</a>
</g>
</g>
<!-- Node5 -->
<g id="Node000005" class="node">
<title>Node5</title>
<g id="a_Node000005"><a xlink:href="vitals_8c.html#ac0bc076e63894a96df90f2eab73c88fe" target="_top" xlink:title="Classify an SpO2 reading.">
<polygon fill="white" stroke="#666666" points="387,-58 318.5,-58 318.5,-38 387,-38 387,-58"/>
<text xml:space="preserve" text-anchor="middle" x="352.75" y="-44.5" font-family="Helvetica,sans-Serif" font-size="10.00">check_spo2</text>
</a>
</g>
</g>
<!-- Node2&#45;&gt;Node5 -->
<g id="edge4_Node000002_Node000005" class="edge">
<title>Node2&#45;&gt;Node5</title>
<g id="a_edge4_Node000002_Node000005"><a xlink:title=" ">
<path fill="none" stroke="#63b8ff" d="M251.69,-60.99C269.33,-58.7 289.39,-56.09 306.9,-53.82"/>
<polygon fill="#63b8ff" stroke="#63b8ff" points="307.29,-57.3 316.76,-52.54 306.39,-50.36 307.29,-57.3"/>
</a>
</g>
</g>
<!-- Node6 -->
<g id="Node000006" class="node">
<title>Node6</title>
<g id="a_Node000006"><a xlink:href="vitals_8c.html#aef7f6fa183fbc5412c13ea63bd2b62ce" target="_top" xlink:title="Classify a temperature reading.">
<polygon fill="white" stroke="#666666" points="402.38,-20 303.12,-20 303.12,0 402.38,0 402.38,-20"/>
<text xml:space="preserve" text-anchor="middle" x="352.75" y="-6.5" font-family="Helvetica,sans-Serif" font-size="10.00">check_temperature</text>
</a>
</g>
</g>
<!-- Node2&#45;&gt;Node6 -->
<g id="edge5_Node000002_Node000006" class="edge">
<title>Node2&#45;&gt;Node6</title>
<g id="a_edge5_Node000002_Node000006"><a xlink:title=" ">
<path fill="none" stroke="#63b8ff" d="M238.04,-56.54C245.34,-53.95 253,-51.04 260,-48 276.59,-40.79 279.39,-36.16 296,-29 299.79,-27.37 303.77,-25.77 307.79,-24.25"/>
<polygon fill="#63b8ff" stroke="#63b8ff" points="308.77,-27.62 316.98,-20.92 306.39,-21.04 308.77,-27.62"/>
</a>
</g>
</g>
</g>
</svg>
