<?xml version="1.0" encoding="UTF-8" standalone="no"?>
<!DOCTYPE svg PUBLIC "-//W3C//DTD SVG 1.1//EN"
 "http://www.w3.org/Graphics/SVG/1.1/DTD/svg11.dtd">
<!-- Generated by graphviz version 14.1.4 (20260321.0153)
 -->
<!-- Title: patient_init Pages: 1 -->
<svg width="534pt" height="138pt"
 viewBox="0.00 0.00 534.00 138.00" xmlns="http://www.w3.org/2000/svg" xmlns:xlink="http://www.w3.org/1999/xlink">
<g id="graph0" class="graph" transform="scale(1 1) rotate(0) translate(4 133.71)">
<title>patient_init</title>
<!-- Node1 -->
<g id="Node000001" class="node">
<title>Node1</title>
<g id="a_Node000001"><a xlink:title="Initialise a PatientRecord with demographic data.">
<polygon fill="#999999" stroke="#666666" points="526.25,-77 463,-77 463,-57 526.25,-57 526.25,-77"/>
<text xml:space="preserve" text-anchor="middle" x="494.62" y="-63.5" font-family="Helvetica,sans-Serif" font-size="10.00">patient_init</text>
</a>
</g>
</g>
<!-- Node2 -->
<g id="Node000002" class="node">
<title>Node2</title>
<g id="a_Node000002"><a xlink:href="gui__main_8c.html#a50c9496063704973573429586a90b27d" target="_top" xlink:title=" ">
<polygon fill="white" stroke="#666666" points="151.25,-115 90.25,-115 90.25,-95 151.25,-95 151.25,-115"/>
<text xml:space="preserve" text-anchor="middle" x="120.75" y="-101.5" font-family="Helvetica,sans-Serif" font-size="10.00">dash_proc</text>
</a>
</g>
</g>
<!-- Node1&#45;&gt;Node2 -->
<g id="edge1_Node000001_Node000002" class="edge">
<title>Node1&#45;&gt;Node2</title>
<g id="a_edge1_Node000001_Node000002"><a xlink:title=" ">
<path fill="none" stroke="#63b8ff" d="M470.18,-83.63C457.9,-91.47 442.27,-100.15 427,-105 325.24,-137.29 293.34,-131.99 187.25,-120 175.43,-118.66 162.63,-116.01 151.5,-113.3"/>
<polygon fill="#63b8ff" stroke="#63b8ff" points="471.99,-86.63 478.37,-78.18 468.11,-80.8 471.99,-86.63"/>
</a>
</g>
</g>
<!-- Node4 -->
<g id="Node000004" class="node">
<title>Node4</title>
<g id="a_Node000004"><a xlink:href="gui__main_8c.html#a6bed6b36812029c7bc2eb263a12e5c98" target="_top" xlink:title="Admit a patient from the identity fields. @req SWR&#45;GUI&#45;004.">
<polygon fill="white" stroke="#666666" points="395.12,-96 339.38,-96 339.38,-76 395.12,-76 395.12,-96"/>
<text xml:space="preserve" text-anchor="middle" x="367.25" y="-82.5" font-family="Helvetica,sans-Serif" font-size="10.00">do_admit</text>
</a>
</g>
</g>
<!-- Node1&#45;&gt;Node4 -->
<g id="edge3_Node000001_Node000004" class="edge">
<title>Node1&#45;&gt;Node4</title>
<g id="a_edge3_Node000001_Node000004"><a xlink:title=" ">
<path fill="none" stroke="#63b8ff" d="M451.27,-73.42C432.84,-76.21 411.78,-79.4 395.48,-81.87"/>
<polygon fill="#63b8ff" stroke="#63b8ff" points="451.77,-76.88 461.14,-71.92 450.73,-69.96 451.77,-76.88"/>
</a>
</g>
</g>
<!-- Node7 -->
<g id="Node000007" class="node">
<title>Node7</title>
<g id="a_Node000007"><a xlink:href="main_8c.html#a1a904050ef641d46ba74b91e8ff5b7f9" target="_top" xlink:title="Run the monitoring session for Patient 1 (deterioration scenario).">
<polygon fill="white" stroke="#666666" points="408.62,-58 325.88,-58 325.88,-38 408.62,-38 408.62,-58"/>
<text xml:space="preserve" text-anchor="middle" x="367.25" y="-44.5" font-family="Helvetica,sans-Serif" font-size="10.00">monitor_patient</text>
</a>
</g>
</g>
<!-- Node1&#45;&gt;Node7 -->
<g id="edge9_Node000001_Node000007" class="edge">
<title>Node1&#45;&gt;Node7</title>
<g id="a_edge9_Node000001_Node000007"><a xlink:title=" ">
<path fill="none" stroke="#63b8ff" d="M451.49,-60.61C437.72,-58.53 422.47,-56.22 408.83,-54.15"/>
<polygon fill="#63b8ff" stroke="#63b8ff" points="450.73,-64.04 461.14,-62.08 451.77,-57.12 450.73,-64.04"/>
</a>
</g>
</g>
<!-- Node9 -->
<g id="Node000009" class="node">
<title>Node9</title>
<g id="a_Node000009"><a xlink:href="main_8c.html#a418db4bf280a08fda4493a816c841643" target="_top" xlink:title="Run the monitoring session for Patient 2 (bradycardia scenario).">
<polygon fill="white" stroke="#666666" points="427,-20 307.5,-20 307.5,0 427,0 427,-20"/>
<text xml:space="preserve" text-anchor="middle" x="367.25" y="-6.5" font-family="Helvetica,sans-Serif" font-size="10.00">monitor_second_patient</text>
</a>
</g>
</g>
<!-- Node1&#45;&gt;Node9 -->
<g id="edge11_Node000001_Node000009" class="edge">
<title>Node1&#45;&gt;Node9</title>
<g id="a_edge11_Node000001_Node000009"><a xlink:title=" ">
<path fill="none" stroke="#63b8ff" d="M468.2,-50.86C456.04,-43.57 441.09,-35.22 427,-29 419.84,-25.84 411.99,-22.94 404.42,-20.4"/>
<polygon fill="#63b8ff" stroke="#63b8ff" points="466.04,-53.64 476.39,-55.87 469.69,-47.67 466.04,-53.64"/>
</a>
</g>
</g>
<!-- Node3 -->
<g id="Node000003" class="node">
<title>Node3</title>
<g id="a_Node000003"><a xlink:href="gui__main_8c.html#aab234127c99873cb463e482155cb679f" target="_top" xlink:title=" ">
<polygon fill="white" stroke="#666666" points="54.25,-115 0,-115 0,-95 54.25,-95 54.25,-115"/>
<text xml:space="preserve" text-anchor="middle" x="27.12" y="-101.5" font-family="Helvetica,sans-Serif" font-size="10.00">WinMain</text>
</a>
</g>
</g>
<!-- Node2&#45;&gt;Node3 -->
<g id="edge2_Node000002_Node000003" class="edge">
<title>Node2&#45;&gt;Node3</title>
<g id="a_edge2_Node000002_Node000003"><a xlink:title=" ">
<path fill="none" stroke="#63b8ff" d="M78.7,-105C70.53,-105 62.16,-105 54.63,-105"/>
<polygon fill="#63b8ff" stroke="#63b8ff" points="78.49,-108.5 88.49,-105 78.49,-101.5 78.49,-108.5"/>
</a>
</g>
</g>
<!-- Node4&#45;&gt;Node2 -->
<g id="edge4_Node000004_Node000002" class="edge">
<title>Node4&#45;&gt;Node2</title>
<g id="a_edge4_Node000004_Node000002"><a xlink:title=" ">
<path fill="none" stroke="#63b8ff" d="M328.34,-95.39C311.11,-99.19 290.4,-103.12 271.5,-105 230.11,-109.11 181.96,-108.08 151.67,-106.73"/>
<polygon fill="#63b8ff" stroke="#63b8ff" points="328.65,-98.91 337.62,-93.27 327.1,-92.08 328.65,-98.91"/>
</a>
</g>
</g>
<!-- Node5 -->
<g id="Node000005" class="node">
<title>Node5</title>
<g id="a_Node000005"><a xlink:href="gui__main_8c.html#a9d7273263f3a31bf701590beb4c5b1d1" target="_top" xlink:title="Record a new vital signs reading from the vitals entry fields. @req SWR&#45;GUI&#45;004.">
<polygon fill="white" stroke="#666666" points="271.5,-96 187.25,-96 187.25,-76 271.5,-76 271.5,-96"/>
<text xml:space="preserve" text-anchor="middle" x="229.38" y="-82.5" font-family="Helvetica,sans-Serif" font-size="10.00">do_add_reading</text>
</a>
</g>
</g>
<!-- Node4&#45;&gt;Node5 -->
<g id="edge5_Node000004_Node000005" class="edge">
<title>Node4&#45;&gt;Node5</title>
<g id="a_edge5_Node000004_Node000005"><a xlink:title=" ">
<path fill="none" stroke="#63b8ff" d="M327.62,-86C310.24,-86 289.68,-86 271.96,-86"/>
<polygon fill="#63b8ff" stroke="#63b8ff" points="327.57,-89.5 337.57,-86 327.57,-82.5 327.57,-89.5"/>
</a>
</g>
</g>
<!-- Node6 -->
<g id="Node000006" class="node">
<title>Node6</title>
<g id="a_Node000006"><a xlink:href="gui__main_8c.html#a9106ea80981b1db52b607a5e58f0ecf3" target="_top" xlink:title=" ">
<polygon fill="white" stroke="#666666" points="263.62,-58 195.12,-58 195.12,-38 263.62,-38 263.62,-58"/>
<text xml:space="preserve" text-anchor="middle" x="229.38" y="-44.5" font-family="Helvetica,sans-Serif" font-size="10.00">do_scenario</text>
</a>
</g>
</g>
<!-- Node4&#45;&gt;Node6 -->
<g id="edge7_Node000004_Node000006" class="edge">
<title>Node4&#45;&gt;Node6</title>
<g id="a_edge7_Node000004_Node000006"><a xlink:title=" ">
<path fill="none" stroke="#63b8ff" d="M328.05,-75.32C307.82,-69.66 283.21,-62.78 263.75,-57.33"/>
<polygon fill="#63b8ff" stroke="#63b8ff" points="327.05,-78.67 337.62,-77.99 328.93,-71.93 327.05,-78.67"/>
</a>
</g>
</g>
<!-- Node5&#45;&gt;Node2 -->
<g id="edge6_Node000005_Node000002" class="edge">
<title>Node5&#45;&gt;Node2</title>
<g id="a_edge6_Node000005_Node000002"><a xlink:title=" ">
<path fill="none" stroke="#63b8ff" d="M175.61,-95.4C167.31,-96.88 158.99,-98.36 151.45,-99.71"/>
<polygon fill="#63b8ff" stroke="#63b8ff" points="176.12,-98.87 185.36,-93.67 174.9,-91.97 176.12,-98.87"/>
</a>
</g>
</g>
<!-- Node6&#45;&gt;Node2 -->
<g id="edge8_Node000006_Node000002" class="edge">
<title>Node6&#45;&gt;Node2</title>
<g id="a_edge8_Node000006_Node000002"><a xlink:title=" ">
<path fill="none" stroke="#63b8ff" d="M194.53,-63.33C192.05,-64.54 189.61,-65.78 187.25,-67 170.45,-75.73 151.83,-86.66 138.75,-94.56"/>
<polygon fill="#63b8ff" stroke="#63b8ff" points="195.82,-66.59 203.34,-59.13 192.81,-60.27 195.82,-66.59"/>
</a>
</g>
</g>
<!-- Node8 -->
<g id="Node000008" class="node">
<title>Node8</title>
<g id="a_Node000008"><a xlink:href="main_8c.html#a840291bc02cba5474a4cb46a9b9566fe" target="_top" xlink:title="Application entry point.">
<polygon fill="white" stroke="#666666" points="247.88,-20 210.88,-20 210.88,0 247.88,0 247.88,-20"/>
<text xml:space="preserve" text-anchor="middle" x="229.38" y="-6.5" font-family="Helvetica,sans-Serif" font-size="10.00">main</text>
</a>
</g>
</g>
<!-- Node7&#45;&gt;Node8 -->
<g id="edge10_Node000007_Node000008" class="edge">
<title>Node7&#45;&gt;Node8</title>
<g id="a_edge10_Node000007_Node000008"><a xlink:title=" ">
<path fill="none" stroke="#63b8ff" d="M317.95,-34.49C293.77,-27.73 265.94,-19.95 248.27,-15"/>
<polygon fill="#63b8ff" stroke="#63b8ff" points="316.73,-37.79 327.3,-37.11 318.62,-31.04 316.73,-37.79"/>
</a>
</g>
</g>
<!-- Node9&#45;&gt;Node8 -->
<g id="edge12_Node000009_Node000008" class="edge">
<title>Node9&#45;&gt;Node8</title>
<g id="a_edge12_Node000009_Node000008"><a xlink:title=" ">
<path fill="none" stroke="#63b8ff" d="M295.75,-10C278.06,-10 260.61,-10 248.19,-10"/>
<polygon fill="#63b8ff" stroke="#63b8ff" points="295.53,-13.5 305.53,-10 295.53,-6.5 295.53,-13.5"/>
</a>
</g>
</g>
</g>
</svg>
