<?xml version="1.0" encoding="UTF-8" standalone="no"?>
<!DOCTYPE svg PUBLIC "-//W3C//DTD SVG 1.1//EN"
 "http://www.w3.org/Graphics/SVG/1.1/DTD/svg11.dtd">
<!-- Generated by graphviz version 14.1.4 (20260321.0153)
 -->
<!-- Title: include/patient.h Pages: 1 -->
<svg width="256pt" height="84pt"
 viewBox="0.00 0.00 256.00 84.00" xmlns="http://www.w3.org/2000/svg" xmlns:xlink="http://www.w3.org/1999/xlink">
<g id="graph0" class="graph" transform="scale(1 1) rotate(0) translate(4 80)">
<title>include/patient.h</title>
<!-- Node1 -->
<g id="Node000001" class="node">
<title>Node1</title>
<g id="a_Node000001"><a xlink:title="Patient record management — demographic data and vital sign history.">
<polygon fill="#999999" stroke="#666666" points="172.5,-76 85.25,-76 85.25,-56 172.5,-56 172.5,-76"/>
<text xml:space="preserve" text-anchor="middle" x="128.88" y="-62.5" font-family="Helvetica,sans-Serif" font-size="10.00">include/patient.h</text>
</a>
</g>
</g>
<!-- Node2 -->
<g id="Node000002" class="node">
<title>Node2</title>
<g id="a_Node000002"><a xlink:href="gui__main_8c.html" target="_top" xlink:title="Win32 GUI entry point — Patient Vital Signs Monitor.">
<polygon fill="white" stroke="#666666" points="79.75,-20 0,-20 0,0 79.75,0 79.75,-20"/>
<text xml:space="preserve" text-anchor="middle" x="39.88" y="-6.5" font-family="Helvetica,sans-Serif" font-size="10.00">src/gui_main.c</text>
</a>
</g>
</g>
<!-- Node1&#45;&gt;Node2 -->
<g id="edge1_Node000001_Node000002" class="edge">
<title>Node1&#45;&gt;Node2</title>
<g id="a_edge1_Node000001_Node000002"><a xlink:title=" ">
<path fill="none" stroke="#63b8ff" d="M103.84,-49.81C88.32,-40.39 68.85,-28.58 55.5,-20.48"/>
<polygon fill="#63b8ff" stroke="#63b8ff" points="101.71,-52.61 112.08,-54.81 105.34,-46.63 101.71,-52.61"/>
</a>
</g>
</g>
<!-- Node3 -->
<g id="Node000003" class="node">
<title>Node3</title>
<g id="a_Node000003"><a xlink:href="main_8c.html" target="_top" xlink:title="Application entry point — simulated patient monitoring session.">
<polygon fill="white" stroke="#666666" points="159.75,-20 98,-20 98,0 159.75,0 159.75,-20"/>
<text xml:space="preserve" text-anchor="middle" x="128.88" y="-6.5" font-family="Helvetica,sans-Serif" font-size="10.00">src/main.c</text>
</a>
</g>
</g>
<!-- Node1&#45;&gt;Node3 -->
<g id="edge2_Node000001_Node000003" class="edge">
<title>Node1&#45;&gt;Node3</title>
<g id="a_edge2_Node000001_Node000003"><a xlink:title=" ">
<path fill="none" stroke="#63b8ff" d="M128.88,-44.13C128.88,-35.9 128.88,-26.85 128.88,-20.3"/>
<polygon fill="#63b8ff" stroke="#63b8ff" points="125.38,-44.08 128.88,-54.08 132.38,-44.08 125.38,-44.08"/>
</a>
</g>
</g>
<!-- Node4 -->
<g id="Node000004" class="node">
<title>Node4</title>
<g id="a_Node000004"><a xlink:href="patient_8c.html" target="_top" xlink:title="Implementation of patient record management functions.">
<polygon fill="white" stroke="#666666" points="247.88,-20 177.88,-20 177.88,0 247.88,0 247.88,-20"/>
<text xml:space="preserve" text-anchor="middle" x="212.88" y="-6.5" font-family="Helvetica,sans-Serif" font-size="10.00">src/patient.c</text>
</a>
</g>
</g>
<!-- Node1&#45;&gt;Node4 -->
<g id="edge3_Node000001_Node000004" class="edge">
<title>Node1&#45;&gt;Node4</title>
<g id="a_edge3_Node000001_Node000004"><a xlink:title=" ">
<path fill="none" stroke="#63b8ff" d="M152.92,-49.54C167.5,-40.17 185.64,-28.51 198.13,-20.48"/>
<polygon fill="#63b8ff" stroke="#63b8ff" points="151.3,-46.42 144.78,-54.78 155.08,-52.31 151.3,-46.42"/>
</a>
</g>
</g>
</g>
</svg>
