<?xml version="1.0" encoding="UTF-8" standalone="no"?>
<!DOCTYPE svg PUBLIC "-//W3C//DTD SVG 1.1//EN"
 "http://www.w3.org/Graphics/SVG/1.1/DTD/svg11.dtd">
<!-- Generated by graphviz version 14.1.4 (20260321.0153)
 -->
<!-- Title: patient_add_reading Pages: 1 -->
<svg width="454pt" height="160pt"
 viewBox="0.00 0.00 454.00 160.00" xmlns="http://www.w3.org/2000/svg" xmlns:xlink="http://www.w3.org/1999/xlink">
<g id="graph0" class="graph" transform="scale(1 1) rotate(0) translate(4 156.01)">
<title>patient_add_reading</title>
<!-- Node1 -->
<g id="Node000001" class="node">
<title>Node1</title>
<g id="a_Node000001"><a xlink:title="Append a vital signs reading, enforcing the MAX_READINGS cap.">
<polygon fill="#999999" stroke="#666666" points="445.75,-96 342.75,-96 342.75,-76 445.75,-76 445.75,-96"/>
<text xml:space="preserve" text-anchor="middle" x="394.25" y="-82.5" font-family="Helvetica,sans-Serif" font-size="10.00">patient_add_reading</text>
</a>
</g>
</g>
<!-- Node2 -->
<g id="Node000002" class="node">
<title>Node2</title>
<g id="a_Node000002"><a xlink:href="gui__main_8c.html#a50c9496063704973573429586a90b27d" target="_top" xlink:title=" ">
<polygon fill="white" stroke="#666666" points="151.25,-134 90.25,-134 90.25,-114 151.25,-114 151.25,-134"/>
<text xml:space="preserve" text-anchor="middle" x="120.75" y="-120.5" font-family="Helvetica,sans-Serif" font-size="10.00">dash_proc</text>
</a>
</g>
</g>
<!-- Node1&#45;&gt;Node2 -->
<g id="edge1_Node000001_Node000002" class="edge">
<title>Node1&#45;&gt;Node2</title>
<g id="a_edge1_Node000001_Node000002"><a xlink:title=" ">
<path fill="none" stroke="#63b8ff" d="M373.65,-103.8C357.16,-117.51 332.24,-135.36 306.75,-143 255.88,-158.25 239.83,-150.47 187.25,-143 175.18,-141.28 162.21,-137.87 151.03,-134.41"/>
<polygon fill="#63b8ff" stroke="#63b8ff" points="375.9,-106.49 381.19,-97.31 371.33,-101.19 375.9,-106.49"/>
</a>
</g>
</g>
<!-- Node4 -->
<g id="Node000004" class="node">
<title>Node4</title>
<g id="a_Node000004"><a xlink:href="gui__main_8c.html#a9d7273263f3a31bf701590beb4c5b1d1" target="_top" xlink:title="Record a new vital signs reading from the vitals entry fields. @req SWR&#45;GUI&#45;004.">
<polygon fill="white" stroke="#666666" points="289.12,-134 204.88,-134 204.88,-114 289.12,-114 289.12,-134"/>
<text xml:space="preserve" text-anchor="middle" x="247" y="-120.5" font-family="Helvetica,sans-Serif" font-size="10.00">do_add_reading</text>
</a>
</g>
</g>
<!-- Node1&#45;&gt;Node4 -->
<g id="edge3_Node000001_Node000004" class="edge">
<title>Node1&#45;&gt;Node4</title>
<g id="a_edge3_Node000001_Node000004"><a xlink:title=" ">
<path fill="none" stroke="#63b8ff" d="M342.11,-99.38C324.34,-104.03 304.68,-109.17 287.94,-113.55"/>
<polygon fill="#63b8ff" stroke="#63b8ff" points="342.92,-102.78 351.71,-96.87 341.15,-96.01 342.92,-102.78"/>
</a>
</g>
</g>
<!-- Node5 -->
<g id="Node000005" class="node">
<title>Node5</title>
<g id="a_Node000005"><a xlink:href="gui__main_8c.html#a9106ea80981b1db52b607a5e58f0ecf3" target="_top" xlink:title=" ">
<polygon fill="white" stroke="#666666" points="281.25,-96 212.75,-96 212.75,-76 281.25,-76 281.25,-96"/>
<text xml:space="preserve" text-anchor="middle" x="247" y="-82.5" font-family="Helvetica,sans-Serif" font-size="10.00">do_scenario</text>
</a>
</g>
</g>
<!-- Node1&#45;&gt;Node5 -->
<g id="edge5_Node000001_Node000005" class="edge">
<title>Node1&#45;&gt;Node5</title>
<g id="a_edge5_Node000001_Node000005"><a xlink:title=" ">
<path fill="none" stroke="#63b8ff" d="M331.4,-86C314.35,-86 296.49,-86 281.69,-86"/>
<polygon fill="#63b8ff" stroke="#63b8ff" points="330.94,-89.5 340.94,-86 330.94,-82.5 330.94,-89.5"/>
</a>
</g>
</g>
<!-- Node6 -->
<g id="Node000006" class="node">
<title>Node6</title>
<g id="a_Node000006"><a xlink:href="main_8c.html#a1a904050ef641d46ba74b91e8ff5b7f9" target="_top" xlink:title="Run the monitoring session for Patient 1 (deterioration scenario).">
<polygon fill="white" stroke="#666666" points="288.38,-58 205.62,-58 205.62,-38 288.38,-38 288.38,-58"/>
<text xml:space="preserve" text-anchor="middle" x="247" y="-44.5" font-family="Helvetica,sans-Serif" font-size="10.00">monitor_patient</text>
</a>
</g>
</g>
<!-- Node1&#45;&gt;Node6 -->
<g id="edge7_Node000001_Node000006" class="edge">
<title>Node1&#45;&gt;Node6</title>
<g id="a_edge7_Node000001_Node000006"><a xlink:title=" ">
<path fill="none" stroke="#63b8ff" d="M342.11,-72.62C324.34,-67.97 304.68,-62.83 287.94,-58.45"/>
<polygon fill="#63b8ff" stroke="#63b8ff" points="341.15,-75.99 351.71,-75.13 342.92,-69.22 341.15,-75.99"/>
</a>
</g>
</g>
<!-- Node8 -->
<g id="Node000008" class="node">
<title>Node8</title>
<g id="a_Node000008"><a xlink:href="main_8c.html#a418db4bf280a08fda4493a816c841643" target="_top" xlink:title="Run the monitoring session for Patient 2 (bradycardia scenario).">
<polygon fill="white" stroke="#666666" points="306.75,-20 187.25,-20 187.25,0 306.75,0 306.75,-20"/>
<text xml:space="preserve" text-anchor="middle" x="247" y="-6.5" font-family="Helvetica,sans-Serif" font-size="10.00">monitor_second_patient</text>
</a>
</g>
</g>
<!-- Node1&#45;&gt;Node8 -->
<g id="edge9_Node000001_Node000008" class="edge">
<title>Node1&#45;&gt;Node8</title>
<g id="a_edge9_Node000001_Node000008"><a xlink:title=" ">
<path fill="none" stroke="#63b8ff" d="M370.8,-68.76C353.9,-56.41 329.79,-40.06 306.75,-29 300.08,-25.8 292.74,-22.94 285.57,-20.48"/>
<polygon fill="#63b8ff" stroke="#63b8ff" points="368.53,-71.43 378.64,-74.6 372.71,-65.82 368.53,-71.43"/>
</a>
</g>
</g>
<!-- Node3 -->
<g id="Node000003" class="node">
<title>Node3</title>
<g id="a_Node000003"><a xlink:href="gui__main_8c.html#aab234127c99873cb463e482155cb679f" target="_top" xlink:title=" ">
<polygon fill="white" stroke="#666666" points="54.25,-134 0,-134 0,-114 54.25,-114 54.25,-134"/>
<text xml:space="preserve" text-anchor="middle" x="27.12" y="-120.5" font-family="Helvetica,sans-Serif" font-size="10.00">WinMain</text>
</a>
</g>
</g>
<!-- Node2&#45;&gt;Node3 -->
<g id="edge2_Node000002_Node000003" class="edge">
<title>Node2&#45;&gt;Node3</title>
<g id="a_edge2_Node000002_Node000003"><a xlink:title=" ">
<path fill="none" stroke="#63b8ff" d="M78.7,-124C70.53,-124 62.16,-124 54.63,-124"/>
<polygon fill="#63b8ff" stroke="#63b8ff" points="78.49,-127.5 88.49,-124 78.49,-120.5 78.49,-127.5"/>
</a>
</g>
</g>
<!-- Node4&#45;&gt;Node2 -->
<g id="edge4_Node000004_Node000002" class="edge">
<title>Node4&#45;&gt;Node2</title>
<g id="a_edge4_Node000004_Node000002"><a xlink:title=" ">
<path fill="none" stroke="#63b8ff" d="M193.37,-124C179.08,-124 164.1,-124 151.55,-124"/>
<polygon fill="#63b8ff" stroke="#63b8ff" points="193.11,-127.5 203.11,-124 193.11,-120.5 193.11,-127.5"/>
</a>
</g>
</g>
<!-- Node5&#45;&gt;Node2 -->
<g id="edge6_Node000005_Node000002" class="edge">
<title>Node5&#45;&gt;Node2</title>
<g id="a_edge6_Node000005_Node000002"><a xlink:title=" ">
<path fill="none" stroke="#63b8ff" d="M201.77,-99.53C185.12,-104.62 166.61,-110.28 151.59,-114.88"/>
<polygon fill="#63b8ff" stroke="#63b8ff" points="202.39,-103 210.93,-96.73 200.34,-96.3 202.39,-103"/>
</a>
</g>
</g>
<!-- Node7 -->
<g id="Node000007" class="node">
<title>Node7</title>
<g id="a_Node000007"><a xlink:href="main_8c.html#a840291bc02cba5474a4cb46a9b9566fe" target="_top" xlink:title="Application entry point.">
<polygon fill="white" stroke="#666666" points="139.25,-39 102.25,-39 102.25,-19 139.25,-19 139.25,-39"/>
<text xml:space="preserve" text-anchor="middle" x="120.75" y="-25.5" font-family="Helvetica,sans-Serif" font-size="10.00">main</text>
</a>
</g>
</g>
<!-- Node6&#45;&gt;Node7 -->
<g id="edge8_Node000006_Node000007" class="edge">
<title>Node6&#45;&gt;Node7</title>
<g id="a_edge8_Node000006_Node000007"><a xlink:title=" ">
<path fill="none" stroke="#63b8ff" d="M194.1,-40.06C174.68,-37.09 153.89,-33.92 139.61,-31.73"/>
<polygon fill="#63b8ff" stroke="#63b8ff" points="193.41,-43.5 203.82,-41.55 194.46,-36.58 193.41,-43.5"/>
</a>
</g>
</g>
<!-- Node8&#45;&gt;Node7 -->
<g id="edge10_Node000008_Node000007" class="edge">
<title>Node8&#45;&gt;Node7</title>
<g id="a_edge10_Node000008_Node000007"><a xlink:title=" ">
<path fill="none" stroke="#63b8ff" d="M175.56,-20.77C162.27,-22.8 149.5,-24.76 139.74,-26.25"/>
<polygon fill="#63b8ff" stroke="#63b8ff" points="175.93,-24.26 185.29,-19.28 174.88,-17.34 175.93,-24.26"/>
</a>
</g>
</g>
</g>
</svg>
