<?xml version="1.0" encoding="UTF-8" standalone="no"?>
<!DOCTYPE svg PUBLIC "-//W3C//DTD SVG 1.1//EN"
 "http://www.w3.org/Graphics/SVG/1.1/DTD/svg11.dtd">
<!-- Generated by graphviz version 14.1.4 (20260321.0153)
 -->
<!-- Title: src/sim_vitals.c Pages: 1 -->
<svg width="93pt" height="140pt"
 viewBox="0.00 0.00 93.00 140.00" xmlns="http://www.w3.org/2000/svg" xmlns:xlink="http://www.w3.org/1999/xlink">
<g id="graph0" class="graph" transform="scale(1 1) rotate(0) translate(4 136)">
<title>src/sim_vitals.c</title>
<!-- Node1 -->
<g id="Node000001" class="node">
<title>Node1</title>
<g id="a_Node000001"><a xlink:title="Simulation back&#45;end for the vital signs HAL (hw_vitals.h).">
<polygon fill="#999999" stroke="#666666" points="85,-132 0,-132 0,-112 85,-112 85,-132"/>
<text xml:space="preserve" text-anchor="middle" x="42.5" y="-118.5" font-family="Helvetica,sans-Serif" font-size="10.00">src/sim_vitals.c</text>
</a>
</g>
</g>
<!-- Node2 -->
<g id="Node000002" class="node">
<title>Node2</title>
<g id="a_Node000002"><a xlink:href="hw__vitals_8h.html" target="_top" xlink:title="Hardware Abstraction Layer (HAL) for vital signs acquisition.">
<polygon fill="white" stroke="#666666" points="75.25,-76 9.75,-76 9.75,-56 75.25,-56 75.25,-76"/>
<text xml:space="preserve" text-anchor="middle" x="42.5" y="-62.5" font-family="Helvetica,sans-Serif" font-size="10.00">hw_vitals.h</text>
</a>
</g>
</g>
<!-- Node1&#45;&gt;Node2 -->
<g id="edge1_Node000001_Node000002" class="edge">
<title>Node1&#45;&gt;Node2</title>
<g id="a_edge1_Node000001_Node000002"><a xlink:title=" ">
<path fill="none" stroke="#63b8ff" d="M42.5,-111.59C42.5,-105.01 42.5,-95.96 42.5,-87.73"/>
<polygon fill="#63b8ff" stroke="#63b8ff" points="46,-87.81 42.5,-77.81 39,-87.81 46,-87.81"/>
</a>
</g>
</g>
<!-- Node3 -->
<g id="Node000003" class="node">
<title>Node3</title>
<g id="a_Node000003"><a xlink:href="vitals_8h.html" target="_top" xlink:title="Vital signs data types, thresholds, and validation functions.">
<polygon fill="white" stroke="#666666" points="66.25,-20 18.75,-20 18.75,0 66.25,0 66.25,-20"/>
<text xml:space="preserve" text-anchor="middle" x="42.5" y="-6.5" font-family="Helvetica,sans-Serif" font-size="10.00">vitals.h</text>
</a>
</g>
</g>
<!-- Node2&#45;&gt;Node3 -->
<g id="edge2_Node000002_Node000003" class="edge">
<title>Node2&#45;&gt;Node3</title>
<g id="a_edge2_Node000002_Node000003"><a xlink:title=" ">
<path fill="none" stroke="#63b8ff" d="M42.5,-55.59C42.5,-49.01 42.5,-39.96 42.5,-31.73"/>
<polygon fill="#63b8ff" stroke="#63b8ff" points="46,-31.81 42.5,-21.81 39,-31.81 46,-31.81"/>
</a>
</g>
</g>
</g>
</svg>
