<?xml version="1.0" encoding="UTF-8" standalone="no"?>
<!DOCTYPE svg PUBLIC "-//W3C//DTD SVG 1.1//EN"
 "http://www.w3.org/Graphics/SVG/1.1/DTD/svg11.dtd">
<!-- Generated by graphviz version 14.1.4 (20260321.0153)
 -->
<!-- Title: AppState Pages: 1 -->
<!--zoomable 496 -->

<svg id="main" version="1.1" xmlns="http://www.w3.org/2000/svg" xmlns:xlink="http://www.w3.org/1999/xlink" xml:space="preserve" onload="init(evt)">

<style type="text/css"><![CDATA[
.node, .edge {opacity: 0.7;}
.node.selected, .edge.selected {opacity: 1;}
.edge:hover path { stroke: red; }
.edge:hover polygon { stroke: red; fill: red; }
]]></style>

<defs>
  <circle id="rim" cx="0" cy="0" r="7"/>
  <circle id="rim2" cx="0" cy="0" r="3.5"/>
  <g id="zoomPlus">
    <use xlink:href="#rim" fill="#404040"><set attributeName="fill" to="#808080" begin="zoomplus.mouseover" end="zoomplus.mouseout"/></use>
    <path d="M-4,0h8M0,-4v8" fill="none" stroke="white" stroke-width="1.5" pointer-events="none"/>
  </g>
  <g id="zoomMin">
    <use xlink:href="#rim" fill="#404040"><set attributeName="fill" to="#808080" begin="zoomminus.mouseover" end="zoomminus.mouseout"/></use>
    <path d="M-4,0h8" fill="none" stroke="white" stroke-width="1.5" pointer-events="none"/>
  </g>
  <g id="arrowUp" transform="translate(30 24)">
    <use xlink:href="#rim"/>
    <path pointer-events="none" fill="none" stroke="white" stroke-width="1.5" d="M0,-3.0v7 M-2.5,-0.5L0,-3.0L2.5,-0.5"/>
  </g>
  <g id="arrowRight" transform="rotate(90) translate(36 -43)">
    <use xlink:href="#rim"/>
    <path pointer-events="none" fill="none" stroke="white" stroke-width="1.5" d="M0,-3.0v7 M-2.5,-0.5L0,-3.0L2.5,-0.5"/>
  </g>
  <g id="arrowDown" transform="rotate(180) translate(-30 -48)">
    <use xlink:href="#rim"/>
    <path pointer-events="none" fill="none" stroke="white" stroke-width="1.5" d="M0,-3.0v7 M-2.5,-0.5L0,-3.0L2.5,-0.5"/>
  </g>
  <g id="arrowLeft" transform="rotate(270) translate(-36 17)">
    <use xlink:href="#rim"/>
    <path pointer-events="none" fill="none" stroke="white" stroke-width="1.5" d="M0,-3.0v7 M-2.5,-0.5L0,-3.0L2.5,-0.5"/>
  </g>
  <g id="resetDef">
    <use xlink:href="#rim2" fill="#404040"><set attributeName="fill" to="#808080" begin="reset.mouseover" end="reset.mouseout"/></use>
  </g>
</defs>
<script type="application/ecmascript">
var viewWidth = 158;
var viewHeight = 496;
var sectionId = 'dynsection-0';
</script>
<script type="application/ecmascript" xlink:href="svg.min.js"/>
<svg id="graph" class="graph">
<g id="viewport">
<title>AppState</title>
<!-- Node1 -->
<g id="Node000001" class="node">
<title>Node1</title>
<g id="a_Node000001"><a xlink:title=" ">
<polygon fill="#999999" stroke="none" points="108.38,-212 37.88,-212 37.88,0 108.38,0 108.38,-212"/>
<text xml:space="preserve" text-anchor="start" x="52.88" y="-198.25" font-family="Helvetica,sans-Serif" font-size="10.00">AppState</text>
<text xml:space="preserve" text-anchor="start" x="41.88" y="-182.25" font-family="Helvetica,sans-Serif" font-size="10.00">+</text>
<text xml:space="preserve" text-anchor="start" x="51.88" y="-182.25" font-family="Helvetica,sans-Serif" font-size="10.00">font_hdr</text>
<text xml:space="preserve" text-anchor="start" x="41.88" y="-166.25" font-family="Helvetica,sans-Serif" font-size="10.00">+</text>
<text xml:space="preserve" text-anchor="start" x="51.88" y="-166.25" font-family="Helvetica,sans-Serif" font-size="10.00">font_status</text>
<text xml:space="preserve" text-anchor="start" x="41.88" y="-150.25" font-family="Helvetica,sans-Serif" font-size="10.00">+</text>
<text xml:space="preserve" text-anchor="start" x="51.88" y="-150.25" font-family="Helvetica,sans-Serif" font-size="10.00">font_tile_lbl</text>
<text xml:space="preserve" text-anchor="start" x="41.88" y="-134.25" font-family="Helvetica,sans-Serif" font-size="10.00">+</text>
<text xml:space="preserve" text-anchor="start" x="51.88" y="-134.25" font-family="Helvetica,sans-Serif" font-size="10.00">font_tile_val</text>
<text xml:space="preserve" text-anchor="start" x="41.88" y="-118.25" font-family="Helvetica,sans-Serif" font-size="10.00">+</text>
<text xml:space="preserve" text-anchor="start" x="51.88" y="-118.25" font-family="Helvetica,sans-Serif" font-size="10.00">font_ui</text>
<text xml:space="preserve" text-anchor="start" x="41.88" y="-102.25" font-family="Helvetica,sans-Serif" font-size="10.00">+</text>
<text xml:space="preserve" text-anchor="start" x="51.88" y="-102.25" font-family="Helvetica,sans-Serif" font-size="10.00">has_patient</text>
<text xml:space="preserve" text-anchor="start" x="41.88" y="-86.25" font-family="Helvetica,sans-Serif" font-size="10.00">+</text>
<text xml:space="preserve" text-anchor="start" x="51.88" y="-86.25" font-family="Helvetica,sans-Serif" font-size="10.00">hwnd_dash</text>
<text xml:space="preserve" text-anchor="start" x="41.88" y="-70.25" font-family="Helvetica,sans-Serif" font-size="10.00">+</text>
<text xml:space="preserve" text-anchor="start" x="51.88" y="-70.25" font-family="Helvetica,sans-Serif" font-size="10.00">hwnd_login</text>
<text xml:space="preserve" text-anchor="start" x="41.88" y="-54.25" font-family="Helvetica,sans-Serif" font-size="10.00">+</text>
<text xml:space="preserve" text-anchor="start" x="51.88" y="-54.25" font-family="Helvetica,sans-Serif" font-size="10.00">instance</text>
<text xml:space="preserve" text-anchor="start" x="41.88" y="-38.25" font-family="Helvetica,sans-Serif" font-size="10.00">+</text>
<text xml:space="preserve" text-anchor="start" x="51.88" y="-38.25" font-family="Helvetica,sans-Serif" font-size="10.00">logged_user</text>
<text xml:space="preserve" text-anchor="start" x="41.88" y="-22.25" font-family="Helvetica,sans-Serif" font-size="10.00">+</text>
<text xml:space="preserve" text-anchor="start" x="51.88" y="-22.25" font-family="Helvetica,sans-Serif" font-size="10.00">sim_paused</text>
<text xml:space="preserve" text-anchor="start" x="71.62" y="-6.25" font-family="Helvetica,sans-Serif" font-size="10.00"> </text>
<polygon fill="#666666" stroke="#666666" points="37.88,-194 37.88,-194 108.38,-194 108.38,-194 37.88,-194"/>
<polygon fill="#666666" stroke="#666666" points="37.88,-18 37.88,-18 49.88,-18 49.88,-18 37.88,-18"/>
<polygon fill="#666666" stroke="#666666" points="49.88,-18 49.88,-18 108.38,-18 108.38,-18 49.88,-18"/>
<polygon fill="none" stroke="#666666" points="37.88,0 37.88,-212 108.38,-212 108.38,0 37.88,0"/>
</a>
</g>
</g>
<!-- Node2 -->
<g id="Node000002" class="node">
<title>Node2</title>
<g id="a_Node000002"><a xlink:href="struct_patient_record.html" target="_top" xlink:title="Complete patient record including demographics and vital sign history.">
<polygon fill="white" stroke="none" points="112.5,-318 33.75,-318 33.75,-266 112.5,-266 112.5,-318"/>
<text xml:space="preserve" text-anchor="start" x="42" y="-304.25" font-family="Helvetica,sans-Serif" font-size="10.00">PatientRecord</text>
<text xml:space="preserve" text-anchor="start" x="37.75" y="-288.25" font-family="Helvetica,sans-Serif" font-size="10.00">+</text>
<text xml:space="preserve" text-anchor="start" x="47.75" y="-288.25" font-family="Helvetica,sans-Serif" font-size="10.00">reading_count</text>
<text xml:space="preserve" text-anchor="start" x="71.62" y="-272.25" font-family="Helvetica,sans-Serif" font-size="10.00"> </text>
<polygon fill="#666666" stroke="#666666" points="33.75,-300 33.75,-300 112.5,-300 112.5,-300 33.75,-300"/>
<polygon fill="#666666" stroke="#666666" points="33.75,-284 33.75,-284 45.75,-284 45.75,-284 33.75,-284"/>
<polygon fill="#666666" stroke="#666666" points="45.75,-284 45.75,-284 112.5,-284 112.5,-284 45.75,-284"/>
<polygon fill="none" stroke="#666666" points="33.75,-266 33.75,-318 112.5,-318 112.5,-266 33.75,-266"/>
</a>
</g>
</g>
<!-- Node2&#45;&gt;Node1 -->
<g id="edge1_Node000001_Node000002" class="edge">
<title>Node2&#45;&gt;Node1</title>
<g id="a_edge1_Node000001_Node000002"><a xlink:title=" ">
<path fill="none" stroke="#63b8ff" d="M73.12,-266.18C73.12,-254.73 73.12,-240.22 73.12,-224.64"/>
<polygon fill="none" stroke="#63b8ff" points="73.13,-224.86 69.13,-218.86 73.13,-212.86 77.13,-218.86 73.13,-224.86"/>
</a>
</g>
<text xml:space="preserve" text-anchor="start" x="76.12" y="-235.25" font-family="Helvetica,sans-Serif" font-size="10.00" fill="grey">+patient</text>
</g>
<!-- Node3 -->
<g id="Node000003" class="node">
<title>Node3</title>
<g id="a_Node000003"><a xlink:href="struct_patient_info.html" target="_top" xlink:title="Demographic information for a monitored patient.">
<polygon fill="white" stroke="none" points="62.25,-488 0,-488 0,-372 62.25,-372 62.25,-488"/>
<text xml:space="preserve" text-anchor="start" x="7.5" y="-474.25" font-family="Helvetica,sans-Serif" font-size="10.00">PatientInfo</text>
<text xml:space="preserve" text-anchor="start" x="4" y="-458.25" font-family="Helvetica,sans-Serif" font-size="10.00">+</text>
<text xml:space="preserve" text-anchor="start" x="14" y="-458.25" font-family="Helvetica,sans-Serif" font-size="10.00">age</text>
<text xml:space="preserve" text-anchor="start" x="4" y="-442.25" font-family="Helvetica,sans-Serif" font-size="10.00">+</text>
<text xml:space="preserve" text-anchor="start" x="14" y="-442.25" font-family="Helvetica,sans-Serif" font-size="10.00">height_m</text>
<text xml:space="preserve" text-anchor="start" x="4" y="-426.25" font-family="Helvetica,sans-Serif" font-size="10.00">+</text>
<text xml:space="preserve" text-anchor="start" x="14" y="-426.25" font-family="Helvetica,sans-Serif" font-size="10.00">id</text>
<text xml:space="preserve" text-anchor="start" x="4" y="-410.25" font-family="Helvetica,sans-Serif" font-size="10.00">+</text>
<text xml:space="preserve" text-anchor="start" x="14" y="-410.25" font-family="Helvetica,sans-Serif" font-size="10.00">name</text>
<text xml:space="preserve" text-anchor="start" x="4" y="-394.25" font-family="Helvetica,sans-Serif" font-size="10.00">+</text>
<text xml:space="preserve" text-anchor="start" x="14" y="-394.25" font-family="Helvetica,sans-Serif" font-size="10.00">weight_kg</text>
<text xml:space="preserve" text-anchor="start" x="29.62" y="-378.25" font-family="Helvetica,sans-Serif" font-size="10.00"> </text>
<polygon fill="#666666" stroke="#666666" points="0,-470 0,-470 62.25,-470 62.25,-470 0,-470"/>
<polygon fill="#666666" stroke="#666666" points="0,-390 0,-390 12,-390 12,-390 0,-390"/>
<polygon fill="#666666" stroke="#666666" points="12,-390 12,-390 62.25,-390 62.25,-390 12,-390"/>
<polygon fill="none" stroke="#666666" points="0,-372 0,-488 62.25,-488 62.25,-372 0,-372"/>
</a>
</g>
</g>
<!-- Node3&#45;&gt;Node2 -->
<g id="edge2_Node000002_Node000003" class="edge">
<title>Node3&#45;&gt;Node2</title>
<g id="a_edge2_Node000002_Node000003"><a xlink:title=" ">
<path fill="none" stroke="#63b8ff" d="M48.69,-372.11C53.08,-357.92 57.67,-343.06 61.67,-330.1"/>
<polygon fill="none" stroke="#63b8ff" points="61.64,-330.2 59.58,-323.29 65.18,-318.74 67.23,-325.65 61.64,-330.2"/>
</a>
</g>
<text xml:space="preserve" text-anchor="start" x="62.54" y="-341.25" font-family="Helvetica,sans-Serif" font-size="10.00" fill="grey">+info</text>
</g>
<!-- Node4 -->
<g id="Node000004" class="node">
<title>Node4</title>
<g id="a_Node000004"><a xlink:href="struct_vital_signs.html" target="_top" xlink:title="A single set of patient vital sign measurements.">
<polygon fill="white" stroke="none" points="150,-488 80.25,-488 80.25,-372 150,-372 150,-488"/>
<text xml:space="preserve" text-anchor="start" x="93" y="-474.25" font-family="Helvetica,sans-Serif" font-size="10.00">VitalSigns</text>
<text xml:space="preserve" text-anchor="start" x="84.25" y="-458.25" font-family="Helvetica,sans-Serif" font-size="10.00">+</text>
<text xml:space="preserve" text-anchor="start" x="94.25" y="-458.25" font-family="Helvetica,sans-Serif" font-size="10.00">diastolic_bp</text>
<text xml:space="preserve" text-anchor="start" x="84.25" y="-442.25" font-family="Helvetica,sans-Serif" font-size="10.00">+</text>
<text xml:space="preserve" text-anchor="start" x="94.25" y="-442.25" font-family="Helvetica,sans-Serif" font-size="10.00">heart_rate</text>
<text xml:space="preserve" text-anchor="start" x="84.25" y="-426.25" font-family="Helvetica,sans-Serif" font-size="10.00">+</text>
<text xml:space="preserve" text-anchor="start" x="94.25" y="-426.25" font-family="Helvetica,sans-Serif" font-size="10.00">spo2</text>
<text xml:space="preserve" text-anchor="start" x="84.25" y="-410.25" font-family="Helvetica,sans-Serif" font-size="10.00">+</text>
<text xml:space="preserve" text-anchor="start" x="94.25" y="-410.25" font-family="Helvetica,sans-Serif" font-size="10.00">systolic_bp</text>
<text xml:space="preserve" text-anchor="start" x="84.25" y="-394.25" font-family="Helvetica,sans-Serif" font-size="10.00">+</text>
<text xml:space="preserve" text-anchor="start" x="94.25" y="-394.25" font-family="Helvetica,sans-Serif" font-size="10.00">temperature</text>
<text xml:space="preserve" text-anchor="start" x="113.62" y="-378.25" font-family="Helvetica,sans-Serif" font-size="10.00"> </text>
<polygon fill="#666666" stroke="#666666" points="80.25,-470 80.25,-470 150,-470 150,-470 80.25,-470"/>
<polygon fill="#666666" stroke="#666666" points="80.25,-390 80.25,-390 92.25,-390 92.25,-390 80.25,-390"/>
<polygon fill="#666666" stroke="#666666" points="92.25,-390 92.25,-390 150,-390 150,-390 92.25,-390"/>
<polygon fill="none" stroke="#666666" points="80.25,-372 80.25,-488 150,-488 150,-372 80.25,-372"/>
</a>
</g>
</g>
<!-- Node4&#45;&gt;Node2 -->
<g id="edge3_Node000002_Node000004" class="edge">
<title>Node4&#45;&gt;Node2</title>
<g id="a_edge3_Node000002_Node000004"><a xlink:title=" ">
<path fill="none" stroke="#63b8ff" d="M101.82,-372.06C98.63,-360.06 95.01,-347.54 91.12,-336 90.43,-333.94 89.69,-331.85 88.91,-329.74"/>
<polygon fill="none" stroke="#63b8ff" points="88.93,-329.79 83.01,-325.67 84.54,-318.62 90.46,-322.74 88.93,-329.79"/>
</a>
</g>
<text xml:space="preserve" text-anchor="start" x="99.63" y="-341.25" font-family="Helvetica,sans-Serif" font-size="10.00" fill="grey">+readings</text>
</g>
</g>
</svg>

<g id="navigator" transform="translate(0 0)" fill="#404254">
  <rect fill="#f2f5e9" fill-opacity="0.5" stroke="#606060" stroke-width=".5" x="0" y="0" width="60" height="60"/>
  <use id="zoomplus" xlink:href="#zoomPlus" x="17" y="9" onmousedown="handleZoom(evt,'in')"/>
  <use id="zoomminus" xlink:href="#zoomMin" x="42" y="9" onmousedown="handleZoom(evt,'out')"/>
  <use id="reset" xlink:href="#resetDef" x="30" y="36" onmousedown="handleReset()"/>
   <use id="arrowup" xlink:href="#arrowUp" x="0" y="0" onmousedown="handlePan(0,-1)"/>
  <use id="arrowright" xlink:href="#arrowRight" x="0" y="0" onmousedown="handlePan(1,0)"/>
  <use id="arrowdown" xlink:href="#arrowDown" x="0" y="0" onmousedown="handlePan(0,1)"/>
  <use id="arrowleft" xlink:href="#arrowLeft" x="0" y="0" onmousedown="handlePan(-1,0)"/>
</g>
<svg viewBox="0 0 15 15" width="100%" height="30px" preserveAspectRatio="xMaxYMin meet">
 <g id="arrow_out" transform="scale(0.3 0.3)">
  <a xlink:href="struct_app_state__coll__graph_org.svg" target="_base">
   <rect id="button" ry="5" rx="5" y="6" x="6" height="38" width="38"
        fill="#f2f5e9" fill-opacity="0.5" stroke="#606060" stroke-width="1.0"/>
   <path id="arrow"
     d="M 11.500037,31.436501 C 11.940474,20.09759 22.043105,11.32322 32.158766,21.979434 L 37.068811,17.246167 C 37.068811,17.246167 37.088388,32 37.088388,32 L 22.160133,31.978069 C 22.160133,31.978069 26.997745,27.140456 26.997745,27.140456 C 18.528582,18.264221 13.291696,25.230495 11.500037,31.436501 z"
     style="fill:#404040;"/>
  </a>
 </g>
</svg>

<style type='text/css'>
<![CDATA[
[data-mouse-over-selected='false'] { opacity: 0.7; }
[data-mouse-over-selected='true']  { opacity: 1.0; }
]]>
</style>
<script type="application/ecmascript"><![CDATA[
document.addEventListener('DOMContentLoaded', (event) => {
  highlightEdges();
  highlightAdjacentNodes();
});
]]></script>
</svg>
