<?xml version="1.0" encoding="UTF-8" standalone="no"?>
<!DOCTYPE svg PUBLIC "-//W3C//DTD SVG 1.1//EN"
 "http://www.w3.org/Graphics/SVG/1.1/DTD/svg11.dtd">
<!-- Generated by graphviz version 14.1.4 (20260321.0153)
 -->
<!-- Title: AppState Pages: 1 -->
<svg width="158pt" height="496pt"
 viewBox="0.00 0.00 158.00 496.00" xmlns="http://www.w3.org/2000/svg" xmlns:xlink="http://www.w3.org/1999/xlink">
<g id="graph0" class="graph" transform="scale(1 1) rotate(0) translate(4 492)">
<title>AppState</title>
<!-- Node1 -->
<g id="Node000001" class="node">
<title>Node1</title>
<g id="a_Node000001"><a xlink:title=" ">
<polygon fill="#999999" stroke="none" points="108.38,-212 37.88,-212 37.88,0 108.38,0 108.38,-212"/>
<text xml:space="preserve" text-anchor="start" x="52.88" y="-198.25" font-family="Helvetica,sans-Serif" font-size="10.00">AppState</text>
<text xml:space="preserve" text-anchor="start" x="41.88" y="-182.25" font-family="Helvetica,sans-Serif" font-size="10.00">+</text>
<text xml:space="preserve" text-anchor="start" x="51.88" y="-182.25" font-family="Helvetica,sans-Serif" font-size="10.00">font_hdr</text>
<text xml:space="preserve" text-anchor="start" x="41.88" y="-166.25" font-family="Helvetica,sans-Serif" font-size="10.00">+</text>
<text xml:space="preserve" text-anchor="start" x="51.88" y="-166.25" font-family="Helvetica,sans-Serif" font-size="10.00">font_status</text>
<text xml:space="preserve" text-anchor="start" x="41.88" y="-150.25" font-family="Helvetica,sans-Serif" font-size="10.00">+</text>
<text xml:space="preserve" text-anchor="start" x="51.88" y="-150.25" font-family="Helvetica,sans-Serif" font-size="10.00">font_tile_lbl</text>
<text xml:space="preserve" text-anchor="start" x="41.88" y="-134.25" font-family="Helvetica,sans-Serif" font-size="10.00">+</text>
<text xml:space="preserve" text-anchor="start" x="51.88" y="-134.25" font-family="Helvetica,sans-Serif" font-size="10.00">font_tile_val</text>
<text xml:space="preserve" text-anchor="start" x="41.88" y="-118.25" font-family="Helvetica,sans-Serif" font-size="10.00">+</text>
<text xml:space="preserve" text-anchor="start" x="51.88" y="-118.25" font-family="Helvetica,sans-Serif" font-size="10.00">font_ui</text>
<text xml:space="preserve" text-anchor="start" x="41.88" y="-102.25" font-family="Helvetica,sans-Serif" font-size="10.00">+</text>
<text xml:space="preserve" text-anchor="start" x="51.88" y="-102.25" font-family="Helvetica,sans-Serif" font-size="10.00">has_patient</text>
<text xml:space="preserve" text-anchor="start" x="41.88" y="-86.25" font-family="Helvetica,sans-Serif" font-size="10.00">+</text>
<text xml:space="preserve" text-anchor="start" x="51.88" y="-86.25" font-family="Helvetica,sans-Serif" font-size="10.00">hwnd_dash</text>
<text xml:space="preserve" text-anchor="start" x="41.88" y="-70.25" font-family="Helvetica,sans-Serif" font-size="10.00">+</text>
<text xml:space="preserve" text-anchor="start" x="51.88" y="-70.25" font-family="Helvetica,sans-Serif" font-size="10.00">hwnd_login</text>
<text xml:space="preserve" text-anchor="start" x="41.88" y="-54.25" font-family="Helvetica,sans-Serif" font-size="10.00">+</text>
<text xml:space="preserve" text-anchor="start" x="51.88" y="-54.25" font-family="Helvetica,sans-Serif" font-size="10.00">instance</text>
<text xml:space="preserve" text-anchor="start" x="41.88" y="-38.25" font-family="Helvetica,sans-Serif" font-size="10.00">+</text>
<text xml:space="preserve" text-anchor="start" x="51.88" y="-38.25" font-family="Helvetica,sans-Serif" font-size="10.00">logged_user</text>
<text xml:space="preserve" text-anchor="start" x="41.88" y="-22.25" font-family="Helvetica,sans-Serif" font-size="10.00">+</text>
<text xml:space="preserve" text-anchor="start" x="51.88" y="-22.25" font-family="Helvetica,sans-Serif" font-size="10.00">sim_paused</text>
<text xml:space="preserve" text-anchor="start" x="71.62" y="-6.25" font-family="Helvetica,sans-Serif" font-size="10.00"> </text>
<polygon fill="#666666" stroke="#666666" points="37.88,-194 37.88,-194 108.38,-194 108.38,-194 37.88,-194"/>
<polygon fill="#666666" stroke="#666666" points="37.88,-18 37.88,-18 49.88,-18 49.88,-18 37.88,-18"/>
<polygon fill="#666666" stroke="#666666" points="49.88,-18 49.88,-18 108.38,-18 108.38,-18 49.88,-18"/>
<polygon fill="none" stroke="#666666" points="37.88,0 37.88,-212 108.38,-212 108.38,0 37.88,0"/>
</a>
</g>
</g>
<!-- Node2 -->
<g id="Node000002" class="node">
<title>Node2</title>
<g id="a_Node000002"><a xlink:href="struct_patient_record.html" target="_top" xlink:title="Complete patient record including demographics and vital sign history.">
<polygon fill="white" stroke="none" points="112.5,-318 33.75,-318 33.75,-266 112.5,-266 112.5,-318"/>
<text xml:space="preserve" text-anchor="start" x="42" y="-304.25" font-family="Helvetica,sans-Serif" font-size="10.00">PatientRecord</text>
<text xml:space="preserve" text-anchor="start" x="37.75" y="-288.25" font-family="Helvetica,sans-Serif" font-size="10.00">+</text>
<text xml:space="preserve" text-anchor="start" x="47.75" y="-288.25" font-family="Helvetica,sans-Serif" font-size="10.00">reading_count</text>
<text xml:space="preserve" text-anchor="start" x="71.62" y="-272.25" font-family="Helvetica,sans-Serif" font-size="10.00"> </text>
<polygon fill="#666666" stroke="#666666" points="33.75,-300 33.75,-300 112.5,-300 112.5,-300 33.75,-300"/>
<polygon fill="#666666" stroke="#666666" points="33.75,-284 33.75,-284 45.75,-284 45.75,-284 33.75,-284"/>
<polygon fill="#666666" stroke="#666666" points="45.75,-284 45.75,-284 112.5,-284 112.5,-284 45.75,-284"/>
<polygon fill="none" stroke="#666666" points="33.75,-266 33.75,-318 112.5,-318 112.5,-266 33.75,-266"/>
</a>
</g>
</g>
<!-- Node2&#45;&gt;Node1 -->
<g id="edge1_Node000001_Node000002" class="edge">
<title>Node2&#45;&gt;Node1</title>
<g id="a_edge1_Node000001_Node000002"><a xlink:title=" ">
<path fill="none" stroke="#63b8ff" d="M73.12,-266.18C73.12,-254.73 73.12,-240.22 73.12,-224.64"/>
<polygon fill="none" stroke="#63b8ff" points="73.13,-224.86 69.13,-218.86 73.13,-212.86 77.13,-218.86 73.13,-224.86"/>
</a>
</g>
<text xml:space="preserve" text-anchor="start" x="76.12" y="-235.25" font-family="Helvetica,sans-Serif" font-size="10.00" fill="grey">+patient</text>
</g>
<!-- Node3 -->
<g id="Node000003" class="node">
<title>Node3</title>
<g id="a_Node000003"><a xlink:href="struct_patient_info.html" target="_top" xlink:title="Demographic information for a monitored patient.">
<polygon fill="white" stroke="none" points="62.25,-488 0,-488 0,-372 62.25,-372 62.25,-488"/>
<text xml:space="preserve" text-anchor="start" x="7.5" y="-474.25" font-family="Helvetica,sans-Serif" font-size="10.00">PatientInfo</text>
<text xml:space="preserve" text-anchor="start" x="4" y="-458.25" font-family="Helvetica,sans-Serif" font-size="10.00">+</text>
<text xml:space="preserve" text-anchor="start" x="14" y="-458.25" font-family="Helvetica,sans-Serif" font-size="10.00">age</text>
<text xml:space="preserve" text-anchor="start" x="4" y="-442.25" font-family="Helvetica,sans-Serif" font-size="10.00">+</text>
<text xml:space="preserve" text-anchor="start" x="14" y="-442.25" font-family="Helvetica,sans-Serif" font-size="10.00">height_m</text>
<text xml:space="preserve" text-anchor="start" x="4" y="-426.25" font-family="Helvetica,sans-Serif" font-size="10.00">+</text>
<text xml:space="preserve" text-anchor="start" x="14" y="-426.25" font-family="Helvetica,sans-Serif" font-size="10.00">id</text>
<text xml:space="preserve" text-anchor="start" x="4" y="-410.25" font-family="Helvetica,sans-Serif" font-size="10.00">+</text>
<text xml:space="preserve" text-anchor="start" x="14" y="-410.25" font-family="Helvetica,sans-Serif" font-size="10.00">name</text>
<text xml:space="preserve" text-anchor="start" x="4" y="-394.25" font-family="Helvetica,sans-Serif" font-size="10.00">+</text>
<text xml:space="preserve" text-anchor="start" x="14" y="-394.25" font-family="Helvetica,sans-Serif" font-size="10.00">weight_kg</text>
<text xml:space="preserve" text-anchor="start" x="29.62" y="-378.25" font-family="Helvetica,sans-Serif" font-size="10.00"> </text>
<polygon fill="#666666" stroke="#666666" points="0,-470 0,-470 62.25,-470 62.25,-470 0,-470"/>
<polygon fill="#666666" stroke="#666666" points="0,-390 0,-390 12,-390 12,-390 0,-390"/>
<polygon fill="#666666" stroke="#666666" points="12,-390 12,-390 62.25,-390 62.25,-390 12,-390"/>
<polygon fill="none" stroke="#666666" points="0,-372 0,-488 62.25,-488 62.25,-372 0,-372"/>
</a>
</g>
</g>
<!-- Node3&#45;&gt;Node2 -->
<g id="edge2_Node000002_Node000003" class="edge">
<title>Node3&#45;&gt;Node2</title>
<g id="a_edge2_Node000002_Node000003"><a xlink:title=" ">
<path fill="none" stroke="#63b8ff" d="M48.69,-372.11C53.08,-357.92 57.67,-343.06 61.67,-330.1"/>
<polygon fill="none" stroke="#63b8ff" points="61.64,-330.2 59.58,-323.29 65.18,-318.74 67.23,-325.65 61.64,-330.2"/>
</a>
</g>
<text xml:space="preserve" text-anchor="start" x="62.54" y="-341.25" font-family="Helvetica,sans-Serif" font-size="10.00" fill="grey">+info</text>
</g>
<!-- Node4 -->
<g id="Node000004" class="node">
<title>Node4</title>
<g id="a_Node000004"><a xlink:href="struct_vital_signs.html" target="_top" xlink:title="A single set of patient vital sign measurements.">
<polygon fill="white" stroke="none" points="150,-488 80.25,-488 80.25,-372 150,-372 150,-488"/>
<text xml:space="preserve" text-anchor="start" x="93" y="-474.25" font-family="Helvetica,sans-Serif" font-size="10.00">VitalSigns</text>
<text xml:space="preserve" text-anchor="start" x="84.25" y="-458.25" font-family="Helvetica,sans-Serif" font-size="10.00">+</text>
<text xml:space="preserve" text-anchor="start" x="94.25" y="-458.25" font-family="Helvetica,sans-Serif" font-size="10.00">diastolic_bp</text>
<text xml:space="preserve" text-anchor="start" x="84.25" y="-442.25" font-family="Helvetica,sans-Serif" font-size="10.00">+</text>
<text xml:space="preserve" text-anchor="start" x="94.25" y="-442.25" font-family="Helvetica,sans-Serif" font-size="10.00">heart_rate</text>
<text xml:space="preserve" text-anchor="start" x="84.25" y="-426.25" font-family="Helvetica,sans-Serif" font-size="10.00">+</text>
<text xml:space="preserve" text-anchor="start" x="94.25" y="-426.25" font-family="Helvetica,sans-Serif" font-size="10.00">spo2</text>
<text xml:space="preserve" text-anchor="start" x="84.25" y="-410.25" font-family="Helvetica,sans-Serif" font-size="10.00">+</text>
<text xml:space="preserve" text-anchor="start" x="94.25" y="-410.25" font-family="Helvetica,sans-Serif" font-size="10.00">systolic_bp</text>
<text xml:space="preserve" text-anchor="start" x="84.25" y="-394.25" font-family="Helvetica,sans-Serif" font-size="10.00">+</text>
<text xml:space="preserve" text-anchor="start" x="94.25" y="-394.25" font-family="Helvetica,sans-Serif" font-size="10.00">temperature</text>
<text xml:space="preserve" text-anchor="start" x="113.62" y="-378.25" font-family="Helvetica,sans-Serif" font-size="10.00"> </text>
<polygon fill="#666666" stroke="#666666" points="80.25,-470 80.25,-470 150,-470 150,-470 80.25,-470"/>
<polygon fill="#666666" stroke="#666666" points="80.25,-390 80.25,-390 92.25,-390 92.25,-390 80.25,-390"/>
<polygon fill="#666666" stroke="#666666" points="92.25,-390 92.25,-390 150,-390 150,-390 92.25,-390"/>
<polygon fill="none" stroke="#666666" points="80.25,-372 80.25,-488 150,-488 150,-372 80.25,-372"/>
</a>
</g>
</g>
<!-- Node4&#45;&gt;Node2 -->
<g id="edge3_Node000002_Node000004" class="edge">
<title>Node4&#45;&gt;Node2</title>
<g id="a_edge3_Node000002_Node000004"><a xlink:title=" ">
<path fill="none" stroke="#63b8ff" d="M101.82,-372.06C98.63,-360.06 95.01,-347.54 91.12,-336 90.43,-333.94 89.69,-331.85 88.91,-329.74"/>
<polygon fill="none" stroke="#63b8ff" points="88.93,-329.79 83.01,-325.67 84.54,-318.62 90.46,-322.74 88.93,-329.79"/>
</a>
</g>
<text xml:space="preserve" text-anchor="start" x="99.63" y="-341.25" font-family="Helvetica,sans-Serif" font-size="10.00" fill="grey">+readings</text>
</g>
</g>
</svg>
