<?xml version="1.0" encoding="UTF-8" standalone="no"?>
<!DOCTYPE svg PUBLIC "-//W3C//DTD SVG 1.1//EN"
 "http://www.w3.org/Graphics/SVG/1.1/DTD/svg11.dtd">
<!-- Generated by graphviz version 14.1.4 (20260321.0153)
 -->
<!-- Title: PatientRecord Pages: 1 -->
<svg width="158pt" height="230pt"
 viewBox="0.00 0.00 158.00 230.00" xmlns="http://www.w3.org/2000/svg" xmlns:xlink="http://www.w3.org/1999/xlink">

<svg id="main" version="1.1" xmlns="http://www.w3.org/2000/svg" xmlns:xlink="http://www.w3.org/1999/xlink" xml:space="preserve">

<style type="text/css"><![CDATA[
.node, .edge {opacity: 0.7;}
.node.selected, .edge.selected {opacity: 1;}
.edge:hover path { stroke: red; }
.edge:hover polygon { stroke: red; fill: red; }
]]></style>
<script type="application/ecmascript" xlink:href="svg.min.js"/>
<svg id="graph" class="graph">
<g id="graph0" class="graph" transform="scale(1 1) rotate(0) translate(4 226)">
<title>PatientRecord</title>
<!-- Node1 -->
<g id="Node000001" class="node">
<title>Node1</title>
<g id="a_Node000001"><a xlink:title="Complete patient record including demographics and vital sign history.">
<polygon fill="#999999" stroke="none" points="112.5,-52 33.75,-52 33.75,0 112.5,0 112.5,-52"/>
<text xml:space="preserve" text-anchor="start" x="42" y="-38.25" font-family="Helvetica,sans-Serif" font-size="10.00">PatientRecord</text>
<text xml:space="preserve" text-anchor="start" x="37.75" y="-22.25" font-family="Helvetica,sans-Serif" font-size="10.00">+</text>
<text xml:space="preserve" text-anchor="start" x="47.75" y="-22.25" font-family="Helvetica,sans-Serif" font-size="10.00">reading_count</text>
<text xml:space="preserve" text-anchor="start" x="71.62" y="-6.25" font-family="Helvetica,sans-Serif" font-size="10.00"> </text>
<polygon fill="#666666" stroke="#666666" points="33.75,-34 33.75,-34 112.5,-34 112.5,-34 33.75,-34"/>
<polygon fill="#666666" stroke="#666666" points="33.75,-18 33.75,-18 45.75,-18 45.75,-18 33.75,-18"/>
<polygon fill="#666666" stroke="#666666" points="45.75,-18 45.75,-18 112.5,-18 112.5,-18 45.75,-18"/>
<polygon fill="none" stroke="#666666" points="33.75,0 33.75,-52 112.5,-52 112.5,0 33.75,0"/>
</a>
</g>
</g>
<!-- Node2 -->
<g id="Node000002" class="node">
<title>Node2</title>
<g id="a_Node000002"><a xlink:href="struct_patient_info.html" target="_top" xlink:title="Demographic information for a monitored patient.">
<polygon fill="white" stroke="none" points="62.25,-222 0,-222 0,-106 62.25,-106 62.25,-222"/>
<text xml:space="preserve" text-anchor="start" x="7.5" y="-208.25" font-family="Helvetica,sans-Serif" font-size="10.00">PatientInfo</text>
<text xml:space="preserve" text-anchor="start" x="4" y="-192.25" font-family="Helvetica,sans-Serif" font-size="10.00">+</text>
<text xml:space="preserve" text-anchor="start" x="14" y="-192.25" font-family="Helvetica,sans-Serif" font-size="10.00">age</text>
<text xml:space="preserve" text-anchor="start" x="4" y="-176.25" font-family="Helvetica,sans-Serif" font-size="10.00">+</text>
<text xml:space="preserve" text-anchor="start" x="14" y="-176.25" font-family="Helvetica,sans-Serif" font-size="10.00">height_m</text>
<text xml:space="preserve" text-anchor="start" x="4" y="-160.25" font-family="Helvetica,sans-Serif" font-size="10.00">+</text>
<text xml:space="preserve" text-anchor="start" x="14" y="-160.25" font-family="Helvetica,sans-Serif" font-size="10.00">id</text>
<text xml:space="preserve" text-anchor="start" x="4" y="-144.25" font-family="Helvetica,sans-Serif" font-size="10.00">+</text>
<text xml:space="preserve" text-anchor="start" x="14" y="-144.25" font-family="Helvetica,sans-Serif" font-size="10.00">name</text>
<text xml:space="preserve" text-anchor="start" x="4" y="-128.25" font-family="Helvetica,sans-Serif" font-size="10.00">+</text>
<text xml:space="preserve" text-anchor="start" x="14" y="-128.25" font-family="Helvetica,sans-Serif" font-size="10.00">weight_kg</text>
<text xml:space="preserve" text-anchor="start" x="29.62" y="-112.25" font-family="Helvetica,sans-Serif" font-size="10.00"> </text>
<polygon fill="#666666" stroke="#666666" points="0,-204 0,-204 62.25,-204 62.25,-204 0,-204"/>
<polygon fill="#666666" stroke="#666666" points="0,-124 0,-124 12,-124 12,-124 0,-124"/>
<polygon fill="#666666" stroke="#666666" points="12,-124 12,-124 62.25,-124 62.25,-124 12,-124"/>
<polygon fill="none" stroke="#666666" points="0,-106 0,-222 62.25,-222 62.25,-106 0,-106"/>
</a>
</g>
</g>
<!-- Node2&#45;&gt;Node1 -->
<g id="edge1_Node000001_Node000002" class="edge">
<title>Node2&#45;&gt;Node1</title>
<g id="a_edge1_Node000001_Node000002"><a xlink:title=" ">
<path fill="none" stroke="#63b8ff" d="M48.69,-106.11C53.08,-91.92 57.67,-77.06 61.67,-64.1"/>
<polygon fill="none" stroke="#63b8ff" points="61.64,-64.2 59.58,-57.29 65.18,-52.74 67.23,-59.65 61.64,-64.2"/>
</a>
</g>
<text xml:space="preserve" text-anchor="start" x="62.54" y="-75.25" font-family="Helvetica,sans-Serif" font-size="10.00" fill="grey">+info</text>
</g>
<!-- Node3 -->
<g id="Node000003" class="node">
<title>Node3</title>
<g id="a_Node000003"><a xlink:href="struct_vital_signs.html" target="_top" xlink:title="A single set of patient vital sign measurements.">
<polygon fill="white" stroke="none" points="150,-222 80.25,-222 80.25,-106 150,-106 150,-222"/>
<text xml:space="preserve" text-anchor="start" x="93" y="-208.25" font-family="Helvetica,sans-Serif" font-size="10.00">VitalSigns</text>
<text xml:space="preserve" text-anchor="start" x="84.25" y="-192.25" font-family="Helvetica,sans-Serif" font-size="10.00">+</text>
<text xml:space="preserve" text-anchor="start" x="94.25" y="-192.25" font-family="Helvetica,sans-Serif" font-size="10.00">diastolic_bp</text>
<text xml:space="preserve" text-anchor="start" x="84.25" y="-176.25" font-family="Helvetica,sans-Serif" font-size="10.00">+</text>
<text xml:space="preserve" text-anchor="start" x="94.25" y="-176.25" font-family="Helvetica,sans-Serif" font-size="10.00">heart_rate</text>
<text xml:space="preserve" text-anchor="start" x="84.25" y="-160.25" font-family="Helvetica,sans-Serif" font-size="10.00">+</text>
<text xml:space="preserve" text-anchor="start" x="94.25" y="-160.25" font-family="Helvetica,sans-Serif" font-size="10.00">spo2</text>
<text xml:space="preserve" text-anchor="start" x="84.25" y="-144.25" font-family="Helvetica,sans-Serif" font-size="10.00">+</text>
<text xml:space="preserve" text-anchor="start" x="94.25" y="-144.25" font-family="Helvetica,sans-Serif" font-size="10.00">systolic_bp</text>
<text xml:space="preserve" text-anchor="start" x="84.25" y="-128.25" font-family="Helvetica,sans-Serif" font-size="10.00">+</text>
<text xml:space="preserve" text-anchor="start" x="94.25" y="-128.25" font-family="Helvetica,sans-Serif" font-size="10.00">temperature</text>
<text xml:space="preserve" text-anchor="start" x="113.62" y="-112.25" font-family="Helvetica,sans-Serif" font-size="10.00"> </text>
<polygon fill="#666666" stroke="#666666" points="80.25,-204 80.25,-204 150,-204 150,-204 80.25,-204"/>
<polygon fill="#666666" stroke="#666666" points="80.25,-124 80.25,-124 92.25,-124 92.25,-124 80.25,-124"/>
<polygon fill="#666666" stroke="#666666" points="92.25,-124 92.25,-124 150,-124 150,-124 92.25,-124"/>
<polygon fill="none" stroke="#666666" points="80.25,-106 80.25,-222 150,-222 150,-106 80.25,-106"/>
</a>
</g>
</g>
<!-- Node3&#45;&gt;Node1 -->
<g id="edge2_Node000001_Node000003" class="edge">
<title>Node3&#45;&gt;Node1</title>
<g id="a_edge2_Node000001_Node000003"><a xlink:title=" ">
<path fill="none" stroke="#63b8ff" d="M101.82,-106.06C98.63,-94.06 95.01,-81.54 91.12,-70 90.43,-67.94 89.69,-65.85 88.91,-63.74"/>
<polygon fill="none" stroke="#63b8ff" points="88.93,-63.79 83.01,-59.67 84.54,-52.62 90.46,-56.74 88.93,-63.79"/>
</a>
</g>
<text xml:space="preserve" text-anchor="start" x="99.63" y="-75.25" font-family="Helvetica,sans-Serif" font-size="10.00" fill="grey">+readings</text>
</g>
</g>
</svg>
</svg>

<style type='text/css'>
<![CDATA[
[data-mouse-over-selected='false'] { opacity: 0.7; }
[data-mouse-over-selected='true']  { opacity: 1.0; }
]]>
</style>
<script type="application/ecmascript"><![CDATA[
document.addEventListener('DOMContentLoaded', (event) => {
  highlightEdges();
  highlightAdjacentNodes();
});
]]></script>
</svg>
