<?xml version="1.0" encoding="UTF-8" standalone="no"?>
<!DOCTYPE svg PUBLIC "-//W3C//DTD SVG 1.1//EN"
 "http://www.w3.org/Graphics/SVG/1.1/DTD/svg11.dtd">
<!-- Generated by graphviz version 14.1.4 (20260321.0153)
 -->
<!-- Title: check_spo2 Pages: 1 -->
<svg width="849pt" height="359pt"
 viewBox="0.00 0.00 849.00 359.00" xmlns="http://www.w3.org/2000/svg" xmlns:xlink="http://www.w3.org/1999/xlink">
<g id="graph0" class="graph" transform="scale(1 1) rotate(0) translate(4 355.47)">
<title>check_spo2</title>
<!-- Node1 -->
<g id="Node000001" class="node">
<title>Node1</title>
<g id="a_Node000001"><a xlink:title="Classify an SpO2 reading.">
<polygon fill="#999999" stroke="#666666" points="841,-286 772.5,-286 772.5,-266 841,-266 841,-286"/>
<text xml:space="preserve" text-anchor="middle" x="806.75" y="-272.5" font-family="Helvetica,sans-Serif" font-size="10.00">check_spo2</text>
</a>
</g>
</g>
<!-- Node2 -->
<g id="Node000002" class="node">
<title>Node2</title>
<g id="a_Node000002"><a xlink:href="alerts_8c.html#a98b6140a4d21520d639bc81d1f7c08b7" target="_top" xlink:title="Generate structured alert records for out&#45;of&#45;range vital signs.">
<polygon fill="white" stroke="#666666" points="730.88,-324 648.12,-324 648.12,-304 730.88,-304 730.88,-324"/>
<text xml:space="preserve" text-anchor="middle" x="689.5" y="-310.5" font-family="Helvetica,sans-Serif" font-size="10.00">generate_alerts</text>
</a>
</g>
</g>
<!-- Node1&#45;&gt;Node2 -->
<g id="edge1_Node000001_Node000002" class="edge">
<title>Node1&#45;&gt;Node2</title>
<g id="a_edge1_Node000001_Node000002"><a xlink:title=" ">
<path fill="none" stroke="#63b8ff" d="M763.36,-289.98C749.74,-294.47 734.91,-299.36 722.19,-303.55"/>
<polygon fill="#63b8ff" stroke="#63b8ff" points="764.11,-293.41 772.51,-286.96 761.92,-286.77 764.11,-293.41"/>
</a>
</g>
</g>
<!-- Node3 -->
<g id="Node000003" class="node">
<title>Node3</title>
<g id="a_Node000003"><a xlink:href="patient_8c.html#a19d76f7281d5f5ad5408c1ff4dc2ee11" target="_top" xlink:title="Print a formatted patient summary including vitals and active alerts.">
<polygon fill="white" stroke="#666666" points="457.75,-324 342.75,-324 342.75,-304 457.75,-304 457.75,-324"/>
<text xml:space="preserve" text-anchor="middle" x="400.25" y="-310.5" font-family="Helvetica,sans-Serif" font-size="10.00">patient_print_summary</text>
</a>
</g>
</g>
<!-- Node1&#45;&gt;Node3 -->
<g id="edge32_Node000001_Node000003" class="edge">
<title>Node1&#45;&gt;Node3</title>
<g id="a_edge32_Node000001_Node000003"><a xlink:title=" ">
<path fill="none" stroke="#63b8ff" d="M790.24,-294.27C777.42,-307.86 757.9,-325.32 736.5,-333 631.96,-370.49 497.36,-341.66 435.33,-324.46"/>
<polygon fill="#63b8ff" stroke="#63b8ff" points="792.54,-296.94 796.63,-287.17 787.34,-292.26 792.54,-296.94"/>
</a>
</g>
</g>
<!-- Node7 -->
<g id="Node000007" class="node">
<title>Node7</title>
<g id="a_Node000007"><a xlink:href="main_8c.html#a0082d156ee2712806a55606f6637d160" target="_top" xlink:title="Print a single vital sign reading with per&#45;parameter status and alerts.">
<polygon fill="white" stroke="#666666" points="585.88,-286 514.38,-286 514.38,-266 585.88,-266 585.88,-286"/>
<text xml:space="preserve" text-anchor="middle" x="550.12" y="-272.5" font-family="Helvetica,sans-Serif" font-size="10.00">print_reading</text>
</a>
</g>
</g>
<!-- Node1&#45;&gt;Node7 -->
<g id="edge33_Node000001_Node000007" class="edge">
<title>Node1&#45;&gt;Node7</title>
<g id="a_edge33_Node000001_Node000007"><a xlink:title=" ">
<path fill="none" stroke="#63b8ff" d="M760.8,-276C710.89,-276 631.39,-276 585.97,-276"/>
<polygon fill="#63b8ff" stroke="#63b8ff" points="760.69,-279.5 770.69,-276 760.69,-272.5 760.69,-279.5"/>
</a>
</g>
</g>
<!-- Node15 -->
<g id="Node000015" class="node">
<title>Node15</title>
<g id="a_Node000015"><a xlink:href="vitals_8c.html#af7201b2a5a70f76ab81ade218a863830" target="_top" xlink:title="Return the highest alert level across all four vital parameters.">
<polygon fill="white" stroke="#666666" points="736.5,-248 642.5,-248 642.5,-228 736.5,-228 736.5,-248"/>
<text xml:space="preserve" text-anchor="middle" x="689.5" y="-234.5" font-family="Helvetica,sans-Serif" font-size="10.00">overall_alert_level</text>
</a>
</g>
</g>
<!-- Node1&#45;&gt;Node15 -->
<g id="edge23_Node000001_Node000015" class="edge">
<title>Node1&#45;&gt;Node15</title>
<g id="a_edge23_Node000001_Node000015"><a xlink:title=" ">
<path fill="none" stroke="#63b8ff" d="M763.36,-262.02C749.74,-257.53 734.91,-252.64 722.19,-248.45"/>
<polygon fill="#63b8ff" stroke="#63b8ff" points="761.92,-265.23 772.51,-265.04 764.11,-258.59 761.92,-265.23"/>
</a>
</g>
</g>
<!-- Node18 -->
<g id="Node000018" class="node">
<title>Node18</title>
<g id="a_Node000018"><a xlink:href="gui__main_8c.html#a809c12bdd714ab44c54f45da4d3b2dc7" target="_top" xlink:title="Paint the 2×2 vital sign tile grid. @req SWR&#45;GUI&#45;003.">
<polygon fill="white" stroke="#666666" points="719.62,-210 659.38,-210 659.38,-190 719.62,-190 719.62,-210"/>
<text xml:space="preserve" text-anchor="middle" x="689.5" y="-196.5" font-family="Helvetica,sans-Serif" font-size="10.00">paint_tiles</text>
</a>
</g>
</g>
<!-- Node1&#45;&gt;Node18 -->
<g id="edge30_Node000001_Node000018" class="edge">
<title>Node1&#45;&gt;Node18</title>
<g id="a_edge30_Node000001_Node000018"><a xlink:title=" ">
<path fill="none" stroke="#63b8ff" d="M786.96,-257.91C773.65,-245.78 754.95,-230.06 736.5,-219 731.16,-215.8 725.19,-212.9 719.36,-210.38"/>
<polygon fill="#63b8ff" stroke="#63b8ff" points="784.43,-260.34 794.13,-264.6 789.21,-255.22 784.43,-260.34"/>
</a>
</g>
</g>
<!-- Node2&#45;&gt;Node3 -->
<g id="edge2_Node000002_Node000003" class="edge">
<title>Node2&#45;&gt;Node3</title>
<g id="a_edge2_Node000002_Node000003"><a xlink:title=" ">
<path fill="none" stroke="#63b8ff" d="M636.37,-314C586.01,-314 509.92,-314 458.04,-314"/>
<polygon fill="#63b8ff" stroke="#63b8ff" points="636.14,-317.5 646.14,-314 636.14,-310.5 636.14,-317.5"/>
</a>
</g>
</g>
<!-- Node2&#45;&gt;Node7 -->
<g id="edge7_Node000002_Node000007" class="edge">
<title>Node2&#45;&gt;Node7</title>
<g id="a_edge7_Node000002_Node000007"><a xlink:title=" ">
<path fill="none" stroke="#63b8ff" d="M639.6,-300.47C621.92,-295.58 602.32,-290.16 586.08,-285.67"/>
<polygon fill="#63b8ff" stroke="#63b8ff" points="638.57,-303.82 649.14,-303.11 640.43,-297.07 638.57,-303.82"/>
</a>
</g>
</g>
<!-- Node8 -->
<g id="Node000008" class="node">
<title>Node8</title>
<g id="a_Node000008"><a xlink:href="gui__main_8c.html#a8faad4cd27c161432ac3388959b1a766" target="_top" xlink:title="Refresh all dynamic dashboard content after any data change. @req SWR&#45;GUI&#45;003 @req SWR&#45;GUI&#45;004.">
<polygon fill="white" stroke="#666666" points="597.88,-134 502.38,-134 502.38,-114 597.88,-114 597.88,-134"/>
<text xml:space="preserve" text-anchor="middle" x="550.12" y="-120.5" font-family="Helvetica,sans-Serif" font-size="10.00">update_dashboard</text>
</a>
</g>
</g>
<!-- Node2&#45;&gt;Node8 -->
<g id="edge10_Node000002_Node000008" class="edge">
<title>Node2&#45;&gt;Node8</title>
<g id="a_edge10_Node000002_Node000008"><a xlink:title=" ">
<path fill="none" stroke="#63b8ff" d="M672.55,-294.99C663.52,-284.04 652.14,-269.93 642.5,-257 609.19,-212.3 572.45,-156.73 557.74,-134.2"/>
<polygon fill="#63b8ff" stroke="#63b8ff" points="669.72,-297.07 678.81,-302.52 675.11,-292.59 669.72,-297.07"/>
</a>
</g>
</g>
<!-- Node4 -->
<g id="Node000004" class="node">
<title>Node4</title>
<g id="a_Node000004"><a xlink:href="main_8c.html#a1a904050ef641d46ba74b91e8ff5b7f9" target="_top" xlink:title="Run the monitoring session for Patient 1 (deterioration scenario).">
<polygon fill="white" stroke="#666666" points="288.38,-305 205.62,-305 205.62,-285 288.38,-285 288.38,-305"/>
<text xml:space="preserve" text-anchor="middle" x="247" y="-291.5" font-family="Helvetica,sans-Serif" font-size="10.00">monitor_patient</text>
</a>
</g>
</g>
<!-- Node3&#45;&gt;Node4 -->
<g id="edge3_Node000003_Node000004" class="edge">
<title>Node3&#45;&gt;Node4</title>
<g id="a_edge3_Node000003_Node000004"><a xlink:title=" ">
<path fill="none" stroke="#63b8ff" d="M331.42,-305.48C316.78,-303.64 301.74,-301.75 288.54,-300.09"/>
<polygon fill="#63b8ff" stroke="#63b8ff" points="330.64,-308.91 341,-306.68 331.51,-301.96 330.64,-308.91"/>
</a>
</g>
</g>
<!-- Node6 -->
<g id="Node000006" class="node">
<title>Node6</title>
<g id="a_Node000006"><a xlink:href="main_8c.html#a418db4bf280a08fda4493a816c841643" target="_top" xlink:title="Run the monitoring session for Patient 2 (bradycardia scenario).">
<polygon fill="white" stroke="#666666" points="306.75,-343 187.25,-343 187.25,-323 306.75,-323 306.75,-343"/>
<text xml:space="preserve" text-anchor="middle" x="247" y="-329.5" font-family="Helvetica,sans-Serif" font-size="10.00">monitor_second_patient</text>
</a>
</g>
</g>
<!-- Node3&#45;&gt;Node6 -->
<g id="edge5_Node000003_Node000006" class="edge">
<title>Node3&#45;&gt;Node6</title>
<g id="a_edge5_Node000003_Node000006"><a xlink:title=" ">
<path fill="none" stroke="#63b8ff" d="M331.23,-322.54C323.17,-323.56 315,-324.58 307.09,-325.58"/>
<polygon fill="#63b8ff" stroke="#63b8ff" points="331.51,-326.04 341,-321.32 330.64,-319.09 331.51,-326.04"/>
</a>
</g>
</g>
<!-- Node5 -->
<g id="Node000005" class="node">
<title>Node5</title>
<g id="a_Node000005"><a xlink:href="main_8c.html#a840291bc02cba5474a4cb46a9b9566fe" target="_top" xlink:title="Application entry point.">
<polygon fill="white" stroke="#666666" points="139.25,-324 102.25,-324 102.25,-304 139.25,-304 139.25,-324"/>
<text xml:space="preserve" text-anchor="middle" x="120.75" y="-310.5" font-family="Helvetica,sans-Serif" font-size="10.00">main</text>
</a>
</g>
</g>
<!-- Node4&#45;&gt;Node5 -->
<g id="edge4_Node000004_Node000005" class="edge">
<title>Node4&#45;&gt;Node5</title>
<g id="a_edge4_Node000004_Node000005"><a xlink:title=" ">
<path fill="none" stroke="#63b8ff" d="M194.1,-302.94C174.68,-305.91 153.89,-309.08 139.61,-311.27"/>
<polygon fill="#63b8ff" stroke="#63b8ff" points="194.46,-306.42 203.82,-301.45 193.41,-299.5 194.46,-306.42"/>
</a>
</g>
</g>
<!-- Node6&#45;&gt;Node5 -->
<g id="edge6_Node000006_Node000005" class="edge">
<title>Node6&#45;&gt;Node5</title>
<g id="a_edge6_Node000006_Node000005"><a xlink:title=" ">
<path fill="none" stroke="#63b8ff" d="M175.56,-322.23C162.27,-320.2 149.5,-318.24 139.74,-316.75"/>
<polygon fill="#63b8ff" stroke="#63b8ff" points="174.88,-325.66 185.29,-323.72 175.93,-318.74 174.88,-325.66"/>
</a>
</g>
</g>
<!-- Node7&#45;&gt;Node4 -->
<g id="edge8_Node000007_Node000004" class="edge">
<title>Node7&#45;&gt;Node4</title>
<g id="a_edge8_Node000007_Node000004"><a xlink:title=" ">
<path fill="none" stroke="#63b8ff" d="M502.86,-278.92C444.31,-282.61 344.4,-288.92 288.65,-292.43"/>
<polygon fill="#63b8ff" stroke="#63b8ff" points="502.72,-282.43 512.48,-278.31 502.28,-275.45 502.72,-282.43"/>
</a>
</g>
</g>
<!-- Node7&#45;&gt;Node6 -->
<g id="edge9_Node000007_Node000006" class="edge">
<title>Node7&#45;&gt;Node6</title>
<g id="a_edge9_Node000007_Node000006"><a xlink:title=" ">
<path fill="none" stroke="#63b8ff" d="M528.74,-293.44C511.22,-307.2 484.59,-325.31 457.75,-333 408.39,-347.13 349.77,-345.7 307.07,-341.56"/>
<polygon fill="#63b8ff" stroke="#63b8ff" points="530.75,-296.31 536.31,-287.29 526.34,-290.88 530.75,-296.31"/>
</a>
</g>
</g>
<!-- Node9 -->
<g id="Node000009" class="node">
<title>Node9</title>
<g id="a_Node000009"><a xlink:href="gui__main_8c.html#a50c9496063704973573429586a90b27d" target="_top" xlink:title=" ">
<polygon fill="white" stroke="#666666" points="151.25,-134 90.25,-134 90.25,-114 151.25,-114 151.25,-134"/>
<text xml:space="preserve" text-anchor="middle" x="120.75" y="-120.5" font-family="Helvetica,sans-Serif" font-size="10.00">dash_proc</text>
</a>
</g>
</g>
<!-- Node8&#45;&gt;Node9 -->
<g id="edge11_Node000008_Node000009" class="edge">
<title>Node8&#45;&gt;Node9</title>
<g id="a_edge11_Node000008_Node000009"><a xlink:title=" ">
<path fill="none" stroke="#63b8ff" d="M491.02,-133.96C480,-135.55 468.54,-137 457.75,-138 338.02,-149.11 306.3,-159.92 187.25,-143 175.18,-141.28 162.21,-137.87 151.03,-134.41"/>
<polygon fill="#63b8ff" stroke="#63b8ff" points="491.44,-137.44 500.81,-132.49 490.4,-130.52 491.44,-137.44"/>
</a>
</g>
</g>
<!-- Node11 -->
<g id="Node000011" class="node">
<title>Node11</title>
<g id="a_Node000011"><a xlink:href="gui__main_8c.html#a9d7273263f3a31bf701590beb4c5b1d1" target="_top" xlink:title="Record a new vital signs reading from the vitals entry fields. @req SWR&#45;GUI&#45;004.">
<polygon fill="white" stroke="#666666" points="289.12,-134 204.88,-134 204.88,-114 289.12,-114 289.12,-134"/>
<text xml:space="preserve" text-anchor="middle" x="247" y="-120.5" font-family="Helvetica,sans-Serif" font-size="10.00">do_add_reading</text>
</a>
</g>
</g>
<!-- Node8&#45;&gt;Node11 -->
<g id="edge13_Node000008_Node000011" class="edge">
<title>Node8&#45;&gt;Node11</title>
<g id="a_edge13_Node000008_Node000011"><a xlink:title=" ">
<path fill="none" stroke="#63b8ff" d="M490.67,-124C431.52,-124 341.56,-124 289.4,-124"/>
<polygon fill="#63b8ff" stroke="#63b8ff" points="490.56,-127.5 500.56,-124 490.56,-120.5 490.56,-127.5"/>
</a>
</g>
</g>
<!-- Node12 -->
<g id="Node000012" class="node">
<title>Node12</title>
<g id="a_Node000012"><a xlink:href="gui__main_8c.html#a6bed6b36812029c7bc2eb263a12e5c98" target="_top" xlink:title="Admit a patient from the identity fields. @req SWR&#45;GUI&#45;004.">
<polygon fill="white" stroke="#666666" points="428.12,-96 372.38,-96 372.38,-76 428.12,-76 428.12,-96"/>
<text xml:space="preserve" text-anchor="middle" x="400.25" y="-82.5" font-family="Helvetica,sans-Serif" font-size="10.00">do_admit</text>
</a>
</g>
</g>
<!-- Node8&#45;&gt;Node12 -->
<g id="edge15_Node000008_Node000012" class="edge">
<title>Node8&#45;&gt;Node12</title>
<g id="a_edge15_Node000008_Node000012"><a xlink:title=" ">
<path fill="none" stroke="#63b8ff" d="M497.23,-110.66C474.02,-104.7 447.61,-97.91 428.38,-92.97"/>
<polygon fill="#63b8ff" stroke="#63b8ff" points="496.3,-114.04 506.86,-113.14 498.05,-107.26 496.3,-114.04"/>
</a>
</g>
</g>
<!-- Node13 -->
<g id="Node000013" class="node">
<title>Node13</title>
<g id="a_Node000013"><a xlink:href="gui__main_8c.html#a9106ea80981b1db52b607a5e58f0ecf3" target="_top" xlink:title=" ">
<polygon fill="white" stroke="#666666" points="281.25,-58 212.75,-58 212.75,-38 281.25,-38 281.25,-58"/>
<text xml:space="preserve" text-anchor="middle" x="247" y="-44.5" font-family="Helvetica,sans-Serif" font-size="10.00">do_scenario</text>
</a>
</g>
</g>
<!-- Node8&#45;&gt;Node13 -->
<g id="edge22_Node000008_Node000013" class="edge">
<title>Node8&#45;&gt;Node13</title>
<g id="a_edge22_Node000008_Node000013"><a xlink:title=" ">
<path fill="none" stroke="#63b8ff" d="M527.94,-106.74C510.3,-93.4 483.92,-75.79 457.75,-67 398.13,-46.98 323.94,-45.28 281.67,-46.33"/>
<polygon fill="#63b8ff" stroke="#63b8ff" points="525.55,-109.31 535.59,-112.69 529.85,-103.79 525.55,-109.31"/>
</a>
</g>
</g>
<!-- Node14 -->
<g id="Node000014" class="node">
<title>Node14</title>
<g id="a_Node000014"><a xlink:href="gui__main_8c.html#a11329148e25059d43a9d848bf4f90d4b" target="_top" xlink:title=" ">
<polygon fill="white" stroke="#666666" points="426.62,-20 373.88,-20 373.88,0 426.62,0 426.62,-20"/>
<text xml:space="preserve" text-anchor="middle" x="400.25" y="-6.5" font-family="Helvetica,sans-Serif" font-size="10.00">do_clear</text>
</a>
</g>
</g>
<!-- Node8&#45;&gt;Node14 -->
<g id="edge20_Node000008_Node000014" class="edge">
<title>Node8&#45;&gt;Node14</title>
<g id="a_edge20_Node000008_Node000014"><a xlink:title=" ">
<path fill="none" stroke="#63b8ff" d="M533.47,-104.78C516.51,-84.93 487.81,-54.11 457.75,-34 448.36,-27.72 437.06,-22.52 427.04,-18.59"/>
<polygon fill="#63b8ff" stroke="#63b8ff" points="530.74,-106.96 539.84,-112.38 536.1,-102.47 530.74,-106.96"/>
</a>
</g>
</g>
<!-- Node10 -->
<g id="Node000010" class="node">
<title>Node10</title>
<g id="a_Node000010"><a xlink:href="gui__main_8c.html#aab234127c99873cb463e482155cb679f" target="_top" xlink:title=" ">
<polygon fill="white" stroke="#666666" points="54.25,-134 0,-134 0,-114 54.25,-114 54.25,-134"/>
<text xml:space="preserve" text-anchor="middle" x="27.12" y="-120.5" font-family="Helvetica,sans-Serif" font-size="10.00">WinMain</text>
</a>
</g>
</g>
<!-- Node9&#45;&gt;Node10 -->
<g id="edge12_Node000009_Node000010" class="edge">
<title>Node9&#45;&gt;Node10</title>
<g id="a_edge12_Node000009_Node000010"><a xlink:title=" ">
<path fill="none" stroke="#63b8ff" d="M78.7,-124C70.53,-124 62.16,-124 54.63,-124"/>
<polygon fill="#63b8ff" stroke="#63b8ff" points="78.49,-127.5 88.49,-124 78.49,-120.5 78.49,-127.5"/>
</a>
</g>
</g>
<!-- Node11&#45;&gt;Node9 -->
<g id="edge14_Node000011_Node000009" class="edge">
<title>Node11&#45;&gt;Node9</title>
<g id="a_edge14_Node000011_Node000009"><a xlink:title=" ">
<path fill="none" stroke="#63b8ff" d="M193.37,-124C179.08,-124 164.1,-124 151.55,-124"/>
<polygon fill="#63b8ff" stroke="#63b8ff" points="193.11,-127.5 203.11,-124 193.11,-120.5 193.11,-127.5"/>
</a>
</g>
</g>
<!-- Node12&#45;&gt;Node9 -->
<g id="edge16_Node000012_Node000009" class="edge">
<title>Node12&#45;&gt;Node9</title>
<g id="a_edge16_Node000012_Node000009"><a xlink:title=" ">
<path fill="none" stroke="#63b8ff" d="M360.64,-87.22C317.91,-89.1 247.17,-93.73 187.25,-105 175.38,-107.23 162.57,-110.7 151.46,-114.07"/>
<polygon fill="#63b8ff" stroke="#63b8ff" points="360.55,-90.73 370.4,-86.83 360.27,-83.74 360.55,-90.73"/>
</a>
</g>
</g>
<!-- Node12&#45;&gt;Node11 -->
<g id="edge17_Node000012_Node000011" class="edge">
<title>Node12&#45;&gt;Node11</title>
<g id="a_edge17_Node000012_Node000011"><a xlink:title=" ">
<path fill="none" stroke="#63b8ff" d="M361.32,-95.53C339.41,-101.03 311.82,-107.97 289.35,-113.61"/>
<polygon fill="#63b8ff" stroke="#63b8ff" points="361.9,-98.99 370.74,-93.16 360.19,-92.2 361.9,-98.99"/>
</a>
</g>
</g>
<!-- Node12&#45;&gt;Node13 -->
<g id="edge18_Node000012_Node000013" class="edge">
<title>Node12&#45;&gt;Node13</title>
<g id="a_edge18_Node000012_Node000013"><a xlink:title=" ">
<path fill="none" stroke="#63b8ff" d="M361.18,-76.43C336.72,-70.29 305.24,-62.38 281.69,-56.46"/>
<polygon fill="#63b8ff" stroke="#63b8ff" points="360.19,-79.8 370.74,-78.84 361.9,-73.01 360.19,-79.8"/>
</a>
</g>
</g>
<!-- Node13&#45;&gt;Node9 -->
<g id="edge19_Node000013_Node000009" class="edge">
<title>Node13&#45;&gt;Node9</title>
<g id="a_edge19_Node000013_Node000009"><a xlink:title=" ">
<path fill="none" stroke="#63b8ff" d="M205.52,-62.76C199.26,-65.55 192.98,-68.65 187.25,-72 166.45,-84.17 145.08,-102.42 132.63,-113.75"/>
<polygon fill="#63b8ff" stroke="#63b8ff" points="206.68,-66.07 214.54,-58.97 203.96,-59.62 206.68,-66.07"/>
</a>
</g>
</g>
<!-- Node14&#45;&gt;Node9 -->
<g id="edge21_Node000014_Node000009" class="edge">
<title>Node14&#45;&gt;Node9</title>
<g id="a_edge21_Node000014_Node000009"><a xlink:title=" ">
<path fill="none" stroke="#63b8ff" d="M362.5,-4.34C317.85,0.63 241.74,2.8 187.25,-29 153.51,-48.69 133.17,-93.5 125.39,-113.74"/>
<polygon fill="#63b8ff" stroke="#63b8ff" points="361.83,-7.78 372.18,-5.53 362.68,-0.83 361.83,-7.78"/>
</a>
</g>
</g>
<!-- Node15&#45;&gt;Node7 -->
<g id="edge28_Node000015_Node000007" class="edge">
<title>Node15&#45;&gt;Node7</title>
<g id="a_edge28_Node000015_Node000007"><a xlink:title=" ">
<path fill="none" stroke="#63b8ff" d="M639.6,-251.53C621.92,-256.42 602.32,-261.84 586.08,-266.33"/>
<polygon fill="#63b8ff" stroke="#63b8ff" points="640.43,-254.93 649.14,-248.89 638.57,-248.18 640.43,-254.93"/>
</a>
</g>
</g>
<!-- Node15&#45;&gt;Node8 -->
<g id="edge29_Node000015_Node000008" class="edge">
<title>Node15&#45;&gt;Node8</title>
<g id="a_edge29_Node000015_Node000008"><a xlink:title=" ">
<path fill="none" stroke="#63b8ff" d="M648.21,-222.55C646.23,-221.42 644.32,-220.24 642.5,-219 606.19,-194.25 572.95,-153.19 558.6,-134.2"/>
<polygon fill="#63b8ff" stroke="#63b8ff" points="646.51,-225.61 657.02,-226.98 649.66,-219.36 646.51,-225.61"/>
</a>
</g>
</g>
<!-- Node16 -->
<g id="Node000016" class="node">
<title>Node16</title>
<g id="a_Node000016"><a xlink:href="patient_8c.html#a7efb2602c9a2566fee89ff6d6af42bcf" target="_top" xlink:title="Return the overall status from the latest reading.">
<polygon fill="white" stroke="#666666" points="606.5,-248 493.75,-248 493.75,-228 606.5,-228 606.5,-248"/>
<text xml:space="preserve" text-anchor="middle" x="550.12" y="-234.5" font-family="Helvetica,sans-Serif" font-size="10.00">patient_current_status</text>
</a>
</g>
</g>
<!-- Node15&#45;&gt;Node16 -->
<g id="edge24_Node000015_Node000016" class="edge">
<title>Node15&#45;&gt;Node16</title>
<g id="a_edge24_Node000015_Node000016"><a xlink:title=" ">
<path fill="none" stroke="#63b8ff" d="M630.92,-238C622.97,-238 614.82,-238 606.9,-238"/>
<polygon fill="#63b8ff" stroke="#63b8ff" points="630.86,-241.5 640.86,-238 630.86,-234.5 630.86,-241.5"/>
</a>
</g>
</g>
<!-- Node16&#45;&gt;Node3 -->
<g id="edge27_Node000016_Node000003" class="edge">
<title>Node16&#45;&gt;Node3</title>
<g id="a_edge27_Node000016_Node000003"><a xlink:title=" ">
<path fill="none" stroke="#63b8ff" d="M504.06,-252.52C500.53,-253.94 497.06,-255.44 493.75,-257 464.76,-270.7 433.48,-291.34 415.74,-303.66"/>
<polygon fill="#63b8ff" stroke="#63b8ff" points="505.15,-255.84 513.27,-249.03 502.67,-249.3 505.15,-255.84"/>
</a>
</g>
</g>
<!-- Node17 -->
<g id="Node000017" class="node">
<title>Node17</title>
<g id="a_Node000017"><a xlink:href="gui__main_8c.html#a71c5868a8a8bcd102dfebf5a8cd8e55a" target="_top" xlink:title="Paint the aggregate status banner. @req SWR&#45;GUI&#45;003.">
<polygon fill="white" stroke="#666666" points="452.12,-248 348.38,-248 348.38,-228 452.12,-228 452.12,-248"/>
<text xml:space="preserve" text-anchor="middle" x="400.25" y="-234.5" font-family="Helvetica,sans-Serif" font-size="10.00">paint_status_banner</text>
</a>
</g>
</g>
<!-- Node16&#45;&gt;Node17 -->
<g id="edge25_Node000016_Node000017" class="edge">
<title>Node16&#45;&gt;Node17</title>
<g id="a_edge25_Node000016_Node000017"><a xlink:title=" ">
<path fill="none" stroke="#63b8ff" d="M482.32,-238C472.19,-238 461.88,-238 452.16,-238"/>
<polygon fill="#63b8ff" stroke="#63b8ff" points="482.13,-241.5 492.13,-238 482.13,-234.5 482.13,-241.5"/>
</a>
</g>
</g>
<!-- Node17&#45;&gt;Node9 -->
<g id="edge26_Node000017_Node000009" class="edge">
<title>Node17&#45;&gt;Node9</title>
<g id="a_edge26_Node000017_Node000009"><a xlink:title=" ">
<path fill="none" stroke="#63b8ff" d="M336.86,-243.72C292.29,-244.9 232.45,-240.32 187.25,-214 155.02,-195.24 134.16,-153.61 125.84,-134.26"/>
<polygon fill="#63b8ff" stroke="#63b8ff" points="336.77,-247.23 346.63,-243.35 336.5,-240.24 336.77,-247.23"/>
</a>
</g>
</g>
<!-- Node18&#45;&gt;Node9 -->
<g id="edge31_Node000018_Node000009" class="edge">
<title>Node18&#45;&gt;Node9</title>
<g id="a_edge31_Node000018_Node000009"><a xlink:title=" ">
<path fill="none" stroke="#63b8ff" d="M647.72,-202.7C560.87,-207.19 352.11,-211.26 187.25,-161 168.26,-155.21 148.73,-143.25 136,-134.49"/>
<polygon fill="#63b8ff" stroke="#63b8ff" points="647.85,-206.2 657.64,-202.15 647.46,-199.21 647.85,-206.2"/>
</a>
</g>
</g>
</g>
</svg>
