<?xml version="1.0" encoding="UTF-8" standalone="no"?>
<!DOCTYPE svg PUBLIC "-//W3C//DTD SVG 1.1//EN"
 "http://www.w3.org/Graphics/SVG/1.1/DTD/svg11.dtd">
<!-- Generated by graphviz version 14.1.4 (20260321.0153)
 -->
<!-- Title: calculate_bmi Pages: 1 -->
<svg width="481pt" height="123pt"
 viewBox="0.00 0.00 481.00 123.00" xmlns="http://www.w3.org/2000/svg" xmlns:xlink="http://www.w3.org/1999/xlink">
<g id="graph0" class="graph" transform="scale(1 1) rotate(0) translate(4 119.06)">
<title>calculate_bmi</title>
<!-- Node1 -->
<g id="Node000001" class="node">
<title>Node1</title>
<g id="a_Node000001"><a xlink:title="Calculate Body Mass Index (BMI) from weight and height.">
<polygon fill="#999999" stroke="#666666" points="472.75,-77 396.75,-77 396.75,-57 472.75,-57 472.75,-77"/>
<text xml:space="preserve" text-anchor="middle" x="434.75" y="-63.5" font-family="Helvetica,sans-Serif" font-size="10.00">calculate_bmi</text>
</a>
</g>
</g>
<!-- Node2 -->
<g id="Node000002" class="node">
<title>Node2</title>
<g id="a_Node000002"><a xlink:href="main_8c.html#a1a904050ef641d46ba74b91e8ff5b7f9" target="_top" xlink:title="Run the monitoring session for Patient 1 (deterioration scenario).">
<polygon fill="white" stroke="#666666" points="191.38,-115 108.62,-115 108.62,-95 191.38,-95 191.38,-115"/>
<text xml:space="preserve" text-anchor="middle" x="150" y="-101.5" font-family="Helvetica,sans-Serif" font-size="10.00">monitor_patient</text>
</a>
</g>
</g>
<!-- Node1&#45;&gt;Node2 -->
<g id="edge1_Node000001_Node000002" class="edge">
<title>Node1&#45;&gt;Node2</title>
<g id="a_edge1_Node000001_Node000002"><a xlink:title=" ">
<path fill="none" stroke="#63b8ff" d="M409.37,-83.47C395.71,-91.7 378,-100.78 360.75,-105 303.27,-119.06 234.25,-115.27 191.5,-110.63"/>
<polygon fill="#63b8ff" stroke="#63b8ff" points="411.07,-86.54 417.67,-78.25 407.34,-80.61 411.07,-86.54"/>
</a>
</g>
</g>
<!-- Node4 -->
<g id="Node000004" class="node">
<title>Node4</title>
<g id="a_Node000004"><a xlink:href="main_8c.html#a418db4bf280a08fda4493a816c841643" target="_top" xlink:title="Run the monitoring session for Patient 2 (bradycardia scenario).">
<polygon fill="white" stroke="#666666" points="209.75,-77 90.25,-77 90.25,-57 209.75,-57 209.75,-77"/>
<text xml:space="preserve" text-anchor="middle" x="150" y="-63.5" font-family="Helvetica,sans-Serif" font-size="10.00">monitor_second_patient</text>
</a>
</g>
</g>
<!-- Node1&#45;&gt;Node4 -->
<g id="edge3_Node000001_Node000004" class="edge">
<title>Node1&#45;&gt;Node4</title>
<g id="a_edge3_Node000001_Node000004"><a xlink:title=" ">
<path fill="none" stroke="#63b8ff" d="M385.05,-67C336.5,-67 261.9,-67 210.02,-67"/>
<polygon fill="#63b8ff" stroke="#63b8ff" points="384.98,-70.5 394.98,-67 384.98,-63.5 384.98,-70.5"/>
</a>
</g>
</g>
<!-- Node5 -->
<g id="Node000005" class="node">
<title>Node5</title>
<g id="a_Node000005"><a xlink:href="gui__main_8c.html#a3a6ecd59596770bcfc1ecf6fa4fd3219" target="_top" xlink:title="Paint the patient summary bar. @req SWR&#45;GUI&#45;003.">
<polygon fill="white" stroke="#666666" points="348.38,-20 258.12,-20 258.12,0 348.38,0 348.38,-20"/>
<text xml:space="preserve" text-anchor="middle" x="303.25" y="-6.5" font-family="Helvetica,sans-Serif" font-size="10.00">paint_patient_bar</text>
</a>
</g>
</g>
<!-- Node1&#45;&gt;Node5 -->
<g id="edge5_Node000001_Node000005" class="edge">
<title>Node1&#45;&gt;Node5</title>
<g id="a_edge5_Node000001_Node000005"><a xlink:title=" ">
<path fill="none" stroke="#63b8ff" d="M400.7,-51.87C388.21,-46.2 373.85,-39.74 360.75,-34 350.4,-29.46 338.94,-24.57 329.06,-20.39"/>
<polygon fill="#63b8ff" stroke="#63b8ff" points="399.19,-55.03 409.74,-55.98 402.09,-48.65 399.19,-55.03"/>
</a>
</g>
</g>
<!-- Node8 -->
<g id="Node000008" class="node">
<title>Node8</title>
<g id="a_Node000008"><a xlink:href="patient_8c.html#a19d76f7281d5f5ad5408c1ff4dc2ee11" target="_top" xlink:title="Print a formatted patient summary including vitals and active alerts.">
<polygon fill="white" stroke="#666666" points="360.75,-96 245.75,-96 245.75,-76 360.75,-76 360.75,-96"/>
<text xml:space="preserve" text-anchor="middle" x="303.25" y="-82.5" font-family="Helvetica,sans-Serif" font-size="10.00">patient_print_summary</text>
</a>
</g>
</g>
<!-- Node1&#45;&gt;Node8 -->
<g id="edge8_Node000001_Node000008" class="edge">
<title>Node1&#45;&gt;Node8</title>
<g id="a_edge8_Node000001_Node000008"><a xlink:title=" ">
<path fill="none" stroke="#63b8ff" d="M385.05,-74.15C377.17,-75.3 368.95,-76.51 360.9,-77.69"/>
<polygon fill="#63b8ff" stroke="#63b8ff" points="385.41,-77.63 394.8,-72.72 384.39,-70.7 385.41,-77.63"/>
</a>
</g>
</g>
<!-- Node3 -->
<g id="Node000003" class="node">
<title>Node3</title>
<g id="a_Node000003"><a xlink:href="main_8c.html#a840291bc02cba5474a4cb46a9b9566fe" target="_top" xlink:title="Application entry point.">
<polygon fill="white" stroke="#666666" points="45.62,-96 8.62,-96 8.62,-76 45.62,-76 45.62,-96"/>
<text xml:space="preserve" text-anchor="middle" x="27.12" y="-82.5" font-family="Helvetica,sans-Serif" font-size="10.00">main</text>
</a>
</g>
</g>
<!-- Node2&#45;&gt;Node3 -->
<g id="edge2_Node000002_Node000003" class="edge">
<title>Node2&#45;&gt;Node3</title>
<g id="a_edge2_Node000002_Node000003"><a xlink:title=" ">
<path fill="none" stroke="#63b8ff" d="M97.19,-96.86C78.83,-93.97 59.39,-90.91 45.83,-88.78"/>
<polygon fill="#63b8ff" stroke="#63b8ff" points="96.5,-100.29 106.92,-98.39 97.58,-93.37 96.5,-100.29"/>
</a>
</g>
</g>
<!-- Node4&#45;&gt;Node3 -->
<g id="edge4_Node000004_Node000003" class="edge">
<title>Node4&#45;&gt;Node3</title>
<g id="a_edge4_Node000004_Node000003"><a xlink:title=" ">
<path fill="none" stroke="#63b8ff" d="M78.72,-78.05C66.57,-79.96 54.96,-81.78 45.94,-83.2"/>
<polygon fill="#63b8ff" stroke="#63b8ff" points="79.15,-81.52 88.48,-76.51 78.06,-74.61 79.15,-81.52"/>
</a>
</g>
</g>
<!-- Node6 -->
<g id="Node000006" class="node">
<title>Node6</title>
<g id="a_Node000006"><a xlink:href="gui__main_8c.html#a50c9496063704973573429586a90b27d" target="_top" xlink:title=" ">
<polygon fill="white" stroke="#666666" points="180.5,-20 119.5,-20 119.5,0 180.5,0 180.5,-20"/>
<text xml:space="preserve" text-anchor="middle" x="150" y="-6.5" font-family="Helvetica,sans-Serif" font-size="10.00">dash_proc</text>
</a>
</g>
</g>
<!-- Node5&#45;&gt;Node6 -->
<g id="edge6_Node000005_Node000006" class="edge">
<title>Node5&#45;&gt;Node6</title>
<g id="a_edge6_Node000005_Node000006"><a xlink:title=" ">
<path fill="none" stroke="#63b8ff" d="M246.36,-10C224.18,-10 199.57,-10 180.9,-10"/>
<polygon fill="#63b8ff" stroke="#63b8ff" points="246.17,-13.5 256.17,-10 246.17,-6.5 246.17,-13.5"/>
</a>
</g>
</g>
<!-- Node7 -->
<g id="Node000007" class="node">
<title>Node7</title>
<g id="a_Node000007"><a xlink:href="gui__main_8c.html#aab234127c99873cb463e482155cb679f" target="_top" xlink:title=" ">
<polygon fill="white" stroke="#666666" points="54.25,-20 0,-20 0,0 54.25,0 54.25,-20"/>
<text xml:space="preserve" text-anchor="middle" x="27.12" y="-6.5" font-family="Helvetica,sans-Serif" font-size="10.00">WinMain</text>
</a>
</g>
</g>
<!-- Node6&#45;&gt;Node7 -->
<g id="edge7_Node000006_Node000007" class="edge">
<title>Node6&#45;&gt;Node7</title>
<g id="a_edge7_Node000006_Node000007"><a xlink:title=" ">
<path fill="none" stroke="#63b8ff" d="M107.66,-10C90.01,-10 69.94,-10 54.38,-10"/>
<polygon fill="#63b8ff" stroke="#63b8ff" points="107.61,-13.5 117.61,-10 107.61,-6.5 107.61,-13.5"/>
</a>
</g>
</g>
<!-- Node8&#45;&gt;Node2 -->
<g id="edge9_Node000008_Node000002" class="edge">
<title>Node8&#45;&gt;Node2</title>
<g id="a_edge9_Node000008_Node000002"><a xlink:title=" ">
<path fill="none" stroke="#63b8ff" d="M234.42,-94.52C219.78,-96.36 204.74,-98.25 191.54,-99.91"/>
<polygon fill="#63b8ff" stroke="#63b8ff" points="234.51,-98.04 244,-93.32 233.64,-91.09 234.51,-98.04"/>
</a>
</g>
</g>
<!-- Node8&#45;&gt;Node4 -->
<g id="edge10_Node000008_Node000004" class="edge">
<title>Node8&#45;&gt;Node4</title>
<g id="a_edge10_Node000008_Node000004"><a xlink:title=" ">
<path fill="none" stroke="#63b8ff" d="M234.23,-77.46C226.17,-76.44 218,-75.42 210.09,-74.42"/>
<polygon fill="#63b8ff" stroke="#63b8ff" points="233.64,-80.91 244,-78.68 234.51,-73.96 233.64,-80.91"/>
</a>
</g>
</g>
</g>
</svg>
