<?xml version="1.0" encoding="UTF-8" standalone="no"?>
<!DOCTYPE svg PUBLIC "-//W3C//DTD SVG 1.1//EN"
 "http://www.w3.org/Graphics/SVG/1.1/DTD/svg11.dtd">
<!-- Generated by graphviz version 14.1.4 (20260321.0153)
 -->
<!-- Title: overall_alert_level Pages: 1 -->
<svg width="745pt" height="294pt"
 viewBox="0.00 0.00 745.00 294.00" xmlns="http://www.w3.org/2000/svg" xmlns:xlink="http://www.w3.org/1999/xlink">
<g id="graph0" class="graph" transform="scale(1 1) rotate(0) translate(4 290)">
<title>overall_alert_level</title>
<!-- Node1 -->
<g id="Node000001" class="node">
<title>Node1</title>
<g id="a_Node000001"><a xlink:title="Return the highest alert level across all vital sign parameters.">
<polygon fill="#999999" stroke="#666666" points="736.5,-219 642.5,-219 642.5,-199 736.5,-199 736.5,-219"/>
<text xml:space="preserve" text-anchor="middle" x="689.5" y="-205.5" font-family="Helvetica,sans-Serif" font-size="10.00">overall_alert_level</text>
</a>
</g>
</g>
<!-- Node2 -->
<g id="Node000002" class="node">
<title>Node2</title>
<g id="a_Node000002"><a xlink:href="patient_8c.html#a7efb2602c9a2566fee89ff6d6af42bcf" target="_top" xlink:title="Return the overall status from the latest reading.">
<polygon fill="white" stroke="#666666" points="606.5,-219 493.75,-219 493.75,-199 606.5,-199 606.5,-219"/>
<text xml:space="preserve" text-anchor="middle" x="550.12" y="-205.5" font-family="Helvetica,sans-Serif" font-size="10.00">patient_current_status</text>
</a>
</g>
</g>
<!-- Node1&#45;&gt;Node2 -->
<g id="edge1_Node000001_Node000002" class="edge">
<title>Node1&#45;&gt;Node2</title>
<g id="a_edge1_Node000001_Node000002"><a xlink:title=" ">
<path fill="none" stroke="#63b8ff" d="M630.92,-209C622.97,-209 614.82,-209 606.9,-209"/>
<polygon fill="#63b8ff" stroke="#63b8ff" points="630.86,-212.5 640.86,-209 630.86,-205.5 630.86,-212.5"/>
</a>
</g>
</g>
<!-- Node10 -->
<g id="Node000010" class="node">
<title>Node10</title>
<g id="a_Node000010"><a xlink:href="main_8c.html#a0082d156ee2712806a55606f6637d160" target="_top" xlink:title="Print a single vital sign reading with per&#45;parameter status and alerts.">
<polygon fill="white" stroke="#666666" points="436,-286 364.5,-286 364.5,-266 436,-266 436,-286"/>
<text xml:space="preserve" text-anchor="middle" x="400.25" y="-272.5" font-family="Helvetica,sans-Serif" font-size="10.00">print_reading</text>
</a>
</g>
</g>
<!-- Node1&#45;&gt;Node10 -->
<g id="edge10_Node000001_Node000010" class="edge">
<title>Node1&#45;&gt;Node10</title>
<g id="a_edge10_Node000001_Node000010"><a xlink:title=" ">
<path fill="none" stroke="#63b8ff" d="M632.42,-222.08C574.28,-235.64 485.19,-256.42 436.33,-267.82"/>
<polygon fill="#63b8ff" stroke="#63b8ff" points="633.2,-225.49 642.14,-219.81 631.61,-218.68 633.2,-225.49"/>
</a>
</g>
</g>
<!-- Node11 -->
<g id="Node000011" class="node">
<title>Node11</title>
<g id="a_Node000011"><a xlink:href="gui__main_8c.html#a8faad4cd27c161432ac3388959b1a766" target="_top" xlink:title="Refresh all dynamic dashboard content after any data change. @req SWR&#45;GUI&#45;003 @req SWR&#45;GUI&#45;004.">
<polygon fill="white" stroke="#666666" points="597.88,-115 502.38,-115 502.38,-95 597.88,-95 597.88,-115"/>
<text xml:space="preserve" text-anchor="middle" x="550.12" y="-101.5" font-family="Helvetica,sans-Serif" font-size="10.00">update_dashboard</text>
</a>
</g>
</g>
<!-- Node1&#45;&gt;Node11 -->
<g id="edge13_Node000001_Node000011" class="edge">
<title>Node1&#45;&gt;Node11</title>
<g id="a_edge13_Node000001_Node000011"><a xlink:title=" ">
<path fill="none" stroke="#63b8ff" d="M665.9,-191.89C637.14,-170.12 588.36,-133.19 564.74,-115.31"/>
<polygon fill="#63b8ff" stroke="#63b8ff" points="663.53,-194.49 673.62,-197.73 667.76,-188.91 663.53,-194.49"/>
</a>
</g>
</g>
<!-- Node3 -->
<g id="Node000003" class="node">
<title>Node3</title>
<g id="a_Node000003"><a xlink:href="gui__main_8c.html#a71c5868a8a8bcd102dfebf5a8cd8e55a" target="_top" xlink:title="Paint the aggregate status banner. @req SWR&#45;GUI&#45;003.">
<polygon fill="white" stroke="#666666" points="452.12,-210 348.38,-210 348.38,-190 452.12,-190 452.12,-210"/>
<text xml:space="preserve" text-anchor="middle" x="400.25" y="-196.5" font-family="Helvetica,sans-Serif" font-size="10.00">paint_status_banner</text>
</a>
</g>
</g>
<!-- Node2&#45;&gt;Node3 -->
<g id="edge2_Node000002_Node000003" class="edge">
<title>Node2&#45;&gt;Node3</title>
<g id="a_edge2_Node000002_Node000003"><a xlink:title=" ">
<path fill="none" stroke="#63b8ff" d="M482.32,-204.93C472.19,-204.32 461.88,-203.69 452.16,-203.1"/>
<polygon fill="#63b8ff" stroke="#63b8ff" points="481.94,-208.42 492.13,-205.53 482.36,-201.43 481.94,-208.42"/>
</a>
</g>
</g>
<!-- Node6 -->
<g id="Node000006" class="node">
<title>Node6</title>
<g id="a_Node000006"><a xlink:href="patient_8c.html#a19d76f7281d5f5ad5408c1ff4dc2ee11" target="_top" xlink:title="Print a formatted patient summary including vitals and active alerts.">
<polygon fill="white" stroke="#666666" points="457.75,-248 342.75,-248 342.75,-228 457.75,-228 457.75,-248"/>
<text xml:space="preserve" text-anchor="middle" x="400.25" y="-234.5" font-family="Helvetica,sans-Serif" font-size="10.00">patient_print_summary</text>
</a>
</g>
</g>
<!-- Node2&#45;&gt;Node6 -->
<g id="edge5_Node000002_Node000006" class="edge">
<title>Node2&#45;&gt;Node6</title>
<g id="a_edge5_Node000002_Node000006"><a xlink:title=" ">
<path fill="none" stroke="#63b8ff" d="M484.57,-221.66C474.55,-223.63 464.29,-225.64 454.56,-227.55"/>
<polygon fill="#63b8ff" stroke="#63b8ff" points="485.11,-225.12 494.25,-219.76 483.77,-218.25 485.11,-225.12"/>
</a>
</g>
</g>
<!-- Node4 -->
<g id="Node000004" class="node">
<title>Node4</title>
<g id="a_Node000004"><a xlink:href="gui__main_8c.html#a50c9496063704973573429586a90b27d" target="_top" xlink:title=" ">
<polygon fill="white" stroke="#666666" points="151.25,-115 90.25,-115 90.25,-95 151.25,-95 151.25,-115"/>
<text xml:space="preserve" text-anchor="middle" x="120.75" y="-101.5" font-family="Helvetica,sans-Serif" font-size="10.00">dash_proc</text>
</a>
</g>
</g>
<!-- Node3&#45;&gt;Node4 -->
<g id="edge3_Node000003_Node000004" class="edge">
<title>Node3&#45;&gt;Node4</title>
<g id="a_edge3_Node000003_Node000004"><a xlink:title=" ">
<path fill="none" stroke="#63b8ff" d="M336.59,-204.13C292.56,-204.43 233.5,-199.45 187.25,-176 159.73,-162.05 137.93,-131.47 127.85,-115.38"/>
<polygon fill="#63b8ff" stroke="#63b8ff" points="336.57,-207.63 346.5,-203.95 336.45,-200.63 336.57,-207.63"/>
</a>
</g>
</g>
<!-- Node5 -->
<g id="Node000005" class="node">
<title>Node5</title>
<g id="a_Node000005"><a xlink:href="gui__main_8c.html#aab234127c99873cb463e482155cb679f" target="_top" xlink:title=" ">
<polygon fill="white" stroke="#666666" points="54.25,-115 0,-115 0,-95 54.25,-95 54.25,-115"/>
<text xml:space="preserve" text-anchor="middle" x="27.12" y="-101.5" font-family="Helvetica,sans-Serif" font-size="10.00">WinMain</text>
</a>
</g>
</g>
<!-- Node4&#45;&gt;Node5 -->
<g id="edge4_Node000004_Node000005" class="edge">
<title>Node4&#45;&gt;Node5</title>
<g id="a_edge4_Node000004_Node000005"><a xlink:title=" ">
<path fill="none" stroke="#63b8ff" d="M78.7,-105C70.53,-105 62.16,-105 54.63,-105"/>
<polygon fill="#63b8ff" stroke="#63b8ff" points="78.49,-108.5 88.49,-105 78.49,-101.5 78.49,-108.5"/>
</a>
</g>
</g>
<!-- Node7 -->
<g id="Node000007" class="node">
<title>Node7</title>
<g id="a_Node000007"><a xlink:href="main_8c.html#a1a904050ef641d46ba74b91e8ff5b7f9" target="_top" xlink:title="Run the monitoring session for Patient 1 (deterioration scenario).">
<polygon fill="white" stroke="#666666" points="288.38,-286 205.62,-286 205.62,-266 288.38,-266 288.38,-286"/>
<text xml:space="preserve" text-anchor="middle" x="247" y="-272.5" font-family="Helvetica,sans-Serif" font-size="10.00">monitor_patient</text>
</a>
</g>
</g>
<!-- Node6&#45;&gt;Node7 -->
<g id="edge6_Node000006_Node000007" class="edge">
<title>Node6&#45;&gt;Node7</title>
<g id="a_edge6_Node000006_Node000007"><a xlink:title=" ">
<path fill="none" stroke="#63b8ff" d="M346.38,-251.28C327.5,-256.03 306.52,-261.3 288.81,-265.75"/>
<polygon fill="#63b8ff" stroke="#63b8ff" points="347.21,-254.68 356.05,-248.85 345.5,-247.9 347.21,-254.68"/>
</a>
</g>
</g>
<!-- Node9 -->
<g id="Node000009" class="node">
<title>Node9</title>
<g id="a_Node000009"><a xlink:href="main_8c.html#a418db4bf280a08fda4493a816c841643" target="_top" xlink:title="Run the monitoring session for Patient 2 (bradycardia scenario).">
<polygon fill="white" stroke="#666666" points="306.75,-248 187.25,-248 187.25,-228 306.75,-228 306.75,-248"/>
<text xml:space="preserve" text-anchor="middle" x="247" y="-234.5" font-family="Helvetica,sans-Serif" font-size="10.00">monitor_second_patient</text>
</a>
</g>
</g>
<!-- Node6&#45;&gt;Node9 -->
<g id="edge8_Node000006_Node000009" class="edge">
<title>Node6&#45;&gt;Node9</title>
<g id="a_edge8_Node000006_Node000009"><a xlink:title=" ">
<path fill="none" stroke="#63b8ff" d="M331.23,-238C323.17,-238 315,-238 307.09,-238"/>
<polygon fill="#63b8ff" stroke="#63b8ff" points="330.99,-241.5 340.99,-238 330.99,-234.5 330.99,-241.5"/>
</a>
</g>
</g>
<!-- Node8 -->
<g id="Node000008" class="node">
<title>Node8</title>
<g id="a_Node000008"><a xlink:href="main_8c.html#a840291bc02cba5474a4cb46a9b9566fe" target="_top" xlink:title="Application entry point.">
<polygon fill="white" stroke="#666666" points="139.25,-267 102.25,-267 102.25,-247 139.25,-247 139.25,-267"/>
<text xml:space="preserve" text-anchor="middle" x="120.75" y="-253.5" font-family="Helvetica,sans-Serif" font-size="10.00">main</text>
</a>
</g>
</g>
<!-- Node7&#45;&gt;Node8 -->
<g id="edge7_Node000007_Node000008" class="edge">
<title>Node7&#45;&gt;Node8</title>
<g id="a_edge7_Node000007_Node000008"><a xlink:title=" ">
<path fill="none" stroke="#63b8ff" d="M194.1,-268.06C174.68,-265.09 153.89,-261.92 139.61,-259.73"/>
<polygon fill="#63b8ff" stroke="#63b8ff" points="193.41,-271.5 203.82,-269.55 194.46,-264.58 193.41,-271.5"/>
</a>
</g>
</g>
<!-- Node9&#45;&gt;Node8 -->
<g id="edge9_Node000009_Node000008" class="edge">
<title>Node9&#45;&gt;Node8</title>
<g id="a_edge9_Node000009_Node000008"><a xlink:title=" ">
<path fill="none" stroke="#63b8ff" d="M175.56,-248.77C162.27,-250.8 149.5,-252.76 139.74,-254.25"/>
<polygon fill="#63b8ff" stroke="#63b8ff" points="175.93,-252.26 185.29,-247.28 174.88,-245.34 175.93,-252.26"/>
</a>
</g>
</g>
<!-- Node10&#45;&gt;Node7 -->
<g id="edge11_Node000010_Node000007" class="edge">
<title>Node10&#45;&gt;Node7</title>
<g id="a_edge11_Node000010_Node000007"><a xlink:title=" ">
<path fill="none" stroke="#63b8ff" d="M352.88,-276C332.41,-276 308.56,-276 288.78,-276"/>
<polygon fill="#63b8ff" stroke="#63b8ff" points="352.66,-279.5 362.66,-276 352.66,-272.5 352.66,-279.5"/>
</a>
</g>
</g>
<!-- Node10&#45;&gt;Node9 -->
<g id="edge12_Node000010_Node000009" class="edge">
<title>Node10&#45;&gt;Node9</title>
<g id="a_edge12_Node000010_Node000009"><a xlink:title=" ">
<path fill="none" stroke="#63b8ff" d="M353.02,-264.38C332.8,-259.31 309.26,-253.39 289.6,-248.45"/>
<polygon fill="#63b8ff" stroke="#63b8ff" points="352.15,-267.78 362.7,-266.82 353.86,-260.99 352.15,-267.78"/>
</a>
</g>
</g>
<!-- Node11&#45;&gt;Node4 -->
<g id="edge14_Node000011_Node000004" class="edge">
<title>Node11&#45;&gt;Node4</title>
<g id="a_edge14_Node000011_Node000004"><a xlink:title=" ">
<path fill="none" stroke="#63b8ff" d="M508.35,-118.77C440.54,-139.59 300.8,-173.55 187.25,-143 167.45,-137.67 147.46,-124.73 134.86,-115.43"/>
<polygon fill="#63b8ff" stroke="#63b8ff" points="509.06,-122.22 517.55,-115.88 506.96,-115.54 509.06,-122.22"/>
</a>
</g>
</g>
<!-- Node12 -->
<g id="Node000012" class="node">
<title>Node12</title>
<g id="a_Node000012"><a xlink:href="gui__main_8c.html#a9d7273263f3a31bf701590beb4c5b1d1" target="_top" xlink:title="Record a new vital signs reading from the vitals entry fields. @req SWR&#45;GUI&#45;004.">
<polygon fill="white" stroke="#666666" points="289.12,-20 204.88,-20 204.88,0 289.12,0 289.12,-20"/>
<text xml:space="preserve" text-anchor="middle" x="247" y="-6.5" font-family="Helvetica,sans-Serif" font-size="10.00">do_add_reading</text>
</a>
</g>
</g>
<!-- Node11&#45;&gt;Node12 -->
<g id="edge15_Node000011_Node000012" class="edge">
<title>Node11&#45;&gt;Node12</title>
<g id="a_edge15_Node000011_Node000012"><a xlink:title=" ">
<path fill="none" stroke="#63b8ff" d="M533.3,-86.51C516.57,-68.38 488.39,-41.67 457.75,-29 402.84,-6.3 333.13,-4.76 289.53,-6.67"/>
<polygon fill="#63b8ff" stroke="#63b8ff" points="530.28,-88.38 539.55,-93.5 535.49,-83.71 530.28,-88.38"/>
</a>
</g>
</g>
<!-- Node13 -->
<g id="Node000013" class="node">
<title>Node13</title>
<g id="a_Node000013"><a xlink:href="gui__main_8c.html#a6bed6b36812029c7bc2eb263a12e5c98" target="_top" xlink:title="Admit a patient from the identity fields. @req SWR&#45;GUI&#45;004.">
<polygon fill="white" stroke="#666666" points="428.12,-58 372.38,-58 372.38,-38 428.12,-38 428.12,-58"/>
<text xml:space="preserve" text-anchor="middle" x="400.25" y="-44.5" font-family="Helvetica,sans-Serif" font-size="10.00">do_admit</text>
</a>
</g>
</g>
<!-- Node11&#45;&gt;Node13 -->
<g id="edge17_Node000011_Node000013" class="edge">
<title>Node11&#45;&gt;Node13</title>
<g id="a_edge17_Node000011_Node000013"><a xlink:title=" ">
<path fill="none" stroke="#63b8ff" d="M511.44,-90.47C485.54,-80.49 451.75,-67.46 428.45,-58.48"/>
<polygon fill="#63b8ff" stroke="#63b8ff" points="510,-93.67 520.59,-94 512.52,-87.14 510,-93.67"/>
</a>
</g>
</g>
<!-- Node14 -->
<g id="Node000014" class="node">
<title>Node14</title>
<g id="a_Node000014"><a xlink:href="gui__main_8c.html#a9106ea80981b1db52b607a5e58f0ecf3" target="_top" xlink:title=" ">
<polygon fill="white" stroke="#666666" points="281.25,-96 212.75,-96 212.75,-76 281.25,-76 281.25,-96"/>
<text xml:space="preserve" text-anchor="middle" x="247" y="-82.5" font-family="Helvetica,sans-Serif" font-size="10.00">do_scenario</text>
</a>
</g>
</g>
<!-- Node11&#45;&gt;Node14 -->
<g id="edge24_Node000011_Node000014" class="edge">
<title>Node11&#45;&gt;Node14</title>
<g id="a_edge24_Node000011_Node000014"><a xlink:title=" ">
<path fill="none" stroke="#63b8ff" d="M490.88,-101.32C428.69,-97.4 332.29,-91.32 281.67,-88.12"/>
<polygon fill="#63b8ff" stroke="#63b8ff" points="490.36,-104.8 500.56,-101.94 490.8,-97.81 490.36,-104.8"/>
</a>
</g>
</g>
<!-- Node15 -->
<g id="Node000015" class="node">
<title>Node15</title>
<g id="a_Node000015"><a xlink:href="gui__main_8c.html#a11329148e25059d43a9d848bf4f90d4b" target="_top" xlink:title=" ">
<polygon fill="white" stroke="#666666" points="273.38,-134 220.62,-134 220.62,-114 273.38,-114 273.38,-134"/>
<text xml:space="preserve" text-anchor="middle" x="247" y="-120.5" font-family="Helvetica,sans-Serif" font-size="10.00">do_clear</text>
</a>
</g>
</g>
<!-- Node11&#45;&gt;Node15 -->
<g id="edge22_Node000011_Node000015" class="edge">
<title>Node11&#45;&gt;Node15</title>
<g id="a_edge22_Node000011_Node000015"><a xlink:title=" ">
<path fill="none" stroke="#63b8ff" d="M490.69,-108.69C425.1,-112.83 321.62,-119.35 273.8,-122.37"/>
<polygon fill="#63b8ff" stroke="#63b8ff" points="490.8,-112.19 500.56,-108.06 490.36,-105.2 490.8,-112.19"/>
</a>
</g>
</g>
<!-- Node12&#45;&gt;Node4 -->
<g id="edge16_Node000012_Node000004" class="edge">
<title>Node12&#45;&gt;Node4</title>
<g id="a_edge16_Node000012_Node000004"><a xlink:title=" ">
<path fill="none" stroke="#63b8ff" d="M202.82,-25.06C197.38,-27.69 192.05,-30.67 187.25,-34 162.31,-51.31 139.9,-79.63 128.9,-94.75"/>
<polygon fill="#63b8ff" stroke="#63b8ff" points="204.18,-28.28 211.91,-21.03 201.34,-21.88 204.18,-28.28"/>
</a>
</g>
</g>
<!-- Node13&#45;&gt;Node4 -->
<g id="edge18_Node000013_Node000004" class="edge">
<title>Node13&#45;&gt;Node4</title>
<g id="a_edge18_Node000013_Node000004"><a xlink:title=" ">
<path fill="none" stroke="#63b8ff" d="M360.67,-46.51C317.41,-45.96 245.68,-48.44 187.25,-67 167.95,-73.13 148.17,-85.64 135.47,-94.63"/>
<polygon fill="#63b8ff" stroke="#63b8ff" points="360.5,-50 370.56,-46.7 360.64,-43.01 360.5,-50"/>
</a>
</g>
</g>
<!-- Node13&#45;&gt;Node12 -->
<g id="edge19_Node000013_Node000012" class="edge">
<title>Node13&#45;&gt;Node12</title>
<g id="a_edge19_Node000013_Node000012"><a xlink:title=" ">
<path fill="none" stroke="#63b8ff" d="M361.32,-38.47C339.41,-32.97 311.82,-26.03 289.35,-20.39"/>
<polygon fill="#63b8ff" stroke="#63b8ff" points="360.19,-41.8 370.74,-40.84 361.9,-35.01 360.19,-41.8"/>
</a>
</g>
</g>
<!-- Node13&#45;&gt;Node14 -->
<g id="edge20_Node000013_Node000014" class="edge">
<title>Node13&#45;&gt;Node14</title>
<g id="a_edge20_Node000013_Node000014"><a xlink:title=" ">
<path fill="none" stroke="#63b8ff" d="M361.18,-57.57C336.72,-63.71 305.24,-71.62 281.69,-77.54"/>
<polygon fill="#63b8ff" stroke="#63b8ff" points="361.9,-60.99 370.74,-55.16 360.19,-54.2 361.9,-60.99"/>
</a>
</g>
</g>
<!-- Node14&#45;&gt;Node4 -->
<g id="edge21_Node000014_Node000004" class="edge">
<title>Node14&#45;&gt;Node4</title>
<g id="a_edge21_Node000014_Node000004"><a xlink:title=" ">
<path fill="none" stroke="#63b8ff" d="M201.29,-92.84C184.77,-95.36 166.47,-98.16 151.59,-100.44"/>
<polygon fill="#63b8ff" stroke="#63b8ff" points="201.52,-96.34 210.88,-91.37 200.47,-89.42 201.52,-96.34"/>
</a>
</g>
</g>
<!-- Node15&#45;&gt;Node4 -->
<g id="edge23_Node000015_Node000004" class="edge">
<title>Node15&#45;&gt;Node4</title>
<g id="a_edge23_Node000015_Node000004"><a xlink:title=" ">
<path fill="none" stroke="#63b8ff" d="M209.04,-118.35C190.63,-115.53 168.68,-112.18 151.39,-109.53"/>
<polygon fill="#63b8ff" stroke="#63b8ff" points="208.34,-121.78 218.76,-119.83 209.4,-114.86 208.34,-121.78"/>
</a>
</g>
</g>
</g>
</svg>
