<?xml version="1.0" encoding="UTF-8" standalone="no"?>
<!DOCTYPE svg PUBLIC "-//W3C//DTD SVG 1.1//EN"
 "http://www.w3.org/Graphics/SVG/1.1/DTD/svg11.dtd">
<!-- Generated by graphviz version 14.1.4 (20260321.0153)
 -->
<!-- Title: include/vitals.h Pages: 1 -->
<svg width="483pt" height="196pt"
 viewBox="0.00 0.00 483.00 196.00" xmlns="http://www.w3.org/2000/svg" xmlns:xlink="http://www.w3.org/1999/xlink">

<svg id="main" version="1.1" xmlns="http://www.w3.org/2000/svg" xmlns:xlink="http://www.w3.org/1999/xlink" xml:space="preserve">

<style type="text/css"><![CDATA[
.node, .edge {opacity: 0.7;}
.node.selected, .edge.selected {opacity: 1;}
.edge:hover path { stroke: red; }
.edge:hover polygon { stroke: red; fill: red; }
]]></style>
<script type="application/ecmascript" xlink:href="svg.min.js"/>
<svg id="graph" class="graph">
<g id="graph0" class="graph" transform="scale(1 1) rotate(0) translate(4 192)">
<title>include/vitals.h</title>
<!-- Node1 -->
<g id="Node000001" class="node">
<title>Node1</title>
<g id="a_Node000001"><a xlink:title="Vital signs data types, thresholds, and validation functions.">
<polygon fill="#999999" stroke="#666666" points="305.5,-188 224.25,-188 224.25,-168 305.5,-168 305.5,-188"/>
<text xml:space="preserve" text-anchor="middle" x="264.88" y="-174.5" font-family="Helvetica,sans-Serif" font-size="10.00">include/vitals.h</text>
</a>
</g>
</g>
<!-- Node2 -->
<g id="Node000002" class="node">
<title>Node2</title>
<g id="a_Node000002"><a xlink:href="alerts_8h.html" target="_top" xlink:title="Alert record generation from a set of vital sign measurements.">
<polygon fill="white" stroke="#666666" points="223.88,-132 141.88,-132 141.88,-112 223.88,-112 223.88,-132"/>
<text xml:space="preserve" text-anchor="middle" x="182.88" y="-118.5" font-family="Helvetica,sans-Serif" font-size="10.00">include/alerts.h</text>
</a>
</g>
</g>
<!-- Node1&#45;&gt;Node2 -->
<g id="edge1_Node000001_Node000002" class="edge">
<title>Node1&#45;&gt;Node2</title>
<g id="a_edge1_Node000001_Node000002"><a xlink:title=" ">
<path fill="none" stroke="#63b8ff" d="M240.99,-161.27C226.83,-151.94 209.34,-140.43 197.27,-132.48"/>
<polygon fill="#63b8ff" stroke="#63b8ff" points="239.05,-164.18 249.33,-166.76 242.9,-158.34 239.05,-164.18"/>
</a>
</g>
</g>
<!-- Node3 -->
<g id="Node000003" class="node">
<title>Node3</title>
<g id="a_Node000003"><a xlink:href="patient_8h.html" target="_top" xlink:title="Patient record management — demographic data and vital sign history.">
<polygon fill="white" stroke="#666666" points="116.5,-76 29.25,-76 29.25,-56 116.5,-56 116.5,-76"/>
<text xml:space="preserve" text-anchor="middle" x="72.88" y="-62.5" font-family="Helvetica,sans-Serif" font-size="10.00">include/patient.h</text>
</a>
</g>
</g>
<!-- Node1&#45;&gt;Node3 -->
<g id="edge11_Node000001_Node000003" class="edge">
<title>Node1&#45;&gt;Node3</title>
<g id="a_edge11_Node000001_Node000003"><a xlink:title=" ">
<path fill="none" stroke="#63b8ff" d="M212.89,-165.69C187.42,-158.61 157.09,-147.76 132.88,-132 109.45,-116.75 89.01,-90.33 79.14,-76.33"/>
<polygon fill="#63b8ff" stroke="#63b8ff" points="211.82,-169.03 222.38,-168.21 213.61,-162.27 211.82,-169.03"/>
</a>
</g>
</g>
<!-- Node4 -->
<g id="Node000004" class="node">
<title>Node4</title>
<g id="a_Node000004"><a xlink:href="gui__main_8c.html" target="_top" xlink:title="Win32 GUI entry point — Patient Vital Signs Monitor.">
<polygon fill="white" stroke="#666666" points="275.75,-20 196,-20 196,0 275.75,0 275.75,-20"/>
<text xml:space="preserve" text-anchor="middle" x="235.88" y="-6.5" font-family="Helvetica,sans-Serif" font-size="10.00">src/gui_main.c</text>
</a>
</g>
</g>
<!-- Node1&#45;&gt;Node4 -->
<g id="edge12_Node000001_Node000004" class="edge">
<title>Node1&#45;&gt;Node4</title>
<g id="a_edge12_Node000001_Node000004"><a xlink:title=" ">
<path fill="none" stroke="#63b8ff" d="M262.03,-156.31C258.62,-132.16 252.52,-91.07 245.88,-56 243.52,-43.58 240.26,-29.35 238.11,-20.27"/>
<polygon fill="#63b8ff" stroke="#63b8ff" points="258.54,-156.63 263.39,-166.05 265.47,-155.67 258.54,-156.63"/>
</a>
</g>
</g>
<!-- Node8 -->
<g id="Node000008" class="node">
<title>Node8</title>
<g id="a_Node000008"><a xlink:href="hw__vitals_8h.html" target="_top" xlink:title="Hardware Abstraction Layer (HAL) for vital signs acquisition.">
<polygon fill="white" stroke="#666666" points="392.5,-132 293.25,-132 293.25,-112 392.5,-112 392.5,-132"/>
<text xml:space="preserve" text-anchor="middle" x="342.88" y="-118.5" font-family="Helvetica,sans-Serif" font-size="10.00">include/hw_vitals.h</text>
</a>
</g>
</g>
<!-- Node1&#45;&gt;Node8 -->
<g id="edge8_Node000001_Node000008" class="edge">
<title>Node1&#45;&gt;Node8</title>
<g id="a_edge8_Node000001_Node000008"><a xlink:title=" ">
<path fill="none" stroke="#63b8ff" d="M287.59,-161.27C301.07,-151.94 317.7,-140.43 329.18,-132.48"/>
<polygon fill="#63b8ff" stroke="#63b8ff" points="285.94,-158.16 279.71,-166.73 289.92,-163.92 285.94,-158.16"/>
</a>
</g>
</g>
<!-- Node10 -->
<g id="Node000010" class="node">
<title>Node10</title>
<g id="a_Node000010"><a xlink:href="vitals_8c.html" target="_top" xlink:title="Implementation of vital sign validation and BMI calculation.">
<polygon fill="white" stroke="#666666" points="474.88,-132 410.88,-132 410.88,-112 474.88,-112 474.88,-132"/>
<text xml:space="preserve" text-anchor="middle" x="442.88" y="-118.5" font-family="Helvetica,sans-Serif" font-size="10.00">src/vitals.c</text>
</a>
</g>
</g>
<!-- Node1&#45;&gt;Node10 -->
<g id="edge13_Node000001_Node000010" class="edge">
<title>Node1&#45;&gt;Node10</title>
<g id="a_edge13_Node000001_Node000010"><a xlink:title=" ">
<path fill="none" stroke="#63b8ff" d="M306.72,-164.31C338.85,-154.56 382.5,-141.32 411.63,-132.48"/>
<polygon fill="#63b8ff" stroke="#63b8ff" points="305.88,-160.9 297.33,-167.15 307.91,-167.6 305.88,-160.9"/>
</a>
</g>
</g>
<!-- Node2&#45;&gt;Node3 -->
<g id="edge2_Node000002_Node000003" class="edge">
<title>Node2&#45;&gt;Node3</title>
<g id="a_edge2_Node000002_Node000003"><a xlink:title=" ">
<path fill="none" stroke="#63b8ff" d="M153.57,-106.61C134.13,-97.07 109.16,-84.81 92.19,-76.48"/>
<polygon fill="#63b8ff" stroke="#63b8ff" points="151.84,-109.66 162.36,-110.93 154.92,-103.38 151.84,-109.66"/>
</a>
</g>
</g>
<!-- Node2&#45;&gt;Node4 -->
<g id="edge7_Node000002_Node000004" class="edge">
<title>Node2&#45;&gt;Node4</title>
<g id="a_edge7_Node000002_Node000004"><a xlink:title=" ">
<path fill="none" stroke="#63b8ff" d="M169.86,-102.05C162.37,-88.6 155.87,-70.44 163.88,-56 173.31,-38.98 192.16,-27.55 208.2,-20.47"/>
<polygon fill="#63b8ff" stroke="#63b8ff" points="166.79,-103.73 175.03,-110.39 172.74,-100.04 166.79,-103.73"/>
</a>
</g>
</g>
<!-- Node7 -->
<g id="Node000007" class="node">
<title>Node7</title>
<g id="a_Node000007"><a xlink:href="alerts_8c.html" target="_top" xlink:title="Implementation of alert record generation from vital sign readings.">
<polygon fill="white" stroke="#666666" points="237.25,-76 172.5,-76 172.5,-56 237.25,-56 237.25,-76"/>
<text xml:space="preserve" text-anchor="middle" x="204.88" y="-62.5" font-family="Helvetica,sans-Serif" font-size="10.00">src/alerts.c</text>
</a>
</g>
</g>
<!-- Node2&#45;&gt;Node7 -->
<g id="edge6_Node000002_Node000007" class="edge">
<title>Node2&#45;&gt;Node7</title>
<g id="a_edge6_Node000002_Node000007"><a xlink:title=" ">
<path fill="none" stroke="#63b8ff" d="M191.02,-101C194.47,-92.54 198.32,-83.08 201.09,-76.3"/>
<polygon fill="#63b8ff" stroke="#63b8ff" points="187.81,-99.61 187.28,-110.19 194.29,-102.25 187.81,-99.61"/>
</a>
</g>
</g>
<!-- Node3&#45;&gt;Node4 -->
<g id="edge3_Node000003_Node000004" class="edge">
<title>Node3&#45;&gt;Node4</title>
<g id="a_edge3_Node000003_Node000004"><a xlink:title=" ">
<path fill="none" stroke="#63b8ff" d="M111.97,-52.05C141.31,-42.33 180.82,-29.24 207.26,-20.48"/>
<polygon fill="#63b8ff" stroke="#63b8ff" points="111.1,-48.65 102.7,-55.12 113.3,-55.3 111.1,-48.65"/>
</a>
</g>
</g>
<!-- Node5 -->
<g id="Node000005" class="node">
<title>Node5</title>
<g id="a_Node000005"><a xlink:href="main_8c.html" target="_top" xlink:title="Application entry point — simulated patient monitoring session.">
<polygon fill="white" stroke="#666666" points="61.75,-20 0,-20 0,0 61.75,0 61.75,-20"/>
<text xml:space="preserve" text-anchor="middle" x="30.88" y="-6.5" font-family="Helvetica,sans-Serif" font-size="10.00">src/main.c</text>
</a>
</g>
</g>
<!-- Node3&#45;&gt;Node5 -->
<g id="edge4_Node000003_Node000005" class="edge">
<title>Node3&#45;&gt;Node5</title>
<g id="a_edge4_Node000003_Node000005"><a xlink:title=" ">
<path fill="none" stroke="#63b8ff" d="M58.66,-46.72C51.75,-37.84 43.74,-27.55 38.11,-20.3"/>
<polygon fill="#63b8ff" stroke="#63b8ff" points="55.73,-48.65 64.63,-54.4 61.25,-44.36 55.73,-48.65"/>
</a>
</g>
</g>
<!-- Node6 -->
<g id="Node000006" class="node">
<title>Node6</title>
<g id="a_Node000006"><a xlink:href="patient_8c.html" target="_top" xlink:title="Implementation of patient record management functions.">
<polygon fill="white" stroke="#666666" points="149.88,-20 79.88,-20 79.88,0 149.88,0 149.88,-20"/>
<text xml:space="preserve" text-anchor="middle" x="114.88" y="-6.5" font-family="Helvetica,sans-Serif" font-size="10.00">src/patient.c</text>
</a>
</g>
</g>
<!-- Node3&#45;&gt;Node6 -->
<g id="edge5_Node000003_Node000006" class="edge">
<title>Node3&#45;&gt;Node6</title>
<g id="a_edge5_Node000003_Node000006"><a xlink:title=" ">
<path fill="none" stroke="#63b8ff" d="M87.09,-46.72C94,-37.84 102.01,-27.55 107.64,-20.3"/>
<polygon fill="#63b8ff" stroke="#63b8ff" points="84.5,-44.36 81.12,-54.4 90.02,-48.65 84.5,-44.36"/>
</a>
</g>
</g>
<!-- Node8&#45;&gt;Node4 -->
<g id="edge9_Node000008_Node000004" class="edge">
<title>Node8&#45;&gt;Node4</title>
<g id="a_edge9_Node000008_Node000004"><a xlink:title=" ">
<path fill="none" stroke="#63b8ff" d="M325.88,-103.53C302.94,-79.95 262.88,-38.76 244.97,-20.35"/>
<polygon fill="#63b8ff" stroke="#63b8ff" points="323.22,-105.81 332.7,-110.54 328.23,-100.93 323.22,-105.81"/>
</a>
</g>
</g>
<!-- Node9 -->
<g id="Node000009" class="node">
<title>Node9</title>
<g id="a_Node000009"><a xlink:href="sim__vitals_8c.html" target="_top" xlink:title="Simulation back&#45;end for the vital signs HAL (hw_vitals.h).">
<polygon fill="white" stroke="#666666" points="416.38,-76 331.38,-76 331.38,-56 416.38,-56 416.38,-76"/>
<text xml:space="preserve" text-anchor="middle" x="373.88" y="-62.5" font-family="Helvetica,sans-Serif" font-size="10.00">src/sim_vitals.c</text>
</a>
</g>
</g>
<!-- Node8&#45;&gt;Node9 -->
<g id="edge10_Node000008_Node000009" class="edge">
<title>Node8&#45;&gt;Node9</title>
<g id="a_edge10_Node000008_Node000009"><a xlink:title=" ">
<path fill="none" stroke="#63b8ff" d="M353.86,-101.87C358.84,-93.19 364.51,-83.32 368.54,-76.3"/>
<polygon fill="#63b8ff" stroke="#63b8ff" points="350.97,-99.87 349.03,-110.28 357.04,-103.35 350.97,-99.87"/>
</a>
</g>
</g>
</g>
</svg>
</svg>

<style type='text/css'>
<![CDATA[
[data-mouse-over-selected='false'] { opacity: 0.7; }
[data-mouse-over-selected='true']  { opacity: 1.0; }
]]>
</style>
<script type="application/ecmascript"><![CDATA[
document.addEventListener('DOMContentLoaded', (event) => {
  highlightEdges();
  highlightAdjacentNodes();
});
]]></script>
</svg>
