<?xml version="1.0" encoding="UTF-8" standalone="no"?>
<!DOCTYPE svg PUBLIC "-//W3C//DTD SVG 1.1//EN"
 "http://www.w3.org/Graphics/SVG/1.1/DTD/svg11.dtd">
<!-- Generated by graphviz version 14.1.4 (20260321.0153)
 -->
<!-- Title: alert_level_str Pages: 1 -->
<!--zoomable 234 -->

<svg id="main" version="1.1" xmlns="http://www.w3.org/2000/svg" xmlns:xlink="http://www.w3.org/1999/xlink" xml:space="preserve" onload="init(evt)">

<style type="text/css"><![CDATA[
.node, .edge {opacity: 0.7;}
.node.selected, .edge.selected {opacity: 1;}
.edge:hover path { stroke: red; }
.edge:hover polygon { stroke: red; fill: red; }
]]></style>

<defs>
  <circle id="rim" cx="0" cy="0" r="7"/>
  <circle id="rim2" cx="0" cy="0" r="3.5"/>
  <g id="zoomPlus">
    <use xlink:href="#rim" fill="#404040"><set attributeName="fill" to="#808080" begin="zoomplus.mouseover" end="zoomplus.mouseout"/></use>
    <path d="M-4,0h8M0,-4v8" fill="none" stroke="white" stroke-width="1.5" pointer-events="none"/>
  </g>
  <g id="zoomMin">
    <use xlink:href="#rim" fill="#404040"><set attributeName="fill" to="#808080" begin="zoomminus.mouseover" end="zoomminus.mouseout"/></use>
    <path d="M-4,0h8" fill="none" stroke="white" stroke-width="1.5" pointer-events="none"/>
  </g>
  <g id="arrowUp" transform="translate(30 24)">
    <use xlink:href="#rim"/>
    <path pointer-events="none" fill="none" stroke="white" stroke-width="1.5" d="M0,-3.0v7 M-2.5,-0.5L0,-3.0L2.5,-0.5"/>
  </g>
  <g id="arrowRight" transform="rotate(90) translate(36 -43)">
    <use xlink:href="#rim"/>
    <path pointer-events="none" fill="none" stroke="white" stroke-width="1.5" d="M0,-3.0v7 M-2.5,-0.5L0,-3.0L2.5,-0.5"/>
  </g>
  <g id="arrowDown" transform="rotate(180) translate(-30 -48)">
    <use xlink:href="#rim"/>
    <path pointer-events="none" fill="none" stroke="white" stroke-width="1.5" d="M0,-3.0v7 M-2.5,-0.5L0,-3.0L2.5,-0.5"/>
  </g>
  <g id="arrowLeft" transform="rotate(270) translate(-36 17)">
    <use xlink:href="#rim"/>
    <path pointer-events="none" fill="none" stroke="white" stroke-width="1.5" d="M0,-3.0v7 M-2.5,-0.5L0,-3.0L2.5,-0.5"/>
  </g>
  <g id="resetDef">
    <use xlink:href="#rim2" fill="#404040"><set attributeName="fill" to="#808080" begin="reset.mouseover" end="reset.mouseout"/></use>
  </g>
</defs>
<script type="application/ecmascript">
var viewWidth = 699;
var viewHeight = 234;
var sectionId = 'dynsection-1';
</script>
<script type="application/ecmascript" xlink:href="svg.min.js"/>
<svg id="graph" class="graph">
<g id="viewport">
<title>alert_level_str</title>
<!-- Node1 -->
<g id="Node000001" class="node">
<title>Node1</title>
<g id="a_Node000001"><a xlink:title="Convert an AlertLevel enum to a display string.">
<polygon fill="#999999" stroke="#666666" points="690.75,-187.6 614,-187.6 614,-167.6 690.75,-167.6 690.75,-187.6"/>
<text xml:space="preserve" text-anchor="middle" x="652.38" y="-174.1" font-family="Helvetica,sans-Serif" font-size="10.00">alert_level_str</text>
</a>
</g>
</g>
<!-- Node2 -->
<g id="Node000002" class="node">
<title>Node2</title>
<g id="a_Node000002"><a xlink:href="patient_8c.html#a19d76f7281d5f5ad5408c1ff4dc2ee11" target="_top" xlink:title="Print a formatted patient summary including vitals and active alerts.">
<polygon fill="white" stroke="#666666" points="578,-225.6 463,-225.6 463,-205.6 578,-205.6 578,-225.6"/>
<text xml:space="preserve" text-anchor="middle" x="520.5" y="-212.1" font-family="Helvetica,sans-Serif" font-size="10.00">patient_print_summary</text>
</a>
</g>
</g>
<!-- Node1&#45;&gt;Node2 -->
<g id="edge1_Node000001_Node000002" class="edge">
<title>Node1&#45;&gt;Node2</title>
<g id="a_edge1_Node000001_Node000002"><a xlink:title=" ">
<path fill="none" stroke="#63b8ff" d="M604.51,-191.31C588.92,-195.87 571.82,-200.87 557.22,-205.15"/>
<polygon fill="#63b8ff" stroke="#63b8ff" points="605.47,-194.67 614.09,-188.51 603.51,-187.96 605.47,-194.67"/>
</a>
</g>
</g>
<!-- Node6 -->
<g id="Node000006" class="node">
<title>Node6</title>
<g id="a_Node000006"><a xlink:href="main_8c.html#a0082d156ee2712806a55606f6637d160" target="_top" xlink:title="Print a single vital sign reading with per&#45;parameter status and alerts.">
<polygon fill="white" stroke="#666666" points="556.25,-187.6 484.75,-187.6 484.75,-167.6 556.25,-167.6 556.25,-187.6"/>
<text xml:space="preserve" text-anchor="middle" x="520.5" y="-174.1" font-family="Helvetica,sans-Serif" font-size="10.00">print_reading</text>
</a>
</g>
</g>
<!-- Node1&#45;&gt;Node6 -->
<g id="edge6_Node000001_Node000006" class="edge">
<title>Node1&#45;&gt;Node6</title>
<g id="a_edge6_Node000001_Node000006"><a xlink:title=" ">
<path fill="none" stroke="#63b8ff" d="M602.39,-177.6C587.06,-177.6 570.46,-177.6 556.31,-177.6"/>
<polygon fill="#63b8ff" stroke="#63b8ff" points="602.3,-181.1 612.3,-177.6 602.3,-174.1 602.3,-181.1"/>
</a>
</g>
</g>
<!-- Node7 -->
<g id="Node000007" class="node">
<title>Node7</title>
<g id="a_Node000007"><a xlink:href="gui__main_8c.html#a8faad4cd27c161432ac3388959b1a766" target="_top" xlink:title="Refresh all dynamic dashboard content after any data change. @req SWR&#45;GUI&#45;003 @req SWR&#45;GUI&#45;004.">
<polygon fill="white" stroke="#666666" points="568.25,-92.6 472.75,-92.6 472.75,-72.6 568.25,-72.6 568.25,-92.6"/>
<text xml:space="preserve" text-anchor="middle" x="520.5" y="-79.1" font-family="Helvetica,sans-Serif" font-size="10.00">update_dashboard</text>
</a>
</g>
</g>
<!-- Node1&#45;&gt;Node7 -->
<g id="edge9_Node000001_Node000007" class="edge">
<title>Node1&#45;&gt;Node7</title>
<g id="a_edge9_Node000001_Node000007"><a xlink:title=" ">
<path fill="none" stroke="#63b8ff" d="M628.14,-160.6C601.27,-140.94 557.87,-109.2 535.63,-92.93"/>
<polygon fill="#63b8ff" stroke="#63b8ff" points="625.87,-163.28 636.01,-166.36 630,-157.63 625.87,-163.28"/>
</a>
</g>
</g>
<!-- Node3 -->
<g id="Node000003" class="node">
<title>Node3</title>
<g id="a_Node000003"><a xlink:href="main_8c.html#a1a904050ef641d46ba74b91e8ff5b7f9" target="_top" xlink:title="Run the monitoring session for Patient 1 (deterioration scenario).">
<polygon fill="white" stroke="#666666" points="408.62,-187.6 325.88,-187.6 325.88,-167.6 408.62,-167.6 408.62,-187.6"/>
<text xml:space="preserve" text-anchor="middle" x="367.25" y="-174.1" font-family="Helvetica,sans-Serif" font-size="10.00">monitor_patient</text>
</a>
</g>
</g>
<!-- Node2&#45;&gt;Node3 -->
<g id="edge2_Node000002_Node000003" class="edge">
<title>Node2&#45;&gt;Node3</title>
<g id="a_edge2_Node000002_Node000003"><a xlink:title=" ">
<path fill="none" stroke="#63b8ff" d="M466.63,-202.31C447.75,-197.57 426.77,-192.3 409.06,-187.85"/>
<polygon fill="#63b8ff" stroke="#63b8ff" points="465.75,-205.7 476.3,-204.74 467.46,-198.91 465.75,-205.7"/>
</a>
</g>
</g>
<!-- Node5 -->
<g id="Node000005" class="node">
<title>Node5</title>
<g id="a_Node000005"><a xlink:href="main_8c.html#a418db4bf280a08fda4493a816c841643" target="_top" xlink:title="Run the monitoring session for Patient 2 (bradycardia scenario).">
<polygon fill="white" stroke="#666666" points="427,-225.6 307.5,-225.6 307.5,-205.6 427,-205.6 427,-225.6"/>
<text xml:space="preserve" text-anchor="middle" x="367.25" y="-212.1" font-family="Helvetica,sans-Serif" font-size="10.00">monitor_second_patient</text>
</a>
</g>
</g>
<!-- Node2&#45;&gt;Node5 -->
<g id="edge4_Node000002_Node000005" class="edge">
<title>Node2&#45;&gt;Node5</title>
<g id="a_edge4_Node000002_Node000005"><a xlink:title=" ">
<path fill="none" stroke="#63b8ff" d="M451.48,-215.6C443.42,-215.6 435.25,-215.6 427.34,-215.6"/>
<polygon fill="#63b8ff" stroke="#63b8ff" points="451.24,-219.1 461.24,-215.6 451.24,-212.1 451.24,-219.1"/>
</a>
</g>
</g>
<!-- Node4 -->
<g id="Node000004" class="node">
<title>Node4</title>
<g id="a_Node000004"><a xlink:href="main_8c.html#a840291bc02cba5474a4cb46a9b9566fe" target="_top" xlink:title="Application entry point.">
<polygon fill="white" stroke="#666666" points="247.88,-206.6 210.88,-206.6 210.88,-186.6 247.88,-186.6 247.88,-206.6"/>
<text xml:space="preserve" text-anchor="middle" x="229.38" y="-193.1" font-family="Helvetica,sans-Serif" font-size="10.00">main</text>
</a>
</g>
</g>
<!-- Node3&#45;&gt;Node4 -->
<g id="edge3_Node000003_Node000004" class="edge">
<title>Node3&#45;&gt;Node4</title>
<g id="a_edge3_Node000003_Node000004"><a xlink:title=" ">
<path fill="none" stroke="#63b8ff" d="M314.28,-184.86C290.92,-188.13 264.89,-191.77 248.11,-194.12"/>
<polygon fill="#63b8ff" stroke="#63b8ff" points="314.57,-188.36 323.98,-183.51 313.6,-181.43 314.57,-188.36"/>
</a>
</g>
</g>
<!-- Node5&#45;&gt;Node4 -->
<g id="edge5_Node000005_Node000004" class="edge">
<title>Node5&#45;&gt;Node4</title>
<g id="a_edge5_Node000005_Node000004"><a xlink:title=" ">
<path fill="none" stroke="#63b8ff" d="M295.75,-205.74C278.06,-203.27 260.61,-200.83 248.19,-199.09"/>
<polygon fill="#63b8ff" stroke="#63b8ff" points="295.16,-209.19 305.55,-207.11 296.13,-202.26 295.16,-209.19"/>
</a>
</g>
</g>
<!-- Node6&#45;&gt;Node3 -->
<g id="edge7_Node000006_Node000003" class="edge">
<title>Node6&#45;&gt;Node3</title>
<g id="a_edge7_Node000006_Node000003"><a xlink:title=" ">
<path fill="none" stroke="#63b8ff" d="M473.13,-177.6C452.66,-177.6 428.81,-177.6 409.03,-177.6"/>
<polygon fill="#63b8ff" stroke="#63b8ff" points="472.91,-181.1 482.91,-177.6 472.91,-174.1 472.91,-181.1"/>
</a>
</g>
</g>
<!-- Node6&#45;&gt;Node5 -->
<g id="edge8_Node000006_Node000005" class="edge">
<title>Node6&#45;&gt;Node5</title>
<g id="a_edge8_Node000006_Node000005"><a xlink:title=" ">
<path fill="none" stroke="#63b8ff" d="M473.27,-189.21C453.05,-194.29 429.51,-200.2 409.85,-205.14"/>
<polygon fill="#63b8ff" stroke="#63b8ff" points="474.11,-192.61 482.95,-186.78 472.4,-185.82 474.11,-192.61"/>
</a>
</g>
</g>
<!-- Node8 -->
<g id="Node000008" class="node">
<title>Node8</title>
<g id="a_Node000008"><a xlink:href="gui__main_8c.html#a50c9496063704973573429586a90b27d" target="_top" xlink:title=" ">
<polygon fill="white" stroke="#666666" points="151.25,-73.6 90.25,-73.6 90.25,-53.6 151.25,-53.6 151.25,-73.6"/>
<text xml:space="preserve" text-anchor="middle" x="120.75" y="-60.1" font-family="Helvetica,sans-Serif" font-size="10.00">dash_proc</text>
</a>
</g>
</g>
<!-- Node7&#45;&gt;Node8 -->
<g id="edge10_Node000007_Node000008" class="edge">
<title>Node7&#45;&gt;Node8</title>
<g id="a_edge10_Node000007_Node000008"><a xlink:title=" ">
<path fill="none" stroke="#63b8ff" d="M498.38,-65.09C480.53,-51.33 453.68,-32.99 427,-23.6 361.42,-0.52 340.92,-10.38 271.5,-6.6 234.11,-4.56 222.32,6.53 187.25,-6.6 162.4,-15.9 140.76,-39.35 129.66,-53.1"/>
<polygon fill="#63b8ff" stroke="#63b8ff" points="496.12,-67.76 506.12,-71.23 500.47,-62.28 496.12,-67.76"/>
</a>
</g>
</g>
<!-- Node10 -->
<g id="Node000010" class="node">
<title>Node10</title>
<g id="a_Node000010"><a xlink:href="gui__main_8c.html#a9d7273263f3a31bf701590beb4c5b1d1" target="_top" xlink:title="Record a new vital signs reading from the vitals entry fields. @req SWR&#45;GUI&#45;004.">
<polygon fill="white" stroke="#666666" points="271.5,-35.6 187.25,-35.6 187.25,-15.6 271.5,-15.6 271.5,-35.6"/>
<text xml:space="preserve" text-anchor="middle" x="229.38" y="-22.1" font-family="Helvetica,sans-Serif" font-size="10.00">do_add_reading</text>
</a>
</g>
</g>
<!-- Node7&#45;&gt;Node10 -->
<g id="edge12_Node000007_Node000010" class="edge">
<title>Node7&#45;&gt;Node10</title>
<g id="a_edge12_Node000007_Node000010"><a xlink:title=" ">
<path fill="none" stroke="#63b8ff" d="M488.89,-67.36C471.23,-59.25 448.35,-49.89 427,-44.6 374.41,-31.56 311.83,-27.37 271.64,-26.08"/>
<polygon fill="#63b8ff" stroke="#63b8ff" points="487.24,-70.45 497.78,-71.55 490.23,-64.12 487.24,-70.45"/>
</a>
</g>
</g>
<!-- Node11 -->
<g id="Node000011" class="node">
<title>Node11</title>
<g id="a_Node000011"><a xlink:href="gui__main_8c.html#a6bed6b36812029c7bc2eb263a12e5c98" target="_top" xlink:title="Admit a patient from the identity fields. @req SWR&#45;GUI&#45;004.">
<polygon fill="white" stroke="#666666" points="395.12,-73.6 339.38,-73.6 339.38,-53.6 395.12,-53.6 395.12,-73.6"/>
<text xml:space="preserve" text-anchor="middle" x="367.25" y="-60.1" font-family="Helvetica,sans-Serif" font-size="10.00">do_admit</text>
</a>
</g>
</g>
<!-- Node7&#45;&gt;Node11 -->
<g id="edge14_Node000007_Node000011" class="edge">
<title>Node7&#45;&gt;Node11</title>
<g id="a_edge14_Node000007_Node000011"><a xlink:title=" ">
<path fill="none" stroke="#63b8ff" d="M461.22,-75.28C438.57,-72.43 413.72,-69.31 395.42,-67.01"/>
<polygon fill="#63b8ff" stroke="#63b8ff" points="460.61,-78.73 470.97,-76.5 461.49,-71.78 460.61,-78.73"/>
</a>
</g>
</g>
<!-- Node12 -->
<g id="Node000012" class="node">
<title>Node12</title>
<g id="a_Node000012"><a xlink:href="gui__main_8c.html#a9106ea80981b1db52b607a5e58f0ecf3" target="_top" xlink:title=" ">
<polygon fill="white" stroke="#666666" points="263.62,-111.6 195.12,-111.6 195.12,-91.6 263.62,-91.6 263.62,-111.6"/>
<text xml:space="preserve" text-anchor="middle" x="229.38" y="-98.1" font-family="Helvetica,sans-Serif" font-size="10.00">do_scenario</text>
</a>
</g>
</g>
<!-- Node7&#45;&gt;Node12 -->
<g id="edge21_Node000007_Node000012" class="edge">
<title>Node7&#45;&gt;Node12</title>
<g id="a_edge21_Node000007_Node000012"><a xlink:title=" ">
<path fill="none" stroke="#63b8ff" d="M460.98,-86.44C401.71,-90.34 312.11,-96.23 263.91,-99.39"/>
<polygon fill="#63b8ff" stroke="#63b8ff" points="461.14,-89.94 470.89,-85.79 460.69,-82.95 461.14,-89.94"/>
</a>
</g>
</g>
<!-- Node13 -->
<g id="Node000013" class="node">
<title>Node13</title>
<g id="a_Node000013"><a xlink:href="gui__main_8c.html#a11329148e25059d43a9d848bf4f90d4b" target="_top" xlink:title=" ">
<polygon fill="white" stroke="#666666" points="255.75,-149.6 203,-149.6 203,-129.6 255.75,-129.6 255.75,-149.6"/>
<text xml:space="preserve" text-anchor="middle" x="229.38" y="-136.1" font-family="Helvetica,sans-Serif" font-size="10.00">do_clear</text>
</a>
</g>
</g>
<!-- Node7&#45;&gt;Node13 -->
<g id="edge19_Node000007_Node000013" class="edge">
<title>Node7&#45;&gt;Node13</title>
<g id="a_edge19_Node000007_Node000013"><a xlink:title=" ">
<path fill="none" stroke="#63b8ff" d="M471.28,-95.96C457.08,-99.66 441.47,-103.51 427,-106.6 366.07,-119.59 293.61,-130.63 255.96,-136.03"/>
<polygon fill="#63b8ff" stroke="#63b8ff" points="472.09,-99.37 480.86,-93.42 470.29,-92.6 472.09,-99.37"/>
</a>
</g>
</g>
<!-- Node9 -->
<g id="Node000009" class="node">
<title>Node9</title>
<g id="a_Node000009"><a xlink:href="gui__main_8c.html#aab234127c99873cb463e482155cb679f" target="_top" xlink:title=" ">
<polygon fill="white" stroke="#666666" points="54.25,-73.6 0,-73.6 0,-53.6 54.25,-53.6 54.25,-73.6"/>
<text xml:space="preserve" text-anchor="middle" x="27.12" y="-60.1" font-family="Helvetica,sans-Serif" font-size="10.00">WinMain</text>
</a>
</g>
</g>
<!-- Node8&#45;&gt;Node9 -->
<g id="edge11_Node000008_Node000009" class="edge">
<title>Node8&#45;&gt;Node9</title>
<g id="a_edge11_Node000008_Node000009"><a xlink:title=" ">
<path fill="none" stroke="#63b8ff" d="M78.7,-63.6C70.53,-63.6 62.16,-63.6 54.63,-63.6"/>
<polygon fill="#63b8ff" stroke="#63b8ff" points="78.49,-67.1 88.49,-63.6 78.49,-60.1 78.49,-67.1"/>
</a>
</g>
</g>
<!-- Node10&#45;&gt;Node8 -->
<g id="edge13_Node000010_Node000008" class="edge">
<title>Node10&#45;&gt;Node8</title>
<g id="a_edge13_Node000010_Node000008"><a xlink:title=" ">
<path fill="none" stroke="#63b8ff" d="M188.41,-39.84C176.02,-44.26 162.6,-49.04 151.07,-53.15"/>
<polygon fill="#63b8ff" stroke="#63b8ff" points="189.29,-43.24 197.53,-36.59 186.94,-36.65 189.29,-43.24"/>
</a>
</g>
</g>
<!-- Node11&#45;&gt;Node8 -->
<g id="edge15_Node000011_Node000008" class="edge">
<title>Node11&#45;&gt;Node8</title>
<g id="a_edge15_Node000011_Node000008"><a xlink:title=" ">
<path fill="none" stroke="#63b8ff" d="M327.83,-63.6C279.05,-63.6 195.94,-63.6 151.64,-63.6"/>
<polygon fill="#63b8ff" stroke="#63b8ff" points="327.64,-67.1 337.64,-63.6 327.64,-60.1 327.64,-67.1"/>
</a>
</g>
</g>
<!-- Node11&#45;&gt;Node10 -->
<g id="edge16_Node000011_Node000010" class="edge">
<title>Node11&#45;&gt;Node10</title>
<g id="a_edge16_Node000011_Node000010"><a xlink:title=" ">
<path fill="none" stroke="#63b8ff" d="M328.18,-52.95C309.3,-47.67 286.58,-41.32 267.79,-36.06"/>
<polygon fill="#63b8ff" stroke="#63b8ff" points="327.05,-56.27 337.62,-55.59 328.93,-49.53 327.05,-56.27"/>
</a>
</g>
</g>
<!-- Node11&#45;&gt;Node12 -->
<g id="edge17_Node000011_Node000012" class="edge">
<title>Node11&#45;&gt;Node12</title>
<g id="a_edge17_Node000011_Node000012"><a xlink:title=" ">
<path fill="none" stroke="#63b8ff" d="M328.05,-74.28C307.82,-79.94 283.21,-86.82 263.75,-92.26"/>
<polygon fill="#63b8ff" stroke="#63b8ff" points="328.93,-77.67 337.62,-71.6 327.05,-70.93 328.93,-77.67"/>
</a>
</g>
</g>
<!-- Node12&#45;&gt;Node8 -->
<g id="edge18_Node000012_Node000008" class="edge">
<title>Node12&#45;&gt;Node8</title>
<g id="a_edge18_Node000012_Node000008"><a xlink:title=" ">
<path fill="none" stroke="#63b8ff" d="M188.41,-87.35C176.02,-82.94 162.6,-78.16 151.07,-74.05"/>
<polygon fill="#63b8ff" stroke="#63b8ff" points="186.94,-90.54 197.53,-90.6 189.29,-83.95 186.94,-90.54"/>
</a>
</g>
</g>
<!-- Node13&#45;&gt;Node8 -->
<g id="edge20_Node000013_Node000008" class="edge">
<title>Node13&#45;&gt;Node8</title>
<g id="a_edge20_Node000013_Node000008"><a xlink:title=" ">
<path fill="none" stroke="#63b8ff" d="M192.96,-124.05C191,-122.94 189.08,-121.78 187.25,-120.6 165.74,-106.67 143.91,-86.11 131.68,-73.86"/>
<polygon fill="#63b8ff" stroke="#63b8ff" points="191.15,-127.05 201.64,-128.54 194.37,-120.83 191.15,-127.05"/>
</a>
</g>
</g>
</g>
</svg>

<g id="navigator" transform="translate(0 0)" fill="#404254">
  <rect fill="#f2f5e9" fill-opacity="0.5" stroke="#606060" stroke-width=".5" x="0" y="0" width="60" height="60"/>
  <use id="zoomplus" xlink:href="#zoomPlus" x="17" y="9" onmousedown="handleZoom(evt,'in')"/>
  <use id="zoomminus" xlink:href="#zoomMin" x="42" y="9" onmousedown="handleZoom(evt,'out')"/>
  <use id="reset" xlink:href="#resetDef" x="30" y="36" onmousedown="handleReset()"/>
   <use id="arrowup" xlink:href="#arrowUp" x="0" y="0" onmousedown="handlePan(0,-1)"/>
  <use id="arrowright" xlink:href="#arrowRight" x="0" y="0" onmousedown="handlePan(1,0)"/>
  <use id="arrowdown" xlink:href="#arrowDown" x="0" y="0" onmousedown="handlePan(0,1)"/>
  <use id="arrowleft" xlink:href="#arrowLeft" x="0" y="0" onmousedown="handlePan(-1,0)"/>
</g>
<svg viewBox="0 0 15 15" width="100%" height="30px" preserveAspectRatio="xMaxYMin meet">
 <g id="arrow_out" transform="scale(0.3 0.3)">
  <a xlink:href="vitals_8c_a20a209843ea1eeff8484a7998d492615_icgraph_org.svg" target="_base">
   <rect id="button" ry="5" rx="5" y="6" x="6" height="38" width="38"
        fill="#f2f5e9" fill-opacity="0.5" stroke="#606060" stroke-width="1.0"/>
   <path id="arrow"
     d="M 11.500037,31.436501 C 11.940474,20.09759 22.043105,11.32322 32.158766,21.979434 L 37.068811,17.246167 C 37.068811,17.246167 37.088388,32 37.088388,32 L 22.160133,31.978069 C 22.160133,31.978069 26.997745,27.140456 26.997745,27.140456 C 18.528582,18.264221 13.291696,25.230495 11.500037,31.436501 z"
     style="fill:#404040;"/>
  </a>
 </g>
</svg>

<style type='text/css'>
<![CDATA[
[data-mouse-over-selected='false'] { opacity: 0.7; }
[data-mouse-over-selected='true']  { opacity: 1.0; }
]]>
</style>
<script type="application/ecmascript"><![CDATA[
document.addEventListener('DOMContentLoaded', (event) => {
  highlightEdges();
  highlightAdjacentNodes();
});
]]></script>
</svg>
